<?xml version='1.0' encoding='utf-8'?>
<svg xmlns:xlink="http://www.w3.org/1999/xlink" xmlns="http://www.w3.org/2000/svg" id="chart-817085d7-37d0-4e6c-ad20-6e74524c9b0c" class="pygal-chart" viewBox="0 0 800 600"><!--Generated with pygal 2.4.0 (lxml) ©Kozea 2012-2016 on 2017-07-18--><!--http://pygal.org--><!--http://github.com/Kozea/pygal--><defs><style type="text/css">#chart-817085d7-37d0-4e6c-ad20-6e74524c9b0c{-webkit-user-select:none;-webkit-font-smoothing:antialiased;font-family:Consolas,"Liberation Mono",Menlo,Courier,monospace}#chart-817085d7-37d0-4e6c-ad20-6e74524c9b0c .title{font-family:Consolas,"Liberation Mono",Menlo,Courier,monospace;font-size:16px}#chart-817085d7-37d0-4e6c-ad20-6e74524c9b0c .legends .legend text{font-family:Consolas,"Liberation Mono",Menlo,Courier,monospace;font-size:14px}#chart-817085d7-37d0-4e6c-ad20-6e74524c9b0c .axis text{font-family:Consolas,"Liberation Mono",Menlo,Courier,monospace;font-size:10px}#chart-817085d7-37d0-4e6c-ad20-6e74524c9b0c .axis text.major{font-family:Consolas,"Liberation Mono",Menlo,Courier,monospace;font-size:10px}#chart-817085d7-37d0-4e6c-ad20-6e74524c9b0c .text-overlay text.value{font-family:Consolas,"Liberation Mono",Menlo,Courier,monospace;font-size:16px}#chart-817085d7-37d0-4e6c-ad20-6e74524c9b0c .text-overlay text.label{font-family:Consolas,"Liberation Mono",Menlo,Courier,monospace;font-size:10px}#chart-817085d7-37d0-4e6c-ad20-6e74524c9b0c .tooltip{font-family:Consolas,"Liberation Mono",Menlo,Courier,monospace;font-size:14px}#chart-817085d7-37d0-4e6c-ad20-6e74524c9b0c text.no_data{font-family:Consolas,"Liberation Mono",Menlo,Courier,monospace;font-size:64px}
#chart-817085d7-37d0-4e6c-ad20-6e74524c9b0c{background-color:rgba(249,249,249,1)}#chart-817085d7-37d0-4e6c-ad20-6e74524c9b0c path,#chart-817085d7-37d0-4e6c-ad20-6e74524c9b0c line,#chart-817085d7-37d0-4e6c-ad20-6e74524c9b0c rect,#chart-817085d7-37d0-4e6c-ad20-6e74524c9b0c circle{-webkit-transition:150ms;-moz-transition:150ms;transition:150ms}#chart-817085d7-37d0-4e6c-ad20-6e74524c9b0c .graph &gt; .background{fill:rgba(249,249,249,1)}#chart-817085d7-37d0-4e6c-ad20-6e74524c9b0c .plot &gt; .background{fill:rgba(255,255,255,1)}#chart-817085d7-37d0-4e6c-ad20-6e74524c9b0c .graph{fill:rgba(0,0,0,.87)}#chart-817085d7-37d0-4e6c-ad20-6e74524c9b0c text.no_data{fill:rgba(0,0,0,1)}#chart-817085d7-37d0-4e6c-ad20-6e74524c9b0c .title{fill:rgba(0,0,0,1)}#chart-817085d7-37d0-4e6c-ad20-6e74524c9b0c .legends .legend text{fill:rgba(0,0,0,.87)}#chart-817085d7-37d0-4e6c-ad20-6e74524c9b0c .legends .legend:hover text{fill:rgba(0,0,0,1)}#chart-817085d7-37d0-4e6c-ad20-6e74524c9b0c .axis .line{stroke:rgba(0,0,0,1)}#chart-817085d7-37d0-4e6c-ad20-6e74524c9b0c .axis .guide.line{stroke:rgba(0,0,0,.54)}#chart-817085d7-37d0-4e6c-ad20-6e74524c9b0c .axis .major.line{stroke:rgba(0,0,0,.87)}#chart-817085d7-37d0-4e6c-ad20-6e74524c9b0c .axis text.major{fill:rgba(0,0,0,1)}#chart-817085d7-37d0-4e6c-ad20-6e74524c9b0c .axis.y .guides:hover .guide.line,#chart-817085d7-37d0-4e6c-ad20-6e74524c9b0c .line-graph .axis.x .guides:hover .guide.line,#chart-817085d7-37d0-4e6c-ad20-6e74524c9b0c .stackedline-graph .axis.x .guides:hover .guide.line,#chart-817085d7-37d0-4e6c-ad20-6e74524c9b0c .xy-graph .axis.x .guides:hover .guide.line{stroke:rgba(0,0,0,1)}#chart-817085d7-37d0-4e6c-ad20-6e74524c9b0c .axis .guides:hover text{fill:rgba(0,0,0,1)}#chart-817085d7-37d0-4e6c-ad20-6e74524c9b0c .reactive{fill-opacity:.7;stroke-opacity:.8}#chart-817085d7-37d0-4e6c-ad20-6e74524c9b0c .ci{stroke:rgba(0,0,0,.87)}#chart-817085d7-37d0-4e6c-ad20-6e74524c9b0c .reactive.active,#chart-817085d7-37d0-4e6c-ad20-6e74524c9b0c .active .reactive{fill-opacity:.8;stroke-opacity:.9;stroke-width:4}#chart-817085d7-37d0-4e6c-ad20-6e74524c9b0c .ci .reactive.active{stroke-width:1.5}#chart-817085d7-37d0-4e6c-ad20-6e74524c9b0c .series text{fill:rgba(0,0,0,1)}#chart-817085d7-37d0-4e6c-ad20-6e74524c9b0c .tooltip rect{fill:rgba(255,255,255,1);stroke:rgba(0,0,0,1);-webkit-transition:opacity 150ms;-moz-transition:opacity 150ms;transition:opacity 150ms}#chart-817085d7-37d0-4e6c-ad20-6e74524c9b0c .tooltip .label{fill:rgba(0,0,0,.87)}#chart-817085d7-37d0-4e6c-ad20-6e74524c9b0c .tooltip .label{fill:rgba(0,0,0,.87)}#chart-817085d7-37d0-4e6c-ad20-6e74524c9b0c .tooltip .legend{font-size:.8em;fill:rgba(0,0,0,.54)}#chart-817085d7-37d0-4e6c-ad20-6e74524c9b0c .tooltip .x_label{font-size:.6em;fill:rgba(0,0,0,1)}#chart-817085d7-37d0-4e6c-ad20-6e74524c9b0c .tooltip .xlink{font-size:.5em;text-decoration:underline}#chart-817085d7-37d0-4e6c-ad20-6e74524c9b0c .tooltip .value{font-size:1.5em}#chart-817085d7-37d0-4e6c-ad20-6e74524c9b0c .bound{font-size:.5em}#chart-817085d7-37d0-4e6c-ad20-6e74524c9b0c .max-value{font-size:.75em;fill:rgba(0,0,0,.54)}#chart-817085d7-37d0-4e6c-ad20-6e74524c9b0c .map-element{fill:rgba(255,255,255,1);stroke:rgba(0,0,0,.54) !important}#chart-817085d7-37d0-4e6c-ad20-6e74524c9b0c .map-element .reactive{fill-opacity:inherit;stroke-opacity:inherit}#chart-817085d7-37d0-4e6c-ad20-6e74524c9b0c .color-0,#chart-817085d7-37d0-4e6c-ad20-6e74524c9b0c .color-0 a:visited{stroke:#F44336;fill:#F44336}#chart-817085d7-37d0-4e6c-ad20-6e74524c9b0c .text-overlay .color-0 text{fill:black}
#chart-817085d7-37d0-4e6c-ad20-6e74524c9b0c text.no_data{text-anchor:middle}#chart-817085d7-37d0-4e6c-ad20-6e74524c9b0c .guide.line{fill:none}#chart-817085d7-37d0-4e6c-ad20-6e74524c9b0c .centered{text-anchor:middle}#chart-817085d7-37d0-4e6c-ad20-6e74524c9b0c .title{text-anchor:middle}#chart-817085d7-37d0-4e6c-ad20-6e74524c9b0c .legends .legend text{fill-opacity:1}#chart-817085d7-37d0-4e6c-ad20-6e74524c9b0c .axis.x text{text-anchor:middle}#chart-817085d7-37d0-4e6c-ad20-6e74524c9b0c .axis.x:not(.web) text[transform]{text-anchor:start}#chart-817085d7-37d0-4e6c-ad20-6e74524c9b0c .axis.x:not(.web) text[transform].backwards{text-anchor:end}#chart-817085d7-37d0-4e6c-ad20-6e74524c9b0c .axis.y text{text-anchor:end}#chart-817085d7-37d0-4e6c-ad20-6e74524c9b0c .axis.y text[transform].backwards{text-anchor:start}#chart-817085d7-37d0-4e6c-ad20-6e74524c9b0c .axis.y2 text{text-anchor:start}#chart-817085d7-37d0-4e6c-ad20-6e74524c9b0c .axis.y2 text[transform].backwards{text-anchor:end}#chart-817085d7-37d0-4e6c-ad20-6e74524c9b0c .axis .guide.line{stroke-dasharray:4,4}#chart-817085d7-37d0-4e6c-ad20-6e74524c9b0c .axis .major.guide.line{stroke-dasharray:6,6}#chart-817085d7-37d0-4e6c-ad20-6e74524c9b0c .horizontal .axis.y .guide.line,#chart-817085d7-37d0-4e6c-ad20-6e74524c9b0c .horizontal .axis.y2 .guide.line,#chart-817085d7-37d0-4e6c-ad20-6e74524c9b0c .vertical .axis.x .guide.line{opacity:0}#chart-817085d7-37d0-4e6c-ad20-6e74524c9b0c .horizontal .axis.always_show .guide.line,#chart-817085d7-37d0-4e6c-ad20-6e74524c9b0c .vertical .axis.always_show .guide.line{opacity:1 !important}#chart-817085d7-37d0-4e6c-ad20-6e74524c9b0c .axis.y .guides:hover .guide.line,#chart-817085d7-37d0-4e6c-ad20-6e74524c9b0c .axis.y2 .guides:hover .guide.line,#chart-817085d7-37d0-4e6c-ad20-6e74524c9b0c .axis.x .guides:hover .guide.line{opacity:1}#chart-817085d7-37d0-4e6c-ad20-6e74524c9b0c .axis .guides:hover text{opacity:1}#chart-817085d7-37d0-4e6c-ad20-6e74524c9b0c .nofill{fill:none}#chart-817085d7-37d0-4e6c-ad20-6e74524c9b0c .subtle-fill{fill-opacity:.2}#chart-817085d7-37d0-4e6c-ad20-6e74524c9b0c .dot{stroke-width:1px;fill-opacity:1}#chart-817085d7-37d0-4e6c-ad20-6e74524c9b0c .dot.active{stroke-width:5px}#chart-817085d7-37d0-4e6c-ad20-6e74524c9b0c .dot.negative{fill:transparent}#chart-817085d7-37d0-4e6c-ad20-6e74524c9b0c text,#chart-817085d7-37d0-4e6c-ad20-6e74524c9b0c tspan{stroke:none !important}#chart-817085d7-37d0-4e6c-ad20-6e74524c9b0c .series text.active{opacity:1}#chart-817085d7-37d0-4e6c-ad20-6e74524c9b0c .tooltip rect{fill-opacity:.95;stroke-width:.5}#chart-817085d7-37d0-4e6c-ad20-6e74524c9b0c .tooltip text{fill-opacity:1}#chart-817085d7-37d0-4e6c-ad20-6e74524c9b0c .showable{visibility:hidden}#chart-817085d7-37d0-4e6c-ad20-6e74524c9b0c .showable.shown{visibility:visible}#chart-817085d7-37d0-4e6c-ad20-6e74524c9b0c .gauge-background{fill:rgba(229,229,229,1);stroke:none}#chart-817085d7-37d0-4e6c-ad20-6e74524c9b0c .bg-lines{stroke:rgba(249,249,249,1);stroke-width:2px}</style><script type="text/javascript">window.pygal = window.pygal || {};window.pygal.config = window.pygal.config || {};window.pygal.config['817085d7-37d0-4e6c-ad20-6e74524c9b0c'] = {"allow_interruptions": false, "box_mode": "extremes", "classes": ["pygal-chart"], "css": ["file://style.css", "file://graph.css"], "defs": [], "disable_xml_declaration": false, "dots_size": 2.5, "dynamic_print_values": false, "explicit_size": false, "fill": false, "force_uri_protocol": "https", "formatter": null, "half_pie": false, "height": 600, "include_x_axis": false, "inner_radius": 0, "interpolate": null, "interpolation_parameters": {}, "interpolation_precision": 250, "inverse_y_axis": false, "js": ["//kozea.github.io/pygal.js/2.0.x/pygal-tooltips.min.js"], "legend_at_bottom": false, "legend_at_bottom_columns": null, "legend_box_size": 12, "logarithmic": false, "margin": 20, "margin_bottom": null, "margin_left": null, "margin_right": null, "margin_top": null, "max_scale": 16, "min_scale": 4, "missing_value_fill_truncation": "x", "no_data_text": "No data", "no_prefix": false, "order_min": null, "pretty_print": false, "print_labels": false, "print_values": false, "print_values_position": "center", "print_zeroes": true, "range": null, "rounded_bars": null, "secondary_range": null, "show_dots": true, "show_legend": true, "show_minor_x_labels": true, "show_minor_y_labels": true, "show_only_major_dots": false, "show_x_guides": false, "show_x_labels": true, "show_y_guides": true, "show_y_labels": true, "spacing": 10, "stack_from_top": false, "strict": false, "stroke": true, "stroke_style": null, "style": {"background": "rgba(249, 249, 249, 1)", "ci_colors": [], "colors": ["#F44336", "#3F51B5", "#009688", "#FFC107", "#FF5722", "#9C27B0", "#03A9F4", "#8BC34A", "#FF9800", "#E91E63", "#2196F3", "#4CAF50", "#FFEB3B", "#673AB7", "#00BCD4", "#CDDC39", "#9E9E9E", "#607D8B"], "font_family": "Consolas, \"Liberation Mono\", Menlo, Courier, monospace", "foreground": "rgba(0, 0, 0, .87)", "foreground_strong": "rgba(0, 0, 0, 1)", "foreground_subtle": "rgba(0, 0, 0, .54)", "guide_stroke_dasharray": "4,4", "label_font_family": "Consolas, \"Liberation Mono\", Menlo, Courier, monospace", "label_font_size": 10, "legend_font_family": "Consolas, \"Liberation Mono\", Menlo, Courier, monospace", "legend_font_size": 14, "major_guide_stroke_dasharray": "6,6", "major_label_font_family": "Consolas, \"Liberation Mono\", Menlo, Courier, monospace", "major_label_font_size": 10, "no_data_font_family": "Consolas, \"Liberation Mono\", Menlo, Courier, monospace", "no_data_font_size": 64, "opacity": ".7", "opacity_hover": ".8", "plot_background": "rgba(255, 255, 255, 1)", "stroke_opacity": ".8", "stroke_opacity_hover": ".9", "title_font_family": "Consolas, \"Liberation Mono\", Menlo, Courier, monospace", "title_font_size": 16, "tooltip_font_family": "Consolas, \"Liberation Mono\", Menlo, Courier, monospace", "tooltip_font_size": 14, "transition": "150ms", "value_background": "rgba(229, 229, 229, 1)", "value_colors": [], "value_font_family": "Consolas, \"Liberation Mono\", Menlo, Courier, monospace", "value_font_size": 16, "value_label_font_family": "Consolas, \"Liberation Mono\", Menlo, Courier, monospace", "value_label_font_size": 10}, "title": "Daily Wind bearing", "tooltip_border_radius": 0, "tooltip_fancy_mode": true, "truncate_label": null, "truncate_legend": null, "width": 800, "x_label_rotation": 0, "x_labels": ["20", "21", "22", "23", "00", "01", "02", "03", "04", "05", "06", "07", "08", "09", "10", "11", "12", "13", "14", "15", "16", "17", "18", "19", "20", "21", "22", "23", "00", "01", "02", "03", "04", "05", "06", "07", "08", "09", "10", "11", "12", "13", "14", "15", "16", "17", "18", "19", "20"], "x_labels_major": null, "x_labels_major_count": null, "x_labels_major_every": null, "x_title": null, "xrange": null, "y_label_rotation": 0, "y_labels": null, "y_labels_major": null, "y_labels_major_count": null, "y_labels_major_every": null, "y_title": null, "zero": 0, "legends": ["Wind direction"]}</script><script type="text/javascript" xlink:href="https://kozea.github.io/pygal.js/2.0.x/pygal-tooltips.min.js"/></defs><title>Daily Wind bearing</title><g class="graph radar-graph vertical"><rect class="background" height="600" width="800" x="0" y="0"/><g class="plot" transform="translate(187, 46)"><rect class="background" height="514" width="592.4" x="0" y="0"/><g class="axis y web"><g class="guides"><path class="guide line" d="M296.200000 28.326882 L262.497662 30.204286 229.348715 35.805668 197.297465 45.039055 166.870191 57.752836 138.566510 73.738249 112.851165 92.732815 90.146404 114.424643 70.825037 138.457555 55.204321 164.436931 43.540747 191.936190 36.025831 220.503794 32.782968 249.670666 33.865405 278.957885 39.255369 307.884556 48.864356 335.975704 62.534588 362.770073 80.041600 387.827700 101.097927 410.737141 125.357824 431.122221 152.422945 448.648220 181.848881 463.027360 213.152460 474.023536 245.819677 481.456193 279.314137 485.203284 313.085863 485.203284 346.580323 481.456193 379.247540 474.023536 410.551119 463.027360 439.977055 448.648220 467.042176 431.122221 491.302073 410.737141 512.358400 387.827700 529.865412 362.770073 543.535644 335.975704 553.144631 307.884556 558.534595 278.957885 559.617032 249.670666 556.374169 220.503794 548.859253 191.936190 537.195679 164.436931 521.574963 138.457555 502.253596 114.424643 479.548835 92.732815 453.833490 73.738249 425.529809 57.752836 395.102535 45.039055 363.051285 35.805668 329.902338 30.204286 296.200000 28.326882 Z"/><text class="" x="291.2" y="28.326882437993504">320</text><title>320</title></g><g class="guides"><path class="guide line" d="M296.200000 85.495162 L270.923246 86.903214 246.061536 91.104251 222.023099 98.029292 199.202643 107.564627 177.974882 119.553686 158.688374 133.799611 141.659803 150.068482 127.168778 168.093166 115.453241 187.577698 106.705560 208.202142 101.069373 229.627846 98.637226 251.502999 99.449054 273.468414 103.491526 295.163417 110.698267 316.231778 120.950941 336.327555 134.081200 355.120775 149.873445 372.302855 168.068368 387.591666 188.367209 400.736165 210.436661 411.520520 233.914345 419.767652 258.414758 425.342144 283.535603 428.152463 308.864397 428.152463 333.985242 425.342144 358.485655 419.767652 381.963339 411.520520 404.032791 400.736165 424.331632 387.591666 442.526555 372.302855 458.318800 355.120775 471.449059 336.327555 481.701733 316.231778 488.908474 295.163417 492.950946 273.468414 493.762774 251.502999 491.330627 229.627846 485.694440 208.202142 476.946759 187.577698 465.231222 168.093166 450.740197 150.068482 433.711626 133.799611 414.425118 119.553686 393.197357 107.564627 370.376901 98.029292 346.338464 91.104251 321.476754 86.903214 296.200000 85.495162 Z"/><text class="" x="291.2" y="85.4951618284951">240</text><title>240</title></g><g class="guides"><path class="guide line" d="M296.200000 142.663441 L279.348831 143.602143 262.774358 146.402834 246.748732 151.019528 231.535096 157.376418 217.383255 165.369124 204.525583 174.866407 193.173202 185.712322 183.512519 197.728778 175.702160 210.718465 169.870373 224.468095 166.112915 238.751897 164.491484 253.335333 165.032702 267.978942 167.727684 282.442278 172.532178 296.487852 179.367294 309.885036 188.120800 322.413850 198.648963 333.868570 210.778912 344.061111 224.311472 352.824110 239.024441 360.013680 254.676230 365.511768 271.009838 369.228096 287.757069 371.101642 304.642931 371.101642 321.390162 369.228096 337.723770 365.511768 353.375559 360.013680 368.088528 352.824110 381.621088 344.061111 393.751037 333.868570 404.279200 322.413850 413.032706 309.885036 419.867822 296.487852 424.672316 282.442278 427.367298 267.978942 427.908516 253.335333 426.287085 238.751897 422.529627 224.468095 416.697840 210.718465 408.887481 197.728778 399.226798 185.712322 387.874417 174.866407 375.016745 165.369124 360.864904 157.376418 345.651268 151.019528 329.625642 146.402834 313.051169 143.602143 296.200000 142.663441 Z"/><text class="" x="291.2" y="142.66344121899675">160</text><title>160</title></g><g class="guides"><path class="guide line" d="M296.200000 199.831721 L287.774415 200.301071 279.487179 201.701417 271.474366 204.009764 263.867548 207.188209 256.791627 211.184562 250.362791 215.933204 244.686601 221.356161 239.856259 227.364389 235.951080 233.859233 233.035187 240.734047 231.156458 247.875949 230.345742 255.167666 230.616351 262.489471 231.963842 269.721139 234.366089 276.743926 237.783647 283.442518 242.160400 289.706925 247.424482 295.434285 253.489456 300.530555 260.255736 304.912055 267.612220 308.506840 275.438115 311.255884 283.604919 313.114048 291.978534 314.050821 300.421466 314.050821 308.795081 313.114048 316.961885 311.255884 324.787780 308.506840 332.144264 304.912055 338.910544 300.530555 344.975518 295.434285 350.239600 289.706925 354.616353 283.442518 358.033911 276.743926 360.436158 269.721139 361.783649 262.489471 362.054258 255.167666 361.243542 247.875949 359.364813 240.734047 356.448920 233.859233 352.543741 227.364389 347.713399 221.356161 342.037209 215.933204 335.608373 211.184562 328.532452 207.188209 320.925634 204.009764 312.912821 201.701417 304.625585 200.301071 296.200000 199.831721 Z"/><text class="" x="291.2" y="199.8317206094984">80</text><title>80</title></g><g class="guides"><path class="major guide line" d="M296.200000 257.000000 L296.200000 257.000000 296.200000 257.000000 296.200000 257.000000 296.200000 257.000000 296.200000 257.000000 296.200000 257.000000 296.200000 257.000000 296.200000 257.000000 296.200000 257.000000 296.200000 257.000000 296.200000 257.000000 296.200000 257.000000 296.200000 257.000000 296.200000 257.000000 296.200000 257.000000 296.200000 257.000000 296.200000 257.000000 296.200000 257.000000 296.200000 257.000000 296.200000 257.000000 296.200000 257.000000 296.200000 257.000000 296.200000 257.000000 296.200000 257.000000 296.200000 257.000000 296.200000 257.000000 296.200000 257.000000 296.200000 257.000000 296.200000 257.000000 296.200000 257.000000 296.200000 257.000000 296.200000 257.000000 296.200000 257.000000 296.200000 257.000000 296.200000 257.000000 296.200000 257.000000 296.200000 257.000000 296.200000 257.000000 296.200000 257.000000 296.200000 257.000000 296.200000 257.000000 296.200000 257.000000 296.200000 257.000000 296.200000 257.000000 296.200000 257.000000 296.200000 257.000000 296.200000 257.000000 296.200000 257.000000 296.200000 257.000000 Z"/><text class="major" x="291.2" y="257.0">0</text><title>0</title></g></g><g class="axis x web"><g class="guides"><path class="line" d="M296.200000 257.000000 L296.200000 19.037037"/><text class="" x="296.2" y="5.139999999999986" transform="rotate(0.000000 296.200000 5.140000)">20</text><title>1.570796327</title></g><g class="guides"><path class="line" d="M296.200000 257.000000 L261.128504 20.990710"/><text class="" x="259.08032901486837" y="7.207767118477307" transform="rotate(-7.346939 259.080329 7.207767)">21</text><title>1.699024598</title></g><g class="guides"><path class="line" d="M296.200000 257.000000 L226.632882 26.819648"/><text class="" x="222.5701620010839" y="13.377115794990061" transform="rotate(-14.693878 222.570162 13.377116)">22</text><title>1.82725287</title></g><g class="guides"><path class="line" d="M296.200000 257.000000 L193.279549 36.428142"/><text class="" x="187.26899489163478" y="23.546745494830986" transform="rotate(-22.040816 187.268995 23.546745)">23</text><title>1.955481142</title></g><g class="guides"><path class="line" d="M296.200000 257.000000 L161.616168 49.658419"/><text class="" x="153.75647187450502" y="37.54967117948314" transform="rotate(-29.387755 153.756472 37.549671)">00</text><title>2.083709413</title></g><g class="guides"><path class="line" d="M296.200000 257.000000 L132.162649 66.293240"/><text class="" x="122.58286765113179" y="55.155965196336524" transform="rotate(-36.734694 122.582868 55.155965)">01</text><title>2.211937685</title></g><g class="guides"><path class="line" d="M296.200000 257.000000 L105.402619 86.059460"/><text class="" x="94.26005194102241" y="76.0765326843864" transform="rotate(-44.081633 94.260052 76.076533)">02</text><title>2.340165956</title></g><g class="guides"><path class="line" d="M296.200000 257.000000 L81.775477 108.632519"/><text class="" x="69.25308459511024" y="99.96785850385936" transform="rotate(-51.428571 69.253085 99.967859)">03</text><title>2.468394228</title></g><g class="guides"><path class="line" d="M296.200000 257.000000 L61.669179 133.641768"/><text class="" x="47.972579325860195" y="126.43764774531104" transform="rotate(-58.775510 47.972579 126.437648)">04</text><title>2.596622499</title></g><g class="guides"><path class="line" d="M296.200000 257.000000 L45.413871 160.676556"/><text class="" x="30.76796144146206" y="155.0512672011938" transform="rotate(-66.122449 30.767961 155.051267)">05</text><title>2.724850771</title></g><g class="guides"><path class="line" d="M296.200000 257.000000 L33.276465 189.292972"/><text class="" x="17.92173029193032" y="185.33888203110814" transform="rotate(-73.469388 17.921730 185.338882)">06</text><title>2.853079043</title></g><g class="guides"><path class="line" d="M296.200000 257.000000 L25.456255 219.021136"/><text class="" x="9.644820637587118" y="216.80317043689303" transform="rotate(-80.816327 9.644821 216.803170)">07</text><title>2.981307314</title></g><g class="guides"><path class="line" d="M296.200000 257.000000 L22.081651 249.372912"/><text class="" x="6.073139106129127" y="248.92748967280295" transform="rotate(-88.163265 6.073139 248.927490)">08</text><title>3.109535586</title></g><g class="guides"><path class="line" d="M296.200000 257.000000 L23.208062 279.849924"/><text class="" x="7.265332609558541" y="281.1843593051086" transform="rotate(-275.510204 7.265333 281.184359)">09</text><title>3.237763857</title></g><g class="guides"><path class="line" d="M296.200000 257.000000 L28.816993 309.951741"/><text class="" x="13.201825363508997" y="313.0441224262373" transform="rotate(-282.857143 13.201825 313.044122)">10</text><title>3.365992129</title></g><g class="guides"><path class="line" d="M296.200000 257.000000 L38.816346 339.184092"/><text class="" x="23.78514032108377" y="343.98364260655046" transform="rotate(-290.204082 23.785140 343.983643)">11</text><title>3.4942204</title></g><g class="guides"><path class="line" d="M296.200000 257.000000 L53.041931 367.066982"/><text class="" x="38.84149974327102" y="373.4948937800567" transform="rotate(-297.551020 38.841500 373.494894)">12</text><title>3.622448672</title></g><g class="guides"><path class="line" d="M296.200000 257.000000 L71.260165 393.142576"/><text class="" x="58.123678624614" y="401.0933020183695" transform="rotate(-304.897959 58.123679 401.093302)">13</text><title>3.750676944</title></g><g class="guides"><path class="line" d="M296.200000 257.000000 L93.171905 416.982712"/><text class="" x="81.31506412096566" y="426.3257022212151" transform="rotate(-312.244898 81.315064 426.325702)">14</text><title>3.878905215</title></g><g class="guides"><path class="line" d="M296.200000 257.000000 L118.417360 438.195936"/><text class="" x="108.03485432363624" y="448.77777907485006" transform="rotate(-319.591837 108.034854 448.777779)">15</text><title>4.007133487</title></g><g class="guides"><path class="line" d="M296.200000 257.000000 L146.582002 456.433929"/><text class="" x="137.84431101620666" y="468.08087009805894" transform="rotate(-326.938776 137.844311 468.080870)">16</text><title>4.135361758</title></g><g class="guides"><path class="line" d="M296.200000 257.000000 L177.203367 471.397221"/><text class="" x="170.25396374391167" y="483.91801906990327" transform="rotate(-334.285714 170.253964 483.918019)">17</text><title>4.26359003</title></g><g class="guides"><path class="line" d="M296.200000 257.000000 L209.778654 482.840118"/><text class="" x="204.7316469049753" y="496.0291804421069" transform="rotate(-341.632653 204.731647 496.029180)">18</text><title>4.391818301</title></g><g class="guides"><path class="line" d="M296.200000 257.000000 L243.772976 490.574725"/><text class="" x="240.7112378950804" y="504.21548927976966" transform="rotate(-348.979592 240.711238 504.215489)">19</text><title>4.520046573</title></g><g class="guides"><path class="line" d="M296.200000 257.000000 L278.628149 494.474043"/><text class="" x="277.6019528248786" y="508.3425266180997" transform="rotate(-356.326531 277.601953 508.342527)">20</text><title>4.648274845</title></g><g class="guides"><path class="line" d="M296.200000 257.000000 L313.771851 494.474043"/><text class="" x="314.79804717512127" y="508.3425266180997" transform="rotate(-363.673469 314.798047 508.342527)">21</text><title>4.776503116</title></g><g class="guides"><path class="line" d="M296.200000 257.000000 L348.627024 490.574725"/><text class="" x="351.68876210491925" y="504.21548927976977" transform="rotate(-371.020408 351.688762 504.215489)">22</text><title>4.904731388</title></g><g class="guides"><path class="line" d="M296.200000 257.000000 L382.621346 482.840118"/><text class="" x="387.6683530950244" y="496.0291804421071" transform="rotate(-378.367347 387.668353 496.029180)">23</text><title>5.032959659</title></g><g class="guides"><path class="line" d="M296.200000 257.000000 L415.196633 471.397221"/><text class="" x="422.1460362560882" y="483.91801906990327" transform="rotate(-385.714286 422.146036 483.918019)">00</text><title>5.161187931</title></g><g class="guides"><path class="line" d="M296.200000 257.000000 L445.817998 456.433929"/><text class="" x="454.55568898379306" y="468.0808700980591" transform="rotate(-393.061224 454.555689 468.080870)">01</text><title>5.289416202</title></g><g class="guides"><path class="line" d="M296.200000 257.000000 L473.982640 438.195936"/><text class="" x="484.3651456763635" y="448.77777907485023" transform="rotate(-400.408163 484.365146 448.777779)">02</text><title>5.417644474</title></g><g class="guides"><path class="line" d="M296.200000 257.000000 L499.228095 416.982712"/><text class="" x="511.0849358790342" y="426.32570222121524" transform="rotate(-407.755102 511.084936 426.325702)">03</text><title>5.545872746</title></g><g class="guides"><path class="line" d="M296.200000 257.000000 L521.139835 393.142576"/><text class="" x="534.2763213753858" y="401.09330201836974" transform="rotate(-415.102041 534.276321 401.093302)">04</text><title>5.674101017</title></g><g class="guides"><path class="line" d="M296.200000 257.000000 L539.358069 367.066982"/><text class="" x="553.5585002567288" y="373.4948937800568" transform="rotate(-422.448980 553.558500 373.494894)">05</text><title>5.802329289</title></g><g class="guides"><path class="line" d="M296.200000 257.000000 L553.583654 339.184092"/><text class="" x="568.6148596789162" y="343.9836426065507" transform="rotate(-429.795918 568.614860 343.983643)">06</text><title>5.93055756</title></g><g class="guides"><path class="line" d="M296.200000 257.000000 L563.583007 309.951741"/><text class="" x="579.198174636491" y="313.04412242623744" transform="rotate(-437.142857 579.198175 313.044122)">07</text><title>6.058785832</title></g><g class="guides"><path class="line" d="M296.200000 257.000000 L569.191938 279.849924"/><text class="" x="585.1346673904413" y="281.18435930510896" transform="rotate(-444.489796 585.134667 281.184359)">08</text><title>6.187014103</title></g><g class="guides"><path class="line" d="M296.200000 257.000000 L570.318349 249.372912"/><text class="" x="586.3268608938708" y="248.927489672803" transform="rotate(-271.836735 586.326861 248.927490)">09</text><title>6.315242375</title></g><g class="guides"><path class="line" d="M296.200000 257.000000 L566.943745 219.021136"/><text class="" x="582.7551793624128" y="216.80317043689337" transform="rotate(-279.183673 582.755179 216.803170)">10</text><title>6.443470647</title></g><g class="guides"><path class="line" d="M296.200000 257.000000 L559.123535 189.292972"/><text class="" x="574.4782697080697" y="185.3388820311083" transform="rotate(-286.530612 574.478270 185.338882)">11</text><title>6.571698918</title></g><g class="guides"><path class="line" d="M296.200000 257.000000 L546.986129 160.676556"/><text class="" x="561.6320385585379" y="155.05126720119415" transform="rotate(-293.877551 561.632039 155.051267)">12</text><title>6.69992719</title></g><g class="guides"><path class="line" d="M296.200000 257.000000 L530.730821 133.641768"/><text class="" x="544.4274206741399" y="126.43764774531132" transform="rotate(-301.224490 544.427421 126.437648)">13</text><title>6.828155461</title></g><g class="guides"><path class="line" d="M296.200000 257.000000 L510.624523 108.632519"/><text class="" x="523.1469154048899" y="99.96785850385947" transform="rotate(-308.571429 523.146915 99.967859)">14</text><title>6.956383733</title></g><g class="guides"><path class="line" d="M296.200000 257.000000 L486.997381 86.059460"/><text class="" x="498.1399480589777" y="76.07653268438645" transform="rotate(-315.918367 498.139948 76.076533)">15</text><title>7.084612005</title></g><g class="guides"><path class="line" d="M296.200000 257.000000 L460.237351 66.293240"/><text class="" x="469.81713234886826" y="55.155965196336524" transform="rotate(-323.265306 469.817132 55.155965)">16</text><title>7.212840276</title></g><g class="guides"><path class="line" d="M296.200000 257.000000 L430.783832 49.658419"/><text class="" x="438.64352812549527" y="37.54967117948331" transform="rotate(-330.612245 438.643528 37.549671)">17</text><title>7.341068548</title></g><g class="guides"><path class="line" d="M296.200000 257.000000 L399.120451 36.428142"/><text class="" x="405.13100510836534" y="23.5467454948311" transform="rotate(-337.959184 405.131005 23.546745)">18</text><title>7.469296819</title></g><g class="guides"><path class="line" d="M296.200000 257.000000 L365.767118 26.819648"/><text class="" x="369.8298379989165" y="13.377115794990118" transform="rotate(-345.306122 369.829838 13.377116)">19</text><title>7.597525091</title></g><g class="guides"><path class="line" d="M296.200000 257.000000 L331.271496 20.990710"/><text class="" x="333.31967098513184" y="7.207767118477307" transform="rotate(-352.653061 333.319671 7.207767)">20</text><title>7.725753362</title></g></g><g class="series serie-0 color-0"><path class="line reactive nofill" d="M296.200000 46.906573 L264.182779 41.544071 241.047690 74.514676 208.733070 69.547040 161.616168 49.658419 186.841766 129.862160 144.937211 121.479572 120.410526 135.365399 65.190663 135.493994 296.200000 257.000000 153.289610 220.198282 189.691200 242.059366 189.186831 254.022458 186.347388 266.194864 183.786724 279.261993 183.353113 293.032665 186.669338 306.579722 192.849265 319.551994 201.697433 331.466427 213.982203 340.796319 228.804505 346.835103 243.669955 351.643818 258.309560 356.016988 273.213978 359.408138 288.548593 360.404613 303.693102 358.265207 318.083953 354.498159 331.235681 348.556804 340.868406 337.479437 347.420576 325.274678 352.791471 314.677986 358.998480 306.484142 365.775985 299.110166 371.411054 291.044742 375.811160 282.420305 378.101101 273.219452 381.458743 264.136313 384.280070 254.549254 388.074003 244.112277 390.157660 232.804396 388.832714 221.421070 385.645688 209.953467 379.265356 199.524309 368.393604 192.319796 355.805164 187.704150 343.082056 184.772903 331.124958 182.151291 319.180129 180.964448 307.679859 179.747710 Z"/></g></g><g class="titles"><text class="title plot_title" x="400.0" y="26">Daily Wind bearing</text></g><g class="plot overlay" transform="translate(187, 46)"><g class="series serie-0 color-0"><g class="dots"><circle class="dot reactive tooltip-trigger" cx="296.2" cy="46.90657323990655" r="2.5"/><desc class="value">294</desc><desc class="x ">296.2</desc><desc class="y ">46.90657323990655</desc><desc class="x_label">20</desc></g><g class="dots"><circle class="dot reactive tooltip-trigger" cx="264.1827787552858" cy="41.544071293564116" r="2.5"/><desc class="value">304</desc><desc class="x ">264.1827787552858</desc><desc class="y ">41.544071293564116</desc><desc class="x_label">21</desc></g><g class="dots"><circle class="dot reactive tooltip-trigger" cx="241.04769000374" cy="74.51467615539963" r="2.5"/><desc class="value">264</desc><desc class="x ">241.04769000374</desc><desc class="y ">74.51467615539963</desc><desc class="x_label">22</desc></g><g class="dots"><circle class="dot reactive tooltip-trigger" cx="208.73307035587928" cy="69.54703959922841" r="2.5"/><desc class="value">283</desc><desc class="x ">208.73307035587928</desc><desc class="y ">69.54703959922841</desc><desc class="x_label">23</desc></g><g class="dots"><circle class="dot reactive tooltip-trigger" cx="161.61616768188304" cy="49.65841948174898" r="2.5"/><desc class="value">333</desc><desc class="x ">161.61616768188304</desc><desc class="y ">49.65841948174898</desc><desc class="x_label">00</desc></g><g class="dots"><circle class="dot reactive tooltip-trigger" cx="186.841765968211" cy="129.86215998761423" r="2.5"/><desc class="value">222</desc><desc class="x ">186.841765968211</desc><desc class="y ">129.86215998761423</desc><desc class="x_label">01</desc></g><g class="dots"><circle class="dot reactive tooltip-trigger" cx="144.9372114530344" cy="121.47957205697196" r="2.5"/><desc class="value">264</desc><desc class="x ">144.9372114530344</desc><desc class="y ">121.47957205697196</desc><desc class="x_label">02</desc></g><g class="dots"><circle class="dot reactive tooltip-trigger" cx="120.41052598648842" cy="135.36539876484647" r="2.5"/><desc class="value">273</desc><desc class="x ">120.41052598648842</desc><desc class="y ">135.36539876484647</desc><desc class="x_label">03</desc></g><g class="dots"><circle class="dot reactive tooltip-trigger" cx="65.19066305217386" cy="135.4939941655432" r="2.5"/><desc class="value">328</desc><desc class="x ">65.19066305217386</desc><desc class="y ">135.4939941655432</desc><desc class="x_label">04</desc></g><g class="dots"><circle class="dot reactive tooltip-trigger" cx="296.2" cy="257.0" r="2.5"/><desc class="value">0</desc><desc class="x ">296.2</desc><desc class="y ">257.0</desc><desc class="x_label">05</desc></g><g class="dots"><circle class="dot reactive tooltip-trigger" cx="153.28960996949155" cy="220.19828231755156" r="2.5"/><desc class="value">181</desc><desc class="x ">153.28960996949155</desc><desc class="y ">220.19828231755156</desc><desc class="x_label">06</desc></g><g class="dots"><circle class="dot reactive tooltip-trigger" cx="189.6911995428646" cy="242.0593658489356" r="2.5"/><desc class="value">131</desc><desc class="x ">189.6911995428646</desc><desc class="y ">242.0593658489356</desc><desc class="x_label">07</desc></g><g class="dots"><circle class="dot reactive tooltip-trigger" cx="189.1868306055397" cy="254.0224579950256" r="2.5"/><desc class="value">130</desc><desc class="x ">189.1868306055397</desc><desc class="y ">254.0224579950256</desc><desc class="x_label">08</desc></g><g class="dots"><circle class="dot reactive tooltip-trigger" cx="186.34738823199856" cy="266.1948642147946" r="2.5"/><desc class="value">134</desc><desc class="x top">186.34738823199856</desc><desc class="y top">266.1948642147946</desc><desc class="x_label">09</desc></g><g class="dots"><circle class="dot reactive tooltip-trigger" cx="183.78672377278426" cy="279.2619931146374" r="2.5"/><desc class="value">140</desc><desc class="x top">183.78672377278426</desc><desc class="y top">279.2619931146374</desc><desc class="x_label">10</desc></g><g class="dots"><circle class="dot reactive tooltip-trigger" cx="183.3531125424694" cy="293.03266480924344" r="2.5"/><desc class="value">146</desc><desc class="x top">183.3531125424694</desc><desc class="y top">293.03266480924344</desc><desc class="x_label">11</desc></g><g class="dots"><circle class="dot reactive tooltip-trigger" cx="186.66933827674228" cy="306.57972163492434" r="2.5"/><desc class="value">150</desc><desc class="x top">186.66933827674228</desc><desc class="y top">306.57972163492434</desc><desc class="x_label">12</desc></g><g class="dots"><circle class="dot reactive tooltip-trigger" cx="192.8492649950572" cy="319.55199419603997" r="2.5"/><desc class="value">153</desc><desc class="x top">192.8492649950572</desc><desc class="y top">319.55199419603997</desc><desc class="x_label">13</desc></g><g class="dots"><circle class="dot reactive tooltip-trigger" cx="201.69743320063165" cy="331.46642743732497" r="2.5"/><desc class="value">155</desc><desc class="x top">201.69743320063165</desc><desc class="y top">331.46642743732497</desc><desc class="x_label">14</desc></g><g class="dots"><circle class="dot reactive tooltip-trigger" cx="213.982202740836" cy="340.7963189309687" r="2.5"/><desc class="value">154</desc><desc class="x top">213.982202740836</desc><desc class="y top">340.7963189309687</desc><desc class="x_label">15</desc></g><g class="dots"><circle class="dot reactive tooltip-trigger" cx="228.80450544771247" cy="346.8351030018364" r="2.5"/><desc class="value">150</desc><desc class="x top">228.80450544771247</desc><desc class="y top">346.8351030018364</desc><desc class="x_label">16</desc></g><g class="dots"><circle class="dot reactive tooltip-trigger" cx="243.66995484814467" cy="351.6438184308906" r="2.5"/><desc class="value">147</desc><desc class="x top">243.66995484814467</desc><desc class="y top">351.6438184308906</desc><desc class="x_label">17</desc></g><g class="dots"><circle class="dot reactive tooltip-trigger" cx="258.30955980960096" cy="356.0169884866375" r="2.5"/><desc class="value">146</desc><desc class="x top">258.30955980960096</desc><desc class="y top">356.0169884866375</desc><desc class="x_label">18</desc></g><g class="dots"><circle class="dot reactive tooltip-trigger" cx="273.21397750551495" cy="359.4081378284361" r="2.5"/><desc class="value">146</desc><desc class="x top">273.21397750551495</desc><desc class="y top">359.4081378284361</desc><desc class="x_label">19</desc></g><g class="dots"><circle class="dot reactive tooltip-trigger" cx="288.5485933768445" cy="360.4046131154523" r="2.5"/><desc class="value">145</desc><desc class="x top">288.5485933768445</desc><desc class="y top">360.4046131154523</desc><desc class="x_label">20</desc></g><g class="dots"><circle class="dot reactive tooltip-trigger" cx="303.6931016585384" cy="358.2652073268568" r="2.5"/><desc class="value">142</desc><desc class="x left top">303.6931016585384</desc><desc class="y left top">358.2652073268568</desc><desc class="x_label">21</desc></g><g class="dots"><circle class="dot reactive tooltip-trigger" cx="318.0839529228315" cy="354.4981586174837" r="2.5"/><desc class="value">139</desc><desc class="x left top">318.0839529228315</desc><desc class="y left top">354.4981586174837</desc><desc class="x_label">22</desc></g><g class="dots"><circle class="dot reactive tooltip-trigger" cx="331.23568099797154" cy="348.5568044225758" r="2.5"/><desc class="value">135</desc><desc class="x left top">331.23568099797154</desc><desc class="y left top">348.5568044225758</desc><desc class="x_label">23</desc></g><g class="dots"><circle class="dot reactive tooltip-trigger" cx="340.8684057413735" cy="337.47943744123353" r="2.5"/><desc class="value">125</desc><desc class="x left top">340.8684057413735</desc><desc class="y left top">337.47943744123353</desc><desc class="x_label">00</desc></g><g class="dots"><circle class="dot reactive tooltip-trigger" cx="347.42057585973845" cy="325.2746782813957" r="2.5"/><desc class="value">114</desc><desc class="x left top">347.42057585973845</desc><desc class="y left top">325.2746782813957</desc><desc class="x_label">01</desc></g><g class="dots"><circle class="dot reactive tooltip-trigger" cx="352.7914708407232" cy="314.6779857576798" r="2.5"/><desc class="value">106</desc><desc class="x left top">352.7914708407232</desc><desc class="y left top">314.6779857576798</desc><desc class="x_label">02</desc></g><g class="dots"><circle class="dot reactive tooltip-trigger" cx="358.9984798731286" cy="306.48414210351274" r="2.5"/><desc class="value">103</desc><desc class="x left top">358.9984798731286</desc><desc class="y left top">306.48414210351274</desc><desc class="x_label">03</desc></g><g class="dots"><circle class="dot reactive tooltip-trigger" cx="365.7759850033274" cy="299.1101660273995" r="2.5"/><desc class="value">103</desc><desc class="x left top">365.7759850033274</desc><desc class="y left top">299.1101660273995</desc><desc class="x_label">04</desc></g><g class="dots"><circle class="dot reactive tooltip-trigger" cx="371.4110543833036" cy="291.0447421893148" r="2.5"/><desc class="value">103</desc><desc class="x left top">371.4110543833036</desc><desc class="y left top">291.0447421893148</desc><desc class="x_label">05</desc></g><g class="dots"><circle class="dot reactive tooltip-trigger" cx="375.81116032962774" cy="282.42030462569915" r="2.5"/><desc class="value">103</desc><desc class="x left top">375.81116032962774</desc><desc class="y left top">282.42030462569915</desc><desc class="x_label">06</desc></g><g class="dots"><circle class="dot reactive tooltip-trigger" cx="378.1011012512572" cy="273.2194521263787" r="2.5"/><desc class="value">102</desc><desc class="x left top">378.1011012512572</desc><desc class="y left top">273.2194521263787</desc><desc class="x_label">07</desc></g><g class="dots"><circle class="dot reactive tooltip-trigger" cx="381.4587434617324" cy="264.1363125249153" r="2.5"/><desc class="value">104</desc><desc class="x left top">381.4587434617324</desc><desc class="y left top">264.1363125249153</desc><desc class="x_label">08</desc></g><g class="dots"><circle class="dot reactive tooltip-trigger" cx="384.2800701939019" cy="254.5492538882134" r="2.5"/><desc class="value">107</desc><desc class="x left">384.2800701939019</desc><desc class="y left">254.5492538882134</desc><desc class="x_label">09</desc></g><g class="dots"><circle class="dot reactive tooltip-trigger" cx="388.07400344775806" cy="244.11227741167738" r="2.5"/><desc class="value">113</desc><desc class="x left">388.07400344775806</desc><desc class="y left">244.11227741167738</desc><desc class="x_label">10</desc></g><g class="dots"><circle class="dot reactive tooltip-trigger" cx="390.1576597438149" cy="232.80439555684336" r="2.5"/><desc class="value">119</desc><desc class="x left">390.1576597438149</desc><desc class="y left">232.80439555684336</desc><desc class="x_label">11</desc></g><g class="dots"><circle class="dot reactive tooltip-trigger" cx="388.8327141844231" cy="221.42107034967756" r="2.5"/><desc class="value">123</desc><desc class="x left">388.8327141844231</desc><desc class="y left">221.42107034967756</desc><desc class="x_label">12</desc></g><g class="dots"><circle class="dot reactive tooltip-trigger" cx="385.64568839138394" cy="209.95346725312197" r="2.5"/><desc class="value">127</desc><desc class="x left">385.64568839138394</desc><desc class="y left">209.95346725312197</desc><desc class="x_label">13</desc></g><g class="dots"><circle class="dot reactive tooltip-trigger" cx="379.2653558525384" cy="199.52430930646597" r="2.5"/><desc class="value">129</desc><desc class="x left">379.2653558525384</desc><desc class="y left">199.52430930646597</desc><desc class="x_label">14</desc></g><g class="dots"><circle class="dot reactive tooltip-trigger" cx="368.3936036246881" cy="192.31979575446388" r="2.5"/><desc class="value">126</desc><desc class="x left">368.3936036246881</desc><desc class="y left">192.31979575446388</desc><desc class="x_label">15</desc></g><g class="dots"><circle class="dot reactive tooltip-trigger" cx="355.80516359390305" cy="187.70415026351952" r="2.5"/><desc class="value">121</desc><desc class="x left">355.80516359390305</desc><desc class="y left">187.70415026351952</desc><desc class="x_label">16</desc></g><g class="dots"><circle class="dot reactive tooltip-trigger" cx="343.0820557024072" cy="184.77290288253124" r="2.5"/><desc class="value">116</desc><desc class="x left">343.0820557024072</desc><desc class="y left">184.77290288253124</desc><desc class="x_label">17</desc></g><g class="dots"><circle class="dot reactive tooltip-trigger" cx="331.1249577730942" cy="182.15129143008062" r="2.5"/><desc class="value">113</desc><desc class="x left">331.1249577730942</desc><desc class="y left">182.15129143008062</desc><desc class="x_label">18</desc></g><g class="dots"><circle class="dot reactive tooltip-trigger" cx="319.18012916510844" cy="180.96444839808322" r="2.5"/><desc class="value">110</desc><desc class="x left">319.18012916510844</desc><desc class="y left">180.96444839808322</desc><desc class="x_label">19</desc></g><g class="dots"><circle class="dot reactive tooltip-trigger" cx="307.67985893313767" cy="179.74770977302137" r="2.5"/><desc class="value">109</desc><desc class="x left">307.67985893313767</desc><desc class="y left">179.74770977302137</desc><desc class="x_label">20</desc></g></g></g><g class="plot text-overlay" transform="translate(187, 46)"><g class="series serie-0 color-0"/></g><g class="plot tooltip-overlay" transform="translate(187, 46)"><g class="tooltip" style="opacity: 0" transform="translate(0 0)"><rect class="tooltip-box" height="0" rx="0" ry="0" width="0"/><g class="text"/></g></g><g class="legends" transform="translate(10, 56)"><g class="legend reactive activate-serie" id="activate-serie-0"><rect class="color-0 reactive" height="12" width="12" x="0.0" y="1.0"/><text x="17.0" y="11.2">Wind direction</text></g></g><g class="legends" transform="translate(790, 56)"/></g></svg>