<?xml version='1.0' encoding='utf-8'?>
<svg xmlns:xlink="http://www.w3.org/1999/xlink" xmlns="http://www.w3.org/2000/svg" id="chart-b6ca9888-da2c-42d8-9871-cbd6c9ad3fc3" class="pygal-chart" viewBox="0 0 800 600"><!--Generated with pygal 2.4.0 (lxml) ©Kozea 2012-2016 on 2017-07-19--><!--http://pygal.org--><!--http://github.com/Kozea/pygal--><defs><style type="text/css">#chart-b6ca9888-da2c-42d8-9871-cbd6c9ad3fc3{-webkit-user-select:none;-webkit-font-smoothing:antialiased;font-family:Consolas,"Liberation Mono",Menlo,Courier,monospace}#chart-b6ca9888-da2c-42d8-9871-cbd6c9ad3fc3 .title{font-family:Consolas,"Liberation Mono",Menlo,Courier,monospace;font-size:16px}#chart-b6ca9888-da2c-42d8-9871-cbd6c9ad3fc3 .legends .legend text{font-family:Consolas,"Liberation Mono",Menlo,Courier,monospace;font-size:14px}#chart-b6ca9888-da2c-42d8-9871-cbd6c9ad3fc3 .axis text{font-family:Consolas,"Liberation Mono",Menlo,Courier,monospace;font-size:10px}#chart-b6ca9888-da2c-42d8-9871-cbd6c9ad3fc3 .axis text.major{font-family:Consolas,"Liberation Mono",Menlo,Courier,monospace;font-size:10px}#chart-b6ca9888-da2c-42d8-9871-cbd6c9ad3fc3 .text-overlay text.value{font-family:Consolas,"Liberation Mono",Menlo,Courier,monospace;font-size:16px}#chart-b6ca9888-da2c-42d8-9871-cbd6c9ad3fc3 .text-overlay text.label{font-family:Consolas,"Liberation Mono",Menlo,Courier,monospace;font-size:10px}#chart-b6ca9888-da2c-42d8-9871-cbd6c9ad3fc3 .tooltip{font-family:Consolas,"Liberation Mono",Menlo,Courier,monospace;font-size:14px}#chart-b6ca9888-da2c-42d8-9871-cbd6c9ad3fc3 text.no_data{font-family:Consolas,"Liberation Mono",Menlo,Courier,monospace;font-size:64px}
#chart-b6ca9888-da2c-42d8-9871-cbd6c9ad3fc3{background-color:transparent}#chart-b6ca9888-da2c-42d8-9871-cbd6c9ad3fc3 path,#chart-b6ca9888-da2c-42d8-9871-cbd6c9ad3fc3 line,#chart-b6ca9888-da2c-42d8-9871-cbd6c9ad3fc3 rect,#chart-b6ca9888-da2c-42d8-9871-cbd6c9ad3fc3 circle{-webkit-transition:400ms ease-in;-moz-transition:400ms ease-in;transition:400ms ease-in}#chart-b6ca9888-da2c-42d8-9871-cbd6c9ad3fc3 .graph &gt; .background{fill:transparent}#chart-b6ca9888-da2c-42d8-9871-cbd6c9ad3fc3 .plot &gt; .background{fill:transparent}#chart-b6ca9888-da2c-42d8-9871-cbd6c9ad3fc3 .graph{fill:#53E89B}#chart-b6ca9888-da2c-42d8-9871-cbd6c9ad3fc3 text.no_data{fill:#53A0E8}#chart-b6ca9888-da2c-42d8-9871-cbd6c9ad3fc3 .title{fill:#53A0E8}#chart-b6ca9888-da2c-42d8-9871-cbd6c9ad3fc3 .legends .legend text{fill:#53E89B}#chart-b6ca9888-da2c-42d8-9871-cbd6c9ad3fc3 .legends .legend:hover text{fill:#53A0E8}#chart-b6ca9888-da2c-42d8-9871-cbd6c9ad3fc3 .axis .line{stroke:#53A0E8}#chart-b6ca9888-da2c-42d8-9871-cbd6c9ad3fc3 .axis .guide.line{stroke:#630C0D}#chart-b6ca9888-da2c-42d8-9871-cbd6c9ad3fc3 .axis .major.line{stroke:#53E89B}#chart-b6ca9888-da2c-42d8-9871-cbd6c9ad3fc3 .axis text.major{fill:#53A0E8}#chart-b6ca9888-da2c-42d8-9871-cbd6c9ad3fc3 .axis.y .guides:hover .guide.line,#chart-b6ca9888-da2c-42d8-9871-cbd6c9ad3fc3 .line-graph .axis.x .guides:hover .guide.line,#chart-b6ca9888-da2c-42d8-9871-cbd6c9ad3fc3 .stackedline-graph .axis.x .guides:hover .guide.line,#chart-b6ca9888-da2c-42d8-9871-cbd6c9ad3fc3 .xy-graph .axis.x .guides:hover .guide.line{stroke:#53A0E8}#chart-b6ca9888-da2c-42d8-9871-cbd6c9ad3fc3 .axis .guides:hover text{fill:#53A0E8}#chart-b6ca9888-da2c-42d8-9871-cbd6c9ad3fc3 .reactive{fill-opacity:.6;stroke-opacity:.8}#chart-b6ca9888-da2c-42d8-9871-cbd6c9ad3fc3 .ci{stroke:#53E89B}#chart-b6ca9888-da2c-42d8-9871-cbd6c9ad3fc3 .reactive.active,#chart-b6ca9888-da2c-42d8-9871-cbd6c9ad3fc3 .active .reactive{fill-opacity:.9;stroke-opacity:.9;stroke-width:4}#chart-b6ca9888-da2c-42d8-9871-cbd6c9ad3fc3 .ci .reactive.active{stroke-width:1.5}#chart-b6ca9888-da2c-42d8-9871-cbd6c9ad3fc3 .series text{fill:#53A0E8}#chart-b6ca9888-da2c-42d8-9871-cbd6c9ad3fc3 .tooltip rect{fill:transparent;stroke:#53A0E8;-webkit-transition:opacity 400ms ease-in;-moz-transition:opacity 400ms ease-in;transition:opacity 400ms ease-in}#chart-b6ca9888-da2c-42d8-9871-cbd6c9ad3fc3 .tooltip .label{fill:#53E89B}#chart-b6ca9888-da2c-42d8-9871-cbd6c9ad3fc3 .tooltip .label{fill:#53E89B}#chart-b6ca9888-da2c-42d8-9871-cbd6c9ad3fc3 .tooltip .legend{font-size:.8em;fill:#630C0D}#chart-b6ca9888-da2c-42d8-9871-cbd6c9ad3fc3 .tooltip .x_label{font-size:.6em;fill:#53A0E8}#chart-b6ca9888-da2c-42d8-9871-cbd6c9ad3fc3 .tooltip .xlink{font-size:.5em;text-decoration:underline}#chart-b6ca9888-da2c-42d8-9871-cbd6c9ad3fc3 .tooltip .value{font-size:1.5em}#chart-b6ca9888-da2c-42d8-9871-cbd6c9ad3fc3 .bound{font-size:.5em}#chart-b6ca9888-da2c-42d8-9871-cbd6c9ad3fc3 .max-value{font-size:.75em;fill:#630C0D}#chart-b6ca9888-da2c-42d8-9871-cbd6c9ad3fc3 .map-element{fill:transparent;stroke:#630C0D !important}#chart-b6ca9888-da2c-42d8-9871-cbd6c9ad3fc3 .map-element .reactive{fill-opacity:inherit;stroke-opacity:inherit}#chart-b6ca9888-da2c-42d8-9871-cbd6c9ad3fc3 .color-0,#chart-b6ca9888-da2c-42d8-9871-cbd6c9ad3fc3 .color-0 a:visited{stroke:#E853A0;fill:#E853A0}#chart-b6ca9888-da2c-42d8-9871-cbd6c9ad3fc3 .text-overlay .color-0 text{fill:black}
#chart-b6ca9888-da2c-42d8-9871-cbd6c9ad3fc3 text.no_data{text-anchor:middle}#chart-b6ca9888-da2c-42d8-9871-cbd6c9ad3fc3 .guide.line{fill:none}#chart-b6ca9888-da2c-42d8-9871-cbd6c9ad3fc3 .centered{text-anchor:middle}#chart-b6ca9888-da2c-42d8-9871-cbd6c9ad3fc3 .title{text-anchor:middle}#chart-b6ca9888-da2c-42d8-9871-cbd6c9ad3fc3 .legends .legend text{fill-opacity:1}#chart-b6ca9888-da2c-42d8-9871-cbd6c9ad3fc3 .axis.x text{text-anchor:middle}#chart-b6ca9888-da2c-42d8-9871-cbd6c9ad3fc3 .axis.x:not(.web) text[transform]{text-anchor:start}#chart-b6ca9888-da2c-42d8-9871-cbd6c9ad3fc3 .axis.x:not(.web) text[transform].backwards{text-anchor:end}#chart-b6ca9888-da2c-42d8-9871-cbd6c9ad3fc3 .axis.y text{text-anchor:end}#chart-b6ca9888-da2c-42d8-9871-cbd6c9ad3fc3 .axis.y text[transform].backwards{text-anchor:start}#chart-b6ca9888-da2c-42d8-9871-cbd6c9ad3fc3 .axis.y2 text{text-anchor:start}#chart-b6ca9888-da2c-42d8-9871-cbd6c9ad3fc3 .axis.y2 text[transform].backwards{text-anchor:end}#chart-b6ca9888-da2c-42d8-9871-cbd6c9ad3fc3 .axis .guide.line{stroke-dasharray:4,4}#chart-b6ca9888-da2c-42d8-9871-cbd6c9ad3fc3 .axis .major.guide.line{stroke-dasharray:6,6}#chart-b6ca9888-da2c-42d8-9871-cbd6c9ad3fc3 .horizontal .axis.y .guide.line,#chart-b6ca9888-da2c-42d8-9871-cbd6c9ad3fc3 .horizontal .axis.y2 .guide.line,#chart-b6ca9888-da2c-42d8-9871-cbd6c9ad3fc3 .vertical .axis.x .guide.line{opacity:0}#chart-b6ca9888-da2c-42d8-9871-cbd6c9ad3fc3 .horizontal .axis.always_show .guide.line,#chart-b6ca9888-da2c-42d8-9871-cbd6c9ad3fc3 .vertical .axis.always_show .guide.line{opacity:1 !important}#chart-b6ca9888-da2c-42d8-9871-cbd6c9ad3fc3 .axis.y .guides:hover .guide.line,#chart-b6ca9888-da2c-42d8-9871-cbd6c9ad3fc3 .axis.y2 .guides:hover .guide.line,#chart-b6ca9888-da2c-42d8-9871-cbd6c9ad3fc3 .axis.x .guides:hover .guide.line{opacity:1}#chart-b6ca9888-da2c-42d8-9871-cbd6c9ad3fc3 .axis .guides:hover text{opacity:1}#chart-b6ca9888-da2c-42d8-9871-cbd6c9ad3fc3 .nofill{fill:none}#chart-b6ca9888-da2c-42d8-9871-cbd6c9ad3fc3 .subtle-fill{fill-opacity:.2}#chart-b6ca9888-da2c-42d8-9871-cbd6c9ad3fc3 .dot{stroke-width:1px;fill-opacity:1}#chart-b6ca9888-da2c-42d8-9871-cbd6c9ad3fc3 .dot.active{stroke-width:5px}#chart-b6ca9888-da2c-42d8-9871-cbd6c9ad3fc3 .dot.negative{fill:transparent}#chart-b6ca9888-da2c-42d8-9871-cbd6c9ad3fc3 text,#chart-b6ca9888-da2c-42d8-9871-cbd6c9ad3fc3 tspan{stroke:none !important}#chart-b6ca9888-da2c-42d8-9871-cbd6c9ad3fc3 .series text.active{opacity:1}#chart-b6ca9888-da2c-42d8-9871-cbd6c9ad3fc3 .tooltip rect{fill-opacity:.95;stroke-width:.5}#chart-b6ca9888-da2c-42d8-9871-cbd6c9ad3fc3 .tooltip text{fill-opacity:1}#chart-b6ca9888-da2c-42d8-9871-cbd6c9ad3fc3 .showable{visibility:hidden}#chart-b6ca9888-da2c-42d8-9871-cbd6c9ad3fc3 .showable.shown{visibility:visible}#chart-b6ca9888-da2c-42d8-9871-cbd6c9ad3fc3 .gauge-background{fill:rgba(229,229,229,1);stroke:none}#chart-b6ca9888-da2c-42d8-9871-cbd6c9ad3fc3 .bg-lines{stroke:transparent;stroke-width:2px}</style><script type="text/javascript">window.pygal = window.pygal || {};window.pygal.config = window.pygal.config || {};window.pygal.config['b6ca9888-da2c-42d8-9871-cbd6c9ad3fc3'] = {"allow_interruptions": false, "box_mode": "extremes", "classes": ["pygal-chart"], "css": ["file://style.css", "file://graph.css"], "defs": [], "disable_xml_declaration": false, "dots_size": 2.5, "dynamic_print_values": false, "explicit_size": false, "fill": false, "force_uri_protocol": "https", "formatter": null, "half_pie": false, "height": 600, "include_x_axis": false, "inner_radius": 0, "interpolate": null, "interpolation_parameters": {}, "interpolation_precision": 250, "inverse_y_axis": false, "js": ["//kozea.github.io/pygal.js/2.0.x/pygal-tooltips.min.js"], "legend_at_bottom": false, "legend_at_bottom_columns": null, "legend_box_size": 12, "logarithmic": false, "margin": 20, "margin_bottom": null, "margin_left": null, "margin_right": null, "margin_top": null, "max_scale": 16, "min_scale": 4, "missing_value_fill_truncation": "x", "no_data_text": "No data", "no_prefix": false, "order_min": null, "pretty_print": false, "print_labels": false, "print_values": false, "print_values_position": "center", "print_zeroes": true, "range": null, "rounded_bars": null, "secondary_range": null, "show_dots": true, "show_legend": true, "show_minor_x_labels": true, "show_minor_y_labels": true, "show_only_major_dots": false, "show_x_guides": false, "show_x_labels": true, "show_y_guides": true, "show_y_labels": true, "spacing": 10, "stack_from_top": false, "strict": false, "stroke": true, "stroke_style": null, "style": {"background": "transparent", "ci_colors": [], "colors": ["#E853A0", "#E8537A", "#E95355", "#E87653", "#E89B53"], "font_family": "Consolas, \"Liberation Mono\", Menlo, Courier, monospace", "foreground": "#53E89B", "foreground_strong": "#53A0E8", "foreground_subtle": "#630C0D", "guide_stroke_dasharray": "4,4", "label_font_family": "Consolas, \"Liberation Mono\", Menlo, Courier, monospace", "label_font_size": 10, "legend_font_family": "Consolas, \"Liberation Mono\", Menlo, Courier, monospace", "legend_font_size": 14, "major_guide_stroke_dasharray": "6,6", "major_label_font_family": "Consolas, \"Liberation Mono\", Menlo, Courier, monospace", "major_label_font_size": 10, "no_data_font_family": "Consolas, \"Liberation Mono\", Menlo, Courier, monospace", "no_data_font_size": 64, "opacity": ".6", "opacity_hover": ".9", "plot_background": "transparent", "stroke_opacity": ".8", "stroke_opacity_hover": ".9", "title_font_family": "Consolas, \"Liberation Mono\", Menlo, Courier, monospace", "title_font_size": 16, "tooltip_font_family": "Consolas, \"Liberation Mono\", Menlo, Courier, monospace", "tooltip_font_size": 14, "transition": "400ms ease-in", "value_background": "rgba(229, 229, 229, 1)", "value_colors": [], "value_font_family": "Consolas, \"Liberation Mono\", Menlo, Courier, monospace", "value_font_size": 16, "value_label_font_family": "Consolas, \"Liberation Mono\", Menlo, Courier, monospace", "value_label_font_size": 10}, "title": "Daily Wind bearing", "tooltip_border_radius": 0, "tooltip_fancy_mode": true, "truncate_label": null, "truncate_legend": null, "width": 800, "x_label_rotation": 0, "x_labels": ["10", "11", "12", "13", "14", "15", "16", "17", "18", "19", "20", "21", "22", "23", "00", "01", "02", "03", "04", "05", "06", "07", "08", "09", "10", "11", "12", "13", "14", "15", "16", "17", "18", "19", "20", "21", "22", "23", "00", "01", "02", "03", "04", "05", "06", "07", "08", "09", "10"], "x_labels_major": null, "x_labels_major_count": null, "x_labels_major_every": null, "x_title": null, "xrange": null, "y_label_rotation": 0, "y_labels": null, "y_labels_major": null, "y_labels_major_count": null, "y_labels_major_every": null, "y_title": null, "zero": 0, "legends": ["Wind direction"]}</script><script type="text/javascript" xlink:href="https://kozea.github.io/pygal.js/2.0.x/pygal-tooltips.min.js"/></defs><title>Daily Wind bearing</title><g class="graph radar-graph vertical"><rect class="background" height="600" width="800" x="0" y="0"/><g class="plot" transform="translate(187, 46)"><rect class="background" height="514" width="592.4" x="0" y="0"/><g class="axis y web"><g class="guides"><path class="guide line" d="M296.200000 38.183482 L263.950349 39.979963 232.230236 45.339907 201.560505 54.175303 172.444752 66.341075 145.361057 81.637462 120.754132 99.813297 99.028025 120.570133 80.539475 143.567143 65.592066 168.426718 54.431232 194.740664 47.240235 222.076907 44.137150 249.986585 45.172930 278.011424 50.330568 305.691256 59.525375 332.571579 72.606373 358.211018 89.358772 382.188575 109.507499 404.110540 132.721711 423.616953 158.620232 440.387521 186.777809 454.146870 216.732095 464.669074 247.991242 471.781357 280.041976 475.366936 312.358024 475.366936 344.408758 471.781357 375.667905 464.669074 405.622191 454.146870 433.779768 440.387521 459.678289 423.616953 482.892501 404.110540 503.041228 382.188575 519.793627 358.211018 532.874625 332.571579 542.069432 305.691256 547.227070 278.011424 548.262850 249.986585 545.159765 222.076907 537.968768 194.740664 526.807934 168.426718 511.860525 143.567143 493.371975 120.570133 471.645868 99.813297 447.038943 81.637462 419.955248 66.341075 390.839495 54.175303 360.169764 45.339907 328.449651 39.979963 296.200000 38.183482 Z"/><text class="" x="291.2" y="38.18348233290766">160</text><title>160</title></g><g class="guides"><path class="guide line" d="M296.200000 92.887612 L272.012762 94.234972 248.222677 98.254930 225.220379 104.881477 203.383564 114.005807 183.070792 125.478097 164.615599 139.109973 148.321018 154.677600 134.454606 171.925358 123.244049 190.570039 114.873424 210.305498 109.480176 230.807680 107.152863 251.739939 107.929698 272.758568 111.797926 293.518442 118.694032 313.678684 128.504780 332.908263 141.069079 350.891431 156.180624 367.332905 173.591283 381.962715 193.015174 394.540640 214.133357 404.860153 236.599071 412.751805 260.043432 418.086017 284.081482 420.775202 308.318518 420.775202 332.356568 418.086017 355.800929 412.751805 378.266643 404.860153 399.384826 394.540640 418.808717 381.962715 436.219376 367.332905 451.330921 350.891431 463.895220 332.908263 473.705968 313.678684 480.602074 293.518442 484.470302 272.758568 485.247137 251.739939 482.919824 230.807680 477.526576 210.305498 469.155951 190.570039 457.945394 171.925358 444.078982 154.677600 427.784401 139.109973 409.329208 125.478097 389.016436 114.005807 367.179621 104.881477 344.177323 98.254930 320.387238 94.234972 296.200000 92.887612 Z"/><text class="" x="291.2" y="92.88761174968073">120</text><title>120</title></g><g class="guides"><path class="guide line" d="M296.200000 147.591741 L280.075174 148.489981 264.215118 151.169953 248.880253 155.587651 234.322376 161.670538 220.780528 169.318731 208.477066 178.406648 197.614012 188.785066 188.369738 200.283572 180.896033 212.713359 175.315616 225.870332 171.720117 239.538453 170.168575 253.493293 170.686465 267.505712 173.265284 281.345628 177.862688 294.785789 184.403187 307.605509 192.779386 319.594288 202.853749 330.555270 214.460855 340.308477 227.410116 348.693760 241.488904 355.573435 256.466048 360.834537 272.095621 364.390678 288.120988 366.183468 304.279012 366.183468 320.304379 364.390678 335.933952 360.834537 350.911096 355.573435 364.989884 348.693760 377.939145 340.308477 389.546251 330.555270 399.620614 319.594288 407.996813 307.605509 414.537312 294.785789 419.134716 281.345628 421.713535 267.505712 422.231425 253.493293 420.679883 239.538453 417.084384 225.870332 411.503967 212.713359 404.030262 200.283572 394.785988 188.785066 383.922934 178.406648 371.619472 169.318731 358.077624 161.670538 343.519747 155.587651 328.184882 151.169953 312.324826 148.489981 296.200000 147.591741 Z"/><text class="" x="291.2" y="147.59174116645386">80</text><title>80</title></g><g class="guides"><path class="guide line" d="M296.200000 202.295871 L288.137587 202.744991 280.207559 204.084977 272.540126 206.293826 265.261188 209.335269 258.490264 213.159366 252.338533 217.703324 246.907006 222.892533 242.284869 228.641786 238.548016 234.856680 235.757808 241.435166 233.960059 248.269227 233.184288 255.246646 233.443233 262.252856 234.732642 269.172814 237.031344 275.892895 240.301593 282.302754 244.489693 288.297144 249.526875 293.777635 255.330428 298.654238 261.805058 302.846880 268.844452 306.286718 276.333024 308.917268 284.147811 310.695339 292.160494 311.591734 300.239506 311.591734 308.252189 310.695339 316.066976 308.917268 323.555548 306.286718 330.594942 302.846880 337.069572 298.654238 342.873125 293.777635 347.910307 288.297144 352.098407 282.302754 355.368656 275.892895 357.667358 269.172814 358.956767 262.252856 359.215712 255.246646 358.439941 248.269227 356.642192 241.435166 353.851984 234.856680 350.115131 228.641786 345.492994 222.892533 340.061467 217.703324 333.909736 213.159366 327.138812 209.335269 319.859874 206.293826 312.192441 204.084977 304.262413 202.744991 296.200000 202.295871 Z"/><text class="" x="291.2" y="202.29587058322693">40</text><title>40</title></g><g class="guides"><path class="major guide line" d="M296.200000 257.000000 L296.200000 257.000000 296.200000 257.000000 296.200000 257.000000 296.200000 257.000000 296.200000 257.000000 296.200000 257.000000 296.200000 257.000000 296.200000 257.000000 296.200000 257.000000 296.200000 257.000000 296.200000 257.000000 296.200000 257.000000 296.200000 257.000000 296.200000 257.000000 296.200000 257.000000 296.200000 257.000000 296.200000 257.000000 296.200000 257.000000 296.200000 257.000000 296.200000 257.000000 296.200000 257.000000 296.200000 257.000000 296.200000 257.000000 296.200000 257.000000 296.200000 257.000000 296.200000 257.000000 296.200000 257.000000 296.200000 257.000000 296.200000 257.000000 296.200000 257.000000 296.200000 257.000000 296.200000 257.000000 296.200000 257.000000 296.200000 257.000000 296.200000 257.000000 296.200000 257.000000 296.200000 257.000000 296.200000 257.000000 296.200000 257.000000 296.200000 257.000000 296.200000 257.000000 296.200000 257.000000 296.200000 257.000000 296.200000 257.000000 296.200000 257.000000 296.200000 257.000000 296.200000 257.000000 296.200000 257.000000 296.200000 257.000000 Z"/><text class="major" x="291.2" y="257.0">0</text><title>0</title></g></g><g class="axis x web"><g class="guides"><path class="line" d="M296.200000 257.000000 L296.200000 19.037037"/><text class="" x="296.2" y="5.139999999999986" transform="rotate(0.000000 296.200000 5.140000)">10</text><title>1.570796327</title></g><g class="guides"><path class="line" d="M296.200000 257.000000 L261.128504 20.990710"/><text class="" x="259.08032901486837" y="7.207767118477193" transform="rotate(-7.346939 259.080329 7.207767)">11</text><title>1.699024598</title></g><g class="guides"><path class="line" d="M296.200000 257.000000 L226.632882 26.819648"/><text class="" x="222.57016200108387" y="13.377115794990004" transform="rotate(-14.693878 222.570162 13.377116)">12</text><title>1.82725287</title></g><g class="guides"><path class="line" d="M296.200000 257.000000 L193.279549 36.428142"/><text class="" x="187.2689948916348" y="23.54674549483093" transform="rotate(-22.040816 187.268995 23.546745)">13</text><title>1.955481142</title></g><g class="guides"><path class="line" d="M296.200000 257.000000 L161.616168 49.658419"/><text class="" x="153.75647187450502" y="37.549671179483084" transform="rotate(-29.387755 153.756472 37.549671)">14</text><title>2.083709413</title></g><g class="guides"><path class="line" d="M296.200000 257.000000 L132.162649 66.293240"/><text class="" x="122.58286765113178" y="55.15596519633641" transform="rotate(-36.734694 122.582868 55.155965)">15</text><title>2.211937685</title></g><g class="guides"><path class="line" d="M296.200000 257.000000 L105.402619 86.059460"/><text class="" x="94.2600519410224" y="76.0765326843864" transform="rotate(-44.081633 94.260052 76.076533)">16</text><title>2.340165956</title></g><g class="guides"><path class="line" d="M296.200000 257.000000 L81.775477 108.632519"/><text class="" x="69.2530845951102" y="99.9678585038593" transform="rotate(-51.428571 69.253085 99.967859)">17</text><title>2.468394228</title></g><g class="guides"><path class="line" d="M296.200000 257.000000 L61.669179 133.641768"/><text class="" x="47.97257932586016" y="126.4376477453111" transform="rotate(-58.775510 47.972579 126.437648)">18</text><title>2.596622499</title></g><g class="guides"><path class="line" d="M296.200000 257.000000 L45.413871 160.676556"/><text class="" x="30.767961441462052" y="155.05126720119387" transform="rotate(-66.122449 30.767961 155.051267)">19</text><title>2.724850771</title></g><g class="guides"><path class="line" d="M296.200000 257.000000 L33.276465 189.292972"/><text class="" x="17.921730291930327" y="185.33888203110808" transform="rotate(-73.469388 17.921730 185.338882)">20</text><title>2.853079043</title></g><g class="guides"><path class="line" d="M296.200000 257.000000 L25.456255 219.021136"/><text class="" x="9.644820637587063" y="216.80317043689297" transform="rotate(-80.816327 9.644821 216.803170)">21</text><title>2.981307314</title></g><g class="guides"><path class="line" d="M296.200000 257.000000 L22.081651 249.372912"/><text class="" x="6.073139106129099" y="248.92748967280295" transform="rotate(-88.163265 6.073139 248.927490)">22</text><title>3.109535586</title></g><g class="guides"><path class="line" d="M296.200000 257.000000 L23.208062 279.849924"/><text class="" x="7.265332609558519" y="281.1843593051086" transform="rotate(-275.510204 7.265333 281.184359)">23</text><title>3.237763857</title></g><g class="guides"><path class="line" d="M296.200000 257.000000 L28.816993 309.951741"/><text class="" x="13.201825363508975" y="313.0441224262373" transform="rotate(-282.857143 13.201825 313.044122)">00</text><title>3.365992129</title></g><g class="guides"><path class="line" d="M296.200000 257.000000 L38.816346 339.184092"/><text class="" x="23.78514032108373" y="343.98364260655046" transform="rotate(-290.204082 23.785140 343.983643)">01</text><title>3.4942204</title></g><g class="guides"><path class="line" d="M296.200000 257.000000 L53.041931 367.066982"/><text class="" x="38.84149974327097" y="373.4948937800567" transform="rotate(-297.551020 38.841500 373.494894)">02</text><title>3.622448672</title></g><g class="guides"><path class="line" d="M296.200000 257.000000 L71.260165 393.142576"/><text class="" x="58.12367862461397" y="401.09330201836957" transform="rotate(-304.897959 58.123679 401.093302)">03</text><title>3.750676944</title></g><g class="guides"><path class="line" d="M296.200000 257.000000 L93.171905 416.982712"/><text class="" x="81.31506412096563" y="426.3257022212151" transform="rotate(-312.244898 81.315064 426.325702)">04</text><title>3.878905215</title></g><g class="guides"><path class="line" d="M296.200000 257.000000 L118.417360 438.195936"/><text class="" x="108.03485432363621" y="448.77777907485006" transform="rotate(-319.591837 108.034854 448.777779)">05</text><title>4.007133487</title></g><g class="guides"><path class="line" d="M296.200000 257.000000 L146.582002 456.433929"/><text class="" x="137.84431101620663" y="468.08087009805894" transform="rotate(-326.938776 137.844311 468.080870)">06</text><title>4.135361758</title></g><g class="guides"><path class="line" d="M296.200000 257.000000 L177.203367 471.397221"/><text class="" x="170.25396374391164" y="483.91801906990327" transform="rotate(-334.285714 170.253964 483.918019)">07</text><title>4.26359003</title></g><g class="guides"><path class="line" d="M296.200000 257.000000 L209.778654 482.840118"/><text class="" x="204.73164690497526" y="496.02918044210696" transform="rotate(-341.632653 204.731647 496.029180)">08</text><title>4.391818301</title></g><g class="guides"><path class="line" d="M296.200000 257.000000 L243.772976 490.574725"/><text class="" x="240.71123789508033" y="504.2154892797697" transform="rotate(-348.979592 240.711238 504.215489)">09</text><title>4.520046573</title></g><g class="guides"><path class="line" d="M296.200000 257.000000 L278.628149 494.474043"/><text class="" x="277.6019528248786" y="508.3425266180997" transform="rotate(-356.326531 277.601953 508.342527)">10</text><title>4.648274845</title></g><g class="guides"><path class="line" d="M296.200000 257.000000 L313.771851 494.474043"/><text class="" x="314.79804717512127" y="508.3425266180997" transform="rotate(-363.673469 314.798047 508.342527)">11</text><title>4.776503116</title></g><g class="guides"><path class="line" d="M296.200000 257.000000 L348.627024 490.574725"/><text class="" x="351.68876210491925" y="504.21548927976977" transform="rotate(-371.020408 351.688762 504.215489)">12</text><title>4.904731388</title></g><g class="guides"><path class="line" d="M296.200000 257.000000 L382.621346 482.840118"/><text class="" x="387.6683530950243" y="496.0291804421071" transform="rotate(-378.367347 387.668353 496.029180)">13</text><title>5.032959659</title></g><g class="guides"><path class="line" d="M296.200000 257.000000 L415.196633 471.397221"/><text class="" x="422.1460362560883" y="483.9180190699033" transform="rotate(-385.714286 422.146036 483.918019)">14</text><title>5.161187931</title></g><g class="guides"><path class="line" d="M296.200000 257.000000 L445.817998 456.433929"/><text class="" x="454.555688983793" y="468.0808700980591" transform="rotate(-393.061224 454.555689 468.080870)">15</text><title>5.289416202</title></g><g class="guides"><path class="line" d="M296.200000 257.000000 L473.982640 438.195936"/><text class="" x="484.3651456763635" y="448.77777907485023" transform="rotate(-400.408163 484.365146 448.777779)">16</text><title>5.417644474</title></g><g class="guides"><path class="line" d="M296.200000 257.000000 L499.228095 416.982712"/><text class="" x="511.0849358790343" y="426.32570222121524" transform="rotate(-407.755102 511.084936 426.325702)">17</text><title>5.545872746</title></g><g class="guides"><path class="line" d="M296.200000 257.000000 L521.139835 393.142576"/><text class="" x="534.2763213753858" y="401.09330201836974" transform="rotate(-415.102041 534.276321 401.093302)">18</text><title>5.674101017</title></g><g class="guides"><path class="line" d="M296.200000 257.000000 L539.358069 367.066982"/><text class="" x="553.5585002567288" y="373.4948937800568" transform="rotate(-422.448980 553.558500 373.494894)">19</text><title>5.802329289</title></g><g class="guides"><path class="line" d="M296.200000 257.000000 L553.583654 339.184092"/><text class="" x="568.6148596789162" y="343.9836426065507" transform="rotate(-429.795918 568.614860 343.983643)">20</text><title>5.93055756</title></g><g class="guides"><path class="line" d="M296.200000 257.000000 L563.583007 309.951741"/><text class="" x="579.198174636491" y="313.0441224262374" transform="rotate(-437.142857 579.198175 313.044122)">21</text><title>6.058785832</title></g><g class="guides"><path class="line" d="M296.200000 257.000000 L569.191938 279.849924"/><text class="" x="585.1346673904415" y="281.18435930510896" transform="rotate(-444.489796 585.134667 281.184359)">22</text><title>6.187014103</title></g><g class="guides"><path class="line" d="M296.200000 257.000000 L570.318349 249.372912"/><text class="" x="586.3268608938708" y="248.927489672803" transform="rotate(-271.836735 586.326861 248.927490)">23</text><title>6.315242375</title></g><g class="guides"><path class="line" d="M296.200000 257.000000 L566.943745 219.021136"/><text class="" x="582.7551793624131" y="216.8031704368933" transform="rotate(-279.183673 582.755179 216.803170)">00</text><title>6.443470647</title></g><g class="guides"><path class="line" d="M296.200000 257.000000 L559.123535 189.292972"/><text class="" x="574.4782697080697" y="185.3388820311083" transform="rotate(-286.530612 574.478270 185.338882)">01</text><title>6.571698918</title></g><g class="guides"><path class="line" d="M296.200000 257.000000 L546.986129 160.676556"/><text class="" x="561.6320385585382" y="155.05126720119415" transform="rotate(-293.877551 561.632039 155.051267)">02</text><title>6.69992719</title></g><g class="guides"><path class="line" d="M296.200000 257.000000 L530.730821 133.641768"/><text class="" x="544.42742067414" y="126.43764774531127" transform="rotate(-301.224490 544.427421 126.437648)">03</text><title>6.828155461</title></g><g class="guides"><path class="line" d="M296.200000 257.000000 L510.624523 108.632519"/><text class="" x="523.1469154048898" y="99.96785850385942" transform="rotate(-308.571429 523.146915 99.967859)">04</text><title>6.956383733</title></g><g class="guides"><path class="line" d="M296.200000 257.000000 L486.997381 86.059460"/><text class="" x="498.1399480589777" y="76.07653268438645" transform="rotate(-315.918367 498.139948 76.076533)">05</text><title>7.084612005</title></g><g class="guides"><path class="line" d="M296.200000 257.000000 L460.237351 66.293240"/><text class="" x="469.8171323488682" y="55.15596519633641" transform="rotate(-323.265306 469.817132 55.155965)">06</text><title>7.212840276</title></g><g class="guides"><path class="line" d="M296.200000 257.000000 L430.783832 49.658419"/><text class="" x="438.6435281254952" y="37.549671179483255" transform="rotate(-330.612245 438.643528 37.549671)">07</text><title>7.341068548</title></g><g class="guides"><path class="line" d="M296.200000 257.000000 L399.120451 36.428142"/><text class="" x="405.13100510836534" y="23.546745494830986" transform="rotate(-337.959184 405.131005 23.546745)">08</text><title>7.469296819</title></g><g class="guides"><path class="line" d="M296.200000 257.000000 L365.767118 26.819648"/><text class="" x="369.82983799891645" y="13.377115794990175" transform="rotate(-345.306122 369.829838 13.377116)">09</text><title>7.597525091</title></g><g class="guides"><path class="line" d="M296.200000 257.000000 L331.271496 20.990710"/><text class="" x="333.3196709851319" y="7.207767118477307" transform="rotate(-352.653061 333.319671 7.207767)">10</text><title>7.725753362</title></g></g><g class="series serie-0 color-0"><path class="line reactive nofill" d="M296.200000 19.037037 L264.958150 46.761839 236.228346 58.568662 205.700983 63.048883 176.312103 72.299167 151.960260 89.309573 130.622962 108.655049 113.815923 130.802373 100.757649 154.201474 92.976758 178.944796 87.674438 203.301323 83.028201 227.097101 81.946578 251.038598 87.533748 274.465746 105.651190 294.735723 130.527763 309.900105 150.864143 322.787162 161.753202 338.372574 172.516218 354.460733 186.873894 368.425087 205.053404 378.494232 225.075576 385.145466 244.545862 391.984898 263.960393 400.635032 284.889383 409.856855 308.015555 416.680822 332.356568 418.086017 357.290952 416.645600 381.002198 409.788824 403.684194 400.271500 424.939153 388.210850 440.886688 371.010668 450.038163 350.109003 454.112999 328.480281 455.955372 308.010816 460.625182 289.562277 464.074353 271.051390 464.767031 252.309779 464.247842 233.426912 459.393918 214.974948 450.419056 197.766618 432.335706 185.395509 413.270860 175.994766 400.370984 163.670395 404.615491 130.958176 404.485842 90.173441 382.558539 71.922464 342.178268 104.869308 306.681137 186.468488 Z"/></g></g><g class="titles"><text class="title plot_title" x="400.0" y="26">Daily Wind bearing</text></g><g class="plot overlay" transform="translate(187, 46)"><g class="series serie-0 color-0"><g class="dots"><circle class="dot reactive tooltip-trigger" cx="296.2" cy="19.037037037037067" r="2.5"/><desc class="value">174</desc><desc class="x ">296.2</desc><desc class="y ">19.037037037037067</desc><desc class="x_label">10</desc></g><g class="dots"><circle class="dot reactive tooltip-trigger" cx="264.9581504358378" cy="46.76183907700613" r="2.5"/><desc class="value">155</desc><desc class="x ">264.9581504358378</desc><desc class="y ">46.76183907700613</desc><desc class="x_label">11</desc></g><g class="dots"><circle class="dot reactive tooltip-trigger" cx="236.22834630108872" cy="58.56866235549916" r="2.5"/><desc class="value">150</desc><desc class="x ">236.22834630108872</desc><desc class="y ">58.56866235549916</desc><desc class="x_label">12</desc></g><g class="dots"><circle class="dot reactive tooltip-trigger" cx="205.7009829324904" cy="63.04888348444592" r="2.5"/><desc class="value">153</desc><desc class="x ">205.7009829324904</desc><desc class="y ">63.04888348444592</desc><desc class="x_label">13</desc></g><g class="dots"><circle class="dot reactive tooltip-trigger" cx="176.31210339478088" cy="72.29916677971892" r="2.5"/><desc class="value">155</desc><desc class="x ">176.31210339478088</desc><desc class="y ">72.29916677971892</desc><desc class="x_label">14</desc></g><g class="dots"><circle class="dot reactive tooltip-trigger" cx="151.9602602856576" cy="89.30957308711191" r="2.5"/><desc class="value">153</desc><desc class="x ">151.9602602856576</desc><desc class="y ">89.30957308711191</desc><desc class="x_label">15</desc></g><g class="dots"><circle class="dot reactive tooltip-trigger" cx="130.62296245848415" cy="108.65504880139144" r="2.5"/><desc class="value">151</desc><desc class="x ">130.62296245848415</desc><desc class="y ">108.65504880139144</desc><desc class="x_label">16</desc></g><g class="dots"><circle class="dot reactive tooltip-trigger" cx="113.81592275521231" cy="130.80237279960198" r="2.5"/><desc class="value">148</desc><desc class="x ">113.81592275521231</desc><desc class="y ">130.80237279960198</desc><desc class="x_label">17</desc></g><g class="dots"><circle class="dot reactive tooltip-trigger" cx="100.75764938103123" cy="154.20147372237267" r="2.5"/><desc class="value">145</desc><desc class="x ">100.75764938103123</desc><desc class="y ">154.20147372237267</desc><desc class="x_label">18</desc></g><g class="dots"><circle class="dot reactive tooltip-trigger" cx="92.97675782164222" cy="178.9447956325767" r="2.5"/><desc class="value">141</desc><desc class="x ">92.97675782164222</desc><desc class="y ">178.9447956325767</desc><desc class="x_label">19</desc></g><g class="dots"><circle class="dot reactive tooltip-trigger" cx="87.67443756074219" cy="203.3013229701138" r="2.5"/><desc class="value">138</desc><desc class="x ">87.67443756074219</desc><desc class="y ">203.3013229701138</desc><desc class="x_label">20</desc></g><g class="dots"><circle class="dot reactive tooltip-trigger" cx="83.02820103294839" cy="227.09710140362785" r="2.5"/><desc class="value">137</desc><desc class="x ">83.02820103294839</desc><desc class="y ">227.09710140362785</desc><desc class="x_label">21</desc></g><g class="dots"><circle class="dot reactive tooltip-trigger" cx="81.94657756249707" cy="251.03859759852872" r="2.5"/><desc class="value">136</desc><desc class="x ">81.94657756249707</desc><desc class="y ">251.03859759852872</desc><desc class="x_label">22</desc></g><g class="dots"><circle class="dot reactive tooltip-trigger" cx="87.53374838767299" cy="274.46574632051113" r="2.5"/><desc class="value">133</desc><desc class="x top">87.53374838767299</desc><desc class="y top">274.46574632051113</desc><desc class="x_label">23</desc></g><g class="dots"><circle class="dot reactive tooltip-trigger" cx="105.6511903951481" cy="294.7357233041711" r="2.5"/><desc class="value">124</desc><desc class="x top">105.6511903951481</desc><desc class="y top">294.7357233041711</desc><desc class="x_label">00</desc></g><g class="dots"><circle class="dot reactive tooltip-trigger" cx="130.52776276901037" cy="309.9001049726634" r="2.5"/><desc class="value">112</desc><desc class="x top">130.52776276901037</desc><desc class="y top">309.9001049726634</desc><desc class="x_label">01</desc></g><g class="dots"><circle class="dot reactive tooltip-trigger" cx="150.86414265134633" cy="322.78716167282374" r="2.5"/><desc class="value">104</desc><desc class="x top">150.86414265134633</desc><desc class="y top">322.78716167282374</desc><desc class="x_label">02</desc></g><g class="dots"><circle class="dot reactive tooltip-trigger" cx="161.7532020625356" cy="338.3725739237194" r="2.5"/><desc class="value">104</desc><desc class="x top">161.7532020625356</desc><desc class="y top">338.3725739237194</desc><desc class="x_label">03</desc></g><g class="dots"><circle class="dot reactive tooltip-trigger" cx="172.51621791308477" cy="354.4607325058471" r="2.5"/><desc class="value">106</desc><desc class="x top">172.51621791308477</desc><desc class="y top">354.4607325058471</desc><desc class="x_label">04</desc></g><g class="dots"><circle class="dot reactive tooltip-trigger" cx="186.87389408339783" cy="368.425087320098" r="2.5"/><desc class="value">107</desc><desc class="x top">186.87389408339783</desc><desc class="y top">368.425087320098</desc><desc class="x_label">05</desc></g><g class="dots"><circle class="dot reactive tooltip-trigger" cx="205.053403574458" cy="378.4942324045526" r="2.5"/><desc class="value">106</desc><desc class="x top">205.053403574458</desc><desc class="y top">378.4942324045526</desc><desc class="x_label">06</desc></g><g class="dots"><circle class="dot reactive tooltip-trigger" cx="225.07557574090802" cy="385.14546563056547" r="2.5"/><desc class="value">104</desc><desc class="x top">225.07557574090802</desc><desc class="y top">385.14546563056547</desc><desc class="x_label">07</desc></g><g class="dots"><circle class="dot reactive tooltip-trigger" cx="244.54586188498266" cy="391.98489786133007" r="2.5"/><desc class="value">104</desc><desc class="x top">244.54586188498266</desc><desc class="y top">391.98489786133007</desc><desc class="x_label">08</desc></g><g class="dots"><circle class="dot reactive tooltip-trigger" cx="263.9603933435287" cy="400.63503223764" r="2.5"/><desc class="value">107</desc><desc class="x top">263.9603933435287</desc><desc class="y top">400.63503223764</desc><desc class="x_label">09</desc></g><g class="dots"><circle class="dot reactive tooltip-trigger" cx="284.88938321770877" cy="409.8568549644832" r="2.5"/><desc class="value">112</desc><desc class="x top">284.88938321770877</desc><desc class="y top">409.8568549644832</desc><desc class="x_label">10</desc></g><g class="dots"><circle class="dot reactive tooltip-trigger" cx="308.0155550315005" cy="416.68082170396906" r="2.5"/><desc class="value">117</desc><desc class="x left top">308.0155550315005</desc><desc class="y left top">416.68082170396906</desc><desc class="x_label">11</desc></g><g class="dots"><circle class="dot reactive tooltip-trigger" cx="332.3565682128648" cy="418.08601746277384" r="2.5"/><desc class="value">120</desc><desc class="x left top">332.3565682128648</desc><desc class="y left top">418.08601746277384</desc><desc class="x_label">12</desc></g><g class="dots"><circle class="dot reactive tooltip-trigger" cx="357.29095180910673" cy="416.645600355227" r="2.5"/><desc class="value">123</desc><desc class="x left top">357.29095180910673</desc><desc class="y left top">416.645600355227</desc><desc class="x_label">13</desc></g><g class="dots"><circle class="dot reactive tooltip-trigger" cx="381.0021981550711" cy="409.7888244056742" r="2.5"/><desc class="value">124</desc><desc class="x left top">381.0021981550711</desc><desc class="y left top">409.7888244056742</desc><desc class="x_label">14</desc></g><g class="dots"><circle class="dot reactive tooltip-trigger" cx="403.6841938980445" cy="400.2715004770668" r="2.5"/><desc class="value">125</desc><desc class="x left top">403.6841938980445</desc><desc class="y left top">400.2715004770668</desc><desc class="x_label">15</desc></g><g class="dots"><circle class="dot reactive tooltip-trigger" cx="424.9391527616061" cy="388.2108504890875" r="2.5"/><desc class="value">126</desc><desc class="x left top">424.9391527616061</desc><desc class="y left top">388.2108504890875</desc><desc class="x_label">16</desc></g><g class="dots"><circle class="dot reactive tooltip-trigger" cx="440.8866884790328" cy="371.01066821438724" r="2.5"/><desc class="value">124</desc><desc class="x left top">440.8866884790328</desc><desc class="y left top">371.01066821438724</desc><desc class="x_label">17</desc></g><g class="dots"><circle class="dot reactive tooltip-trigger" cx="450.0381630245986" cy="350.10900285502515" r="2.5"/><desc class="value">119</desc><desc class="x left top">450.0381630245986</desc><desc class="y left top">350.10900285502515</desc><desc class="x_label">18</desc></g><g class="dots"><circle class="dot reactive tooltip-trigger" cx="454.11299884997936" cy="328.480281432972" r="2.5"/><desc class="value">113</desc><desc class="x left top">454.11299884997936</desc><desc class="y left top">328.480281432972</desc><desc class="x_label">19</desc></g><g class="dots"><circle class="dot reactive tooltip-trigger" cx="455.9553716155971" cy="308.01081550935413" r="2.5"/><desc class="value">108</desc><desc class="x left top">455.9553716155971</desc><desc class="y left top">308.01081550935413</desc><desc class="x_label">20</desc></g><g class="dots"><circle class="dot reactive tooltip-trigger" cx="460.62518248160603" cy="289.562277367309" r="2.5"/><desc class="value">107</desc><desc class="x left top">460.62518248160603</desc><desc class="y left top">289.562277367309</desc><desc class="x_label">21</desc></g><g class="dots"><circle class="dot reactive tooltip-trigger" cx="464.0743528008946" cy="271.05138989695274" r="2.5"/><desc class="value">107</desc><desc class="x left top">464.0743528008946</desc><desc class="y left top">271.05138989695274</desc><desc class="x_label">22</desc></g><g class="dots"><circle class="dot reactive tooltip-trigger" cx="464.76703088832943" cy="252.3097789929601" r="2.5"/><desc class="value">107</desc><desc class="x left">464.76703088832943</desc><desc class="y left">252.3097789929601</desc><desc class="x_label">23</desc></g><g class="dots"><circle class="dot reactive tooltip-trigger" cx="464.2478415214714" cy="233.4269120554148" r="2.5"/><desc class="value">108</desc><desc class="x left">464.2478415214714</desc><desc class="y left">233.4269120554148</desc><desc class="x_label">00</desc></g><g class="dots"><circle class="dot reactive tooltip-trigger" cx="459.3939184307235" cy="214.97494841139354" r="2.5"/><desc class="value">108</desc><desc class="x left">459.3939184307235</desc><desc class="y left">214.97494841139354</desc><desc class="x_label">01</desc></g><g class="dots"><circle class="dot reactive tooltip-trigger" cx="450.41905612116517" cy="197.76661796231008" r="2.5"/><desc class="value">107</desc><desc class="x left">450.41905612116517</desc><desc class="y left">197.76661796231008</desc><desc class="x_label">02</desc></g><g class="dots"><circle class="dot reactive tooltip-trigger" cx="432.33570629321275" cy="185.39550928248036" r="2.5"/><desc class="value">101</desc><desc class="x left">432.33570629321275</desc><desc class="y left">185.39550928248036</desc><desc class="x_label">03</desc></g><g class="dots"><circle class="dot reactive tooltip-trigger" cx="413.27086039361376" cy="175.9947663240689" r="2.5"/><desc class="value">95</desc><desc class="x left">413.27086039361376</desc><desc class="y left">175.9947663240689</desc><desc class="x_label">04</desc></g><g class="dots"><circle class="dot reactive tooltip-trigger" cx="400.37098388373516" cy="163.67039494127283" r="2.5"/><desc class="value">95</desc><desc class="x left">400.37098388373516</desc><desc class="y left">163.67039494127283</desc><desc class="x_label">05</desc></g><g class="dots"><circle class="dot reactive tooltip-trigger" cx="404.61549063496324" cy="130.95817584979005" r="2.5"/><desc class="value">115</desc><desc class="x left">404.61549063496324</desc><desc class="y left">130.95817584979005</desc><desc class="x_label">06</desc></g><g class="dots"><circle class="dot reactive tooltip-trigger" cx="404.4858420950369" cy="90.17344096232682" r="2.5"/><desc class="value">140</desc><desc class="x left">404.4858420950369</desc><desc class="y left">90.17344096232682</desc><desc class="x_label">07</desc></g><g class="dots"><circle class="dot reactive tooltip-trigger" cx="382.5585391624603" cy="71.92246397862164" r="2.5"/><desc class="value">146</desc><desc class="x left">382.5585391624603</desc><desc class="y left">71.92246397862164</desc><desc class="x_label">08</desc></g><g class="dots"><circle class="dot reactive tooltip-trigger" cx="342.1782678358322" cy="104.86930780588284" r="2.5"/><desc class="value">115</desc><desc class="x left">342.1782678358322</desc><desc class="y left">104.86930780588284</desc><desc class="x_label">09</desc></g><g class="dots"><circle class="dot reactive tooltip-trigger" cx="306.6811366279771" cy="186.46848794841497" r="2.5"/><desc class="value">52</desc><desc class="x left">306.6811366279771</desc><desc class="y left">186.46848794841497</desc><desc class="x_label">10</desc></g></g></g><g class="plot text-overlay" transform="translate(187, 46)"><g class="series serie-0 color-0"/></g><g class="plot tooltip-overlay" transform="translate(187, 46)"><g class="tooltip" style="opacity: 0" transform="translate(0 0)"><rect class="tooltip-box" height="0" rx="0" ry="0" width="0"/><g class="text"/></g></g><g class="legends" transform="translate(10, 56)"><g class="legend reactive activate-serie" id="activate-serie-0"><rect class="color-0 reactive" height="12" width="12" x="0.0" y="1.0"/><text x="17.0" y="11.2">Wind direction</text></g></g><g class="legends" transform="translate(790, 56)"/></g></svg>