<?xml version='1.0' encoding='utf-8'?>
<svg xmlns:xlink="http://www.w3.org/1999/xlink" xmlns="http://www.w3.org/2000/svg" id="chart-2e662d1d-376c-4118-bb59-125ea8c2b9ed" class="pygal-chart" viewBox="0 0 800 600"><!--Generated with pygal 2.4.0 (lxml) ©Kozea 2012-2016 on 2017-07-20--><!--http://pygal.org--><!--http://github.com/Kozea/pygal--><defs><style type="text/css">#chart-2e662d1d-376c-4118-bb59-125ea8c2b9ed{-webkit-user-select:none;-webkit-font-smoothing:antialiased;font-family:Consolas,"Liberation Mono",Menlo,Courier,monospace}#chart-2e662d1d-376c-4118-bb59-125ea8c2b9ed .title{font-family:Consolas,"Liberation Mono",Menlo,Courier,monospace;font-size:16px}#chart-2e662d1d-376c-4118-bb59-125ea8c2b9ed .legends .legend text{font-family:Consolas,"Liberation Mono",Menlo,Courier,monospace;font-size:14px}#chart-2e662d1d-376c-4118-bb59-125ea8c2b9ed .axis text{font-family:Consolas,"Liberation Mono",Menlo,Courier,monospace;font-size:10px}#chart-2e662d1d-376c-4118-bb59-125ea8c2b9ed .axis text.major{font-family:Consolas,"Liberation Mono",Menlo,Courier,monospace;font-size:10px}#chart-2e662d1d-376c-4118-bb59-125ea8c2b9ed .text-overlay text.value{font-family:Consolas,"Liberation Mono",Menlo,Courier,monospace;font-size:16px}#chart-2e662d1d-376c-4118-bb59-125ea8c2b9ed .text-overlay text.label{font-family:Consolas,"Liberation Mono",Menlo,Courier,monospace;font-size:10px}#chart-2e662d1d-376c-4118-bb59-125ea8c2b9ed .tooltip{font-family:Consolas,"Liberation Mono",Menlo,Courier,monospace;font-size:14px}#chart-2e662d1d-376c-4118-bb59-125ea8c2b9ed text.no_data{font-family:Consolas,"Liberation Mono",Menlo,Courier,monospace;font-size:64px}
#chart-2e662d1d-376c-4118-bb59-125ea8c2b9ed{background-color:transparent}#chart-2e662d1d-376c-4118-bb59-125ea8c2b9ed path,#chart-2e662d1d-376c-4118-bb59-125ea8c2b9ed line,#chart-2e662d1d-376c-4118-bb59-125ea8c2b9ed rect,#chart-2e662d1d-376c-4118-bb59-125ea8c2b9ed circle{-webkit-transition:400ms ease-in;-moz-transition:400ms ease-in;transition:400ms ease-in}#chart-2e662d1d-376c-4118-bb59-125ea8c2b9ed .graph &gt; .background{fill:transparent}#chart-2e662d1d-376c-4118-bb59-125ea8c2b9ed .plot &gt; .background{fill:transparent}#chart-2e662d1d-376c-4118-bb59-125ea8c2b9ed .graph{fill:#005570}#chart-2e662d1d-376c-4118-bb59-125ea8c2b9ed text.no_data{fill:#18a7ed}#chart-2e662d1d-376c-4118-bb59-125ea8c2b9ed .title{fill:#18a7ed}#chart-2e662d1d-376c-4118-bb59-125ea8c2b9ed .legends .legend text{fill:#005570}#chart-2e662d1d-376c-4118-bb59-125ea8c2b9ed .legends .legend:hover text{fill:#18a7ed}#chart-2e662d1d-376c-4118-bb59-125ea8c2b9ed .axis .line{stroke:#18a7ed}#chart-2e662d1d-376c-4118-bb59-125ea8c2b9ed .axis .guide.line{stroke:#630C0D}#chart-2e662d1d-376c-4118-bb59-125ea8c2b9ed .axis .major.line{stroke:#005570}#chart-2e662d1d-376c-4118-bb59-125ea8c2b9ed .axis text.major{fill:#18a7ed}#chart-2e662d1d-376c-4118-bb59-125ea8c2b9ed .axis.y .guides:hover .guide.line,#chart-2e662d1d-376c-4118-bb59-125ea8c2b9ed .line-graph .axis.x .guides:hover .guide.line,#chart-2e662d1d-376c-4118-bb59-125ea8c2b9ed .stackedline-graph .axis.x .guides:hover .guide.line,#chart-2e662d1d-376c-4118-bb59-125ea8c2b9ed .xy-graph .axis.x .guides:hover .guide.line{stroke:#18a7ed}#chart-2e662d1d-376c-4118-bb59-125ea8c2b9ed .axis .guides:hover text{fill:#18a7ed}#chart-2e662d1d-376c-4118-bb59-125ea8c2b9ed .reactive{fill-opacity:.6;stroke-opacity:.8}#chart-2e662d1d-376c-4118-bb59-125ea8c2b9ed .ci{stroke:#005570}#chart-2e662d1d-376c-4118-bb59-125ea8c2b9ed .reactive.active,#chart-2e662d1d-376c-4118-bb59-125ea8c2b9ed .active .reactive{fill-opacity:.9;stroke-opacity:.9;stroke-width:4}#chart-2e662d1d-376c-4118-bb59-125ea8c2b9ed .ci .reactive.active{stroke-width:1.5}#chart-2e662d1d-376c-4118-bb59-125ea8c2b9ed .series text{fill:#18a7ed}#chart-2e662d1d-376c-4118-bb59-125ea8c2b9ed .tooltip rect{fill:transparent;stroke:#18a7ed;-webkit-transition:opacity 400ms ease-in;-moz-transition:opacity 400ms ease-in;transition:opacity 400ms ease-in}#chart-2e662d1d-376c-4118-bb59-125ea8c2b9ed .tooltip .label{fill:#005570}#chart-2e662d1d-376c-4118-bb59-125ea8c2b9ed .tooltip .label{fill:#005570}#chart-2e662d1d-376c-4118-bb59-125ea8c2b9ed .tooltip .legend{font-size:.8em;fill:#630C0D}#chart-2e662d1d-376c-4118-bb59-125ea8c2b9ed .tooltip .x_label{font-size:.6em;fill:#18a7ed}#chart-2e662d1d-376c-4118-bb59-125ea8c2b9ed .tooltip .xlink{font-size:.5em;text-decoration:underline}#chart-2e662d1d-376c-4118-bb59-125ea8c2b9ed .tooltip .value{font-size:1.5em}#chart-2e662d1d-376c-4118-bb59-125ea8c2b9ed .bound{font-size:.5em}#chart-2e662d1d-376c-4118-bb59-125ea8c2b9ed .max-value{font-size:.75em;fill:#630C0D}#chart-2e662d1d-376c-4118-bb59-125ea8c2b9ed .map-element{fill:transparent;stroke:#630C0D !important}#chart-2e662d1d-376c-4118-bb59-125ea8c2b9ed .map-element .reactive{fill-opacity:inherit;stroke-opacity:inherit}#chart-2e662d1d-376c-4118-bb59-125ea8c2b9ed .color-0,#chart-2e662d1d-376c-4118-bb59-125ea8c2b9ed .color-0 a:visited{stroke:#005570;fill:#005570}#chart-2e662d1d-376c-4118-bb59-125ea8c2b9ed .text-overlay .color-0 text{fill:black}
#chart-2e662d1d-376c-4118-bb59-125ea8c2b9ed text.no_data{text-anchor:middle}#chart-2e662d1d-376c-4118-bb59-125ea8c2b9ed .guide.line{fill:none}#chart-2e662d1d-376c-4118-bb59-125ea8c2b9ed .centered{text-anchor:middle}#chart-2e662d1d-376c-4118-bb59-125ea8c2b9ed .title{text-anchor:middle}#chart-2e662d1d-376c-4118-bb59-125ea8c2b9ed .legends .legend text{fill-opacity:1}#chart-2e662d1d-376c-4118-bb59-125ea8c2b9ed .axis.x text{text-anchor:middle}#chart-2e662d1d-376c-4118-bb59-125ea8c2b9ed .axis.x:not(.web) text[transform]{text-anchor:start}#chart-2e662d1d-376c-4118-bb59-125ea8c2b9ed .axis.x:not(.web) text[transform].backwards{text-anchor:end}#chart-2e662d1d-376c-4118-bb59-125ea8c2b9ed .axis.y text{text-anchor:end}#chart-2e662d1d-376c-4118-bb59-125ea8c2b9ed .axis.y text[transform].backwards{text-anchor:start}#chart-2e662d1d-376c-4118-bb59-125ea8c2b9ed .axis.y2 text{text-anchor:start}#chart-2e662d1d-376c-4118-bb59-125ea8c2b9ed .axis.y2 text[transform].backwards{text-anchor:end}#chart-2e662d1d-376c-4118-bb59-125ea8c2b9ed .axis .guide.line{stroke-dasharray:4,4}#chart-2e662d1d-376c-4118-bb59-125ea8c2b9ed .axis .major.guide.line{stroke-dasharray:6,6}#chart-2e662d1d-376c-4118-bb59-125ea8c2b9ed .horizontal .axis.y .guide.line,#chart-2e662d1d-376c-4118-bb59-125ea8c2b9ed .horizontal .axis.y2 .guide.line,#chart-2e662d1d-376c-4118-bb59-125ea8c2b9ed .vertical .axis.x .guide.line{opacity:0}#chart-2e662d1d-376c-4118-bb59-125ea8c2b9ed .horizontal .axis.always_show .guide.line,#chart-2e662d1d-376c-4118-bb59-125ea8c2b9ed .vertical .axis.always_show .guide.line{opacity:1 !important}#chart-2e662d1d-376c-4118-bb59-125ea8c2b9ed .axis.y .guides:hover .guide.line,#chart-2e662d1d-376c-4118-bb59-125ea8c2b9ed .axis.y2 .guides:hover .guide.line,#chart-2e662d1d-376c-4118-bb59-125ea8c2b9ed .axis.x .guides:hover .guide.line{opacity:1}#chart-2e662d1d-376c-4118-bb59-125ea8c2b9ed .axis .guides:hover text{opacity:1}#chart-2e662d1d-376c-4118-bb59-125ea8c2b9ed .nofill{fill:none}#chart-2e662d1d-376c-4118-bb59-125ea8c2b9ed .subtle-fill{fill-opacity:.2}#chart-2e662d1d-376c-4118-bb59-125ea8c2b9ed .dot{stroke-width:1px;fill-opacity:1}#chart-2e662d1d-376c-4118-bb59-125ea8c2b9ed .dot.active{stroke-width:5px}#chart-2e662d1d-376c-4118-bb59-125ea8c2b9ed .dot.negative{fill:transparent}#chart-2e662d1d-376c-4118-bb59-125ea8c2b9ed text,#chart-2e662d1d-376c-4118-bb59-125ea8c2b9ed tspan{stroke:none !important}#chart-2e662d1d-376c-4118-bb59-125ea8c2b9ed .series text.active{opacity:1}#chart-2e662d1d-376c-4118-bb59-125ea8c2b9ed .tooltip rect{fill-opacity:.95;stroke-width:.5}#chart-2e662d1d-376c-4118-bb59-125ea8c2b9ed .tooltip text{fill-opacity:1}#chart-2e662d1d-376c-4118-bb59-125ea8c2b9ed .showable{visibility:hidden}#chart-2e662d1d-376c-4118-bb59-125ea8c2b9ed .showable.shown{visibility:visible}#chart-2e662d1d-376c-4118-bb59-125ea8c2b9ed .gauge-background{fill:rgba(229,229,229,1);stroke:none}#chart-2e662d1d-376c-4118-bb59-125ea8c2b9ed .bg-lines{stroke:transparent;stroke-width:2px}</style><script type="text/javascript">window.pygal = window.pygal || {};window.pygal.config = window.pygal.config || {};window.pygal.config['2e662d1d-376c-4118-bb59-125ea8c2b9ed'] = {"allow_interruptions": false, "box_mode": "extremes", "classes": ["pygal-chart"], "css": ["file://style.css", "file://graph.css"], "defs": [], "disable_xml_declaration": false, "dots_size": 2.5, "dynamic_print_values": false, "explicit_size": false, "fill": false, "force_uri_protocol": "https", "formatter": null, "half_pie": false, "height": 600, "include_x_axis": false, "inner_radius": 0, "interpolate": null, "interpolation_parameters": {}, "interpolation_precision": 250, "inverse_y_axis": false, "js": ["//kozea.github.io/pygal.js/2.0.x/pygal-tooltips.min.js"], "legend_at_bottom": false, "legend_at_bottom_columns": null, "legend_box_size": 12, "logarithmic": false, "margin": 20, "margin_bottom": null, "margin_left": null, "margin_right": null, "margin_top": null, "max_scale": 16, "min_scale": 4, "missing_value_fill_truncation": "x", "no_data_text": "No data", "no_prefix": false, "order_min": null, "pretty_print": false, "print_labels": false, "print_values": false, "print_values_position": "center", "print_zeroes": true, "range": null, "rounded_bars": null, "secondary_range": null, "show_dots": true, "show_legend": true, "show_minor_x_labels": true, "show_minor_y_labels": true, "show_only_major_dots": false, "show_x_guides": false, "show_x_labels": true, "show_y_guides": true, "show_y_labels": true, "spacing": 10, "stack_from_top": false, "strict": false, "stroke": true, "stroke_style": null, "style": {"background": "transparent", "ci_colors": [], "colors": ["#005570", "#b1e4fa", "#E87653", "#E89B53", "#E853A0"], "font_family": "Consolas, \"Liberation Mono\", Menlo, Courier, monospace", "foreground": "#005570", "foreground_strong": "#18a7ed", "foreground_subtle": "#630C0D", "guide_stroke_dasharray": "4,4", "label_font_family": "Consolas, \"Liberation Mono\", Menlo, Courier, monospace", "label_font_size": 10, "legend_font_family": "Consolas, \"Liberation Mono\", Menlo, Courier, monospace", "legend_font_size": 14, "major_guide_stroke_dasharray": "6,6", "major_label_font_family": "Consolas, \"Liberation Mono\", Menlo, Courier, monospace", "major_label_font_size": 10, "no_data_font_family": "Consolas, \"Liberation Mono\", Menlo, Courier, monospace", "no_data_font_size": 64, "opacity": ".6", "opacity_hover": ".9", "plot_background": "transparent", "stroke_opacity": ".8", "stroke_opacity_hover": ".9", "title_font_family": "Consolas, \"Liberation Mono\", Menlo, Courier, monospace", "title_font_size": 16, "tooltip_font_family": "Consolas, \"Liberation Mono\", Menlo, Courier, monospace", "tooltip_font_size": 14, "transition": "400ms ease-in", "value_background": "rgba(229, 229, 229, 1)", "value_colors": [], "value_font_family": "Consolas, \"Liberation Mono\", Menlo, Courier, monospace", "value_font_size": 16, "value_label_font_family": "Consolas, \"Liberation Mono\", Menlo, Courier, monospace", "value_label_font_size": 10}, "title": "Daily Wind bearing", "tooltip_border_radius": 0, "tooltip_fancy_mode": true, "truncate_label": null, "truncate_legend": null, "width": 800, "x_label_rotation": 0, "x_labels": ["17", "18", "19", "20", "21", "22", "23", "00", "01", "02", "03", "04", "05", "06", "07", "08", "09", "10", "11", "12", "13", "14", "15", "16", "17", "18", "19", "20", "21", "22", "23", "00", "01", "02", "03", "04", "05", "06", "07", "08", "09", "10", "11", "12", "13", "14", "15", "16", "17"], "x_labels_major": null, "x_labels_major_count": null, "x_labels_major_every": null, "x_title": null, "xrange": null, "y_label_rotation": 0, "y_labels": null, "y_labels_major": null, "y_labels_major_count": null, "y_labels_major_every": null, "y_title": null, "zero": 0, "legends": ["Wind direction"]}</script><script type="text/javascript" xlink:href="https://kozea.github.io/pygal.js/2.0.x/pygal-tooltips.min.js"/></defs><title>Daily Wind bearing</title><g class="graph radar-graph vertical"><rect class="background" height="600" width="800" x="0" y="0"/><g class="plot" transform="translate(187, 46)"><rect class="background" height="514" width="592.4" x="0" y="0"/><g class="axis y web"><g class="guides"><path class="major guide line" d="M296.200000 51.859515 L265.965952 53.543715 236.228346 58.568662 207.475473 66.851847 180.179455 78.257258 154.788490 92.597621 131.719499 109.637466 111.351273 129.096999 94.018258 150.656697 80.005062 173.962549 69.541780 198.631873 62.800220 224.259600 59.891078 250.424924 60.862122 276.698210 65.697408 302.648052 74.317539 327.848355 86.580975 351.885329 102.286349 374.364289 121.175780 394.916131 142.939104 413.203393 167.218967 428.925801 193.616696 441.825191 221.698839 451.689757 251.004290 458.357522 281.051853 461.719002 311.348147 461.719002 341.395710 458.357522 370.701161 451.689757 398.783304 441.825191 425.181033 428.925801 449.460896 413.203393 471.224220 394.916131 490.113651 374.364289 505.819025 351.885329 518.082461 327.848355 526.702592 302.648052 531.537878 276.698210 532.508922 250.424924 529.599780 224.259600 522.858220 198.631873 512.394938 173.962549 498.381742 150.656697 481.048727 129.096999 460.680501 109.637466 437.611510 92.597621 412.220545 78.257258 384.924527 66.851847 356.171654 58.568662 326.434048 53.543715 296.200000 51.859515 Z"/><text class="major" x="291.2" y="51.8595146871009">100</text><title>100</title></g><g class="guides"><path class="guide line" d="M296.200000 92.887612 L272.012762 94.234972 248.222677 98.254930 225.220379 104.881477 203.383564 114.005807 183.070792 125.478097 164.615599 139.109973 148.321018 154.677600 134.454606 171.925358 123.244049 190.570039 114.873424 210.305498 109.480176 230.807680 107.152863 251.739939 107.929698 272.758568 111.797926 293.518442 118.694032 313.678684 128.504780 332.908263 141.069079 350.891431 156.180624 367.332905 173.591283 381.962715 193.015174 394.540640 214.133357 404.860153 236.599071 412.751805 260.043432 418.086017 284.081482 420.775202 308.318518 420.775202 332.356568 418.086017 355.800929 412.751805 378.266643 404.860153 399.384826 394.540640 418.808717 381.962715 436.219376 367.332905 451.330921 350.891431 463.895220 332.908263 473.705968 313.678684 480.602074 293.518442 484.470302 272.758568 485.247137 251.739939 482.919824 230.807680 477.526576 210.305498 469.155951 190.570039 457.945394 171.925358 444.078982 154.677600 427.784401 139.109973 409.329208 125.478097 389.016436 114.005807 367.179621 104.881477 344.177323 98.254930 320.387238 94.234972 296.200000 92.887612 Z"/><text class="" x="291.2" y="92.88761174968073">80</text><title>80</title></g><g class="guides"><path class="guide line" d="M296.200000 133.915709 L278.059571 134.926229 260.217008 137.941197 242.965284 142.911108 226.587673 149.754355 211.353094 158.358572 197.511699 168.582479 185.290764 180.258200 174.890955 193.194018 166.483037 207.177529 160.205068 221.979124 156.160132 237.355760 154.414647 253.054954 154.997273 268.818926 157.898445 284.388831 163.070524 299.509013 170.428585 313.931198 179.851809 327.418574 191.185468 339.749679 204.243462 350.722036 218.811380 360.155480 234.650017 367.895114 251.499304 373.813854 269.082574 377.814513 287.111112 379.831401 305.288888 379.831401 323.317426 377.814513 340.900696 373.813854 357.749983 367.895114 373.588620 360.155480 388.156538 350.722036 401.214532 339.749679 412.548191 327.418574 421.971415 313.931198 429.329476 299.509013 434.501555 284.388831 437.402727 268.818926 437.985353 253.054954 436.239868 237.355760 432.194932 221.979124 425.916963 207.177529 417.509045 193.194018 407.109236 180.258200 394.888301 168.582479 381.046906 158.358572 365.812327 149.754355 349.434716 142.911108 332.182992 137.941197 314.340429 134.926229 296.200000 133.915709 Z"/><text class="" x="291.2" y="133.91570881226056">60</text><title>60</title></g><g class="guides"><path class="guide line" d="M296.200000 174.943806 L284.106381 175.617486 272.211339 177.627465 260.710189 180.940739 249.791782 185.502903 239.635396 191.239048 230.407800 198.054986 222.260509 205.838800 215.327303 214.462679 209.722025 223.785019 205.536712 233.652749 202.840088 243.903840 201.676431 254.369970 202.064849 264.879284 203.998963 275.259221 207.447016 285.339342 212.352390 294.954132 218.634540 303.945716 226.190312 312.166452 234.895642 319.481357 244.607587 325.770320 255.166678 330.930076 266.399536 334.875903 278.121716 337.543009 290.140741 338.887601 302.259259 338.887601 314.278284 337.543009 326.000464 334.875903 337.233322 330.930076 347.792413 325.770320 357.504358 319.481357 366.209688 312.166452 373.765460 303.945716 380.047610 294.954132 384.952984 285.339342 388.401037 275.259221 390.335151 264.879284 390.723569 254.369970 389.559912 243.903840 386.863288 233.652749 382.677975 223.785019 377.072697 214.462679 370.139491 205.838800 361.992200 198.054986 352.764604 191.239048 342.608218 185.502903 331.689811 180.940739 320.188661 177.627465 308.293619 175.617486 296.200000 174.943806 Z"/><text class="" x="291.2" y="174.9438058748404">40</text><title>40</title></g><g class="guides"><path class="guide line" d="M296.200000 215.971903 L290.153190 216.308743 284.205669 217.313732 278.455095 218.970369 272.995891 221.251452 267.917698 224.119524 263.303900 227.527493 259.230255 231.419400 255.763652 235.731339 252.961012 240.392510 250.868356 245.326375 249.520044 250.451920 248.938216 255.684985 249.132424 260.939642 250.099482 266.129610 251.823508 271.169671 254.276195 275.977066 257.417270 280.472858 261.195156 284.583226 265.547821 288.240679 270.403793 291.385160 275.683339 293.965038 281.299768 295.937951 287.160858 297.271504 293.170371 297.943800 299.229629 297.943800 305.239142 297.271504 311.100232 295.937951 316.716661 293.965038 321.996207 291.385160 326.852179 288.240679 331.204844 284.583226 334.982730 280.472858 338.123805 275.977066 340.576492 271.169671 342.300518 266.129610 343.267576 260.939642 343.461784 255.684985 342.879956 250.451920 341.531644 245.326375 339.438988 240.392510 336.636348 235.731339 333.169745 231.419400 329.096100 227.527493 324.482302 224.119524 319.404109 221.251452 313.944905 218.970369 308.194331 217.313732 302.246810 216.308743 296.200000 215.971903 Z"/><text class="" x="291.2" y="215.97190293742017">20</text><title>20</title></g><g class="guides"><path class="major guide line" d="M296.200000 257.000000 L296.200000 257.000000 296.200000 257.000000 296.200000 257.000000 296.200000 257.000000 296.200000 257.000000 296.200000 257.000000 296.200000 257.000000 296.200000 257.000000 296.200000 257.000000 296.200000 257.000000 296.200000 257.000000 296.200000 257.000000 296.200000 257.000000 296.200000 257.000000 296.200000 257.000000 296.200000 257.000000 296.200000 257.000000 296.200000 257.000000 296.200000 257.000000 296.200000 257.000000 296.200000 257.000000 296.200000 257.000000 296.200000 257.000000 296.200000 257.000000 296.200000 257.000000 296.200000 257.000000 296.200000 257.000000 296.200000 257.000000 296.200000 257.000000 296.200000 257.000000 296.200000 257.000000 296.200000 257.000000 296.200000 257.000000 296.200000 257.000000 296.200000 257.000000 296.200000 257.000000 296.200000 257.000000 296.200000 257.000000 296.200000 257.000000 296.200000 257.000000 296.200000 257.000000 296.200000 257.000000 296.200000 257.000000 296.200000 257.000000 296.200000 257.000000 296.200000 257.000000 296.200000 257.000000 296.200000 257.000000 296.200000 257.000000 Z"/><text class="major" x="291.2" y="257.0">0</text><title>0</title></g></g><g class="axis x web"><g class="guides"><path class="line" d="M296.200000 257.000000 L296.200000 19.037037"/><text class="" x="296.2" y="5.140000000000043" transform="rotate(0.000000 296.200000 5.140000)">17</text><title>1.570796327</title></g><g class="guides"><path class="line" d="M296.200000 257.000000 L261.128504 20.990710"/><text class="" x="259.08032901486837" y="7.207767118477193" transform="rotate(-7.346939 259.080329 7.207767)">18</text><title>1.699024598</title></g><g class="guides"><path class="line" d="M296.200000 257.000000 L226.632882 26.819648"/><text class="" x="222.57016200108387" y="13.377115794990004" transform="rotate(-14.693878 222.570162 13.377116)">19</text><title>1.82725287</title></g><g class="guides"><path class="line" d="M296.200000 257.000000 L193.279549 36.428142"/><text class="" x="187.26899489163478" y="23.546745494830986" transform="rotate(-22.040816 187.268995 23.546745)">20</text><title>1.955481142</title></g><g class="guides"><path class="line" d="M296.200000 257.000000 L161.616168 49.658419"/><text class="" x="153.75647187450502" y="37.54967117948314" transform="rotate(-29.387755 153.756472 37.549671)">21</text><title>2.083709413</title></g><g class="guides"><path class="line" d="M296.200000 257.000000 L132.162649 66.293240"/><text class="" x="122.58286765113179" y="55.15596519633647" transform="rotate(-36.734694 122.582868 55.155965)">22</text><title>2.211937685</title></g><g class="guides"><path class="line" d="M296.200000 257.000000 L105.402619 86.059460"/><text class="" x="94.26005194102237" y="76.07653268438628" transform="rotate(-44.081633 94.260052 76.076533)">23</text><title>2.340165956</title></g><g class="guides"><path class="line" d="M296.200000 257.000000 L81.775477 108.632519"/><text class="" x="69.25308459511021" y="99.9678585038593" transform="rotate(-51.428571 69.253085 99.967859)">00</text><title>2.468394228</title></g><g class="guides"><path class="line" d="M296.200000 257.000000 L61.669179 133.641768"/><text class="" x="47.972579325860146" y="126.43764774531115" transform="rotate(-58.775510 47.972579 126.437648)">01</text><title>2.596622499</title></g><g class="guides"><path class="line" d="M296.200000 257.000000 L45.413871 160.676556"/><text class="" x="30.76796144146204" y="155.05126720119387" transform="rotate(-66.122449 30.767961 155.051267)">02</text><title>2.724850771</title></g><g class="guides"><path class="line" d="M296.200000 257.000000 L33.276465 189.292972"/><text class="" x="17.921730291930302" y="185.33888203110808" transform="rotate(-73.469388 17.921730 185.338882)">03</text><title>2.853079043</title></g><g class="guides"><path class="line" d="M296.200000 257.000000 L25.456255 219.021136"/><text class="" x="9.644820637587097" y="216.80317043689303" transform="rotate(-80.816327 9.644821 216.803170)">04</text><title>2.981307314</title></g><g class="guides"><path class="line" d="M296.200000 257.000000 L22.081651 249.372912"/><text class="" x="6.0731391061291315" y="248.92748967280295" transform="rotate(-88.163265 6.073139 248.927490)">05</text><title>3.109535586</title></g><g class="guides"><path class="line" d="M296.200000 257.000000 L23.208062 279.849924"/><text class="" x="7.265332609558541" y="281.1843593051086" transform="rotate(-275.510204 7.265333 281.184359)">06</text><title>3.237763857</title></g><g class="guides"><path class="line" d="M296.200000 257.000000 L28.816993 309.951741"/><text class="" x="13.201825363508984" y="313.0441224262373" transform="rotate(-282.857143 13.201825 313.044122)">07</text><title>3.365992129</title></g><g class="guides"><path class="line" d="M296.200000 257.000000 L38.816346 339.184092"/><text class="" x="23.785140321083738" y="343.9836426065505" transform="rotate(-290.204082 23.785140 343.983643)">08</text><title>3.4942204</title></g><g class="guides"><path class="line" d="M296.200000 257.000000 L53.041931 367.066982"/><text class="" x="38.841499743271" y="373.4948937800567" transform="rotate(-297.551020 38.841500 373.494894)">09</text><title>3.622448672</title></g><g class="guides"><path class="line" d="M296.200000 257.000000 L71.260165 393.142576"/><text class="" x="58.12367862461398" y="401.09330201836957" transform="rotate(-304.897959 58.123679 401.093302)">10</text><title>3.750676944</title></g><g class="guides"><path class="line" d="M296.200000 257.000000 L93.171905 416.982712"/><text class="" x="81.31506412096563" y="426.3257022212152" transform="rotate(-312.244898 81.315064 426.325702)">11</text><title>3.878905215</title></g><g class="guides"><path class="line" d="M296.200000 257.000000 L118.417360 438.195936"/><text class="" x="108.03485432363621" y="448.77777907485006" transform="rotate(-319.591837 108.034854 448.777779)">12</text><title>4.007133487</title></g><g class="guides"><path class="line" d="M296.200000 257.000000 L146.582002 456.433929"/><text class="" x="137.84431101620666" y="468.08087009805894" transform="rotate(-326.938776 137.844311 468.080870)">13</text><title>4.135361758</title></g><g class="guides"><path class="line" d="M296.200000 257.000000 L177.203367 471.397221"/><text class="" x="170.25396374391164" y="483.91801906990327" transform="rotate(-334.285714 170.253964 483.918019)">14</text><title>4.26359003</title></g><g class="guides"><path class="line" d="M296.200000 257.000000 L209.778654 482.840118"/><text class="" x="204.73164690497526" y="496.02918044210696" transform="rotate(-341.632653 204.731647 496.029180)">15</text><title>4.391818301</title></g><g class="guides"><path class="line" d="M296.200000 257.000000 L243.772976 490.574725"/><text class="" x="240.71123789508036" y="504.2154892797697" transform="rotate(-348.979592 240.711238 504.215489)">16</text><title>4.520046573</title></g><g class="guides"><path class="line" d="M296.200000 257.000000 L278.628149 494.474043"/><text class="" x="277.6019528248786" y="508.3425266180997" transform="rotate(-356.326531 277.601953 508.342527)">17</text><title>4.648274845</title></g><g class="guides"><path class="line" d="M296.200000 257.000000 L313.771851 494.474043"/><text class="" x="314.79804717512127" y="508.3425266180997" transform="rotate(-363.673469 314.798047 508.342527)">18</text><title>4.776503116</title></g><g class="guides"><path class="line" d="M296.200000 257.000000 L348.627024 490.574725"/><text class="" x="351.68876210491925" y="504.21548927976977" transform="rotate(-371.020408 351.688762 504.215489)">19</text><title>4.904731388</title></g><g class="guides"><path class="line" d="M296.200000 257.000000 L382.621346 482.840118"/><text class="" x="387.6683530950244" y="496.0291804421071" transform="rotate(-378.367347 387.668353 496.029180)">20</text><title>5.032959659</title></g><g class="guides"><path class="line" d="M296.200000 257.000000 L415.196633 471.397221"/><text class="" x="422.1460362560883" y="483.9180190699033" transform="rotate(-385.714286 422.146036 483.918019)">21</text><title>5.161187931</title></g><g class="guides"><path class="line" d="M296.200000 257.000000 L445.817998 456.433929"/><text class="" x="454.55568898379306" y="468.0808700980591" transform="rotate(-393.061224 454.555689 468.080870)">22</text><title>5.289416202</title></g><g class="guides"><path class="line" d="M296.200000 257.000000 L473.982640 438.195936"/><text class="" x="484.36514567636345" y="448.77777907485023" transform="rotate(-400.408163 484.365146 448.777779)">23</text><title>5.417644474</title></g><g class="guides"><path class="line" d="M296.200000 257.000000 L499.228095 416.982712"/><text class="" x="511.0849358790343" y="426.32570222121524" transform="rotate(-407.755102 511.084936 426.325702)">00</text><title>5.545872746</title></g><g class="guides"><path class="line" d="M296.200000 257.000000 L521.139835 393.142576"/><text class="" x="534.2763213753858" y="401.09330201836974" transform="rotate(-415.102041 534.276321 401.093302)">01</text><title>5.674101017</title></g><g class="guides"><path class="line" d="M296.200000 257.000000 L539.358069 367.066982"/><text class="" x="553.558500256729" y="373.4948937800568" transform="rotate(-422.448980 553.558500 373.494894)">02</text><title>5.802329289</title></g><g class="guides"><path class="line" d="M296.200000 257.000000 L553.583654 339.184092"/><text class="" x="568.6148596789162" y="343.9836426065507" transform="rotate(-429.795918 568.614860 343.983643)">03</text><title>5.93055756</title></g><g class="guides"><path class="line" d="M296.200000 257.000000 L563.583007 309.951741"/><text class="" x="579.1981746364909" y="313.0441224262374" transform="rotate(-437.142857 579.198175 313.044122)">04</text><title>6.058785832</title></g><g class="guides"><path class="line" d="M296.200000 257.000000 L569.191938 279.849924"/><text class="" x="585.1346673904413" y="281.18435930510896" transform="rotate(-444.489796 585.134667 281.184359)">05</text><title>6.187014103</title></g><g class="guides"><path class="line" d="M296.200000 257.000000 L570.318349 249.372912"/><text class="" x="586.3268608938708" y="248.927489672803" transform="rotate(-271.836735 586.326861 248.927490)">06</text><title>6.315242375</title></g><g class="guides"><path class="line" d="M296.200000 257.000000 L566.943745 219.021136"/><text class="" x="582.7551793624128" y="216.8031704368933" transform="rotate(-279.183673 582.755179 216.803170)">07</text><title>6.443470647</title></g><g class="guides"><path class="line" d="M296.200000 257.000000 L559.123535 189.292972"/><text class="" x="574.4782697080698" y="185.3388820311083" transform="rotate(-286.530612 574.478270 185.338882)">08</text><title>6.571698918</title></g><g class="guides"><path class="line" d="M296.200000 257.000000 L546.986129 160.676556"/><text class="" x="561.6320385585382" y="155.05126720119415" transform="rotate(-293.877551 561.632039 155.051267)">09</text><title>6.69992719</title></g><g class="guides"><path class="line" d="M296.200000 257.000000 L530.730821 133.641768"/><text class="" x="544.42742067414" y="126.43764774531132" transform="rotate(-301.224490 544.427421 126.437648)">10</text><title>6.828155461</title></g><g class="guides"><path class="line" d="M296.200000 257.000000 L510.624523 108.632519"/><text class="" x="523.1469154048898" y="99.96785850385936" transform="rotate(-308.571429 523.146915 99.967859)">11</text><title>6.956383733</title></g><g class="guides"><path class="line" d="M296.200000 257.000000 L486.997381 86.059460"/><text class="" x="498.1399480589778" y="76.07653268438645" transform="rotate(-315.918367 498.139948 76.076533)">12</text><title>7.084612005</title></g><g class="guides"><path class="line" d="M296.200000 257.000000 L460.237351 66.293240"/><text class="" x="469.81713234886826" y="55.15596519633658" transform="rotate(-323.265306 469.817132 55.155965)">13</text><title>7.212840276</title></g><g class="guides"><path class="line" d="M296.200000 257.000000 L430.783832 49.658419"/><text class="" x="438.64352812549527" y="37.54967117948331" transform="rotate(-330.612245 438.643528 37.549671)">14</text><title>7.341068548</title></g><g class="guides"><path class="line" d="M296.200000 257.000000 L399.120451 36.428142"/><text class="" x="405.13100510836534" y="23.546745494830986" transform="rotate(-337.959184 405.131005 23.546745)">15</text><title>7.469296819</title></g><g class="guides"><path class="line" d="M296.200000 257.000000 L365.767118 26.819648"/><text class="" x="369.82983799891645" y="13.377115794990175" transform="rotate(-345.306122 369.829838 13.377116)">16</text><title>7.597525091</title></g><g class="guides"><path class="line" d="M296.200000 257.000000 L331.271496 20.990710"/><text class="" x="333.31967098513184" y="7.20776711847725" transform="rotate(-352.653061 333.319671 7.207767)">17</text><title>7.725753362</title></g></g><g class="series serie-0 color-0"><path class="line reactive nofill" d="M296.200000 19.037037 L261.733185 25.059835 229.631464 36.741215 199.490266 49.738513 169.737606 62.170411 143.475570 79.445430 120.205864 99.322088 100.260349 121.422819 85.930988 146.402965 75.681163 172.301800 62.742033 196.880829 51.130231 222.622580 52.801811 250.227672 65.568880 276.304246 84.137615 298.996208 74.317539 327.848355 86.580975 351.885329 121.677714 362.627860 136.927960 382.503679 155.199976 400.707122 176.247640 416.890995 197.720028 434.432183 223.188862 447.795961 251.004290 458.357522 280.900371 463.766192 311.499629 463.766192 341.395710 458.357522 370.701161 451.689757 398.783304 441.825191 423.891222 427.206543 446.395678 410.079326 465.973493 390.778647 482.357105 369.669718 497.434264 348.089916 506.988338 324.305937 515.177463 300.365650 519.770984 275.713300 520.693476 250.753678 515.595793 226.224024 509.258727 202.133960 503.747141 177.284047 496.359925 151.720130 482.897214 127.817969 465.614916 105.216590 443.267970 86.021526 419.181778 67.532694 391.135243 53.541476 360.969386 42.694155 329.155112 35.232650 Z"/></g></g><g class="titles"><text class="title plot_title" x="400.0" y="26">Daily Wind bearing</text></g><g class="plot overlay" transform="translate(187, 46)"><g class="series serie-0 color-0"><g class="dots"><circle class="dot reactive tooltip-trigger" cx="296.2" cy="19.037037037037067" r="2.5"/><desc class="value">116</desc><desc class="x ">296.2</desc><desc class="y ">19.037037037037067</desc><desc class="x_label">17</desc></g><g class="dots"><circle class="dot reactive tooltip-trigger" cx="261.73318531953726" cy="25.0598353688261" r="2.5"/><desc class="value">114</desc><desc class="x ">261.73318531953726</desc><desc class="y ">25.0598353688261</desc><desc class="x_label">18</desc></g><g class="dots"><circle class="dot reactive tooltip-trigger" cx="229.6314643942085" cy="36.74121521460415" r="2.5"/><desc class="value">111</desc><desc class="x ">229.6314643942085</desc><desc class="y ">36.74121521460415</desc><desc class="x_label">19</desc></g><g class="dots"><circle class="dot reactive tooltip-trigger" cx="199.4902660749162" cy="49.73851274318241" r="2.5"/><desc class="value">109</desc><desc class="x ">199.4902660749162</desc><desc class="y ">49.73851274318241</desc><desc class="x_label">20</desc></g><g class="dots"><circle class="dot reactive tooltip-trigger" cx="169.73760583901077" cy="62.17041140957451" r="2.5"/><desc class="value">109</desc><desc class="x ">169.73760583901077</desc><desc class="y ">62.17041140957451</desc><desc class="x_label">21</desc></g><g class="dots"><circle class="dot reactive tooltip-trigger" cx="143.47556971422574" cy="79.44543032753029" r="2.5"/><desc class="value">108</desc><desc class="x ">143.47556971422574</desc><desc class="y ">79.44543032753029</desc><desc class="x_label">22</desc></g><g class="dots"><circle class="dot reactive tooltip-trigger" cx="120.20586407011066" cy="99.32208829551871" r="2.5"/><desc class="value">107</desc><desc class="x ">120.20586407011066</desc><desc class="y ">99.32208829551871</desc><desc class="x_label">23</desc></g><g class="dots"><circle class="dot reactive tooltip-trigger" cx="100.26034944647812" cy="121.4228194265994" r="2.5"/><desc class="value">106</desc><desc class="x ">100.26034944647812</desc><desc class="y ">121.4228194265994</desc><desc class="x_label">00</desc></g><g class="dots"><circle class="dot reactive tooltip-trigger" cx="85.93098829959224" cy="146.40296483234584" r="2.5"/><desc class="value">104</desc><desc class="x ">85.93098829959224</desc><desc class="y ">146.40296483234584</desc><desc class="x_label">01</desc></g><g class="dots"><circle class="dot reactive tooltip-trigger" cx="75.68116274263308" cy="172.30179951620022" r="2.5"/><desc class="value">102</desc><desc class="x ">75.68116274263308</desc><desc class="y ">172.30179951620022</desc><desc class="x_label">02</desc></g><g class="dots"><circle class="dot reactive tooltip-trigger" cx="62.74203335604835" cy="196.88082897741003" r="2.5"/><desc class="value">103</desc><desc class="x ">62.74203335604835</desc><desc class="y ">196.88082897741003</desc><desc class="x_label">03</desc></g><g class="dots"><circle class="dot reactive tooltip-trigger" cx="51.130231114520996" cy="222.62258008081295" r="2.5"/><desc class="value">105</desc><desc class="x ">51.130231114520996</desc><desc class="y ">222.62258008081295</desc><desc class="x_label">04</desc></g><g class="dots"><circle class="dot reactive tooltip-trigger" cx="52.801810539748494" cy="250.2276715365639" r="2.5"/><desc class="value">103</desc><desc class="x ">52.801810539748494</desc><desc class="y ">250.2276715365639</desc><desc class="x_label">05</desc></g><g class="dots"><circle class="dot reactive tooltip-trigger" cx="65.56887979690178" cy="276.3042459331965" r="2.5"/><desc class="value">98</desc><desc class="x top">65.56887979690178</desc><desc class="y top">276.3042459331965</desc><desc class="x_label">06</desc></g><g class="dots"><circle class="dot reactive tooltip-trigger" cx="84.137615117181" cy="298.99620819335166" r="2.5"/><desc class="value">92</desc><desc class="x top">84.137615117181</desc><desc class="y top">298.99620819335166</desc><desc class="x_label">07</desc></g><g class="dots"><circle class="dot reactive tooltip-trigger" cx="74.31753942278175" cy="327.8483548741028" r="2.5"/><desc class="value">100</desc><desc class="x top">74.31753942278175</desc><desc class="y top">327.8483548741028</desc><desc class="x_label">08</desc></g><g class="dots"><circle class="dot reactive tooltip-trigger" cx="86.58097497790337" cy="351.8853293358035" r="2.5"/><desc class="value">100</desc><desc class="x top">86.58097497790337</desc><desc class="y top">351.8853293358035</desc><desc class="x_label">09</desc></g><g class="dots"><circle class="dot reactive tooltip-trigger" cx="121.67771421579138" cy="362.6278603817511" r="2.5"/><desc class="value">90</desc><desc class="x top">121.67771421579138</desc><desc class="y top">362.6278603817511</desc><desc class="x_label">10</desc></g><g class="dots"><circle class="dot reactive tooltip-trigger" cx="136.9279598597743" cy="382.5036791230955" r="2.5"/><desc class="value">91</desc><desc class="x top">136.9279598597743</desc><desc class="y top">382.5036791230955</desc><desc class="x_label">11</desc></g><g class="dots"><circle class="dot reactive tooltip-trigger" cx="155.19997554681214" cy="400.7071219642385" r="2.5"/><desc class="value">92</desc><desc class="x top">155.19997554681214</desc><desc class="y top">400.7071219642385</desc><desc class="x_label">12</desc></g><g class="dots"><circle class="dot reactive tooltip-trigger" cx="176.247639609782" cy="416.8909945324064" r="2.5"/><desc class="value">93</desc><desc class="x top">176.247639609782</desc><desc class="y top">416.8909945324064</desc><desc class="x_label">13</desc></g><g class="dots"><circle class="dot reactive tooltip-trigger" cx="197.7200279489496" cy="434.4321831807829" r="2.5"/><desc class="value">96</desc><desc class="x top">197.7200279489496</desc><desc class="y top">434.4321831807829</desc><desc class="x_label">14</desc></g><g class="dots"><circle class="dot reactive tooltip-trigger" cx="223.1888624720429" cy="447.7959614001492" r="2.5"/><desc class="value">98</desc><desc class="x top">223.1888624720429</desc><desc class="y top">447.7959614001492</desc><desc class="x_label">15</desc></g><g class="dots"><circle class="dot reactive tooltip-trigger" cx="251.00428973391877" cy="458.35752182846727" r="2.5"/><desc class="value">100</desc><desc class="x top">251.00428973391877</desc><desc class="y top">458.35752182846727</desc><desc class="x_label">16</desc></g><g class="dots"><circle class="dot reactive tooltip-trigger" cx="280.9003710489543" cy="463.76619220642147" r="2.5"/><desc class="value">101</desc><desc class="x top">280.9003710489543</desc><desc class="y top">463.76619220642147</desc><desc class="x_label">17</desc></g><g class="dots"><circle class="dot reactive tooltip-trigger" cx="311.49962895104557" cy="463.76619220642147" r="2.5"/><desc class="value">101</desc><desc class="x left top">311.49962895104557</desc><desc class="y left top">463.76619220642147</desc><desc class="x_label">18</desc></g><g class="dots"><circle class="dot reactive tooltip-trigger" cx="341.3957102660809" cy="458.3575218284673" r="2.5"/><desc class="value">100</desc><desc class="x left top">341.3957102660809</desc><desc class="y left top">458.3575218284673</desc><desc class="x_label">19</desc></g><g class="dots"><circle class="dot reactive tooltip-trigger" cx="370.7011607428131" cy="451.6897565307646" r="2.5"/><desc class="value">100</desc><desc class="x left top">370.7011607428131</desc><desc class="y left top">451.6897565307646</desc><desc class="x_label">20</desc></g><g class="dots"><circle class="dot reactive tooltip-trigger" cx="398.78330421984407" cy="441.82519081331554" r="2.5"/><desc class="value">100</desc><desc class="x left top">398.78330421984407</desc><desc class="y left top">441.82519081331554</desc><desc class="x_label">21</desc></g><g class="dots"><circle class="dot reactive tooltip-trigger" cx="423.891222350877" cy="427.20654256675533" r="2.5"/><desc class="value">99</desc><desc class="x left top">423.891222350877</desc><desc class="y left top">427.20654256675533</desc><desc class="x_label">22</desc></g><g class="dots"><circle class="dot reactive tooltip-trigger" cx="446.3956782218738" cy="410.07932557060207" r="2.5"/><desc class="value">98</desc><desc class="x left top">446.3956782218738</desc><desc class="y left top">410.07932557060207</desc><desc class="x_label">23</desc></g><g class="dots"><circle class="dot reactive tooltip-trigger" cx="465.97349333628443" cy="390.7786469773656" r="2.5"/><desc class="value">97</desc><desc class="x left top">465.97349333628443</desc><desc class="y left top">390.7786469773656</desc><desc class="x_label">00</desc></g><g class="dots"><circle class="dot reactive tooltip-trigger" cx="482.35710483648904" cy="369.6697177405346" r="2.5"/><desc class="value">96</desc><desc class="x left top">482.35710483648904</desc><desc class="y left top">369.6697177405346</desc><desc class="x_label">01</desc></g><g class="dots"><circle class="dot reactive tooltip-trigger" cx="497.4342640212127" cy="348.0899161623714" r="2.5"/><desc class="value">96</desc><desc class="x left top">497.4342640212127</desc><desc class="y left top">348.0899161623714</desc><desc class="x_label">02</desc></g><g class="dots"><circle class="dot reactive tooltip-trigger" cx="506.9883375483573" cy="324.30593713039787" r="2.5"/><desc class="value">95</desc><desc class="x left top">506.9883375483573</desc><desc class="y left top">324.30593713039787</desc><desc class="x_label">03</desc></g><g class="dots"><circle class="dot reactive tooltip-trigger" cx="515.177462650737" cy="300.3656497648741" r="2.5"/><desc class="value">95</desc><desc class="x left top">515.177462650737</desc><desc class="y left top">300.3656497648741</desc><desc class="x_label">04</desc></g><g class="dots"><circle class="dot reactive tooltip-trigger" cx="519.7709838703503" cy="275.7132996291193" r="2.5"/><desc class="value">95</desc><desc class="x left top">519.7709838703503</desc><desc class="y left top">275.7132996291193</desc><desc class="x_label">05</desc></g><g class="dots"><circle class="dot reactive tooltip-trigger" cx="520.6934757157659" cy="250.75367763081135" r="2.5"/><desc class="value">95</desc><desc class="x left">520.6934757157659</desc><desc class="y left">250.75367763081135</desc><desc class="x_label">06</desc></g><g class="dots"><circle class="dot reactive tooltip-trigger" cx="515.5957930974764" cy="226.2240240723471" r="2.5"/><desc class="value">94</desc><desc class="x left">515.5957930974764</desc><desc class="y left">226.2240240723471</desc><desc class="x_label">07</desc></g><g class="dots"><circle class="dot reactive tooltip-trigger" cx="509.2587268401112" cy="202.133960425986" r="2.5"/><desc class="value">94</desc><desc class="x left">509.2587268401112</desc><desc class="y left">202.133960425986</desc><desc class="x_label">08</desc></g><g class="dots"><circle class="dot reactive tooltip-trigger" cx="503.74714094811014" cy="177.28404660348275" r="2.5"/><desc class="value">96</desc><desc class="x left">503.74714094811014</desc><desc class="y left">177.28404660348275</desc><desc class="x_label">09</desc></g><g class="dots"><circle class="dot reactive tooltip-trigger" cx="496.3599245994267" cy="151.72012998463697" r="2.5"/><desc class="value">99</desc><desc class="x left">496.3599245994267</desc><desc class="y left">151.72012998463697</desc><desc class="x_label">10</desc></g><g class="dots"><circle class="dot reactive tooltip-trigger" cx="482.8972142066577" cy="127.8179694536467" r="2.5"/><desc class="value">101</desc><desc class="x left">482.8972142066577</desc><desc class="y left">127.8179694536467</desc><desc class="x_label">11</desc></g><g class="dots"><circle class="dot reactive tooltip-trigger" cx="465.61491589512724" cy="105.21658966764898" r="2.5"/><desc class="value">103</desc><desc class="x left">465.61491589512724</desc><desc class="y left">105.21658966764898</desc><desc class="x_label">12</desc></g><g class="dots"><circle class="dot reactive tooltip-trigger" cx="443.2679699048198" cy="86.0215255005848" r="2.5"/><desc class="value">104</desc><desc class="x left">443.2679699048198</desc><desc class="y left">86.0215255005848</desc><desc class="x_label">13</desc></g><g class="dots"><circle class="dot reactive tooltip-trigger" cx="419.1817778079348" cy="67.53269366435694" r="2.5"/><desc class="value">106</desc><desc class="x left">419.1817778079348</desc><desc class="y left">67.53269366435694</desc><desc class="x_label">14</desc></g><g class="dots"><circle class="dot reactive tooltip-trigger" cx="391.13524339434844" cy="53.54147581211487" r="2.5"/><desc class="value">107</desc><desc class="x left">391.13524339434844</desc><desc class="y left">53.54147581211487</desc><desc class="x_label">15</desc></g><g class="dots"><circle class="dot reactive tooltip-trigger" cx="360.96938599482445" cy="42.69415534393926" r="2.5"/><desc class="value">108</desc><desc class="x left">360.96938599482445</desc><desc class="y left">42.69415534393926</desc><desc class="x_label">16</desc></g><g class="dots"><circle class="dot reactive tooltip-trigger" cx="329.155112282197" cy="35.232649607035455" r="2.5"/><desc class="value">109</desc><desc class="x left">329.155112282197</desc><desc class="y left">35.232649607035455</desc><desc class="x_label">17</desc></g></g></g><g class="plot text-overlay" transform="translate(187, 46)"><g class="series serie-0 color-0"/></g><g class="plot tooltip-overlay" transform="translate(187, 46)"><g class="tooltip" style="opacity: 0" transform="translate(0 0)"><rect class="tooltip-box" height="0" rx="0" ry="0" width="0"/><g class="text"/></g></g><g class="legends" transform="translate(10, 56)"><g class="legend reactive activate-serie" id="activate-serie-0"><rect class="color-0 reactive" height="12" width="12" x="0.0" y="1.0"/><text x="17.0" y="11.2">Wind direction</text></g></g><g class="legends" transform="translate(790, 56)"/></g></svg>