<?xml version='1.0' encoding='utf-8'?>
<svg xmlns:xlink="http://www.w3.org/1999/xlink" xmlns="http://www.w3.org/2000/svg" id="chart-f25abda6-1e42-4628-b260-9c5b9bf1aa21" class="pygal-chart" viewBox="0 0 800 600"><!--Generated with pygal 2.4.0 (lxml) ©Kozea 2012-2016 on 2017-08-03--><!--http://pygal.org--><!--http://github.com/Kozea/pygal--><defs><style type="text/css">#chart-f25abda6-1e42-4628-b260-9c5b9bf1aa21{-webkit-user-select:none;-webkit-font-smoothing:antialiased;font-family:Consolas,"Liberation Mono",Menlo,Courier,monospace}#chart-f25abda6-1e42-4628-b260-9c5b9bf1aa21 .title{font-family:Consolas,"Liberation Mono",Menlo,Courier,monospace;font-size:16px}#chart-f25abda6-1e42-4628-b260-9c5b9bf1aa21 .legends .legend text{font-family:Consolas,"Liberation Mono",Menlo,Courier,monospace;font-size:14px}#chart-f25abda6-1e42-4628-b260-9c5b9bf1aa21 .axis text{font-family:Consolas,"Liberation Mono",Menlo,Courier,monospace;font-size:10px}#chart-f25abda6-1e42-4628-b260-9c5b9bf1aa21 .axis text.major{font-family:Consolas,"Liberation Mono",Menlo,Courier,monospace;font-size:10px}#chart-f25abda6-1e42-4628-b260-9c5b9bf1aa21 .text-overlay text.value{font-family:Consolas,"Liberation Mono",Menlo,Courier,monospace;font-size:16px}#chart-f25abda6-1e42-4628-b260-9c5b9bf1aa21 .text-overlay text.label{font-family:Consolas,"Liberation Mono",Menlo,Courier,monospace;font-size:10px}#chart-f25abda6-1e42-4628-b260-9c5b9bf1aa21 .tooltip{font-family:Consolas,"Liberation Mono",Menlo,Courier,monospace;font-size:14px}#chart-f25abda6-1e42-4628-b260-9c5b9bf1aa21 text.no_data{font-family:Consolas,"Liberation Mono",Menlo,Courier,monospace;font-size:64px}
#chart-f25abda6-1e42-4628-b260-9c5b9bf1aa21{background-color:transparent}#chart-f25abda6-1e42-4628-b260-9c5b9bf1aa21 path,#chart-f25abda6-1e42-4628-b260-9c5b9bf1aa21 line,#chart-f25abda6-1e42-4628-b260-9c5b9bf1aa21 rect,#chart-f25abda6-1e42-4628-b260-9c5b9bf1aa21 circle{-webkit-transition:400ms ease-in;-moz-transition:400ms ease-in;transition:400ms ease-in}#chart-f25abda6-1e42-4628-b260-9c5b9bf1aa21 .graph &gt; .background{fill:transparent}#chart-f25abda6-1e42-4628-b260-9c5b9bf1aa21 .plot &gt; .background{fill:transparent}#chart-f25abda6-1e42-4628-b260-9c5b9bf1aa21 .graph{fill:#005570}#chart-f25abda6-1e42-4628-b260-9c5b9bf1aa21 text.no_data{fill:#18a7ed}#chart-f25abda6-1e42-4628-b260-9c5b9bf1aa21 .title{fill:#18a7ed}#chart-f25abda6-1e42-4628-b260-9c5b9bf1aa21 .legends .legend text{fill:#005570}#chart-f25abda6-1e42-4628-b260-9c5b9bf1aa21 .legends .legend:hover text{fill:#18a7ed}#chart-f25abda6-1e42-4628-b260-9c5b9bf1aa21 .axis .line{stroke:#18a7ed}#chart-f25abda6-1e42-4628-b260-9c5b9bf1aa21 .axis .guide.line{stroke:#630C0D}#chart-f25abda6-1e42-4628-b260-9c5b9bf1aa21 .axis .major.line{stroke:#005570}#chart-f25abda6-1e42-4628-b260-9c5b9bf1aa21 .axis text.major{fill:#18a7ed}#chart-f25abda6-1e42-4628-b260-9c5b9bf1aa21 .axis.y .guides:hover .guide.line,#chart-f25abda6-1e42-4628-b260-9c5b9bf1aa21 .line-graph .axis.x .guides:hover .guide.line,#chart-f25abda6-1e42-4628-b260-9c5b9bf1aa21 .stackedline-graph .axis.x .guides:hover .guide.line,#chart-f25abda6-1e42-4628-b260-9c5b9bf1aa21 .xy-graph .axis.x .guides:hover .guide.line{stroke:#18a7ed}#chart-f25abda6-1e42-4628-b260-9c5b9bf1aa21 .axis .guides:hover text{fill:#18a7ed}#chart-f25abda6-1e42-4628-b260-9c5b9bf1aa21 .reactive{fill-opacity:.6;stroke-opacity:.8}#chart-f25abda6-1e42-4628-b260-9c5b9bf1aa21 .ci{stroke:#005570}#chart-f25abda6-1e42-4628-b260-9c5b9bf1aa21 .reactive.active,#chart-f25abda6-1e42-4628-b260-9c5b9bf1aa21 .active .reactive{fill-opacity:.9;stroke-opacity:.9;stroke-width:4}#chart-f25abda6-1e42-4628-b260-9c5b9bf1aa21 .ci .reactive.active{stroke-width:1.5}#chart-f25abda6-1e42-4628-b260-9c5b9bf1aa21 .series text{fill:#18a7ed}#chart-f25abda6-1e42-4628-b260-9c5b9bf1aa21 .tooltip rect{fill:transparent;stroke:#18a7ed;-webkit-transition:opacity 400ms ease-in;-moz-transition:opacity 400ms ease-in;transition:opacity 400ms ease-in}#chart-f25abda6-1e42-4628-b260-9c5b9bf1aa21 .tooltip .label{fill:#005570}#chart-f25abda6-1e42-4628-b260-9c5b9bf1aa21 .tooltip .label{fill:#005570}#chart-f25abda6-1e42-4628-b260-9c5b9bf1aa21 .tooltip .legend{font-size:.8em;fill:#630C0D}#chart-f25abda6-1e42-4628-b260-9c5b9bf1aa21 .tooltip .x_label{font-size:.6em;fill:#18a7ed}#chart-f25abda6-1e42-4628-b260-9c5b9bf1aa21 .tooltip .xlink{font-size:.5em;text-decoration:underline}#chart-f25abda6-1e42-4628-b260-9c5b9bf1aa21 .tooltip .value{font-size:1.5em}#chart-f25abda6-1e42-4628-b260-9c5b9bf1aa21 .bound{font-size:.5em}#chart-f25abda6-1e42-4628-b260-9c5b9bf1aa21 .max-value{font-size:.75em;fill:#630C0D}#chart-f25abda6-1e42-4628-b260-9c5b9bf1aa21 .map-element{fill:transparent;stroke:#630C0D !important}#chart-f25abda6-1e42-4628-b260-9c5b9bf1aa21 .map-element .reactive{fill-opacity:inherit;stroke-opacity:inherit}#chart-f25abda6-1e42-4628-b260-9c5b9bf1aa21 .color-0,#chart-f25abda6-1e42-4628-b260-9c5b9bf1aa21 .color-0 a:visited{stroke:#005570;fill:#005570}#chart-f25abda6-1e42-4628-b260-9c5b9bf1aa21 .text-overlay .color-0 text{fill:black}
#chart-f25abda6-1e42-4628-b260-9c5b9bf1aa21 text.no_data{text-anchor:middle}#chart-f25abda6-1e42-4628-b260-9c5b9bf1aa21 .guide.line{fill:none}#chart-f25abda6-1e42-4628-b260-9c5b9bf1aa21 .centered{text-anchor:middle}#chart-f25abda6-1e42-4628-b260-9c5b9bf1aa21 .title{text-anchor:middle}#chart-f25abda6-1e42-4628-b260-9c5b9bf1aa21 .legends .legend text{fill-opacity:1}#chart-f25abda6-1e42-4628-b260-9c5b9bf1aa21 .axis.x text{text-anchor:middle}#chart-f25abda6-1e42-4628-b260-9c5b9bf1aa21 .axis.x:not(.web) text[transform]{text-anchor:start}#chart-f25abda6-1e42-4628-b260-9c5b9bf1aa21 .axis.x:not(.web) text[transform].backwards{text-anchor:end}#chart-f25abda6-1e42-4628-b260-9c5b9bf1aa21 .axis.y text{text-anchor:end}#chart-f25abda6-1e42-4628-b260-9c5b9bf1aa21 .axis.y text[transform].backwards{text-anchor:start}#chart-f25abda6-1e42-4628-b260-9c5b9bf1aa21 .axis.y2 text{text-anchor:start}#chart-f25abda6-1e42-4628-b260-9c5b9bf1aa21 .axis.y2 text[transform].backwards{text-anchor:end}#chart-f25abda6-1e42-4628-b260-9c5b9bf1aa21 .axis .guide.line{stroke-dasharray:4,4}#chart-f25abda6-1e42-4628-b260-9c5b9bf1aa21 .axis .major.guide.line{stroke-dasharray:6,6}#chart-f25abda6-1e42-4628-b260-9c5b9bf1aa21 .horizontal .axis.y .guide.line,#chart-f25abda6-1e42-4628-b260-9c5b9bf1aa21 .horizontal .axis.y2 .guide.line,#chart-f25abda6-1e42-4628-b260-9c5b9bf1aa21 .vertical .axis.x .guide.line{opacity:0}#chart-f25abda6-1e42-4628-b260-9c5b9bf1aa21 .horizontal .axis.always_show .guide.line,#chart-f25abda6-1e42-4628-b260-9c5b9bf1aa21 .vertical .axis.always_show .guide.line{opacity:1 !important}#chart-f25abda6-1e42-4628-b260-9c5b9bf1aa21 .axis.y .guides:hover .guide.line,#chart-f25abda6-1e42-4628-b260-9c5b9bf1aa21 .axis.y2 .guides:hover .guide.line,#chart-f25abda6-1e42-4628-b260-9c5b9bf1aa21 .axis.x .guides:hover .guide.line{opacity:1}#chart-f25abda6-1e42-4628-b260-9c5b9bf1aa21 .axis .guides:hover text{opacity:1}#chart-f25abda6-1e42-4628-b260-9c5b9bf1aa21 .nofill{fill:none}#chart-f25abda6-1e42-4628-b260-9c5b9bf1aa21 .subtle-fill{fill-opacity:.2}#chart-f25abda6-1e42-4628-b260-9c5b9bf1aa21 .dot{stroke-width:1px;fill-opacity:1}#chart-f25abda6-1e42-4628-b260-9c5b9bf1aa21 .dot.active{stroke-width:5px}#chart-f25abda6-1e42-4628-b260-9c5b9bf1aa21 .dot.negative{fill:transparent}#chart-f25abda6-1e42-4628-b260-9c5b9bf1aa21 text,#chart-f25abda6-1e42-4628-b260-9c5b9bf1aa21 tspan{stroke:none !important}#chart-f25abda6-1e42-4628-b260-9c5b9bf1aa21 .series text.active{opacity:1}#chart-f25abda6-1e42-4628-b260-9c5b9bf1aa21 .tooltip rect{fill-opacity:.95;stroke-width:.5}#chart-f25abda6-1e42-4628-b260-9c5b9bf1aa21 .tooltip text{fill-opacity:1}#chart-f25abda6-1e42-4628-b260-9c5b9bf1aa21 .showable{visibility:hidden}#chart-f25abda6-1e42-4628-b260-9c5b9bf1aa21 .showable.shown{visibility:visible}#chart-f25abda6-1e42-4628-b260-9c5b9bf1aa21 .gauge-background{fill:rgba(229,229,229,1);stroke:none}#chart-f25abda6-1e42-4628-b260-9c5b9bf1aa21 .bg-lines{stroke:transparent;stroke-width:2px}</style><script type="text/javascript">window.pygal = window.pygal || {};window.pygal.config = window.pygal.config || {};window.pygal.config['f25abda6-1e42-4628-b260-9c5b9bf1aa21'] = {"allow_interruptions": false, "box_mode": "extremes", "classes": ["pygal-chart"], "css": ["file://style.css", "file://graph.css"], "defs": [], "disable_xml_declaration": false, "dots_size": 2.5, "dynamic_print_values": false, "explicit_size": false, "fill": false, "force_uri_protocol": "https", "formatter": null, "half_pie": false, "height": 600, "include_x_axis": false, "inner_radius": 0, "interpolate": null, "interpolation_parameters": {}, "interpolation_precision": 250, "inverse_y_axis": false, "js": ["//kozea.github.io/pygal.js/2.0.x/pygal-tooltips.min.js"], "legend_at_bottom": false, "legend_at_bottom_columns": null, "legend_box_size": 12, "logarithmic": false, "margin": 20, "margin_bottom": null, "margin_left": null, "margin_right": null, "margin_top": null, "max_scale": 16, "min_scale": 4, "missing_value_fill_truncation": "x", "no_data_text": "No data", "no_prefix": false, "order_min": null, "pretty_print": false, "print_labels": false, "print_values": false, "print_values_position": "center", "print_zeroes": true, "range": null, "rounded_bars": null, "secondary_range": null, "show_dots": true, "show_legend": true, "show_minor_x_labels": true, "show_minor_y_labels": true, "show_only_major_dots": false, "show_x_guides": false, "show_x_labels": true, "show_y_guides": true, "show_y_labels": true, "spacing": 10, "stack_from_top": false, "strict": false, "stroke": true, "stroke_style": null, "style": {"background": "transparent", "ci_colors": [], "colors": ["#005570", "#b1e4fa", "#E87653", "#E89B53", "#E853A0"], "font_family": "Consolas, \"Liberation Mono\", Menlo, Courier, monospace", "foreground": "#005570", "foreground_strong": "#18a7ed", "foreground_subtle": "#630C0D", "guide_stroke_dasharray": "4,4", "label_font_family": "Consolas, \"Liberation Mono\", Menlo, Courier, monospace", "label_font_size": 10, "legend_font_family": "Consolas, \"Liberation Mono\", Menlo, Courier, monospace", "legend_font_size": 14, "major_guide_stroke_dasharray": "6,6", "major_label_font_family": "Consolas, \"Liberation Mono\", Menlo, Courier, monospace", "major_label_font_size": 10, "no_data_font_family": "Consolas, \"Liberation Mono\", Menlo, Courier, monospace", "no_data_font_size": 64, "opacity": ".6", "opacity_hover": ".9", "plot_background": "transparent", "stroke_opacity": ".8", "stroke_opacity_hover": ".9", "title_font_family": "Consolas, \"Liberation Mono\", Menlo, Courier, monospace", "title_font_size": 16, "tooltip_font_family": "Consolas, \"Liberation Mono\", Menlo, Courier, monospace", "tooltip_font_size": 14, "transition": "400ms ease-in", "value_background": "rgba(229, 229, 229, 1)", "value_colors": [], "value_font_family": "Consolas, \"Liberation Mono\", Menlo, Courier, monospace", "value_font_size": 16, "value_label_font_family": "Consolas, \"Liberation Mono\", Menlo, Courier, monospace", "value_label_font_size": 10}, "title": "Daily Wind bearing", "tooltip_border_radius": 0, "tooltip_fancy_mode": true, "truncate_label": null, "truncate_legend": null, "width": 800, "x_label_rotation": 0, "x_labels": ["10", "11", "12", "13", "14", "15", "16", "17", "18", "19", "20", "21", "22", "23", "00", "01", "02", "03", "04", "05", "06", "07", "08", "09", "10", "11", "12", "13", "14", "15", "16", "17", "18", "19", "20", "21", "22", "23", "00", "01", "02", "03", "04", "05", "06", "07", "08", "09", "10"], "x_labels_major": null, "x_labels_major_count": null, "x_labels_major_every": null, "x_title": null, "xrange": null, "y_label_rotation": 0, "y_labels": null, "y_labels_major": null, "y_labels_major_count": null, "y_labels_major_every": null, "y_title": null, "zero": 0, "legends": ["Wind direction"]}</script><script type="text/javascript" xlink:href="https://kozea.github.io/pygal.js/2.0.x/pygal-tooltips.min.js"/></defs><title>Daily Wind bearing</title><g class="graph radar-graph vertical"><rect class="background" height="600" width="800" x="0" y="0"/><g class="plot" transform="translate(187, 46)"><rect class="background" height="514" width="592.4" x="0" y="0"/><g class="axis y web"><g class="guides"><path class="guide line" d="M296.200000 33.909722 L263.320473 35.741290 230.980827 41.205920 199.712077 50.213883 170.027657 62.617268 142.414983 78.212412 117.327455 96.743244 95.177009 117.905487 76.327356 141.351658 61.088004 166.696772 49.709186 193.524662 42.377739 221.394815 39.214048 249.849605 40.270058 278.421804 45.528431 306.642257 54.902824 334.047586 68.239310 360.187796 85.318905 384.633665 105.861161 406.983792 129.528775 426.871190 155.933127 443.969308 184.640657 457.997395 215.179988 468.725110 247.049665 475.976305 279.726390 479.631915 312.673610 479.631915 345.350335 475.976305 377.220012 468.725110 407.759343 457.997395 436.466873 443.969308 462.871225 426.871190 486.538839 406.983792 507.081095 384.633665 524.160690 360.187796 537.497176 334.047586 546.871569 306.642257 552.129942 278.421804 553.185952 249.849605 550.022261 221.394815 542.690814 193.524662 531.311996 166.696772 516.072644 141.351658 497.222991 117.905487 475.072545 96.743244 449.985017 78.212412 422.372343 62.617268 392.687923 50.213883 361.419173 41.205920 329.079527 35.741290 296.200000 33.909722 Z"/><text class="" x="291.2" y="33.90972222222217">240</text><title>240</title></g><g class="guides"><path class="guide line" d="M296.200000 71.091435 L268.800394 72.617742 241.850689 77.171600 215.793398 84.678236 191.056381 95.014390 168.045819 108.010344 147.139546 123.452703 128.680841 141.087906 112.972796 160.626382 100.273337 181.747310 90.790988 204.103885 84.681449 227.329013 82.045040 251.041337 82.925048 274.851503 87.307026 298.368547 95.119020 321.206322 106.232759 342.989830 120.465754 363.361387 137.584301 381.986494 157.307313 398.559325 179.310939 412.807757 203.233881 424.497829 228.683323 433.437592 255.241388 439.480254 282.471991 442.526596 309.928009 442.526596 337.158612 439.480254 363.716677 433.437592 389.166119 424.497829 413.089061 412.807757 435.092687 398.559325 454.815699 381.986494 471.934246 363.361387 486.167241 342.989830 497.280980 321.206322 505.092974 298.368547 509.474952 274.851503 510.354960 251.041337 507.718551 227.329013 501.609012 204.103885 492.126663 181.747310 479.427204 160.626382 463.719159 141.087906 445.260454 123.452703 424.354181 108.010344 401.343619 95.014390 376.606602 84.678236 350.549311 77.171600 323.599606 72.617742 296.200000 71.091435 Z"/><text class="" x="291.2" y="71.09143518518522">200</text><title>200</title></g><g class="guides"><path class="guide line" d="M296.200000 108.273148 L274.280315 109.494194 252.720551 113.137280 231.874718 119.142589 212.085105 127.411512 193.676656 137.808275 176.951637 150.162163 162.184673 164.270325 149.618237 179.901105 139.458670 196.797848 131.872790 214.683108 126.985160 233.263210 124.876032 252.233070 125.580039 271.281202 129.085621 290.094838 135.335216 308.365057 144.226207 325.791864 155.612603 342.089110 169.307441 356.989195 185.085850 370.247460 202.688751 381.646205 221.827104 390.998263 242.186658 398.150073 263.433110 402.984203 285.217593 405.421277 307.182407 405.421277 328.966890 402.984203 350.213342 398.150073 370.572896 390.998263 389.711249 381.646205 407.314150 370.247460 423.092559 356.989195 436.787397 342.089110 448.173793 325.791864 457.064784 308.365057 463.314379 290.094838 466.819961 271.281202 467.523968 252.233070 465.414840 233.263210 460.527210 214.683108 452.941330 196.797848 442.781763 179.901105 430.215327 164.270325 415.448363 150.162163 398.723344 137.808275 380.314895 127.411512 360.525282 119.142589 339.679449 113.137280 318.119685 109.494194 296.200000 108.273148 Z"/><text class="" x="291.2" y="108.27314814814815">160</text><title>160</title></g><g class="guides"><path class="guide line" d="M296.200000 145.454861 L279.760236 146.370645 263.590413 149.102960 247.956039 153.606942 233.113829 159.808634 219.307492 167.606206 206.763728 176.871622 195.688505 187.452743 186.263678 199.175829 178.644002 211.848386 172.954593 225.262331 169.288870 239.197408 167.707024 253.424802 168.235029 267.710902 170.864215 281.821128 175.551412 295.523793 182.219655 308.593898 190.759452 320.816832 201.030580 331.991896 212.864388 341.935595 226.066563 350.484654 240.420328 357.498698 255.689994 362.862555 271.624833 366.488152 287.963195 368.315957 304.436805 368.315957 320.775167 366.488152 336.710006 362.862555 351.979672 357.498698 366.333437 350.484654 379.535612 341.935595 391.369420 331.991896 401.640548 320.816832 410.180345 308.593898 416.848588 295.523793 421.535785 281.821128 424.164971 267.710902 424.692976 253.424802 423.111130 239.197408 419.445407 225.262331 413.755998 211.848386 406.136322 199.175829 396.711495 187.452743 385.636272 176.871622 373.092508 167.606206 359.286171 159.808634 344.443961 153.606942 328.809587 149.102960 312.639764 146.370645 296.200000 145.454861 Z"/><text class="" x="291.2" y="145.45486111111114">120</text><title>120</title></g><g class="guides"><path class="guide line" d="M296.200000 182.636574 L285.240158 183.247097 274.460276 185.068640 264.037359 188.071294 254.142552 192.205756 244.938328 197.404137 236.575818 203.581081 229.192336 210.635162 222.909119 218.450553 217.829335 226.898924 214.036395 235.841554 211.592580 245.131605 210.538016 254.616535 210.890019 264.140601 212.642810 273.547419 215.767608 282.682529 220.213103 291.395932 225.906302 299.544555 232.753720 306.994597 240.642925 313.623730 249.444376 319.323103 259.013552 323.999132 269.193329 327.575037 279.816555 329.992102 290.708797 331.210638 301.691203 331.210638 312.583445 329.992102 323.206671 327.575037 333.386448 323.999132 342.955624 319.323103 351.757075 313.623730 359.646280 306.994597 366.493698 299.544555 372.186897 291.395932 376.632392 282.682529 379.757190 273.547419 381.509981 264.140601 381.861984 254.616535 380.807420 245.131605 378.363605 235.841554 374.570665 226.898924 369.490881 218.450553 363.207664 210.635162 355.824182 203.581081 347.461672 197.404137 338.257448 192.205756 328.362641 188.071294 317.939724 185.068640 307.159842 183.247097 296.200000 182.636574 Z"/><text class="" x="291.2" y="182.63657407407408">80</text><title>80</title></g><g class="guides"><path class="guide line" d="M296.200000 219.818287 L290.720079 220.123548 285.330138 221.034320 280.118680 222.535647 275.171276 224.602878 270.569164 227.202069 266.387909 230.290541 262.696168 233.817581 259.554559 237.725276 257.014667 241.949462 255.118198 246.420777 253.896290 251.065803 253.369008 255.808267 253.545010 260.570301 254.421405 265.273709 255.983804 269.841264 258.206552 274.197966 261.053151 278.272277 264.476860 281.997299 268.421463 285.311865 272.822188 288.161551 277.606776 290.499566 282.696665 292.287518 288.008278 293.496051 293.454398 294.105319 298.945602 294.105319 304.391722 293.496051 309.703335 292.287518 314.793224 290.499566 319.577812 288.161551 323.978537 285.311865 327.923140 281.997299 331.346849 278.272277 334.193448 274.197966 336.416196 269.841264 337.978595 265.273709 338.854990 260.570301 339.030992 255.808267 338.503710 251.065803 337.281802 246.420777 335.385333 241.949462 332.845441 237.725276 329.703832 233.817581 326.012091 230.290541 321.830836 227.202069 317.228724 224.602878 312.281320 222.535647 307.069862 221.034320 301.679921 220.123548 296.200000 219.818287 Z"/><text class="" x="291.2" y="219.81828703703707">40</text><title>40</title></g><g class="guides"><path class="major guide line" d="M296.200000 257.000000 L296.200000 257.000000 296.200000 257.000000 296.200000 257.000000 296.200000 257.000000 296.200000 257.000000 296.200000 257.000000 296.200000 257.000000 296.200000 257.000000 296.200000 257.000000 296.200000 257.000000 296.200000 257.000000 296.200000 257.000000 296.200000 257.000000 296.200000 257.000000 296.200000 257.000000 296.200000 257.000000 296.200000 257.000000 296.200000 257.000000 296.200000 257.000000 296.200000 257.000000 296.200000 257.000000 296.200000 257.000000 296.200000 257.000000 296.200000 257.000000 296.200000 257.000000 296.200000 257.000000 296.200000 257.000000 296.200000 257.000000 296.200000 257.000000 296.200000 257.000000 296.200000 257.000000 296.200000 257.000000 296.200000 257.000000 296.200000 257.000000 296.200000 257.000000 296.200000 257.000000 296.200000 257.000000 296.200000 257.000000 296.200000 257.000000 296.200000 257.000000 296.200000 257.000000 296.200000 257.000000 296.200000 257.000000 296.200000 257.000000 296.200000 257.000000 296.200000 257.000000 296.200000 257.000000 296.200000 257.000000 296.200000 257.000000 Z"/><text class="major" x="291.2" y="257.0">0</text><title>0</title></g></g><g class="axis x web"><g class="guides"><path class="line" d="M296.200000 257.000000 L296.200000 19.037037"/><text class="" x="296.2" y="5.140000000000043" transform="rotate(0.000000 296.200000 5.140000)">10</text><title>1.570796327</title></g><g class="guides"><path class="line" d="M296.200000 257.000000 L261.128504 20.990710"/><text class="" x="259.08032901486837" y="7.20776711847725" transform="rotate(-7.346939 259.080329 7.207767)">11</text><title>1.699024598</title></g><g class="guides"><path class="line" d="M296.200000 257.000000 L226.632882 26.819648"/><text class="" x="222.5701620010839" y="13.377115794990118" transform="rotate(-14.693878 222.570162 13.377116)">12</text><title>1.82725287</title></g><g class="guides"><path class="line" d="M296.200000 257.000000 L193.279549 36.428142"/><text class="" x="187.2689948916348" y="23.54674549483093" transform="rotate(-22.040816 187.268995 23.546745)">13</text><title>1.955481142</title></g><g class="guides"><path class="line" d="M296.200000 257.000000 L161.616168 49.658419"/><text class="" x="153.756471874505" y="37.549671179483084" transform="rotate(-29.387755 153.756472 37.549671)">14</text><title>2.083709413</title></g><g class="guides"><path class="line" d="M296.200000 257.000000 L132.162649 66.293240"/><text class="" x="122.58286765113178" y="55.155965196336524" transform="rotate(-36.734694 122.582868 55.155965)">15</text><title>2.211937685</title></g><g class="guides"><path class="line" d="M296.200000 257.000000 L105.402619 86.059460"/><text class="" x="94.26005194102238" y="76.0765326843864" transform="rotate(-44.081633 94.260052 76.076533)">16</text><title>2.340165956</title></g><g class="guides"><path class="line" d="M296.200000 257.000000 L81.775477 108.632519"/><text class="" x="69.25308459511024" y="99.96785850385942" transform="rotate(-51.428571 69.253085 99.967859)">17</text><title>2.468394228</title></g><g class="guides"><path class="line" d="M296.200000 257.000000 L61.669179 133.641768"/><text class="" x="47.97257932586018" y="126.43764774531115" transform="rotate(-58.775510 47.972579 126.437648)">18</text><title>2.596622499</title></g><g class="guides"><path class="line" d="M296.200000 257.000000 L45.413871 160.676556"/><text class="" x="30.767961441462056" y="155.05126720119387" transform="rotate(-66.122449 30.767961 155.051267)">19</text><title>2.724850771</title></g><g class="guides"><path class="line" d="M296.200000 257.000000 L33.276465 189.292972"/><text class="" x="17.921730291930327" y="185.33888203110808" transform="rotate(-73.469388 17.921730 185.338882)">20</text><title>2.853079043</title></g><g class="guides"><path class="line" d="M296.200000 257.000000 L25.456255 219.021136"/><text class="" x="9.644820637587108" y="216.80317043689303" transform="rotate(-80.816327 9.644821 216.803170)">21</text><title>2.981307314</title></g><g class="guides"><path class="line" d="M296.200000 257.000000 L22.081651 249.372912"/><text class="" x="6.073139106129111" y="248.92748967280295" transform="rotate(-88.163265 6.073139 248.927490)">22</text><title>3.109535586</title></g><g class="guides"><path class="line" d="M296.200000 257.000000 L23.208062 279.849924"/><text class="" x="7.2653326095585795" y="281.1843593051086" transform="rotate(-275.510204 7.265333 281.184359)">23</text><title>3.237763857</title></g><g class="guides"><path class="line" d="M296.200000 257.000000 L28.816993 309.951741"/><text class="" x="13.201825363508963" y="313.0441224262373" transform="rotate(-282.857143 13.201825 313.044122)">00</text><title>3.365992129</title></g><g class="guides"><path class="line" d="M296.200000 257.000000 L38.816346 339.184092"/><text class="" x="23.78514032108376" y="343.98364260655046" transform="rotate(-290.204082 23.785140 343.983643)">01</text><title>3.4942204</title></g><g class="guides"><path class="line" d="M296.200000 257.000000 L53.041931 367.066982"/><text class="" x="38.84149974327101" y="373.4948937800567" transform="rotate(-297.551020 38.841500 373.494894)">02</text><title>3.622448672</title></g><g class="guides"><path class="line" d="M296.200000 257.000000 L71.260165 393.142576"/><text class="" x="58.12367862461397" y="401.09330201836957" transform="rotate(-304.897959 58.123679 401.093302)">03</text><title>3.750676944</title></g><g class="guides"><path class="line" d="M296.200000 257.000000 L93.171905 416.982712"/><text class="" x="81.31506412096563" y="426.3257022212152" transform="rotate(-312.244898 81.315064 426.325702)">04</text><title>3.878905215</title></g><g class="guides"><path class="line" d="M296.200000 257.000000 L118.417360 438.195936"/><text class="" x="108.03485432363621" y="448.77777907485006" transform="rotate(-319.591837 108.034854 448.777779)">05</text><title>4.007133487</title></g><g class="guides"><path class="line" d="M296.200000 257.000000 L146.582002 456.433929"/><text class="" x="137.84431101620666" y="468.0808700980589" transform="rotate(-326.938776 137.844311 468.080870)">06</text><title>4.135361758</title></g><g class="guides"><path class="line" d="M296.200000 257.000000 L177.203367 471.397221"/><text class="" x="170.25396374391167" y="483.9180190699032" transform="rotate(-334.285714 170.253964 483.918019)">07</text><title>4.26359003</title></g><g class="guides"><path class="line" d="M296.200000 257.000000 L209.778654 482.840118"/><text class="" x="204.73164690497526" y="496.02918044210696" transform="rotate(-341.632653 204.731647 496.029180)">08</text><title>4.391818301</title></g><g class="guides"><path class="line" d="M296.200000 257.000000 L243.772976 490.574725"/><text class="" x="240.71123789508033" y="504.21548927976966" transform="rotate(-348.979592 240.711238 504.215489)">09</text><title>4.520046573</title></g><g class="guides"><path class="line" d="M296.200000 257.000000 L278.628149 494.474043"/><text class="" x="277.6019528248786" y="508.3425266180997" transform="rotate(-356.326531 277.601953 508.342527)">10</text><title>4.648274845</title></g><g class="guides"><path class="line" d="M296.200000 257.000000 L313.771851 494.474043"/><text class="" x="314.79804717512127" y="508.3425266180997" transform="rotate(-363.673469 314.798047 508.342527)">11</text><title>4.776503116</title></g><g class="guides"><path class="line" d="M296.200000 257.000000 L348.627024 490.574725"/><text class="" x="351.68876210491925" y="504.2154892797697" transform="rotate(-371.020408 351.688762 504.215489)">12</text><title>4.904731388</title></g><g class="guides"><path class="line" d="M296.200000 257.000000 L382.621346 482.840118"/><text class="" x="387.6683530950244" y="496.0291804421071" transform="rotate(-378.367347 387.668353 496.029180)">13</text><title>5.032959659</title></g><g class="guides"><path class="line" d="M296.200000 257.000000 L415.196633 471.397221"/><text class="" x="422.1460362560883" y="483.9180190699033" transform="rotate(-385.714286 422.146036 483.918019)">14</text><title>5.161187931</title></g><g class="guides"><path class="line" d="M296.200000 257.000000 L445.817998 456.433929"/><text class="" x="454.55568898379306" y="468.08087009805905" transform="rotate(-393.061224 454.555689 468.080870)">15</text><title>5.289416202</title></g><g class="guides"><path class="line" d="M296.200000 257.000000 L473.982640 438.195936"/><text class="" x="484.36514567636345" y="448.77777907485023" transform="rotate(-400.408163 484.365146 448.777779)">16</text><title>5.417644474</title></g><g class="guides"><path class="line" d="M296.200000 257.000000 L499.228095 416.982712"/><text class="" x="511.0849358790342" y="426.32570222121524" transform="rotate(-407.755102 511.084936 426.325702)">17</text><title>5.545872746</title></g><g class="guides"><path class="line" d="M296.200000 257.000000 L521.139835 393.142576"/><text class="" x="534.2763213753858" y="401.09330201836974" transform="rotate(-415.102041 534.276321 401.093302)">18</text><title>5.674101017</title></g><g class="guides"><path class="line" d="M296.200000 257.000000 L539.358069 367.066982"/><text class="" x="553.558500256729" y="373.49489378005677" transform="rotate(-422.448980 553.558500 373.494894)">19</text><title>5.802329289</title></g><g class="guides"><path class="line" d="M296.200000 257.000000 L553.583654 339.184092"/><text class="" x="568.6148596789161" y="343.9836426065507" transform="rotate(-429.795918 568.614860 343.983643)">20</text><title>5.93055756</title></g><g class="guides"><path class="line" d="M296.200000 257.000000 L563.583007 309.951741"/><text class="" x="579.1981746364909" y="313.04412242623744" transform="rotate(-437.142857 579.198175 313.044122)">21</text><title>6.058785832</title></g><g class="guides"><path class="line" d="M296.200000 257.000000 L569.191938 279.849924"/><text class="" x="585.1346673904415" y="281.18435930510896" transform="rotate(-444.489796 585.134667 281.184359)">22</text><title>6.187014103</title></g><g class="guides"><path class="line" d="M296.200000 257.000000 L570.318349 249.372912"/><text class="" x="586.3268608938708" y="248.92748967280306" transform="rotate(-271.836735 586.326861 248.927490)">23</text><title>6.315242375</title></g><g class="guides"><path class="line" d="M296.200000 257.000000 L566.943745 219.021136"/><text class="" x="582.755179362413" y="216.8031704368933" transform="rotate(-279.183673 582.755179 216.803170)">00</text><title>6.443470647</title></g><g class="guides"><path class="line" d="M296.200000 257.000000 L559.123535 189.292972"/><text class="" x="574.4782697080697" y="185.33888203110826" transform="rotate(-286.530612 574.478270 185.338882)">01</text><title>6.571698918</title></g><g class="guides"><path class="line" d="M296.200000 257.000000 L546.986129 160.676556"/><text class="" x="561.6320385585382" y="155.0512672011941" transform="rotate(-293.877551 561.632039 155.051267)">02</text><title>6.69992719</title></g><g class="guides"><path class="line" d="M296.200000 257.000000 L530.730821 133.641768"/><text class="" x="544.42742067414" y="126.43764774531127" transform="rotate(-301.224490 544.427421 126.437648)">03</text><title>6.828155461</title></g><g class="guides"><path class="line" d="M296.200000 257.000000 L510.624523 108.632519"/><text class="" x="523.1469154048898" y="99.96785850385942" transform="rotate(-308.571429 523.146915 99.967859)">04</text><title>6.956383733</title></g><g class="guides"><path class="line" d="M296.200000 257.000000 L486.997381 86.059460"/><text class="" x="498.13994805897784" y="76.0765326843865" transform="rotate(-315.918367 498.139948 76.076533)">05</text><title>7.084612005</title></g><g class="guides"><path class="line" d="M296.200000 257.000000 L460.237351 66.293240"/><text class="" x="469.8171323488683" y="55.155965196336524" transform="rotate(-323.265306 469.817132 55.155965)">06</text><title>7.212840276</title></g><g class="guides"><path class="line" d="M296.200000 257.000000 L430.783832 49.658419"/><text class="" x="438.6435281254953" y="37.549671179483255" transform="rotate(-330.612245 438.643528 37.549671)">07</text><title>7.341068548</title></g><g class="guides"><path class="line" d="M296.200000 257.000000 L399.120451 36.428142"/><text class="" x="405.13100510836534" y="23.546745494831043" transform="rotate(-337.959184 405.131005 23.546745)">08</text><title>7.469296819</title></g><g class="guides"><path class="line" d="M296.200000 257.000000 L365.767118 26.819648"/><text class="" x="369.82983799891645" y="13.377115794990175" transform="rotate(-345.306122 369.829838 13.377116)">09</text><title>7.597525091</title></g><g class="guides"><path class="line" d="M296.200000 257.000000 L331.271496 20.990710"/><text class="" x="333.31967098513184" y="7.20776711847725" transform="rotate(-352.653061 333.319671 7.207767)">10</text><title>7.725753362</title></g></g><g class="series serie-0 color-0"><path class="line reactive nofill" d="M296.200000 102.695891 L272.499341 97.509347 245.383394 88.860446 213.783233 80.370192 183.696328 83.675398 162.278881 101.305809 150.120755 126.123649 135.381608 145.724390 112.972796 160.626382 90.477004 177.984675 72.304177 199.343234 54.011260 223.026719 39.214048 249.849605 32.805435 279.046606 40.306107 307.676471 54.902824 334.047586 75.838000 356.748202 91.469603 380.911016 112.205789 401.984333 135.778946 420.501021 162.362025 435.399882 190.683454 447.110036 219.568572 457.256667 249.711975 464.115088 280.481430 469.427952 312.055850 471.283218 343.711990 468.677095 374.856929 462.549795 405.900021 454.647438 435.882428 443.190269 464.954615 428.994580 491.297310 410.733387 514.110465 388.888120 532.709216 364.057338 547.551225 337.257902 556.271753 308.503842 560.660940 279.135864 561.752151 249.611258 559.540595 220.059621 553.988310 190.615375 543.067595 162.181610 527.066277 135.569241 507.274140 110.950761 484.016172 88.730406 458.315038 68.528085 430.258114 50.468348 399.120451 36.428142 365.767118 26.819648 331.271496 20.990710 Z"/></g></g><g class="titles"><text class="title plot_title" x="400.0" y="26">Daily Wind bearing</text></g><g class="plot overlay" transform="translate(187, 46)"><g class="series serie-0 color-0"><g class="dots"><circle class="dot reactive tooltip-trigger" cx="296.2" cy="102.69589120370375" r="2.5"/><desc class="value">166</desc><desc class="x ">296.2</desc><desc class="y ">102.69589120370375</desc><desc class="x_label">10</desc></g><g class="dots"><circle class="dot reactive tooltip-trigger" cx="272.4993408371873" cy="97.50934677157358" r="2.5"/><desc class="value">173</desc><desc class="x ">272.4993408371873</desc><desc class="y ">97.50934677157358</desc><desc class="x_label">11</desc></g><g class="dots"><circle class="dot reactive tooltip-trigger" cx="245.38339406106317" cy="88.86044624279253" r="2.5"/><desc class="value">187</desc><desc class="x ">245.38339406106317</desc><desc class="y ">88.86044624279253</desc><desc class="x_label">12</desc></g><g class="dots"><circle class="dot reactive tooltip-trigger" cx="213.78323277169966" cy="80.37019183747418" r="2.5"/><desc class="value">205</desc><desc class="x ">213.78323277169966</desc><desc class="y ">80.37019183747418</desc><desc class="x_label">13</desc></g><g class="dots"><circle class="dot reactive tooltip-trigger" cx="183.6963276715741" cy="83.67539753552455" r="2.5"/><desc class="value">214</desc><desc class="x ">183.6963276715741</desc><desc class="y ">83.67539753552455</desc><desc class="x_label">14</desc></g><g class="dots"><circle class="dot reactive tooltip-trigger" cx="162.27888137122716" cy="101.30580920358238" r="2.5"/><desc class="value">209</desc><desc class="x ">162.27888137122716</desc><desc class="y ">101.30580920358238</desc><desc class="x_label">15</desc></g><g class="dots"><circle class="dot reactive tooltip-trigger" cx="150.12075516567015" cy="126.12364922192302" r="2.5"/><desc class="value">196</desc><desc class="x ">150.12075516567015</desc><desc class="y ">126.12364922192302</desc><desc class="x_label">16</desc></g><g class="dots"><circle class="dot reactive tooltip-trigger" cx="135.38160756456222" cy="145.7243895293788" r="2.5"/><desc class="value">192</desc><desc class="x ">135.38160756456222</desc><desc class="y ">145.7243895293788</desc><desc class="x_label">17</desc></g><g class="dots"><circle class="dot reactive tooltip-trigger" cx="112.9727962947168" cy="160.62638161472444" r="2.5"/><desc class="value">200</desc><desc class="x ">112.9727962947168</desc><desc class="y ">160.62638161472444</desc><desc class="x_label">18</desc></g><g class="dots"><circle class="dot reactive tooltip-trigger" cx="90.47700384537922" cy="177.98467510013165" r="2.5"/><desc class="value">210</desc><desc class="x ">90.47700384537922</desc><desc class="y ">177.98467510013165</desc><desc class="x_label">19</desc></g><g class="dots"><circle class="dot reactive tooltip-trigger" cx="72.30417701409857" cy="199.34323434393002" r="2.5"/><desc class="value">218</desc><desc class="x ">72.30417701409857</desc><desc class="y ">199.34323434393002</desc><desc class="x_label">20</desc></g><g class="dots"><circle class="dot reactive tooltip-trigger" cx="54.0112596475497" cy="223.0267193923629" r="2.5"/><desc class="value">229</desc><desc class="x ">54.0112596475497</desc><desc class="y ">223.0267193923629</desc><desc class="x_label">21</desc></g><g class="dots"><circle class="dot reactive tooltip-trigger" cx="39.214047535899546" cy="249.8496046563235" r="2.5"/><desc class="value">240</desc><desc class="x ">39.214047535899546</desc><desc class="y ">249.8496046563235</desc><desc class="x_label">22</desc></g><g class="dots"><circle class="dot reactive tooltip-trigger" cx="32.80543462774353" cy="279.0466061255559" r="2.5"/><desc class="value">247</desc><desc class="x top">32.80543462774353</desc><desc class="y top">279.0466061255559</desc><desc class="x_label">23</desc></g><g class="dots"><circle class="dot reactive tooltip-trigger" cx="40.30610655699237" cy="307.6764706545115" r="2.5"/><desc class="value">245</desc><desc class="x top">40.30610655699237</desc><desc class="y top">307.6764706545115</desc><desc class="x_label">00</desc></g><g class="dots"><circle class="dot reactive tooltip-trigger" cx="54.902824122275156" cy="334.04758592558676" r="2.5"/><desc class="value">240</desc><desc class="x top">54.902824122275156</desc><desc class="y top">334.04758592558676</desc><desc class="x_label">01</desc></g><g class="dots"><circle class="dot reactive tooltip-trigger" cx="75.83799994552092" cy="356.7482024642634" r="2.5"/><desc class="value">232</desc><desc class="x top">75.83799994552092</desc><desc class="y top">356.7482024642634</desc><desc class="x_label">02</desc></g><g class="dots"><circle class="dot reactive tooltip-trigger" cx="91.46960329099001" cy="380.9110160763007" r="2.5"/><desc class="value">233</desc><desc class="x top">91.46960329099001</desc><desc class="y top">380.9110160763007</desc><desc class="x_label">03</desc></g><g class="dots"><circle class="dot reactive tooltip-trigger" cx="112.20578879405244" cy="401.98433261335623" r="2.5"/><desc class="value">232</desc><desc class="x top">112.20578879405244</desc><desc class="y top">401.98433261335623</desc><desc class="x_label">04</desc></g><g class="dots"><circle class="dot reactive tooltip-trigger" cx="135.77894636346713" cy="420.50102072663617" r="2.5"/><desc class="value">231</desc><desc class="x top">135.77894636346713</desc><desc class="y top">420.50102072663617</desc><desc class="x_label">05</desc></g><g class="dots"><circle class="dot reactive tooltip-trigger" cx="162.36202531057833" cy="435.39988150028745" r="2.5"/><desc class="value">229</desc><desc class="x top">162.36202531057833</desc><desc class="y top">435.39988150028745</desc><desc class="x_label">06</desc></g><g class="dots"><circle class="dot reactive tooltip-trigger" cx="190.68345442511966" cy="447.11003611313373" r="2.5"/><desc class="value">227</desc><desc class="x top">190.68345442511966</desc><desc class="y top">447.11003611313373</desc><desc class="x_label">07</desc></g><g class="dots"><circle class="dot reactive tooltip-trigger" cx="219.5685716921968" cy="457.25666675656606" r="2.5"/><desc class="value">227</desc><desc class="x top">219.5685716921968</desc><desc class="y top">457.25666675656606</desc><desc class="x_label">08</desc></g><g class="dots"><circle class="dot reactive tooltip-trigger" cx="249.71197489349802" cy="464.11508846825" r="2.5"/><desc class="value">227</desc><desc class="x top">249.71197489349802</desc><desc class="y top">464.11508846825</desc><desc class="x_label">09</desc></g><g class="dots"><circle class="dot reactive tooltip-trigger" cx="280.4814300953134" cy="469.42795211058865" r="2.5"/><desc class="value">229</desc><desc class="x top">280.4814300953134</desc><desc class="y top">469.42795211058865</desc><desc class="x_label">10</desc></g><g class="dots"><circle class="dot reactive tooltip-trigger" cx="312.0558499911903" cy="471.2832180678863" r="2.5"/><desc class="value">231</desc><desc class="x left top">312.0558499911903</desc><desc class="y left top">471.2832180678863</desc><desc class="x_label">11</desc></g><g class="dots"><circle class="dot reactive tooltip-trigger" cx="343.7119904172176" cy="468.67709482217623" r="2.5"/><desc class="value">232</desc><desc class="x left top">343.7119904172176</desc><desc class="y left top">468.67709482217623</desc><desc class="x_label">12</desc></g><g class="dots"><circle class="dot reactive tooltip-trigger" cx="374.85692861549813" cy="462.5497945122463" r="2.5"/><desc class="value">233</desc><desc class="x left top">374.85692861549813</desc><desc class="y left top">462.5497945122463</desc><desc class="x_label">13</desc></g><g class="dots"><circle class="dot reactive tooltip-trigger" cx="405.9000209500958" cy="454.6474384259893" r="2.5"/><desc class="value">236</desc><desc class="x left top">405.9000209500958</desc><desc class="y left top">454.6474384259893</desc><desc class="x_label">14</desc></g><g class="dots"><circle class="dot reactive tooltip-trigger" cx="435.8824277326276" cy="443.1902693387281" r="2.5"/><desc class="value">239</desc><desc class="x left top">435.8824277326276</desc><desc class="y left top">443.1902693387281</desc><desc class="x_label">15</desc></g><g class="dots"><circle class="dot reactive tooltip-trigger" cx="464.95461486440445" cy="428.99458024490315" r="2.5"/><desc class="value">243</desc><desc class="x left top">464.95461486440445</desc><desc class="y left top">428.99458024490315</desc><desc class="x_label">16</desc></g><g class="dots"><circle class="dot reactive tooltip-trigger" cx="491.29731015803054" cy="410.73338716761054" r="2.5"/><desc class="value">246</desc><desc class="x left top">491.29731015803054</desc><desc class="y left top">410.73338716761054</desc><desc class="x_label">17</desc></g><g class="dots"><circle class="dot reactive tooltip-trigger" cx="514.1104651666715" cy="388.8881201155477" r="2.5"/><desc class="value">248</desc><desc class="x left top">514.1104651666715</desc><desc class="y left top">388.8881201155477</desc><desc class="x_label">18</desc></g><g class="dots"><circle class="dot reactive tooltip-trigger" cx="532.7092155757124" cy="364.0573379896621" r="2.5"/><desc class="value">249</desc><desc class="x left top">532.7092155757124</desc><desc class="y left top">364.0573379896621</desc><desc class="x_label">19</desc></g><g class="dots"><circle class="dot reactive tooltip-trigger" cx="547.55122487263" cy="337.2579020058198" r="2.5"/><desc class="value">250</desc><desc class="x left top">547.55122487263</desc><desc class="y left top">337.2579020058198</desc><desc class="x_label">20</desc></g><g class="dots"><circle class="dot reactive tooltip-trigger" cx="556.2717529277915" cy="308.50384160397294" r="2.5"/><desc class="value">249</desc><desc class="x left top">556.2717529277915</desc><desc class="y left top">308.50384160397294</desc><desc class="x_label">21</desc></g><g class="dots"><circle class="dot reactive tooltip-trigger" cx="560.6609401308486" cy="279.13586364023456" r="2.5"/><desc class="value">248</desc><desc class="x left top">560.6609401308486</desc><desc class="y left top">279.13586364023456</desc><desc class="x_label">22</desc></g><g class="dots"><circle class="dot reactive tooltip-trigger" cx="561.7521508795705" cy="249.61125814486763" r="2.5"/><desc class="value">248</desc><desc class="x left">561.7521508795705</desc><desc class="y left">249.61125814486763</desc><desc class="x_label">23</desc></g><g class="dots"><circle class="dot reactive tooltip-trigger" cx="559.5405954050661" cy="220.05962064933817" r="2.5"/><desc class="value">249</desc><desc class="x left">559.5405954050661</desc><desc class="y left">220.05962064933817</desc><desc class="x_label">00</desc></g><g class="dots"><circle class="dot reactive tooltip-trigger" cx="553.9883099516572" cy="190.61537532259848" r="2.5"/><desc class="value">251</desc><desc class="x left">553.9883099516572</desc><desc class="y left">190.61537532259848</desc><desc class="x_label">01</desc></g><g class="dots"><circle class="dot reactive tooltip-trigger" cx="543.067595385545" cy="162.1816101201582" r="2.5"/><desc class="value">252</desc><desc class="x left">543.067595385545</desc><desc class="y left">162.1816101201582</desc><desc class="x_label">02</desc></g><g class="dots"><circle class="dot reactive tooltip-trigger" cx="527.066276668657" cy="135.56924083455294" r="2.5"/><desc class="value">252</desc><desc class="x left">527.066276668657</desc><desc class="y left">135.56924083455294</desc><desc class="x_label">03</desc></g><g class="dots"><circle class="dot reactive tooltip-trigger" cx="507.27414007151214" cy="110.95076125730975" r="2.5"/><desc class="value">252</desc><desc class="x left">507.27414007151214</desc><desc class="y left">110.95076125730975</desc><desc class="x_label">04</desc></g><g class="dots"><circle class="dot reactive tooltip-trigger" cx="484.01617192985276" cy="88.73040614247253" r="2.5"/><desc class="value">252</desc><desc class="x left">484.01617192985276</desc><desc class="y left">88.73040614247253</desc><desc class="x_label">05</desc></g><g class="dots"><circle class="dot reactive tooltip-trigger" cx="458.3150383400935" cy="68.52808482538921" r="2.5"/><desc class="value">253</desc><desc class="x left">458.3150383400935</desc><desc class="y left">68.52808482538921</desc><desc class="x_label">06</desc></g><g class="dots"><circle class="dot reactive tooltip-trigger" cx="430.25811422312455" cy="50.46834753064854" r="2.5"/><desc class="value">255</desc><desc class="x left">430.25811422312455</desc><desc class="y left">50.46834753064854</desc><desc class="x_label">07</desc></g><g class="dots"><circle class="dot reactive tooltip-trigger" cx="399.1204507826581" cy="36.4281420019189" r="2.5"/><desc class="value">256</desc><desc class="x left">399.1204507826581</desc><desc class="y left">36.4281420019189</desc><desc class="x_label">08</desc></g><g class="dots"><circle class="dot reactive tooltip-trigger" cx="365.76711829073736" cy="26.819648332379188" r="2.5"/><desc class="value">256</desc><desc class="x left">365.76711829073736</desc><desc class="y left">26.819648332379188</desc><desc class="x_label">09</desc></g><g class="dots"><circle class="dot reactive tooltip-trigger" cx="331.2714956397693" cy="20.99070967354237" r="2.5"/><desc class="value">256</desc><desc class="x left">331.2714956397693</desc><desc class="y left">20.99070967354237</desc><desc class="x_label">10</desc></g></g></g><g class="plot text-overlay" transform="translate(187, 46)"><g class="series serie-0 color-0"/></g><g class="plot tooltip-overlay" transform="translate(187, 46)"><g class="tooltip" style="opacity: 0" transform="translate(0 0)"><rect class="tooltip-box" height="0" rx="0" ry="0" width="0"/><g class="text"/></g></g><g class="legends" transform="translate(10, 56)"><g class="legend reactive activate-serie" id="activate-serie-0"><rect class="color-0 reactive" height="12" width="12" x="0.0" y="1.0"/><text x="17.0" y="11.2">Wind direction</text></g></g><g class="legends" transform="translate(790, 56)"/></g></svg>