<?xml version='1.0' encoding='utf-8'?>
<svg xmlns:xlink="http://www.w3.org/1999/xlink" class="pygal-chart" id="chart-4bce5e96-368a-46e9-9985-1f8e1c9044ee" viewBox="0 0 800 600" xmlns="http://www.w3.org/2000/svg"><!--Generated with pygal 2.4.0 (etree) ©Kozea 2012-2016 on 2017-07-19--><!--http://pygal.org--><!--http://github.com/Kozea/pygal--><defs><style type="text/css">#chart-4bce5e96-368a-46e9-9985-1f8e1c9044ee{-webkit-user-select:none;-webkit-font-smoothing:antialiased;font-family:Consolas,"Liberation Mono",Menlo,Courier,monospace}#chart-4bce5e96-368a-46e9-9985-1f8e1c9044ee .title{font-family:Consolas,"Liberation Mono",Menlo,Courier,monospace;font-size:16px}#chart-4bce5e96-368a-46e9-9985-1f8e1c9044ee .legends .legend text{font-family:Consolas,"Liberation Mono",Menlo,Courier,monospace;font-size:14px}#chart-4bce5e96-368a-46e9-9985-1f8e1c9044ee .axis text{font-family:Consolas,"Liberation Mono",Menlo,Courier,monospace;font-size:10px}#chart-4bce5e96-368a-46e9-9985-1f8e1c9044ee .axis text.major{font-family:Consolas,"Liberation Mono",Menlo,Courier,monospace;font-size:10px}#chart-4bce5e96-368a-46e9-9985-1f8e1c9044ee .text-overlay text.value{font-family:Consolas,"Liberation Mono",Menlo,Courier,monospace;font-size:16px}#chart-4bce5e96-368a-46e9-9985-1f8e1c9044ee .text-overlay text.label{font-family:Consolas,"Liberation Mono",Menlo,Courier,monospace;font-size:10px}#chart-4bce5e96-368a-46e9-9985-1f8e1c9044ee .tooltip{font-family:Consolas,"Liberation Mono",Menlo,Courier,monospace;font-size:14px}#chart-4bce5e96-368a-46e9-9985-1f8e1c9044ee text.no_data{font-family:Consolas,"Liberation Mono",Menlo,Courier,monospace;font-size:64px}
#chart-4bce5e96-368a-46e9-9985-1f8e1c9044ee{background-color:transparent}#chart-4bce5e96-368a-46e9-9985-1f8e1c9044ee path,#chart-4bce5e96-368a-46e9-9985-1f8e1c9044ee line,#chart-4bce5e96-368a-46e9-9985-1f8e1c9044ee rect,#chart-4bce5e96-368a-46e9-9985-1f8e1c9044ee circle{-webkit-transition:400ms ease-in;-moz-transition:400ms ease-in;transition:400ms ease-in}#chart-4bce5e96-368a-46e9-9985-1f8e1c9044ee .graph &gt; .background{fill:transparent}#chart-4bce5e96-368a-46e9-9985-1f8e1c9044ee .plot &gt; .background{fill:transparent}#chart-4bce5e96-368a-46e9-9985-1f8e1c9044ee .graph{fill:#53E89B}#chart-4bce5e96-368a-46e9-9985-1f8e1c9044ee text.no_data{fill:#53A0E8}#chart-4bce5e96-368a-46e9-9985-1f8e1c9044ee .title{fill:#53A0E8}#chart-4bce5e96-368a-46e9-9985-1f8e1c9044ee .legends .legend text{fill:#53E89B}#chart-4bce5e96-368a-46e9-9985-1f8e1c9044ee .legends .legend:hover text{fill:#53A0E8}#chart-4bce5e96-368a-46e9-9985-1f8e1c9044ee .axis .line{stroke:#53A0E8}#chart-4bce5e96-368a-46e9-9985-1f8e1c9044ee .axis .guide.line{stroke:#630C0D}#chart-4bce5e96-368a-46e9-9985-1f8e1c9044ee .axis .major.line{stroke:#53E89B}#chart-4bce5e96-368a-46e9-9985-1f8e1c9044ee .axis text.major{fill:#53A0E8}#chart-4bce5e96-368a-46e9-9985-1f8e1c9044ee .axis.y .guides:hover .guide.line,#chart-4bce5e96-368a-46e9-9985-1f8e1c9044ee .line-graph .axis.x .guides:hover .guide.line,#chart-4bce5e96-368a-46e9-9985-1f8e1c9044ee .stackedline-graph .axis.x .guides:hover .guide.line,#chart-4bce5e96-368a-46e9-9985-1f8e1c9044ee .xy-graph .axis.x .guides:hover .guide.line{stroke:#53A0E8}#chart-4bce5e96-368a-46e9-9985-1f8e1c9044ee .axis .guides:hover text{fill:#53A0E8}#chart-4bce5e96-368a-46e9-9985-1f8e1c9044ee .reactive{fill-opacity:.6;stroke-opacity:.8}#chart-4bce5e96-368a-46e9-9985-1f8e1c9044ee .ci{stroke:#53E89B}#chart-4bce5e96-368a-46e9-9985-1f8e1c9044ee .reactive.active,#chart-4bce5e96-368a-46e9-9985-1f8e1c9044ee .active .reactive{fill-opacity:.9;stroke-opacity:.9;stroke-width:4}#chart-4bce5e96-368a-46e9-9985-1f8e1c9044ee .ci .reactive.active{stroke-width:1.5}#chart-4bce5e96-368a-46e9-9985-1f8e1c9044ee .series text{fill:#53A0E8}#chart-4bce5e96-368a-46e9-9985-1f8e1c9044ee .tooltip rect{fill:transparent;stroke:#53A0E8;-webkit-transition:opacity 400ms ease-in;-moz-transition:opacity 400ms ease-in;transition:opacity 400ms ease-in}#chart-4bce5e96-368a-46e9-9985-1f8e1c9044ee .tooltip .label{fill:#53E89B}#chart-4bce5e96-368a-46e9-9985-1f8e1c9044ee .tooltip .label{fill:#53E89B}#chart-4bce5e96-368a-46e9-9985-1f8e1c9044ee .tooltip .legend{font-size:.8em;fill:#630C0D}#chart-4bce5e96-368a-46e9-9985-1f8e1c9044ee .tooltip .x_label{font-size:.6em;fill:#53A0E8}#chart-4bce5e96-368a-46e9-9985-1f8e1c9044ee .tooltip .xlink{font-size:.5em;text-decoration:underline}#chart-4bce5e96-368a-46e9-9985-1f8e1c9044ee .tooltip .value{font-size:1.5em}#chart-4bce5e96-368a-46e9-9985-1f8e1c9044ee .bound{font-size:.5em}#chart-4bce5e96-368a-46e9-9985-1f8e1c9044ee .max-value{font-size:.75em;fill:#630C0D}#chart-4bce5e96-368a-46e9-9985-1f8e1c9044ee .map-element{fill:transparent;stroke:#630C0D !important}#chart-4bce5e96-368a-46e9-9985-1f8e1c9044ee .map-element .reactive{fill-opacity:inherit;stroke-opacity:inherit}#chart-4bce5e96-368a-46e9-9985-1f8e1c9044ee .color-0,#chart-4bce5e96-368a-46e9-9985-1f8e1c9044ee .color-0 a:visited{stroke:#E853A0;fill:#E853A0}#chart-4bce5e96-368a-46e9-9985-1f8e1c9044ee .text-overlay .color-0 text{fill:black}
#chart-4bce5e96-368a-46e9-9985-1f8e1c9044ee text.no_data{text-anchor:middle}#chart-4bce5e96-368a-46e9-9985-1f8e1c9044ee .guide.line{fill:none}#chart-4bce5e96-368a-46e9-9985-1f8e1c9044ee .centered{text-anchor:middle}#chart-4bce5e96-368a-46e9-9985-1f8e1c9044ee .title{text-anchor:middle}#chart-4bce5e96-368a-46e9-9985-1f8e1c9044ee .legends .legend text{fill-opacity:1}#chart-4bce5e96-368a-46e9-9985-1f8e1c9044ee .axis.x text{text-anchor:middle}#chart-4bce5e96-368a-46e9-9985-1f8e1c9044ee .axis.x:not(.web) text[transform]{text-anchor:start}#chart-4bce5e96-368a-46e9-9985-1f8e1c9044ee .axis.x:not(.web) text[transform].backwards{text-anchor:end}#chart-4bce5e96-368a-46e9-9985-1f8e1c9044ee .axis.y text{text-anchor:end}#chart-4bce5e96-368a-46e9-9985-1f8e1c9044ee .axis.y text[transform].backwards{text-anchor:start}#chart-4bce5e96-368a-46e9-9985-1f8e1c9044ee .axis.y2 text{text-anchor:start}#chart-4bce5e96-368a-46e9-9985-1f8e1c9044ee .axis.y2 text[transform].backwards{text-anchor:end}#chart-4bce5e96-368a-46e9-9985-1f8e1c9044ee .axis .guide.line{stroke-dasharray:4,4}#chart-4bce5e96-368a-46e9-9985-1f8e1c9044ee .axis .major.guide.line{stroke-dasharray:6,6}#chart-4bce5e96-368a-46e9-9985-1f8e1c9044ee .horizontal .axis.y .guide.line,#chart-4bce5e96-368a-46e9-9985-1f8e1c9044ee .horizontal .axis.y2 .guide.line,#chart-4bce5e96-368a-46e9-9985-1f8e1c9044ee .vertical .axis.x .guide.line{opacity:0}#chart-4bce5e96-368a-46e9-9985-1f8e1c9044ee .horizontal .axis.always_show .guide.line,#chart-4bce5e96-368a-46e9-9985-1f8e1c9044ee .vertical .axis.always_show .guide.line{opacity:1 !important}#chart-4bce5e96-368a-46e9-9985-1f8e1c9044ee .axis.y .guides:hover .guide.line,#chart-4bce5e96-368a-46e9-9985-1f8e1c9044ee .axis.y2 .guides:hover .guide.line,#chart-4bce5e96-368a-46e9-9985-1f8e1c9044ee .axis.x .guides:hover .guide.line{opacity:1}#chart-4bce5e96-368a-46e9-9985-1f8e1c9044ee .axis .guides:hover text{opacity:1}#chart-4bce5e96-368a-46e9-9985-1f8e1c9044ee .nofill{fill:none}#chart-4bce5e96-368a-46e9-9985-1f8e1c9044ee .subtle-fill{fill-opacity:.2}#chart-4bce5e96-368a-46e9-9985-1f8e1c9044ee .dot{stroke-width:1px;fill-opacity:1}#chart-4bce5e96-368a-46e9-9985-1f8e1c9044ee .dot.active{stroke-width:5px}#chart-4bce5e96-368a-46e9-9985-1f8e1c9044ee .dot.negative{fill:transparent}#chart-4bce5e96-368a-46e9-9985-1f8e1c9044ee text,#chart-4bce5e96-368a-46e9-9985-1f8e1c9044ee tspan{stroke:none !important}#chart-4bce5e96-368a-46e9-9985-1f8e1c9044ee .series text.active{opacity:1}#chart-4bce5e96-368a-46e9-9985-1f8e1c9044ee .tooltip rect{fill-opacity:.95;stroke-width:.5}#chart-4bce5e96-368a-46e9-9985-1f8e1c9044ee .tooltip text{fill-opacity:1}#chart-4bce5e96-368a-46e9-9985-1f8e1c9044ee .showable{visibility:hidden}#chart-4bce5e96-368a-46e9-9985-1f8e1c9044ee .showable.shown{visibility:visible}#chart-4bce5e96-368a-46e9-9985-1f8e1c9044ee .gauge-background{fill:rgba(229,229,229,1);stroke:none}#chart-4bce5e96-368a-46e9-9985-1f8e1c9044ee .bg-lines{stroke:transparent;stroke-width:2px}</style><script type="text/javascript">window.pygal = window.pygal || {};window.pygal.config = window.pygal.config || {};window.pygal.config['4bce5e96-368a-46e9-9985-1f8e1c9044ee'] = {"allow_interruptions": false, "box_mode": "extremes", "classes": ["pygal-chart"], "css": ["file://style.css", "file://graph.css"], "defs": [], "disable_xml_declaration": false, "dots_size": 2.5, "dynamic_print_values": false, "explicit_size": false, "fill": false, "force_uri_protocol": "https", "formatter": null, "half_pie": false, "height": 600, "include_x_axis": false, "inner_radius": 0, "interpolate": null, "interpolation_parameters": {}, "interpolation_precision": 250, "inverse_y_axis": false, "js": ["//kozea.github.io/pygal.js/2.0.x/pygal-tooltips.min.js"], "legend_at_bottom": false, "legend_at_bottom_columns": null, "legend_box_size": 12, "logarithmic": false, "margin": 20, "margin_bottom": null, "margin_left": null, "margin_right": null, "margin_top": null, "max_scale": 16, "min_scale": 4, "missing_value_fill_truncation": "x", "no_data_text": "No data", "no_prefix": false, "order_min": null, "pretty_print": false, "print_labels": false, "print_values": false, "print_values_position": "center", "print_zeroes": true, "range": null, "rounded_bars": null, "secondary_range": null, "show_dots": true, "show_legend": true, "show_minor_x_labels": true, "show_minor_y_labels": true, "show_only_major_dots": false, "show_x_guides": false, "show_x_labels": true, "show_y_guides": true, "show_y_labels": true, "spacing": 10, "stack_from_top": false, "strict": false, "stroke": true, "stroke_style": null, "style": {"background": "transparent", "ci_colors": [], "colors": ["#E853A0", "#E8537A", "#E95355", "#E87653", "#E89B53"], "font_family": "Consolas, \"Liberation Mono\", Menlo, Courier, monospace", "foreground": "#53E89B", "foreground_strong": "#53A0E8", "foreground_subtle": "#630C0D", "guide_stroke_dasharray": "4,4", "label_font_family": "Consolas, \"Liberation Mono\", Menlo, Courier, monospace", "label_font_size": 10, "legend_font_family": "Consolas, \"Liberation Mono\", Menlo, Courier, monospace", "legend_font_size": 14, "major_guide_stroke_dasharray": "6,6", "major_label_font_family": "Consolas, \"Liberation Mono\", Menlo, Courier, monospace", "major_label_font_size": 10, "no_data_font_family": "Consolas, \"Liberation Mono\", Menlo, Courier, monospace", "no_data_font_size": 64, "opacity": ".6", "opacity_hover": ".9", "plot_background": "transparent", "stroke_opacity": ".8", "stroke_opacity_hover": ".9", "title_font_family": "Consolas, \"Liberation Mono\", Menlo, Courier, monospace", "title_font_size": 16, "tooltip_font_family": "Consolas, \"Liberation Mono\", Menlo, Courier, monospace", "tooltip_font_size": 14, "transition": "400ms ease-in", "value_background": "rgba(229, 229, 229, 1)", "value_colors": [], "value_font_family": "Consolas, \"Liberation Mono\", Menlo, Courier, monospace", "value_font_size": 16, "value_label_font_family": "Consolas, \"Liberation Mono\", Menlo, Courier, monospace", "value_label_font_size": 10}, "title": "Daily Wind bearing", "tooltip_border_radius": 0, "tooltip_fancy_mode": true, "truncate_label": null, "truncate_legend": null, "width": 800, "x_label_rotation": 0, "x_labels": ["16", "17", "18", "19", "20", "21", "22", "23", "00", "01", "02", "03", "04", "05", "06", "07", "08", "09", "10", "11", "12", "13", "14", "15", "16", "17", "18", "19", "20", "21", "22", "23", "00", "01", "02", "03", "04", "05", "06", "07", "08", "09", "10", "11", "12", "13", "14", "15", "16"], "x_labels_major": null, "x_labels_major_count": null, "x_labels_major_every": null, "x_title": null, "xrange": null, "y_label_rotation": 0, "y_labels": null, "y_labels_major": null, "y_labels_major_count": null, "y_labels_major_every": null, "y_title": null, "zero": 0, "legends": ["Wind direction"]}</script><script type="text/javascript" xlink:href="https://kozea.github.io/pygal.js/2.0.x/pygal-tooltips.min.js" /></defs><title>Daily Wind bearing</title><g class="graph radar-graph vertical"><rect class="background" height="600" width="800" x="0" y="0" /><g class="plot" transform="translate(187, 46)"><rect class="background" height="514" width="592.4" x="0" y="0" /><g class="axis y web"><g class="guides"><path class="guide line" d="M296.200000 40.053709 L264.225987 41.834835 232.776986 47.148967 202.369390 55.908847 173.502489 67.970639 146.650278 83.136287 122.253670 101.156773 100.713255 121.736200 82.382728 144.536655 67.563074 169.183755 56.497632 195.272795 49.368096 222.375395 46.291533 250.046529 47.318461 277.831839 52.432016 305.275091 61.548235 331.925668 74.517430 357.345967 91.126646 381.118587 111.103161 402.853185 134.118961 422.192876 159.796127 438.820106 187.713041 452.461854 217.411308 462.894124 248.403283 469.945619 280.180079 473.500552 312.219921 473.500552 343.996717 469.945619 374.988692 462.894124 404.686959 452.461854 432.603873 438.820106 458.281039 422.192876 481.296839 402.853185 501.273354 381.118587 517.882570 357.345967 530.851765 331.925668 539.967984 305.275091 545.081539 277.831839 546.108467 250.046529 543.031904 222.375395 535.902368 195.272795 524.836926 169.183755 510.017272 144.536655 491.686745 121.736200 470.146330 101.156773 445.749722 83.136287 418.897511 67.970639 390.030610 55.908847 359.623014 47.148967 328.174013 41.834835 296.200000 40.053709 Z" /><text class="" x="291.2" y="40.05370897963496">320</text><title>320</title></g><g class="guides"><path class="guide line" d="M296.200000 94.290282 L272.219490 95.626126 248.632740 99.611725 225.827042 106.181636 204.176867 115.227979 184.037709 126.602215 165.740252 140.117580 149.584941 155.552150 135.837046 172.652491 124.722305 191.137816 116.423224 210.704597 111.076072 231.031546 108.768650 251.784897 109.538846 272.623879 113.374012 293.206318 120.211177 313.194251 129.938072 332.259475 142.394985 350.088941 157.377371 366.389888 174.639221 380.894657 193.897095 393.365079 214.834781 403.596391 237.108481 411.420593 260.352462 416.709214 284.185059 419.375414 308.214941 419.375414 332.047538 416.709214 355.291519 411.420593 377.565219 403.596391 398.502905 393.365079 417.760779 380.894657 435.022629 366.389888 450.005015 350.088941 462.461928 332.259475 472.188823 313.194251 479.025988 293.206318 482.861154 272.623879 483.631350 251.784897 481.323928 231.031546 475.976776 210.704597 467.677695 191.137816 456.562954 172.652491 442.815059 155.552150 426.659748 140.117580 408.362291 126.602215 388.223133 115.227979 366.572958 106.181636 343.767260 99.611725 320.180510 95.626126 296.200000 94.290282 Z" /><text class="" x="291.2" y="94.29028173472625">240</text><title>240</title></g><g class="guides"><path class="guide line" d="M296.200000 148.526854 L280.212993 149.417418 264.488493 152.074484 249.284695 156.454424 234.851245 162.485319 221.425139 170.068144 209.226835 179.078386 198.456628 189.368100 189.291364 200.768328 181.881537 213.091878 176.348816 226.136398 172.784048 239.687697 171.245767 253.523265 171.759230 267.415920 174.316008 281.137546 178.874118 294.462834 185.358715 307.172983 193.663323 319.059294 203.651581 329.926592 215.159481 339.596438 227.998064 347.910053 241.956521 354.730927 256.805654 359.947062 272.301642 363.472809 288.190039 365.250276 304.209961 365.250276 320.098358 363.472809 335.594346 359.947062 350.443479 354.730927 364.401936 347.910053 377.240519 339.596438 388.748419 329.926592 398.736677 319.059294 407.041285 307.172983 413.525882 294.462834 418.083992 281.137546 420.640770 267.415920 421.154233 253.523265 419.615952 239.687697 416.051184 226.136398 410.518463 213.091878 403.108636 200.768328 393.943372 189.368100 383.173165 179.078386 370.974861 170.068144 357.548755 162.485319 343.115305 156.454424 327.911507 152.074484 312.187007 149.417418 296.200000 148.526854 Z" /><text class="" x="291.2" y="148.52685448981754">160</text><title>160</title></g><g class="guides"><path class="guide line" d="M296.200000 202.763427 L288.206497 203.208709 280.344247 204.537242 272.742347 206.727212 265.525622 209.742660 258.812570 213.534072 252.713417 218.039193 247.328314 223.184050 242.745682 228.884164 239.040768 235.045939 236.274408 241.568199 234.492024 248.343849 233.722883 255.261632 233.979615 262.207960 235.258004 269.068773 237.537059 275.731417 240.779357 282.086492 244.931662 288.029647 249.925790 293.463296 255.679740 298.298219 262.099032 302.455026 269.078260 305.865464 276.502827 308.473531 284.250821 310.236405 292.195020 311.125138 300.204980 311.125138 308.149179 310.236405 315.897173 308.473531 323.321740 305.865464 330.300968 302.455026 336.720260 298.298219 342.474210 293.463296 347.468338 288.029647 351.620643 282.086492 354.862941 275.731417 357.141996 269.068773 358.420385 262.207960 358.677117 255.261632 357.907976 248.343849 356.125592 241.568199 353.359232 235.045939 349.654318 228.884164 345.071686 223.184050 339.686583 218.039193 333.587430 213.534072 326.874378 209.742660 319.657653 206.727212 312.055753 204.537242 304.193503 203.208709 296.200000 202.763427 Z" /><text class="" x="291.2" y="202.7634272449087">80</text><title>80</title></g><g class="guides"><path class="major guide line" d="M296.200000 257.000000 L296.200000 257.000000 296.200000 257.000000 296.200000 257.000000 296.200000 257.000000 296.200000 257.000000 296.200000 257.000000 296.200000 257.000000 296.200000 257.000000 296.200000 257.000000 296.200000 257.000000 296.200000 257.000000 296.200000 257.000000 296.200000 257.000000 296.200000 257.000000 296.200000 257.000000 296.200000 257.000000 296.200000 257.000000 296.200000 257.000000 296.200000 257.000000 296.200000 257.000000 296.200000 257.000000 296.200000 257.000000 296.200000 257.000000 296.200000 257.000000 296.200000 257.000000 296.200000 257.000000 296.200000 257.000000 296.200000 257.000000 296.200000 257.000000 296.200000 257.000000 296.200000 257.000000 296.200000 257.000000 296.200000 257.000000 296.200000 257.000000 296.200000 257.000000 296.200000 257.000000 296.200000 257.000000 296.200000 257.000000 296.200000 257.000000 296.200000 257.000000 296.200000 257.000000 296.200000 257.000000 296.200000 257.000000 296.200000 257.000000 296.200000 257.000000 296.200000 257.000000 296.200000 257.000000 296.200000 257.000000 296.200000 257.000000 Z" /><text class="major" x="291.2" y="257.0">0</text><title>0</title></g></g><g class="axis x web"><g class="guides"><path class="line" d="M296.200000 257.000000 L296.200000 19.037037" /><text class="" transform="rotate(0.000000 296.200000 5.140000)" x="296.2" y="5.139999999999986">16</text><title>1.570796327</title></g><g class="guides"><path class="line" d="M296.200000 257.000000 L261.128504 20.990710" /><text class="" transform="rotate(-7.346939 259.080329 7.207767)" x="259.08032901486837" y="7.207767118477193">17</text><title>1.699024598</title></g><g class="guides"><path class="line" d="M296.200000 257.000000 L226.632882 26.819648" /><text class="" transform="rotate(-14.693878 222.570162 13.377116)" x="222.5701620010839" y="13.377115794989948">18</text><title>1.82725287</title></g><g class="guides"><path class="line" d="M296.200000 257.000000 L193.279549 36.428142" /><text class="" transform="rotate(-22.040816 187.268995 23.546745)" x="187.2689948916348" y="23.54674549483093">19</text><title>1.955481142</title></g><g class="guides"><path class="line" d="M296.200000 257.000000 L161.616168 49.658419" /><text class="" transform="rotate(-29.387755 153.756472 37.549671)" x="153.75647187450502" y="37.54967117948314">20</text><title>2.083709413</title></g><g class="guides"><path class="line" d="M296.200000 257.000000 L132.162649 66.293240" /><text class="" transform="rotate(-36.734694 122.582868 55.155965)" x="122.58286765113178" y="55.15596519633647">21</text><title>2.211937685</title></g><g class="guides"><path class="line" d="M296.200000 257.000000 L105.402619 86.059460" /><text class="" transform="rotate(-44.081633 94.260052 76.076533)" x="94.26005194102235" y="76.07653268438634">22</text><title>2.340165956</title></g><g class="guides"><path class="line" d="M296.200000 257.000000 L81.775477 108.632519" /><text class="" transform="rotate(-51.428571 69.253085 99.967859)" x="69.25308459511017" y="99.96785850385936">23</text><title>2.468394228</title></g><g class="guides"><path class="line" d="M296.200000 257.000000 L61.669179 133.641768" /><text class="" transform="rotate(-58.775510 47.972579 126.437648)" x="47.97257932586013" y="126.43764774531115">00</text><title>2.596622499</title></g><g class="guides"><path class="line" d="M296.200000 257.000000 L45.413871 160.676556" /><text class="" transform="rotate(-66.122449 30.767961 155.051267)" x="30.767961441462006" y="155.0512672011938">01</text><title>2.724850771</title></g><g class="guides"><path class="line" d="M296.200000 257.000000 L33.276465 189.292972" /><text class="" transform="rotate(-73.469388 17.921730 185.338882)" x="17.921730291930302" y="185.33888203110808">02</text><title>2.853079043</title></g><g class="guides"><path class="line" d="M296.200000 257.000000 L25.456255 219.021136" /><text class="" transform="rotate(-80.816327 9.644821 216.803170)" x="9.644820637587062" y="216.80317043689303">03</text><title>2.981307314</title></g><g class="guides"><path class="line" d="M296.200000 257.000000 L22.081651 249.372912" /><text class="" transform="rotate(-88.163265 6.073139 248.927490)" x="6.07313910612911" y="248.92748967280295">04</text><title>3.109535586</title></g><g class="guides"><path class="line" d="M296.200000 257.000000 L23.208062 279.849924" /><text class="" transform="rotate(-275.510204 7.265333 281.184359)" x="7.265332609558506" y="281.1843593051086">05</text><title>3.237763857</title></g><g class="guides"><path class="line" d="M296.200000 257.000000 L28.816993 309.951741" /><text class="" transform="rotate(-282.857143 13.201825 313.044122)" x="13.20182536350897" y="313.0441224262373">06</text><title>3.365992129</title></g><g class="guides"><path class="line" d="M296.200000 257.000000 L38.816346 339.184092" /><text class="" transform="rotate(-290.204082 23.785140 343.983643)" x="23.785140321083702" y="343.98364260655046">07</text><title>3.4942204</title></g><g class="guides"><path class="line" d="M296.200000 257.000000 L53.041931 367.066982" /><text class="" transform="rotate(-297.551020 38.841500 373.494894)" x="38.841499743270965" y="373.4948937800567">08</text><title>3.622448672</title></g><g class="guides"><path class="line" d="M296.200000 257.000000 L71.260165 393.142576" /><text class="" transform="rotate(-304.897959 58.123679 401.093302)" x="58.12367862461397" y="401.09330201836957">09</text><title>3.750676944</title></g><g class="guides"><path class="line" d="M296.200000 257.000000 L93.171905 416.982712" /><text class="" transform="rotate(-312.244898 81.315064 426.325702)" x="81.31506412096562" y="426.3257022212152">10</text><title>3.878905215</title></g><g class="guides"><path class="line" d="M296.200000 257.000000 L118.417360 438.195936" /><text class="" transform="rotate(-319.591837 108.034854 448.777779)" x="108.03485432363621" y="448.77777907485006">11</text><title>4.007133487</title></g><g class="guides"><path class="line" d="M296.200000 257.000000 L146.582002 456.433929" /><text class="" transform="rotate(-326.938776 137.844311 468.080870)" x="137.8443110162066" y="468.08087009805894">12</text><title>4.135361758</title></g><g class="guides"><path class="line" d="M296.200000 257.000000 L177.203367 471.397221" /><text class="" transform="rotate(-334.285714 170.253964 483.918019)" x="170.25396374391164" y="483.91801906990327">13</text><title>4.26359003</title></g><g class="guides"><path class="line" d="M296.200000 257.000000 L209.778654 482.840118" /><text class="" transform="rotate(-341.632653 204.731647 496.029180)" x="204.7316469049753" y="496.02918044210696">14</text><title>4.391818301</title></g><g class="guides"><path class="line" d="M296.200000 257.000000 L243.772976 490.574725" /><text class="" transform="rotate(-348.979592 240.711238 504.215489)" x="240.71123789508036" y="504.2154892797697">15</text><title>4.520046573</title></g><g class="guides"><path class="line" d="M296.200000 257.000000 L278.628149 494.474043" /><text class="" transform="rotate(-356.326531 277.601953 508.342527)" x="277.60195282487854" y="508.3425266180997">16</text><title>4.648274845</title></g><g class="guides"><path class="line" d="M296.200000 257.000000 L313.771851 494.474043" /><text class="" transform="rotate(-363.673469 314.798047 508.342527)" x="314.79804717512127" y="508.3425266180997">17</text><title>4.776503116</title></g><g class="guides"><path class="line" d="M296.200000 257.000000 L348.627024 490.574725" /><text class="" transform="rotate(-371.020408 351.688762 504.215489)" x="351.68876210491925" y="504.21548927976977">18</text><title>4.904731388</title></g><g class="guides"><path class="line" d="M296.200000 257.000000 L382.621346 482.840118" /><text class="" transform="rotate(-378.367347 387.668353 496.029180)" x="387.6683530950243" y="496.0291804421071">19</text><title>5.032959659</title></g><g class="guides"><path class="line" d="M296.200000 257.000000 L415.196633 471.397221" /><text class="" transform="rotate(-385.714286 422.146036 483.918019)" x="422.1460362560883" y="483.9180190699033">20</text><title>5.161187931</title></g><g class="guides"><path class="line" d="M296.200000 257.000000 L445.817998 456.433929" /><text class="" transform="rotate(-393.061224 454.555689 468.080870)" x="454.555688983793" y="468.0808700980591">21</text><title>5.289416202</title></g><g class="guides"><path class="line" d="M296.200000 257.000000 L473.982640 438.195936" /><text class="" transform="rotate(-400.408163 484.365146 448.777779)" x="484.3651456763635" y="448.7777790748503">22</text><title>5.417644474</title></g><g class="guides"><path class="line" d="M296.200000 257.000000 L499.228095 416.982712" /><text class="" transform="rotate(-407.755102 511.084936 426.325702)" x="511.08493587903433" y="426.32570222121524">23</text><title>5.545872746</title></g><g class="guides"><path class="line" d="M296.200000 257.000000 L521.139835 393.142576" /><text class="" transform="rotate(-415.102041 534.276321 401.093302)" x="534.2763213753859" y="401.09330201836974">00</text><title>5.674101017</title></g><g class="guides"><path class="line" d="M296.200000 257.000000 L539.358069 367.066982" /><text class="" transform="rotate(-422.448980 553.558500 373.494894)" x="553.558500256729" y="373.4948937800568">01</text><title>5.802329289</title></g><g class="guides"><path class="line" d="M296.200000 257.000000 L553.583654 339.184092" /><text class="" transform="rotate(-429.795918 568.614860 343.983643)" x="568.6148596789162" y="343.9836426065507">02</text><title>5.93055756</title></g><g class="guides"><path class="line" d="M296.200000 257.000000 L563.583007 309.951741" /><text class="" transform="rotate(-437.142857 579.198175 313.044122)" x="579.1981746364911" y="313.04412242623744">03</text><title>6.058785832</title></g><g class="guides"><path class="line" d="M296.200000 257.000000 L569.191938 279.849924" /><text class="" transform="rotate(-444.489796 585.134667 281.184359)" x="585.1346673904415" y="281.18435930510896">04</text><title>6.187014103</title></g><g class="guides"><path class="line" d="M296.200000 257.000000 L570.318349 249.372912" /><text class="" transform="rotate(-271.836735 586.326861 248.927490)" x="586.3268608938708" y="248.927489672803">05</text><title>6.315242375</title></g><g class="guides"><path class="line" d="M296.200000 257.000000 L566.943745 219.021136" /><text class="" transform="rotate(-279.183673 582.755179 216.803170)" x="582.755179362413" y="216.8031704368933">06</text><title>6.443470647</title></g><g class="guides"><path class="line" d="M296.200000 257.000000 L559.123535 189.292972" /><text class="" transform="rotate(-286.530612 574.478270 185.338882)" x="574.4782697080698" y="185.33888203110826">07</text><title>6.571698918</title></g><g class="guides"><path class="line" d="M296.200000 257.000000 L546.986129 160.676556" /><text class="" transform="rotate(-293.877551 561.632039 155.051267)" x="561.632038558538" y="155.05126720119404">08</text><title>6.69992719</title></g><g class="guides"><path class="line" d="M296.200000 257.000000 L530.730821 133.641768" /><text class="" transform="rotate(-301.224490 544.427421 126.437648)" x="544.42742067414" y="126.43764774531127">09</text><title>6.828155461</title></g><g class="guides"><path class="line" d="M296.200000 257.000000 L510.624523 108.632519" /><text class="" transform="rotate(-308.571429 523.146915 99.967859)" x="523.1469154048898" y="99.96785850385942">10</text><title>6.956383733</title></g><g class="guides"><path class="line" d="M296.200000 257.000000 L486.997381 86.059460" /><text class="" transform="rotate(-315.918367 498.139948 76.076533)" x="498.1399480589778" y="76.07653268438645">11</text><title>7.084612005</title></g><g class="guides"><path class="line" d="M296.200000 257.000000 L460.237351 66.293240" /><text class="" transform="rotate(-323.265306 469.817132 55.155965)" x="469.81713234886837" y="55.15596519633647">12</text><title>7.212840276</title></g><g class="guides"><path class="line" d="M296.200000 257.000000 L430.783832 49.658419" /><text class="" transform="rotate(-330.612245 438.643528 37.549671)" x="438.6435281254953" y="37.54967117948331">13</text><title>7.341068548</title></g><g class="guides"><path class="line" d="M296.200000 257.000000 L399.120451 36.428142" /><text class="" transform="rotate(-337.959184 405.131005 23.546745)" x="405.13100510836534" y="23.546745494830986">14</text><title>7.469296819</title></g><g class="guides"><path class="line" d="M296.200000 257.000000 L365.767118 26.819648" /><text class="" transform="rotate(-345.306122 369.829838 13.377116)" x="369.82983799891645" y="13.377115794990118">15</text><title>7.597525091</title></g><g class="guides"><path class="line" d="M296.200000 257.000000 L331.271496 20.990710" /><text class="" transform="rotate(-352.653061 333.319671 7.207767)" x="333.31967098513184" y="7.20776711847725">16</text><title>7.725753362</title></g></g><g class="series serie-0 color-0"><path class="line reactive nofill" d="M296.200000 163.441912 L282.710963 166.227196 270.434401 171.748018 259.547418 178.448769 250.188433 186.113990 241.988226 193.974404 234.775202 201.967860 228.390535 210.080369 222.032134 217.989277 216.177076 226.264314 213.053241 235.588376 212.122883 245.205994 213.417820 254.696663 215.313500 263.770348 216.213630 272.840264 217.738316 282.053270 220.689375 291.180345 225.706035 299.665764 231.994534 307.592823 238.965133 315.333735 246.327334 323.477976 255.178369 330.909014 265.669382 336.783973 277.678772 339.516427 289.992281 340.893964 302.357657 340.217400 314.273134 337.520062 325.991974 334.853716 337.221631 330.909014 346.498928 324.046164 354.447873 316.366190 361.562321 308.504406 367.975674 300.441506 373.096141 291.807507 376.128257 282.521556 373.901045 272.387685 368.531197 263.054253 365.705792 255.066066 371.020921 246.504417 376.350479 236.359966 370.507001 228.459720 354.999750 226.072580 315.137778 243.896319 486.997381 86.059460 458.367980 68.466536 317.672064 223.919862 320.537315 204.841982 315.623298 192.733121 307.290986 182.364583 Z" /></g></g><g class="titles"><text class="title plot_title" x="400.0" y="26">Daily Wind bearing</text></g><g class="plot overlay" transform="translate(187, 46)"><g class="series serie-0 color-0"><g class="dots"><circle class="dot reactive tooltip-trigger" cx="296.2" cy="163.44191199746763" r="2.5" /><desc class="value">138</desc><desc class="x ">296.2</desc><desc class="y ">163.44191199746763</desc><desc class="x_label">16</desc></g><g class="dots"><circle class="dot reactive tooltip-trigger" cx="282.7109632154734" cy="166.2271960282855" r="2.5" /><desc class="value">135</desc><desc class="x ">282.7109632154734</desc><desc class="y ">166.2271960282855</desc><desc class="x_label">17</desc></g><g class="dots"><circle class="dot reactive tooltip-trigger" cx="270.43440063306036" cy="171.74801790088117" r="2.5" /><desc class="value">130</desc><desc class="x ">270.43440063306036</desc><desc class="y ">171.74801790088117</desc><desc class="x_label">18</desc></g><g class="dots"><circle class="dot reactive tooltip-trigger" cx="259.54741781244377" cy="178.4487685192019" r="2.5" /><desc class="value">125</desc><desc class="x ">259.54741781244377</desc><desc class="y ">178.4487685192019</desc><desc class="x_label">19</desc></g><g class="dots"><circle class="dot reactive tooltip-trigger" cx="250.18843339551557" cy="186.11398956640988" r="2.5" /><desc class="value">120</desc><desc class="x ">250.18843339551557</desc><desc class="y ">186.11398956640988</desc><desc class="x_label">20</desc></g><g class="dots"><circle class="dot reactive tooltip-trigger" cx="241.98822586458323" cy="193.97440409642417" r="2.5" /><desc class="value">116</desc><desc class="x ">241.98822586458323</desc><desc class="y ">193.97440409642417</desc><desc class="x_label">21</desc></g><g class="dots"><circle class="dot reactive tooltip-trigger" cx="234.77520212559605" cy="201.967860408916" r="2.5" /><desc class="value">113</desc><desc class="x ">234.77520212559605</desc><desc class="y ">201.967860408916</desc><desc class="x_label">22</desc></g><g class="dots"><circle class="dot reactive tooltip-trigger" cx="228.39053538334815" cy="210.080369374211" r="2.5" /><desc class="value">111</desc><desc class="x ">228.39053538334815</desc><desc class="y ">210.080369374211</desc><desc class="x_label">23</desc></g><g class="dots"><circle class="dot reactive tooltip-trigger" cx="222.0321336112631" cy="217.9892772074645" r="2.5" /><desc class="value">111</desc><desc class="x ">222.0321336112631</desc><desc class="y ">217.9892772074645</desc><desc class="x_label">00</desc></g><g class="dots"><circle class="dot reactive tooltip-trigger" cx="216.17707575979804" cy="226.2643142649705" r="2.5" /><desc class="value">112</desc><desc class="x ">216.17707575979804</desc><desc class="y ">226.2643142649705</desc><desc class="x_label">01</desc></g><g class="dots"><circle class="dot reactive tooltip-trigger" cx="213.05324098947466" cy="235.58837590001195" r="2.5" /><desc class="value">111</desc><desc class="x ">213.05324098947466</desc><desc class="y ">235.58837590001195</desc><desc class="x_label">02</desc></g><g class="dots"><circle class="dot reactive tooltip-trigger" cx="212.12288270823504" cy="245.20599382829465" r="2.5" /><desc class="value">109</desc><desc class="x ">212.12288270823504</desc><desc class="y ">245.20599382829465</desc><desc class="x_label">03</desc></g><g class="dots"><circle class="dot reactive tooltip-trigger" cx="213.41782044081395" cy="254.6966627724833" r="2.5" /><desc class="value">106</desc><desc class="x ">213.41782044081395</desc><desc class="y ">254.6966627724833</desc><desc class="x_label">04</desc></g><g class="dots"><circle class="dot reactive tooltip-trigger" cx="215.31349979271533" cy="263.7703477800477" r="2.5" /><desc class="value">104</desc><desc class="x top">215.31349979271533</desc><desc class="y top">263.7703477800477</desc><desc class="x_label">05</desc></g><g class="dots"><circle class="dot reactive tooltip-trigger" cx="216.21363037678879" cy="272.8402643315689" r="2.5" /><desc class="value">105</desc><desc class="x top">216.21363037678879</desc><desc class="y top">272.8402643315689</desc><desc class="x_label">06</desc></g><g class="dots"><circle class="dot reactive tooltip-trigger" cx="217.7383162198167" cy="282.053270105338" r="2.5" /><desc class="value">107</desc><desc class="x top">217.7383162198167</desc><desc class="y top">282.053270105338</desc><desc class="x_label">07</desc></g><g class="dots"><circle class="dot reactive tooltip-trigger" cx="220.68937457608575" cy="291.18034484677776" r="2.5" /><desc class="value">109</desc><desc class="x top">220.68937457608575</desc><desc class="y top">291.18034484677776</desc><desc class="x_label">08</desc></g><g class="dots"><circle class="dot reactive tooltip-trigger" cx="225.70603461201324" cy="299.6657644340343" r="2.5" /><desc class="value">110</desc><desc class="x top">225.70603461201324</desc><desc class="y top">299.6657644340343</desc><desc class="x_label">09</desc></g><g class="dots"><circle class="dot reactive tooltip-trigger" cx="231.9945340206773" cy="307.5928234053091" r="2.5" /><desc class="value">111</desc><desc class="x top">231.9945340206773</desc><desc class="y top">307.5928234053091</desc><desc class="x_label">10</desc></g><g class="dots"><circle class="dot reactive tooltip-trigger" cx="238.9651331434291" cy="315.33373450722274" r="2.5" /><desc class="value">113</desc><desc class="x top">238.9651331434291</desc><desc class="y top">315.33373450722274</desc><desc class="x_label">11</desc></g><g class="dots"><circle class="dot reactive tooltip-trigger" cx="246.3273340313072" cy="323.477976221359" r="2.5" /><desc class="value">117</desc><desc class="x top">246.3273340313072</desc><desc class="y top">323.477976221359</desc><desc class="x_label">12</desc></g><g class="dots"><circle class="dot reactive tooltip-trigger" cx="255.17836871710162" cy="330.90901362551847" r="2.5" /><desc class="value">121</desc><desc class="x top">255.17836871710162</desc><desc class="y top">330.90901362551847</desc><desc class="x_label">13</desc></g><g class="dots"><circle class="dot reactive tooltip-trigger" cx="265.66938187679125" cy="336.7839731606415" r="2.5" /><desc class="value">124</desc><desc class="x top">265.66938187679125</desc><desc class="y top">336.7839731606415</desc><desc class="x_label">14</desc></g><g class="dots"><circle class="dot reactive tooltip-trigger" cx="277.67877218041843" cy="339.5164271789365" r="2.5" /><desc class="value">124</desc><desc class="x top">277.67877218041843</desc><desc class="y top">339.5164271789365</desc><desc class="x_label">15</desc></g><g class="dots"><circle class="dot reactive tooltip-trigger" cx="289.9922805327962" cy="340.8939637442432" r="2.5" /><desc class="value">124</desc><desc class="x top">289.9922805327962</desc><desc class="y top">340.8939637442432</desc><desc class="x_label">16</desc></g><g class="dots"><circle class="dot reactive tooltip-trigger" cx="302.35765721343597" cy="340.2173995204993" r="2.5" /><desc class="value">123</desc><desc class="x left top">302.35765721343597</desc><desc class="y left top">340.2173995204993</desc><desc class="x_label">17</desc></g><g class="dots"><circle class="dot reactive tooltip-trigger" cx="314.2731335981399" cy="337.5200620052526" r="2.5" /><desc class="value">121</desc><desc class="x left top">314.2731335981399</desc><desc class="y left top">337.5200620052526</desc><desc class="x_label">18</desc></g><g class="dots"><circle class="dot reactive tooltip-trigger" cx="325.9919741363569" cy="334.85371574546474" r="2.5" /><desc class="value">121</desc><desc class="x left top">325.9919741363569</desc><desc class="y left top">334.85371574546474</desc><desc class="x_label">19</desc></g><g class="dots"><circle class="dot reactive tooltip-trigger" cx="337.2216312828983" cy="330.90901362551847" r="2.5" /><desc class="value">121</desc><desc class="x left top">337.2216312828983</desc><desc class="y left top">330.90901362551847</desc><desc class="x_label">20</desc></g><g class="dots"><circle class="dot reactive tooltip-trigger" cx="346.49892807098917" cy="324.04616405231076" r="2.5" /><desc class="value">118</desc><desc class="x left top">346.49892807098917</desc><desc class="y left top">324.04616405231076</desc><desc class="x_label">21</desc></g><g class="dots"><circle class="dot reactive tooltip-trigger" cx="354.44787334960745" cy="316.3661899852268" r="2.5" /><desc class="value">115</desc><desc class="x left top">354.44787334960745</desc><desc class="y left top">316.3661899852268</desc><desc class="x_label">22</desc></g><g class="dots"><circle class="dot reactive tooltip-trigger" cx="361.5623212221933" cy="308.5044058090084" r="2.5" /><desc class="value">113</desc><desc class="x left top">361.5623212221933</desc><desc class="y left top">308.5044058090084</desc><desc class="x_label">23</desc></g><g class="dots"><circle class="dot reactive tooltip-trigger" cx="367.9756738495865" cy="300.44150560556227" r="2.5" /><desc class="value">112</desc><desc class="x left top">367.9756738495865</desc><desc class="y left top">300.44150560556227</desc><desc class="x_label">00</desc></g><g class="dots"><circle class="dot reactive tooltip-trigger" cx="373.09614148673825" cy="291.80750713754435" r="2.5" /><desc class="value">111</desc><desc class="x left top">373.09614148673825</desc><desc class="y left top">291.80750713754435</desc><desc class="x_label">01</desc></g><g class="dots"><circle class="dot reactive tooltip-trigger" cx="376.12825730878484" cy="282.5215555278678" r="2.5" /><desc class="value">109</desc><desc class="x left top">376.12825730878484</desc><desc class="y left top">282.5215555278678</desc><desc class="x_label">02</desc></g><g class="dots"><circle class="dot reactive tooltip-trigger" cx="373.9010447768337" cy="272.38768535066697" r="2.5" /><desc class="value">102</desc><desc class="x left top">373.9010447768337</desc><desc class="y left top">272.38768535066697</desc><desc class="x_label">03</desc></g><g class="dots"><circle class="dot reactive tooltip-trigger" cx="368.5311973007449" cy="263.05425330331207" r="2.5" /><desc class="value">93</desc><desc class="x left top">368.5311973007449</desc><desc class="y left top">263.05425330331207</desc><desc class="x_label">04</desc></g><g class="dots"><circle class="dot reactive tooltip-trigger" cx="365.705792271392" cy="255.06606591274544" r="2.5" /><desc class="value">89</desc><desc class="x left">365.705792271392</desc><desc class="y left">255.06606591274544</desc><desc class="x_label">05</desc></g><g class="dots"><circle class="dot reactive tooltip-trigger" cx="371.0209208926716" cy="246.50441652609715" r="2.5" /><desc class="value">97</desc><desc class="x left">371.0209208926716</desc><desc class="y left">246.50441652609715</desc><desc class="x_label">06</desc></g><g class="dots"><circle class="dot reactive tooltip-trigger" cx="376.3504794065425" cy="236.3599659576692" r="2.5" /><desc class="value">107</desc><desc class="x left">376.3504794065425</desc><desc class="y left">236.3599659576692</desc><desc class="x_label">07</desc></g><g class="dots"><circle class="dot reactive tooltip-trigger" cx="370.5070010801876" cy="228.45972038890125" r="2.5" /><desc class="value">104</desc><desc class="x left">370.5070010801876</desc><desc class="y left">228.45972038890125</desc><desc class="x_label">08</desc></g><g class="dots"><circle class="dot reactive tooltip-trigger" cx="354.99974992980947" cy="226.0725801284404" r="2.5" /><desc class="value">88</desc><desc class="x left">354.99974992980947</desc><desc class="y left">226.0725801284404</desc><desc class="x_label">09</desc></g><g class="dots"><circle class="dot reactive tooltip-trigger" cx="315.13777840645236" cy="243.89631937477964" r="2.5" /><desc class="value">31</desc><desc class="x left">315.13777840645236</desc><desc class="y left">243.89631937477964</desc><desc class="x_label">10</desc></g><g class="dots"><circle class="dot reactive tooltip-trigger" cx="486.99738100810447" cy="86.05946020822603" r="2.5" /><desc class="value">351</desc><desc class="x left">486.99738100810447</desc><desc class="y left">86.05946020822603</desc><desc class="x_label">11</desc></g><g class="dots"><circle class="dot reactive tooltip-trigger" cx="458.3679795257726" cy="68.46653639188958" r="2.5" /><desc class="value">347</desc><desc class="x left">458.3679795257726</desc><desc class="y left">68.46653639188958</desc><desc class="x_label">12</desc></g><g class="dots"><circle class="dot reactive tooltip-trigger" cx="317.6720644154261" cy="223.91986179765797" r="2.5" /><desc class="value">56</desc><desc class="x left">317.6720644154261</desc><desc class="y left">223.91986179765797</desc><desc class="x_label">13</desc></g><g class="dots"><circle class="dot reactive tooltip-trigger" cx="320.5373145725374" cy="204.84198229675007" r="2.5" /><desc class="value">83</desc><desc class="x left">320.5373145725374</desc><desc class="y left">204.84198229675007</desc><desc class="x_label">14</desc></g><g class="dots"><circle class="dot reactive tooltip-trigger" cx="315.6232979843084" cy="192.7331211868181" r="2.5" /><desc class="value">98</desc><desc class="x left">315.6232979843084</desc><desc class="y left">192.7331211868181</desc><desc class="x_label">15</desc></g><g class="dots"><circle class="dot reactive tooltip-trigger" cx="307.29098580061077" cy="182.3645834010348" r="2.5" /><desc class="value">111</desc><desc class="x left">307.29098580061077</desc><desc class="y left">182.3645834010348</desc><desc class="x_label">16</desc></g></g></g><g class="plot text-overlay" transform="translate(187, 46)"><g class="series serie-0 color-0" /></g><g class="plot tooltip-overlay" transform="translate(187, 46)"><g class="tooltip" style="opacity: 0" transform="translate(0 0)"><rect class="tooltip-box" height="0" rx="0" ry="0" width="0" /><g class="text" /></g></g><g class="legends" transform="translate(10, 56)"><g class="legend reactive activate-serie" id="activate-serie-0"><rect class="color-0 reactive" height="12" width="12" x="0.0" y="1.0" /><text x="17.0" y="11.2">Wind direction</text></g></g><g class="legends" transform="translate(790, 56)" /></g></svg>