<?xml version='1.0' encoding='utf-8'?>
<svg xmlns:xlink="http://www.w3.org/1999/xlink" class="pygal-chart" id="chart-afed8c53-7233-42d4-a429-990b2aed314d" viewBox="0 0 800 600" xmlns="http://www.w3.org/2000/svg"><!--Generated with pygal 2.4.0 (etree) ©Kozea 2012-2016 on 2017-07-24--><!--http://pygal.org--><!--http://github.com/Kozea/pygal--><defs><style type="text/css">#chart-afed8c53-7233-42d4-a429-990b2aed314d{-webkit-user-select:none;-webkit-font-smoothing:antialiased;font-family:Consolas,"Liberation Mono",Menlo,Courier,monospace}#chart-afed8c53-7233-42d4-a429-990b2aed314d .title{font-family:Consolas,"Liberation Mono",Menlo,Courier,monospace;font-size:16px}#chart-afed8c53-7233-42d4-a429-990b2aed314d .legends .legend text{font-family:Consolas,"Liberation Mono",Menlo,Courier,monospace;font-size:14px}#chart-afed8c53-7233-42d4-a429-990b2aed314d .axis text{font-family:Consolas,"Liberation Mono",Menlo,Courier,monospace;font-size:10px}#chart-afed8c53-7233-42d4-a429-990b2aed314d .axis text.major{font-family:Consolas,"Liberation Mono",Menlo,Courier,monospace;font-size:10px}#chart-afed8c53-7233-42d4-a429-990b2aed314d .text-overlay text.value{font-family:Consolas,"Liberation Mono",Menlo,Courier,monospace;font-size:16px}#chart-afed8c53-7233-42d4-a429-990b2aed314d .text-overlay text.label{font-family:Consolas,"Liberation Mono",Menlo,Courier,monospace;font-size:10px}#chart-afed8c53-7233-42d4-a429-990b2aed314d .tooltip{font-family:Consolas,"Liberation Mono",Menlo,Courier,monospace;font-size:14px}#chart-afed8c53-7233-42d4-a429-990b2aed314d text.no_data{font-family:Consolas,"Liberation Mono",Menlo,Courier,monospace;font-size:64px}
#chart-afed8c53-7233-42d4-a429-990b2aed314d{background-color:transparent}#chart-afed8c53-7233-42d4-a429-990b2aed314d path,#chart-afed8c53-7233-42d4-a429-990b2aed314d line,#chart-afed8c53-7233-42d4-a429-990b2aed314d rect,#chart-afed8c53-7233-42d4-a429-990b2aed314d circle{-webkit-transition:400ms ease-in;-moz-transition:400ms ease-in;transition:400ms ease-in}#chart-afed8c53-7233-42d4-a429-990b2aed314d .graph &gt; .background{fill:transparent}#chart-afed8c53-7233-42d4-a429-990b2aed314d .plot &gt; .background{fill:transparent}#chart-afed8c53-7233-42d4-a429-990b2aed314d .graph{fill:#005570}#chart-afed8c53-7233-42d4-a429-990b2aed314d text.no_data{fill:#18a7ed}#chart-afed8c53-7233-42d4-a429-990b2aed314d .title{fill:#18a7ed}#chart-afed8c53-7233-42d4-a429-990b2aed314d .legends .legend text{fill:#005570}#chart-afed8c53-7233-42d4-a429-990b2aed314d .legends .legend:hover text{fill:#18a7ed}#chart-afed8c53-7233-42d4-a429-990b2aed314d .axis .line{stroke:#18a7ed}#chart-afed8c53-7233-42d4-a429-990b2aed314d .axis .guide.line{stroke:#630C0D}#chart-afed8c53-7233-42d4-a429-990b2aed314d .axis .major.line{stroke:#005570}#chart-afed8c53-7233-42d4-a429-990b2aed314d .axis text.major{fill:#18a7ed}#chart-afed8c53-7233-42d4-a429-990b2aed314d .axis.y .guides:hover .guide.line,#chart-afed8c53-7233-42d4-a429-990b2aed314d .line-graph .axis.x .guides:hover .guide.line,#chart-afed8c53-7233-42d4-a429-990b2aed314d .stackedline-graph .axis.x .guides:hover .guide.line,#chart-afed8c53-7233-42d4-a429-990b2aed314d .xy-graph .axis.x .guides:hover .guide.line{stroke:#18a7ed}#chart-afed8c53-7233-42d4-a429-990b2aed314d .axis .guides:hover text{fill:#18a7ed}#chart-afed8c53-7233-42d4-a429-990b2aed314d .reactive{fill-opacity:.6;stroke-opacity:.8}#chart-afed8c53-7233-42d4-a429-990b2aed314d .ci{stroke:#005570}#chart-afed8c53-7233-42d4-a429-990b2aed314d .reactive.active,#chart-afed8c53-7233-42d4-a429-990b2aed314d .active .reactive{fill-opacity:.9;stroke-opacity:.9;stroke-width:4}#chart-afed8c53-7233-42d4-a429-990b2aed314d .ci .reactive.active{stroke-width:1.5}#chart-afed8c53-7233-42d4-a429-990b2aed314d .series text{fill:#18a7ed}#chart-afed8c53-7233-42d4-a429-990b2aed314d .tooltip rect{fill:transparent;stroke:#18a7ed;-webkit-transition:opacity 400ms ease-in;-moz-transition:opacity 400ms ease-in;transition:opacity 400ms ease-in}#chart-afed8c53-7233-42d4-a429-990b2aed314d .tooltip .label{fill:#005570}#chart-afed8c53-7233-42d4-a429-990b2aed314d .tooltip .label{fill:#005570}#chart-afed8c53-7233-42d4-a429-990b2aed314d .tooltip .legend{font-size:.8em;fill:#630C0D}#chart-afed8c53-7233-42d4-a429-990b2aed314d .tooltip .x_label{font-size:.6em;fill:#18a7ed}#chart-afed8c53-7233-42d4-a429-990b2aed314d .tooltip .xlink{font-size:.5em;text-decoration:underline}#chart-afed8c53-7233-42d4-a429-990b2aed314d .tooltip .value{font-size:1.5em}#chart-afed8c53-7233-42d4-a429-990b2aed314d .bound{font-size:.5em}#chart-afed8c53-7233-42d4-a429-990b2aed314d .max-value{font-size:.75em;fill:#630C0D}#chart-afed8c53-7233-42d4-a429-990b2aed314d .map-element{fill:transparent;stroke:#630C0D !important}#chart-afed8c53-7233-42d4-a429-990b2aed314d .map-element .reactive{fill-opacity:inherit;stroke-opacity:inherit}#chart-afed8c53-7233-42d4-a429-990b2aed314d .color-0,#chart-afed8c53-7233-42d4-a429-990b2aed314d .color-0 a:visited{stroke:#005570;fill:#005570}#chart-afed8c53-7233-42d4-a429-990b2aed314d .text-overlay .color-0 text{fill:black}
#chart-afed8c53-7233-42d4-a429-990b2aed314d text.no_data{text-anchor:middle}#chart-afed8c53-7233-42d4-a429-990b2aed314d .guide.line{fill:none}#chart-afed8c53-7233-42d4-a429-990b2aed314d .centered{text-anchor:middle}#chart-afed8c53-7233-42d4-a429-990b2aed314d .title{text-anchor:middle}#chart-afed8c53-7233-42d4-a429-990b2aed314d .legends .legend text{fill-opacity:1}#chart-afed8c53-7233-42d4-a429-990b2aed314d .axis.x text{text-anchor:middle}#chart-afed8c53-7233-42d4-a429-990b2aed314d .axis.x:not(.web) text[transform]{text-anchor:start}#chart-afed8c53-7233-42d4-a429-990b2aed314d .axis.x:not(.web) text[transform].backwards{text-anchor:end}#chart-afed8c53-7233-42d4-a429-990b2aed314d .axis.y text{text-anchor:end}#chart-afed8c53-7233-42d4-a429-990b2aed314d .axis.y text[transform].backwards{text-anchor:start}#chart-afed8c53-7233-42d4-a429-990b2aed314d .axis.y2 text{text-anchor:start}#chart-afed8c53-7233-42d4-a429-990b2aed314d .axis.y2 text[transform].backwards{text-anchor:end}#chart-afed8c53-7233-42d4-a429-990b2aed314d .axis .guide.line{stroke-dasharray:4,4}#chart-afed8c53-7233-42d4-a429-990b2aed314d .axis .major.guide.line{stroke-dasharray:6,6}#chart-afed8c53-7233-42d4-a429-990b2aed314d .horizontal .axis.y .guide.line,#chart-afed8c53-7233-42d4-a429-990b2aed314d .horizontal .axis.y2 .guide.line,#chart-afed8c53-7233-42d4-a429-990b2aed314d .vertical .axis.x .guide.line{opacity:0}#chart-afed8c53-7233-42d4-a429-990b2aed314d .horizontal .axis.always_show .guide.line,#chart-afed8c53-7233-42d4-a429-990b2aed314d .vertical .axis.always_show .guide.line{opacity:1 !important}#chart-afed8c53-7233-42d4-a429-990b2aed314d .axis.y .guides:hover .guide.line,#chart-afed8c53-7233-42d4-a429-990b2aed314d .axis.y2 .guides:hover .guide.line,#chart-afed8c53-7233-42d4-a429-990b2aed314d .axis.x .guides:hover .guide.line{opacity:1}#chart-afed8c53-7233-42d4-a429-990b2aed314d .axis .guides:hover text{opacity:1}#chart-afed8c53-7233-42d4-a429-990b2aed314d .nofill{fill:none}#chart-afed8c53-7233-42d4-a429-990b2aed314d .subtle-fill{fill-opacity:.2}#chart-afed8c53-7233-42d4-a429-990b2aed314d .dot{stroke-width:1px;fill-opacity:1}#chart-afed8c53-7233-42d4-a429-990b2aed314d .dot.active{stroke-width:5px}#chart-afed8c53-7233-42d4-a429-990b2aed314d .dot.negative{fill:transparent}#chart-afed8c53-7233-42d4-a429-990b2aed314d text,#chart-afed8c53-7233-42d4-a429-990b2aed314d tspan{stroke:none !important}#chart-afed8c53-7233-42d4-a429-990b2aed314d .series text.active{opacity:1}#chart-afed8c53-7233-42d4-a429-990b2aed314d .tooltip rect{fill-opacity:.95;stroke-width:.5}#chart-afed8c53-7233-42d4-a429-990b2aed314d .tooltip text{fill-opacity:1}#chart-afed8c53-7233-42d4-a429-990b2aed314d .showable{visibility:hidden}#chart-afed8c53-7233-42d4-a429-990b2aed314d .showable.shown{visibility:visible}#chart-afed8c53-7233-42d4-a429-990b2aed314d .gauge-background{fill:rgba(229,229,229,1);stroke:none}#chart-afed8c53-7233-42d4-a429-990b2aed314d .bg-lines{stroke:transparent;stroke-width:2px}</style><script type="text/javascript">window.pygal = window.pygal || {};window.pygal.config = window.pygal.config || {};window.pygal.config['afed8c53-7233-42d4-a429-990b2aed314d'] = {"allow_interruptions": false, "box_mode": "extremes", "classes": ["pygal-chart"], "css": ["file://style.css", "file://graph.css"], "defs": [], "disable_xml_declaration": false, "dots_size": 2.5, "dynamic_print_values": false, "explicit_size": false, "fill": false, "force_uri_protocol": "https", "formatter": null, "half_pie": false, "height": 600, "include_x_axis": false, "inner_radius": 0, "interpolate": null, "interpolation_parameters": {}, "interpolation_precision": 250, "inverse_y_axis": false, "js": ["//kozea.github.io/pygal.js/2.0.x/pygal-tooltips.min.js"], "legend_at_bottom": false, "legend_at_bottom_columns": null, "legend_box_size": 12, "logarithmic": false, "margin": 20, "margin_bottom": null, "margin_left": null, "margin_right": null, "margin_top": null, "max_scale": 16, "min_scale": 4, "missing_value_fill_truncation": "x", "no_data_text": "No data", "no_prefix": false, "order_min": null, "pretty_print": false, "print_labels": false, "print_values": false, "print_values_position": "center", "print_zeroes": true, "range": null, "rounded_bars": null, "secondary_range": null, "show_dots": true, "show_legend": true, "show_minor_x_labels": true, "show_minor_y_labels": true, "show_only_major_dots": false, "show_x_guides": false, "show_x_labels": true, "show_y_guides": true, "show_y_labels": true, "spacing": 10, "stack_from_top": false, "strict": false, "stroke": true, "stroke_style": null, "style": {"background": "transparent", "ci_colors": [], "colors": ["#005570", "#b1e4fa", "#E87653", "#E89B53", "#E853A0"], "font_family": "Consolas, \"Liberation Mono\", Menlo, Courier, monospace", "foreground": "#005570", "foreground_strong": "#18a7ed", "foreground_subtle": "#630C0D", "guide_stroke_dasharray": "4,4", "label_font_family": "Consolas, \"Liberation Mono\", Menlo, Courier, monospace", "label_font_size": 10, "legend_font_family": "Consolas, \"Liberation Mono\", Menlo, Courier, monospace", "legend_font_size": 14, "major_guide_stroke_dasharray": "6,6", "major_label_font_family": "Consolas, \"Liberation Mono\", Menlo, Courier, monospace", "major_label_font_size": 10, "no_data_font_family": "Consolas, \"Liberation Mono\", Menlo, Courier, monospace", "no_data_font_size": 64, "opacity": ".6", "opacity_hover": ".9", "plot_background": "transparent", "stroke_opacity": ".8", "stroke_opacity_hover": ".9", "title_font_family": "Consolas, \"Liberation Mono\", Menlo, Courier, monospace", "title_font_size": 16, "tooltip_font_family": "Consolas, \"Liberation Mono\", Menlo, Courier, monospace", "tooltip_font_size": 14, "transition": "400ms ease-in", "value_background": "rgba(229, 229, 229, 1)", "value_colors": [], "value_font_family": "Consolas, \"Liberation Mono\", Menlo, Courier, monospace", "value_font_size": 16, "value_label_font_family": "Consolas, \"Liberation Mono\", Menlo, Courier, monospace", "value_label_font_size": 10}, "title": "Daily Wind bearing", "tooltip_border_radius": 0, "tooltip_fancy_mode": true, "truncate_label": null, "truncate_legend": null, "width": 800, "x_label_rotation": 0, "x_labels": ["20", "21", "22", "23", "00", "01", "02", "03", "04", "05", "06", "07", "08", "09", "10", "11", "12", "13", "14", "15", "16", "17", "18", "19", "20", "21", "22", "23", "00", "01", "02", "03", "04", "05", "06", "07", "08", "09", "10", "11", "12", "13", "14", "15", "16", "17", "18", "19", "20"], "x_labels_major": null, "x_labels_major_count": null, "x_labels_major_every": null, "x_title": null, "xrange": null, "y_label_rotation": 0, "y_labels": null, "y_labels_major": null, "y_labels_major_count": null, "y_labels_major_every": null, "y_title": null, "zero": 0, "legends": ["Wind direction"]}</script><script type="text/javascript" xlink:href="https://kozea.github.io/pygal.js/2.0.x/pygal-tooltips.min.js" /></defs><title>Daily Wind bearing</title><g class="graph radar-graph vertical"><rect class="background" height="600" width="800" x="0" y="0" /><g class="plot" transform="translate(181, 46)"><rect class="background" height="514" width="598.4" x="0" y="0" /><g class="axis y web"><g class="guides"><path class="guide line" d="M299.200000 43.100707 L267.355766 44.856818 236.034414 50.096313 205.750239 58.733161 177.000506 70.625546 150.257286 85.578193 125.959701 103.345582 104.506717 123.635972 86.250591 146.116196 71.491089 170.417129 60.470560 196.139751 53.369963 222.861695 50.305888 250.144190 51.328647 277.539257 56.421447 304.597070 65.500664 330.873341 78.417218 355.936613 94.959019 379.375349 114.854451 400.804685 137.776832 419.872752 163.349777 436.266453 191.153379 449.716603 220.731104 460.002353 251.597285 466.954809 283.245102 470.459814 315.154898 470.459814 346.802715 466.954809 377.668896 460.002353 407.246621 449.716603 435.050223 436.266453 460.623168 419.872752 483.545549 400.804685 503.440981 379.375349 519.982782 355.936613 532.899336 330.873341 541.978553 304.597070 547.071353 277.539257 548.094112 250.144190 545.030037 222.861695 537.929440 196.139751 526.908911 170.417129 512.149409 146.116196 493.893283 123.635972 472.440299 103.345582 448.142714 85.578193 421.399494 70.625546 392.649761 58.733161 362.365586 50.096313 331.044234 44.856818 299.200000 43.100707 Z" /><text class="" x="294.2" y="43.100707449022025">80</text><title>80</title></g><g class="guides"><path class="guide line" d="M299.200000 96.575531 L275.316825 97.892613 251.825811 101.822235 229.112679 108.299871 207.550380 117.219159 187.492965 128.433645 169.269776 141.759187 153.180038 156.976979 139.487943 173.837147 128.418317 192.062847 120.152920 211.354813 114.827472 231.396272 112.529416 251.858143 113.296485 272.404443 117.116085 292.697803 123.925498 312.405006 133.612914 331.202460 146.019264 348.781512 160.940838 364.853514 178.132624 379.154564 197.312333 391.449840 218.165034 401.537453 240.348328 409.251765 263.497964 414.466107 287.233827 417.094860 311.166173 417.094860 334.902036 414.466107 358.051672 409.251765 380.234966 401.537453 401.087667 391.449840 420.267376 379.154564 437.459162 364.853514 452.380736 348.781512 464.787086 331.202460 474.474502 312.405006 481.283915 292.697803 485.103515 272.404443 485.870584 251.858143 483.572528 231.396272 478.247080 211.354813 469.981683 192.062847 458.912057 173.837147 445.219962 156.976979 429.130224 141.759187 410.907035 128.433645 390.849620 117.219159 369.287321 108.299871 346.574189 101.822235 323.083175 97.892613 299.200000 96.575531 Z" /><text class="" x="294.2" y="96.57553058676655">60</text><title>60</title></g><g class="guides"><path class="guide line" d="M299.200000 150.050354 L283.277883 150.928409 267.617207 153.548157 252.475119 157.866581 238.100253 163.812773 224.728643 171.289097 212.579851 180.172791 201.853358 190.317986 192.725296 201.558098 185.345544 213.708565 179.835280 226.569875 176.284981 239.930848 174.752944 253.572095 175.264324 267.269629 177.810724 280.798535 182.350332 293.936670 188.808609 306.468307 197.079510 318.187674 207.027226 328.902342 218.488416 338.436376 231.274889 346.633226 245.176690 353.358302 259.965552 358.501176 275.398643 361.977405 291.222551 363.729907 307.177449 363.729907 323.001357 361.977405 338.434448 358.501176 353.223310 353.358302 367.125111 346.633226 379.911584 338.436376 391.372774 328.902342 401.320490 318.187674 409.591391 306.468307 416.049668 293.936670 420.589276 280.798535 423.135676 267.269629 423.647056 253.572095 422.115019 239.930848 418.564720 226.569875 413.054456 213.708565 405.674704 201.558098 396.546642 190.317986 385.820149 180.172791 373.671357 171.289097 360.299747 163.812773 345.924881 157.866581 330.782793 153.548157 315.122117 150.928409 299.200000 150.050354 Z" /><text class="" x="294.2" y="150.050353724511">40</text><title>40</title></g><g class="guides"><path class="guide line" d="M299.200000 203.525177 L291.238942 203.964204 283.408604 205.274078 275.837560 207.433290 268.650127 210.406386 261.964322 214.144548 255.889925 218.586396 250.526679 223.658993 245.962648 229.279049 242.272772 235.354282 239.517640 241.784938 237.742491 248.465424 236.976472 255.286048 237.232162 262.134814 238.505362 268.899268 240.775166 275.468335 244.004305 281.734153 248.139755 287.593837 253.113613 292.951171 258.844208 297.718188 265.237444 301.816613 272.188345 305.179151 279.582776 307.750588 287.299321 309.488702 295.211276 310.364953 303.188724 310.364953 311.100679 309.488702 318.817224 307.750588 326.211655 305.179151 333.162556 301.816613 339.555792 297.718188 345.286387 292.951171 350.260245 287.593837 354.395695 281.734153 357.624834 275.468335 359.894638 268.899268 361.167838 262.134814 361.423528 255.286048 360.657509 248.465424 358.882360 241.784938 356.127228 235.354282 352.437352 229.279049 347.873321 223.658993 342.510075 218.586396 336.435678 214.144548 329.749873 210.406386 322.562440 207.433290 314.991396 205.274078 307.161058 203.964204 299.200000 203.525177 Z" /><text class="" x="294.2" y="203.52517686225553">20</text><title>20</title></g><g class="guides"><path class="major guide line" d="M299.200000 257.000000 L299.200000 257.000000 299.200000 257.000000 299.200000 257.000000 299.200000 257.000000 299.200000 257.000000 299.200000 257.000000 299.200000 257.000000 299.200000 257.000000 299.200000 257.000000 299.200000 257.000000 299.200000 257.000000 299.200000 257.000000 299.200000 257.000000 299.200000 257.000000 299.200000 257.000000 299.200000 257.000000 299.200000 257.000000 299.200000 257.000000 299.200000 257.000000 299.200000 257.000000 299.200000 257.000000 299.200000 257.000000 299.200000 257.000000 299.200000 257.000000 299.200000 257.000000 299.200000 257.000000 299.200000 257.000000 299.200000 257.000000 299.200000 257.000000 299.200000 257.000000 299.200000 257.000000 299.200000 257.000000 299.200000 257.000000 299.200000 257.000000 299.200000 257.000000 299.200000 257.000000 299.200000 257.000000 299.200000 257.000000 299.200000 257.000000 299.200000 257.000000 299.200000 257.000000 299.200000 257.000000 299.200000 257.000000 299.200000 257.000000 299.200000 257.000000 299.200000 257.000000 299.200000 257.000000 299.200000 257.000000 299.200000 257.000000 Z" /><text class="major" x="294.2" y="257.0">0</text><title>0</title></g></g><g class="axis x web"><g class="guides"><path class="line" d="M299.200000 257.000000 L299.200000 19.037037" /><text class="" transform="rotate(0.000000 299.200000 5.140000)" x="299.2" y="5.1399999999999295">20</text><title>1.570796327</title></g><g class="guides"><path class="line" d="M299.200000 257.000000 L263.773290 20.990710" /><text class="" transform="rotate(-7.346939 261.704370 7.207767)" x="261.7043701595159" y="7.207767118477193">21</text><title>1.699024598</title></g><g class="guides"><path class="line" d="M299.200000 257.000000 L228.928286 26.819648" /><text class="" transform="rotate(-14.693878 224.824418 13.377116)" x="224.82441752438993" y="13.377115794990061">22</text><title>1.82725287</title></g><g class="guides"><path class="line" d="M299.200000 257.000000 L195.237141 36.428142" /><text class="" transform="rotate(-22.040816 189.165710 23.546745)" x="189.16570989728945" y="23.546745494830986">23</text><title>1.955481142</title></g><g class="guides"><path class="line" d="M299.200000 257.000000 L163.253063 49.658419" /><text class="" transform="rotate(-29.387755 155.313762 37.549671)" x="155.3137622716134" y="37.549671179483084">00</text><title>2.083709413</title></g><g class="guides"><path class="line" d="M299.200000 257.000000 L133.501231 66.293240" /><text class="" transform="rotate(-36.734694 123.824423 55.155965)" x="123.8244226914876" y="55.15596519633647">01</text><title>2.211937685</title></g><g class="guides"><path class="line" d="M299.200000 257.000000 L106.470167 86.059460" /><text class="" transform="rotate(-44.081633 95.214745 76.076533)" x="95.21474524224816" y="76.07653268438628">02</text><title>2.340165956</title></g><g class="guides"><path class="line" d="M299.200000 257.000000 L82.603723 108.632519" /><text class="" transform="rotate(-51.428571 69.954500 99.967859)" x="69.95450003665417" y="99.96785850385936">03</text><title>2.468394228</title></g><g class="guides"><path class="line" d="M299.200000 257.000000 L62.293783 133.641768" /><text class="" transform="rotate(-58.775510 48.458460 126.437648)" x="48.45845960262444" y="126.43764774531115">04</text><title>2.596622499</title></g><g class="guides"><path class="line" d="M299.200000 257.000000 L45.873836 160.676556" /><text class="" transform="rotate(-66.122449 31.079588 155.051267)" x="31.079588329795556" y="155.05126720119387">05</text><title>2.724850771</title></g><g class="guides"><path class="line" d="M299.200000 257.000000 L33.613498 189.292972" /><text class="" transform="rotate(-73.469388 18.103247 185.338882)" x="18.103246804002506" y="185.33888203110808">06</text><title>2.853079043</title></g><g class="guides"><path class="line" d="M299.200000 257.000000 L25.714084 219.021136" /><text class="" transform="rotate(-80.816327 9.742506 216.803170)" x="9.74250619434859" y="216.80317043689303">07</text><title>2.981307314</title></g><g class="guides"><path class="line" d="M299.200000 257.000000 L22.305300 249.372912" /><text class="" transform="rotate(-88.163265 6.134650 248.927490)" x="6.134649630499079" y="248.92748967280295">08</text><title>3.109535586</title></g><g class="guides"><path class="line" d="M299.200000 257.000000 L23.443120 279.849924" /><text class="" transform="rotate(-275.510204 7.338918 281.184359)" x="7.338918017487885" y="281.1843593051086">09</text><title>3.237763857</title></g><g class="guides"><path class="line" d="M299.200000 257.000000 L29.108860 309.951741" /><text class="" transform="rotate(-282.857143 13.335537 313.044122)" x="13.335537301694414" y="313.0441224262373">10</text><title>3.365992129</title></g><g class="guides"><path class="line" d="M299.200000 257.000000 L39.209489 339.184092" /><text class="" transform="rotate(-290.204082 24.026043 343.983643)" x="24.026043160257437" y="343.9836426065505">11</text><title>3.4942204</title></g><g class="guides"><path class="line" d="M299.200000 257.000000 L53.579155 367.066982" /><text class="" transform="rotate(-297.551020 39.234898 373.494894)" x="39.234897782534354" y="373.4948937800567">12</text><title>3.622448672</title></g><g class="guides"><path class="line" d="M299.200000 257.000000 L71.981909 393.142576" /><text class="" transform="rotate(-304.897959 58.712372 401.093302)" x="58.71237219609892" y="401.09330201836957">13</text><title>3.750676944</title></g><g class="guides"><path class="line" d="M299.200000 257.000000 L94.115577 416.982712" /><text class="" transform="rotate(-312.244898 82.138647 426.325702)" x="82.13864680956421" y="426.3257022212152">14</text><title>3.878905215</title></g><g class="guides"><path class="line" d="M299.200000 257.000000 L119.616726 438.195936" /><text class="" transform="rotate(-319.591837 109.129063 448.777779)" x="109.1290628414313" y="448.77777907485006">15</text><title>4.007133487</title></g><g class="guides"><path class="line" d="M299.200000 257.000000 L148.066627 456.433929" /><text class="" transform="rotate(-326.938776 139.240438 468.080870)" x="139.24043840664763" y="468.0808700980589">16</text><title>4.135361758</title></g><g class="guides"><path class="line" d="M299.200000 257.000000 L178.998134 471.397221" /><text class="" transform="rotate(-334.285714 171.978346 483.918019)" x="171.978345550906" y="483.91801906990327">17</text><title>4.26359003</title></g><g class="guides"><path class="line" d="M299.200000 257.000000 L211.903353 482.840118" /><text class="" transform="rotate(-341.632653 206.805229 496.029180)" x="206.80522874398582" y="496.02918044210696">18</text><title>4.391818301</title></g><g class="guides"><path class="line" d="M299.200000 257.000000 L246.241980 490.574725" /><text class="" transform="rotate(-348.979592 243.149232 504.215489)" x="243.14923152669832" y="504.2154892797697">19</text><title>4.520046573</title></g><g class="guides"><path class="line" d="M299.200000 257.000000 L281.450176 494.474043" /><text class="" transform="rotate(-356.326531 280.413586 508.342527)" x="280.41358637813534" y="508.3425266180997">20</text><title>4.648274845</title></g><g class="guides"><path class="line" d="M299.200000 257.000000 L316.949824 494.474043" /><text class="" transform="rotate(-363.673469 317.986414 508.342527)" x="317.9864136218646" y="508.3425266180997">21</text><title>4.776503116</title></g><g class="guides"><path class="line" d="M299.200000 257.000000 L352.158020 490.574725" /><text class="" transform="rotate(-371.020408 355.250768 504.215489)" x="355.25076847330126" y="504.21548927976977">22</text><title>4.904731388</title></g><g class="guides"><path class="line" d="M299.200000 257.000000 L386.496647 482.840118" /><text class="" transform="rotate(-378.367347 391.594771 496.029180)" x="391.5947712560138" y="496.0291804421071">23</text><title>5.032959659</title></g><g class="guides"><path class="line" d="M299.200000 257.000000 L419.401866 471.397221" /><text class="" transform="rotate(-385.714286 426.421654 483.918019)" x="426.4216544490938" y="483.9180190699033">00</text><title>5.161187931</title></g><g class="guides"><path class="line" d="M299.200000 257.000000 L450.333373 456.433929" /><text class="" transform="rotate(-393.061224 459.159562 468.080870)" x="459.1595615933521" y="468.0808700980591">01</text><title>5.289416202</title></g><g class="guides"><path class="line" d="M299.200000 257.000000 L478.783274 438.195936" /><text class="" transform="rotate(-400.408163 489.270937 448.777779)" x="489.27093715856836" y="448.7777790748503">02</text><title>5.417644474</title></g><g class="guides"><path class="line" d="M299.200000 257.000000 L504.284423 416.982712" /><text class="" transform="rotate(-407.755102 516.261353 426.325702)" x="516.2613531904357" y="426.32570222121524">03</text><title>5.545872746</title></g><g class="guides"><path class="line" d="M299.200000 257.000000 L526.418091 393.142576" /><text class="" transform="rotate(-415.102041 539.687628 401.093302)" x="539.6876278039009" y="401.09330201836974">04</text><title>5.674101017</title></g><g class="guides"><path class="line" d="M299.200000 257.000000 L544.820845 367.066982" /><text class="" transform="rotate(-422.448980 559.165102 373.494894)" x="559.1651022174656" y="373.4948937800568">05</text><title>5.802329289</title></g><g class="guides"><path class="line" d="M299.200000 257.000000 L559.190511 339.184092" /><text class="" transform="rotate(-429.795918 574.373957 343.983643)" x="574.3739568397425" y="343.9836426065507">06</text><title>5.93055756</title></g><g class="guides"><path class="line" d="M299.200000 257.000000 L569.291140 309.951741" /><text class="" transform="rotate(-437.142857 585.064463 313.044122)" x="585.0644626983055" y="313.0441224262374">07</text><title>6.058785832</title></g><g class="guides"><path class="line" d="M299.200000 257.000000 L574.956880 279.849924" /><text class="" transform="rotate(-444.489796 591.061082 281.184359)" x="591.0610819825121" y="281.1843593051089">08</text><title>6.187014103</title></g><g class="guides"><path class="line" d="M299.200000 257.000000 L576.094700 249.372912" /><text class="" transform="rotate(-271.836735 592.265350 248.927490)" x="592.2653503695009" y="248.927489672803">09</text><title>6.315242375</title></g><g class="guides"><path class="line" d="M299.200000 257.000000 L572.685916 219.021136" /><text class="" transform="rotate(-279.183673 588.657494 216.803170)" x="588.6574938056515" y="216.8031704368933">10</text><title>6.443470647</title></g><g class="guides"><path class="line" d="M299.200000 257.000000 L564.786502 189.292972" /><text class="" transform="rotate(-286.530612 580.296753 185.338882)" x="580.2967531959976" y="185.3388820311083">11</text><title>6.571698918</title></g><g class="guides"><path class="line" d="M299.200000 257.000000 L552.526164 160.676556" /><text class="" transform="rotate(-293.877551 567.320412 155.051267)" x="567.3204116702046" y="155.0512672011941">12</text><title>6.69992719</title></g><g class="guides"><path class="line" d="M299.200000 257.000000 L536.106217 133.641768" /><text class="" transform="rotate(-301.224490 549.941540 126.437648)" x="549.9415403973758" y="126.43764774531132">13</text><title>6.828155461</title></g><g class="guides"><path class="line" d="M299.200000 257.000000 L515.796277 108.632519" /><text class="" transform="rotate(-308.571429 528.445500 99.967859)" x="528.4454999633458" y="99.96785850385947">14</text><title>6.956383733</title></g><g class="guides"><path class="line" d="M299.200000 257.000000 L491.929833 86.059460" /><text class="" transform="rotate(-315.918367 503.185255 76.076533)" x="503.18525475775203" y="76.07653268438645">15</text><title>7.084612005</title></g><g class="guides"><path class="line" d="M299.200000 257.000000 L464.898769 66.293240" /><text class="" transform="rotate(-323.265306 474.575577 55.155965)" x="474.57557730851255" y="55.15596519633647">16</text><title>7.212840276</title></g><g class="guides"><path class="line" d="M299.200000 257.000000 L435.146937 49.658419" /><text class="" transform="rotate(-330.612245 443.086238 37.549671)" x="443.0862377283869" y="37.549671179483255">17</text><title>7.341068548</title></g><g class="guides"><path class="line" d="M299.200000 257.000000 L403.162859 36.428142" /><text class="" transform="rotate(-337.959184 409.234290 23.546745)" x="409.2342901027107" y="23.546745494830986">18</text><title>7.469296819</title></g><g class="guides"><path class="line" d="M299.200000 257.000000 L369.471714 26.819648" /><text class="" transform="rotate(-345.306122 373.575582 13.377116)" x="373.5755824756104" y="13.377115794990061">19</text><title>7.597525091</title></g><g class="guides"><path class="line" d="M299.200000 257.000000 L334.626710 20.990710" /><text class="" transform="rotate(-352.653061 336.695630 7.207767)" x="336.6956298404843" y="7.20776711847725">20</text><title>7.725753362</title></g></g><g class="series serie-0 color-0"><path class="line reactive nofill" d="M299.200000 35.079484 L264.569396 26.294289 228.928286 26.819648 196.405263 38.906477 170.890532 61.306823 152.119070 87.720966 141.118227 116.790344 136.144375 145.307627 136.826076 172.451100 139.803762 196.391990 141.041746 216.680085 139.410476 234.810102 137.418827 252.543724 128.788445 271.120739 123.185549 291.507876 118.083015 314.251839 117.054205 338.622706 120.489142 364.078430 135.593326 384.626658 164.008097 393.405930 199.010461 389.209009 231.670862 377.447877 258.984691 361.038706 280.158914 340.981924 294.014658 326.374439 303.986469 321.037944 314.670882 325.235313 325.683252 325.513294 337.016317 324.450811 345.049450 317.502428 351.662529 309.933644 354.503665 300.141405 350.260245 287.593837 346.116341 278.024030 348.861109 272.698085 353.825174 267.709341 358.069446 261.878074 358.312352 255.371745 351.438883 249.745610 343.961770 245.588703 336.202698 242.930284 325.818676 243.139525 318.669328 243.663597 312.193022 245.475919 306.647136 248.428910 305.309975 247.681277 306.208732 242.129987 307.095698 231.137039 304.772741 219.874943 Z" /></g></g><g class="titles"><text class="title plot_title" x="400.0" y="26">Daily Wind bearing</text></g><g class="plot overlay" transform="translate(181, 46)"><g class="series serie-0 color-0"><g class="dots"><circle class="dot reactive tooltip-trigger" cx="299.2" cy="35.07948397836037" r="2.5" /><desc class="value">83</desc><desc class="x ">299.2</desc><desc class="y ">35.07948397836037</desc><desc class="x_label">20</desc></g><g class="dots"><circle class="dot reactive tooltip-trigger" cx="264.5693958644157" cy="26.29428923144036" r="2.5" /><desc class="value">87</desc><desc class="x ">264.5693958644157</desc><desc class="y ">26.29428923144036</desc><desc class="x_label">21</desc></g><g class="dots"><circle class="dot reactive tooltip-trigger" cx="228.9282856428476" cy="26.81964833237913" r="2.5" /><desc class="value">89</desc><desc class="x ">228.9282856428476</desc><desc class="y ">26.81964833237913</desc><desc class="x_label">22</desc></g><g class="dots"><circle class="dot reactive tooltip-trigger" cx="196.4052628831464" cy="38.906477485043354" r="2.5" /><desc class="value">88</desc><desc class="x ">196.4052628831464</desc><desc class="y ">38.906477485043354</desc><desc class="x_label">23</desc></g><g class="dots"><circle class="dot reactive tooltip-trigger" cx="170.89053172071826" cy="61.306822881650646" r="2.5" /><desc class="value">84</desc><desc class="x ">170.89053172071826</desc><desc class="y ">61.306822881650646</desc><desc class="x_label">00</desc></g><g class="dots"><circle class="dot reactive tooltip-trigger" cx="152.11907004666278" cy="87.72096582620554" r="2.5" /><desc class="value">79</desc><desc class="x ">152.11907004666278</desc><desc class="y ">87.72096582620554</desc><desc class="x_label">01</desc></g><g class="dots"><circle class="dot reactive tooltip-trigger" cx="141.11822724447455" cy="116.79034376629772" r="2.5" /><desc class="value">73</desc><desc class="x ">141.11822724447455</desc><desc class="y ">116.79034376629772</desc><desc class="x_label">02</desc></g><g class="dots"><circle class="dot reactive tooltip-trigger" cx="136.1443754666343" cy="145.30762694334652" r="2.5" /><desc class="value">67</desc><desc class="x ">136.1443754666343</desc><desc class="y ">145.30762694334652</desc><desc class="x_label">03</desc></g><g class="dots"><circle class="dot reactive tooltip-trigger" cx="136.8260757785771" cy="172.4510997357043" r="2.5" /><desc class="value">61</desc><desc class="x ">136.8260757785771</desc><desc class="y ">172.4510997357043</desc><desc class="x_label">04</desc></g><g class="dots"><circle class="dot reactive tooltip-trigger" cx="139.8037621602732" cy="196.3919904887901" r="2.5" /><desc class="value">56</desc><desc class="x ">139.8037621602732</desc><desc class="y ">196.3919904887901</desc><desc class="x_label">05</desc></g><g class="dots"><circle class="dot reactive tooltip-trigger" cx="141.04174629302798" cy="216.68008471180508" r="2.5" /><desc class="value">53</desc><desc class="x ">141.04174629302798</desc><desc class="y ">216.68008471180508</desc><desc class="x_label">06</desc></g><g class="dots"><circle class="dot reactive tooltip-trigger" cx="139.4104758731234" cy="234.81010198474735" r="2.5" /><desc class="value">52</desc><desc class="x ">139.4104758731234</desc><desc class="y ">234.81010198474735</desc><desc class="x_label">07</desc></g><g class="dots"><circle class="dot reactive tooltip-trigger" cx="137.4188270272911" cy="252.54372365098214" r="2.5" /><desc class="value">52</desc><desc class="x ">137.4188270272911</desc><desc class="y ">252.54372365098214</desc><desc class="x_label">08</desc></g><g class="dots"><circle class="dot reactive tooltip-trigger" cx="128.7884448325842" cy="271.1207394008019" r="2.5" /><desc class="value">55</desc><desc class="x top">128.7884448325842</desc><desc class="y top">271.1207394008019</desc><desc class="x_label">09</desc></g><g class="dots"><circle class="dot reactive tooltip-trigger" cx="123.18554913817631" cy="291.5078760045029" r="2.5" /><desc class="value">58</desc><desc class="x top">123.18554913817631</desc><desc class="y top">291.5078760045029</desc><desc class="x_label">10</desc></g><g class="dots"><circle class="dot reactive tooltip-trigger" cx="118.08301481073786" cy="314.25183912972443" r="2.5" /><desc class="value">62</desc><desc class="x top">118.08301481073786</desc><desc class="y top">314.25183912972443</desc><desc class="x_label">11</desc></g><g class="dots"><circle class="dot reactive tooltip-trigger" cx="117.0542049229202" cy="338.6227057747092" r="2.5" /><desc class="value">66</desc><desc class="x top">117.0542049229202</desc><desc class="y top">338.6227057747092</desc><desc class="x_label">12</desc></g><g class="dots"><circle class="dot reactive tooltip-trigger" cx="120.4891416949787" cy="364.0784302496653" r="2.5" /><desc class="value">70</desc><desc class="x top">120.4891416949787</desc><desc class="y top">364.0784302496653</desc><desc class="x_label">13</desc></g><g class="dots"><circle class="dot reactive tooltip-trigger" cx="135.5933255569044" cy="384.6266577673558" r="2.5" /><desc class="value">71</desc><desc class="x top">135.5933255569044</desc><desc class="y top">384.6266577673558</desc><desc class="x_label">14</desc></g><g class="dots"><circle class="dot reactive tooltip-trigger" cx="164.0080971317305" cy="393.40592964167826" r="2.5" /><desc class="value">67</desc><desc class="x top">164.0080971317305</desc><desc class="y top">393.40592964167826</desc><desc class="x_label">15</desc></g><g class="dots"><circle class="dot reactive tooltip-trigger" cx="199.0104608396839" cy="389.2090088896689" r="2.5" /><desc class="value">59</desc><desc class="x top">199.0104608396839</desc><desc class="y top">389.2090088896689</desc><desc class="x_label">16</desc></g><g class="dots"><circle class="dot reactive tooltip-trigger" cx="231.67086207658477" cy="377.44787715923934" r="2.5" /><desc class="value">50</desc><desc class="x top">231.67086207658477</desc><desc class="y top">377.44787715923934</desc><desc class="x_label">17</desc></g><g class="dots"><circle class="dot reactive tooltip-trigger" cx="258.98469067686887" cy="361.03870584947373" r="2.5" /><desc class="value">41</desc><desc class="x top">258.98469067686887</desc><desc class="y top">361.03870584947373</desc><desc class="x_label">18</desc></g><g class="dots"><circle class="dot reactive tooltip-trigger" cx="280.1589141215312" cy="340.98192371092927" r="2.5" /><desc class="value">32</desc><desc class="x top">280.1589141215312</desc><desc class="y top">340.98192371092927</desc><desc class="x_label">19</desc></g><g class="dots"><circle class="dot reactive tooltip-trigger" cx="294.0146581848319" cy="326.3744393919866" r="2.5" /><desc class="value">26</desc><desc class="x top">294.0146581848319</desc><desc class="y top">326.3744393919866</desc><desc class="x_label">20</desc></g><g class="dots"><circle class="dot reactive tooltip-trigger" cx="303.98646936784746" cy="321.03794405414146" r="2.5" /><desc class="value">24</desc><desc class="x left top">303.98646936784746</desc><desc class="y left top">321.03794405414146</desc><desc class="x_label">21</desc></g><g class="dots"><circle class="dot reactive tooltip-trigger" cx="314.6708822762558" cy="325.23531301513003" r="2.5" /><desc class="value">26</desc><desc class="x left top">314.6708822762558</desc><desc class="y left top">325.23531301513003</desc><desc class="x_label">22</desc></g><g class="dots"><circle class="dot reactive tooltip-trigger" cx="325.6832524810863" cy="325.51329409599487" r="2.5" /><desc class="value">27</desc><desc class="x left top">325.6832524810863</desc><desc class="y left top">325.51329409599487</desc><desc class="x_label">23</desc></g><g class="dots"><circle class="dot reactive tooltip-trigger" cx="337.0163172371125" cy="324.45081120917405" r="2.5" /><desc class="value">28</desc><desc class="x left top">337.0163172371125</desc><desc class="y left top">324.45081120917405</desc><desc class="x_label">00</desc></g><g class="dots"><circle class="dot reactive tooltip-trigger" cx="345.04945012421234" cy="317.50242779696714" r="2.5" /><desc class="value">27</desc><desc class="x left top">345.04945012421234</desc><desc class="y left top">317.50242779696714</desc><desc class="x_label">01</desc></g><g class="dots"><circle class="dot reactive tooltip-trigger" cx="351.66252947126867" cy="309.93364433856175" r="2.5" /><desc class="value">26</desc><desc class="x left top">351.66252947126867</desc><desc class="y left top">309.93364433856175</desc><desc class="x_label">02</desc></g><g class="dots"><circle class="dot reactive tooltip-trigger" cx="354.503664600483" cy="300.1414054424865" r="2.5" /><desc class="value">24</desc><desc class="x left top">354.503664600483</desc><desc class="y left top">300.1414054424865</desc><desc class="x_label">03</desc></g><g class="dots"><circle class="dot reactive tooltip-trigger" cx="350.26024523000603" cy="287.5938372141901" r="2.5" /><desc class="value">20</desc><desc class="x left top">350.26024523000603</desc><desc class="y left top">287.5938372141901</desc><desc class="x_label">04</desc></g><g class="dots"><circle class="dot reactive tooltip-trigger" cx="346.1163411562175" cy="278.02403027530386" r="2.5" /><desc class="value">17</desc><desc class="x left top">346.1163411562175</desc><desc class="y left top">278.02403027530386</desc><desc class="x_label">05</desc></g><g class="dots"><circle class="dot reactive tooltip-trigger" cx="348.861108842217" cy="272.69808492266645" r="2.5" /><desc class="value">17</desc><desc class="x left top">348.861108842217</desc><desc class="y left top">272.69808492266645</desc><desc class="x_label">06</desc></g><g class="dots"><circle class="dot reactive tooltip-trigger" cx="353.8251744053935" cy="267.70934082898367" r="2.5" /><desc class="value">18</desc><desc class="x left top">353.8251744053935</desc><desc class="y left top">267.70934082898367</desc><desc class="x_label">07</desc></g><g class="dots"><circle class="dot reactive tooltip-trigger" cx="358.06944633056173" cy="261.8780736111861" r="2.5" /><desc class="value">19</desc><desc class="x left top">358.06944633056173</desc><desc class="y left top">261.8780736111861</desc><desc class="x_label">08</desc></g><g class="dots"><circle class="dot reactive tooltip-trigger" cx="358.3123516631052" cy="255.37174518016656" r="2.5" /><desc class="value">19</desc><desc class="x left">358.3123516631052</desc><desc class="y left">255.37174518016656</desc><desc class="x_label">09</desc></g><g class="dots"><circle class="dot reactive tooltip-trigger" cx="351.4388828876327" cy="249.74561026424436" r="2.5" /><desc class="value">17</desc><desc class="x left">351.4388828876327</desc><desc class="y left">249.74561026424436</desc><desc class="x_label">10</desc></g><g class="dots"><circle class="dot reactive tooltip-trigger" cx="343.96176991706756" cy="245.5887032203222" r="2.5" /><desc class="value">15</desc><desc class="x left">343.96176991706756</desc><desc class="y left">245.5887032203222</desc><desc class="x_label">11</desc></g><g class="dots"><circle class="dot reactive tooltip-trigger" cx="336.2026980699366" cy="242.9302835063263" r="2.5" /><desc class="value">13</desc><desc class="x left">336.2026980699366</desc><desc class="y left">242.9302835063263</desc><desc class="x_label">12</desc></g><g class="dots"><circle class="dot reactive tooltip-trigger" cx="325.81867610187265" cy="243.1395245468368" r="2.5" /><desc class="value">10</desc><desc class="x left">325.81867610187265</desc><desc class="y left">243.1395245468368</desc><desc class="x_label">13</desc></g><g class="dots"><circle class="dot reactive tooltip-trigger" cx="318.66932830249146" cy="243.66359724696673" r="2.5" /><desc class="value">8</desc><desc class="x left">318.66932830249146</desc><desc class="y left">243.66359724696673</desc><desc class="x_label">14</desc></g><g class="dots"><circle class="dot reactive tooltip-trigger" cx="312.19302241826233" cy="245.4759186657231" r="2.5" /><desc class="value">6</desc><desc class="x left">312.19302241826233</desc><desc class="y left">245.4759186657231</desc><desc class="x_label">15</desc></g><g class="dots"><circle class="dot reactive tooltip-trigger" cx="306.64713569383986" cy="248.42890966208637" r="2.5" /><desc class="value">4</desc><desc class="x left">306.64713569383986</desc><desc class="y left">248.42890966208637</desc><desc class="x_label">16</desc></g><g class="dots"><circle class="dot reactive tooltip-trigger" cx="305.3099746799658" cy="247.68127728007858" r="2.5" /><desc class="value">4</desc><desc class="x left">305.3099746799658</desc><desc class="y left">247.68127728007858</desc><desc class="x_label">17</desc></g><g class="dots"><circle class="dot reactive tooltip-trigger" cx="306.2087320761491" cy="242.129987101253" r="2.5" /><desc class="value">6</desc><desc class="x left">306.2087320761491</desc><desc class="y left">242.129987101253</desc><desc class="x_label">18</desc></g><g class="dots"><circle class="dot reactive tooltip-trigger" cx="307.09569824237667" cy="231.13703913846956" r="2.5" /><desc class="value">10</desc><desc class="x left">307.09569824237667</desc><desc class="y left">231.13703913846956</desc><desc class="x_label">19</desc></g><g class="dots"><circle class="dot reactive tooltip-trigger" cx="304.7727408953814" cy="219.87494309471452" r="2.5" /><desc class="value">14</desc><desc class="x left">304.7727408953814</desc><desc class="y left">219.87494309471452</desc><desc class="x_label">20</desc></g></g></g><g class="plot text-overlay" transform="translate(181, 46)"><g class="series serie-0 color-0" /></g><g class="plot tooltip-overlay" transform="translate(181, 46)"><g class="tooltip" style="opacity: 0" transform="translate(0 0)"><rect class="tooltip-box" height="0" rx="0" ry="0" width="0" /><g class="text" /></g></g><g class="legends" transform="translate(10, 56)"><g class="legend reactive activate-serie" id="activate-serie-0"><rect class="color-0 reactive" height="12" width="12" x="0.0" y="1.0" /><text x="17.0" y="11.2">Wind direction</text></g></g><g class="legends" transform="translate(790, 56)" /></g></svg>