<?xml version='1.0' encoding='utf-8'?>
<svg xmlns:xlink="http://www.w3.org/1999/xlink" xmlns="http://www.w3.org/2000/svg" id="chart-fabdada4-4895-41b9-9fa3-0c8018515990" class="pygal-chart" viewBox="0 0 800 600"><!--Generated with pygal 2.4.0 (lxml) ©Kozea 2012-2016 on 2017-07-20--><!--http://pygal.org--><!--http://github.com/Kozea/pygal--><defs><style type="text/css">#chart-fabdada4-4895-41b9-9fa3-0c8018515990{-webkit-user-select:none;-webkit-font-smoothing:antialiased;font-family:Consolas,"Liberation Mono",Menlo,Courier,monospace}#chart-fabdada4-4895-41b9-9fa3-0c8018515990 .title{font-family:Consolas,"Liberation Mono",Menlo,Courier,monospace;font-size:16px}#chart-fabdada4-4895-41b9-9fa3-0c8018515990 .legends .legend text{font-family:Consolas,"Liberation Mono",Menlo,Courier,monospace;font-size:14px}#chart-fabdada4-4895-41b9-9fa3-0c8018515990 .axis text{font-family:Consolas,"Liberation Mono",Menlo,Courier,monospace;font-size:10px}#chart-fabdada4-4895-41b9-9fa3-0c8018515990 .axis text.major{font-family:Consolas,"Liberation Mono",Menlo,Courier,monospace;font-size:10px}#chart-fabdada4-4895-41b9-9fa3-0c8018515990 .text-overlay text.value{font-family:Consolas,"Liberation Mono",Menlo,Courier,monospace;font-size:16px}#chart-fabdada4-4895-41b9-9fa3-0c8018515990 .text-overlay text.label{font-family:Consolas,"Liberation Mono",Menlo,Courier,monospace;font-size:10px}#chart-fabdada4-4895-41b9-9fa3-0c8018515990 .tooltip{font-family:Consolas,"Liberation Mono",Menlo,Courier,monospace;font-size:14px}#chart-fabdada4-4895-41b9-9fa3-0c8018515990 text.no_data{font-family:Consolas,"Liberation Mono",Menlo,Courier,monospace;font-size:64px}
#chart-fabdada4-4895-41b9-9fa3-0c8018515990{background-color:transparent}#chart-fabdada4-4895-41b9-9fa3-0c8018515990 path,#chart-fabdada4-4895-41b9-9fa3-0c8018515990 line,#chart-fabdada4-4895-41b9-9fa3-0c8018515990 rect,#chart-fabdada4-4895-41b9-9fa3-0c8018515990 circle{-webkit-transition:400ms ease-in;-moz-transition:400ms ease-in;transition:400ms ease-in}#chart-fabdada4-4895-41b9-9fa3-0c8018515990 .graph &gt; .background{fill:transparent}#chart-fabdada4-4895-41b9-9fa3-0c8018515990 .plot &gt; .background{fill:transparent}#chart-fabdada4-4895-41b9-9fa3-0c8018515990 .graph{fill:#005570}#chart-fabdada4-4895-41b9-9fa3-0c8018515990 text.no_data{fill:#18a7ed}#chart-fabdada4-4895-41b9-9fa3-0c8018515990 .title{fill:#18a7ed}#chart-fabdada4-4895-41b9-9fa3-0c8018515990 .legends .legend text{fill:#005570}#chart-fabdada4-4895-41b9-9fa3-0c8018515990 .legends .legend:hover text{fill:#18a7ed}#chart-fabdada4-4895-41b9-9fa3-0c8018515990 .axis .line{stroke:#18a7ed}#chart-fabdada4-4895-41b9-9fa3-0c8018515990 .axis .guide.line{stroke:#630C0D}#chart-fabdada4-4895-41b9-9fa3-0c8018515990 .axis .major.line{stroke:#005570}#chart-fabdada4-4895-41b9-9fa3-0c8018515990 .axis text.major{fill:#18a7ed}#chart-fabdada4-4895-41b9-9fa3-0c8018515990 .axis.y .guides:hover .guide.line,#chart-fabdada4-4895-41b9-9fa3-0c8018515990 .line-graph .axis.x .guides:hover .guide.line,#chart-fabdada4-4895-41b9-9fa3-0c8018515990 .stackedline-graph .axis.x .guides:hover .guide.line,#chart-fabdada4-4895-41b9-9fa3-0c8018515990 .xy-graph .axis.x .guides:hover .guide.line{stroke:#18a7ed}#chart-fabdada4-4895-41b9-9fa3-0c8018515990 .axis .guides:hover text{fill:#18a7ed}#chart-fabdada4-4895-41b9-9fa3-0c8018515990 .reactive{fill-opacity:.6;stroke-opacity:.8}#chart-fabdada4-4895-41b9-9fa3-0c8018515990 .ci{stroke:#005570}#chart-fabdada4-4895-41b9-9fa3-0c8018515990 .reactive.active,#chart-fabdada4-4895-41b9-9fa3-0c8018515990 .active .reactive{fill-opacity:.9;stroke-opacity:.9;stroke-width:4}#chart-fabdada4-4895-41b9-9fa3-0c8018515990 .ci .reactive.active{stroke-width:1.5}#chart-fabdada4-4895-41b9-9fa3-0c8018515990 .series text{fill:#18a7ed}#chart-fabdada4-4895-41b9-9fa3-0c8018515990 .tooltip rect{fill:transparent;stroke:#18a7ed;-webkit-transition:opacity 400ms ease-in;-moz-transition:opacity 400ms ease-in;transition:opacity 400ms ease-in}#chart-fabdada4-4895-41b9-9fa3-0c8018515990 .tooltip .label{fill:#005570}#chart-fabdada4-4895-41b9-9fa3-0c8018515990 .tooltip .label{fill:#005570}#chart-fabdada4-4895-41b9-9fa3-0c8018515990 .tooltip .legend{font-size:.8em;fill:#630C0D}#chart-fabdada4-4895-41b9-9fa3-0c8018515990 .tooltip .x_label{font-size:.6em;fill:#18a7ed}#chart-fabdada4-4895-41b9-9fa3-0c8018515990 .tooltip .xlink{font-size:.5em;text-decoration:underline}#chart-fabdada4-4895-41b9-9fa3-0c8018515990 .tooltip .value{font-size:1.5em}#chart-fabdada4-4895-41b9-9fa3-0c8018515990 .bound{font-size:.5em}#chart-fabdada4-4895-41b9-9fa3-0c8018515990 .max-value{font-size:.75em;fill:#630C0D}#chart-fabdada4-4895-41b9-9fa3-0c8018515990 .map-element{fill:transparent;stroke:#630C0D !important}#chart-fabdada4-4895-41b9-9fa3-0c8018515990 .map-element .reactive{fill-opacity:inherit;stroke-opacity:inherit}#chart-fabdada4-4895-41b9-9fa3-0c8018515990 .color-0,#chart-fabdada4-4895-41b9-9fa3-0c8018515990 .color-0 a:visited{stroke:#005570;fill:#005570}#chart-fabdada4-4895-41b9-9fa3-0c8018515990 .text-overlay .color-0 text{fill:black}
#chart-fabdada4-4895-41b9-9fa3-0c8018515990 text.no_data{text-anchor:middle}#chart-fabdada4-4895-41b9-9fa3-0c8018515990 .guide.line{fill:none}#chart-fabdada4-4895-41b9-9fa3-0c8018515990 .centered{text-anchor:middle}#chart-fabdada4-4895-41b9-9fa3-0c8018515990 .title{text-anchor:middle}#chart-fabdada4-4895-41b9-9fa3-0c8018515990 .legends .legend text{fill-opacity:1}#chart-fabdada4-4895-41b9-9fa3-0c8018515990 .axis.x text{text-anchor:middle}#chart-fabdada4-4895-41b9-9fa3-0c8018515990 .axis.x:not(.web) text[transform]{text-anchor:start}#chart-fabdada4-4895-41b9-9fa3-0c8018515990 .axis.x:not(.web) text[transform].backwards{text-anchor:end}#chart-fabdada4-4895-41b9-9fa3-0c8018515990 .axis.y text{text-anchor:end}#chart-fabdada4-4895-41b9-9fa3-0c8018515990 .axis.y text[transform].backwards{text-anchor:start}#chart-fabdada4-4895-41b9-9fa3-0c8018515990 .axis.y2 text{text-anchor:start}#chart-fabdada4-4895-41b9-9fa3-0c8018515990 .axis.y2 text[transform].backwards{text-anchor:end}#chart-fabdada4-4895-41b9-9fa3-0c8018515990 .axis .guide.line{stroke-dasharray:4,4}#chart-fabdada4-4895-41b9-9fa3-0c8018515990 .axis .major.guide.line{stroke-dasharray:6,6}#chart-fabdada4-4895-41b9-9fa3-0c8018515990 .horizontal .axis.y .guide.line,#chart-fabdada4-4895-41b9-9fa3-0c8018515990 .horizontal .axis.y2 .guide.line,#chart-fabdada4-4895-41b9-9fa3-0c8018515990 .vertical .axis.x .guide.line{opacity:0}#chart-fabdada4-4895-41b9-9fa3-0c8018515990 .horizontal .axis.always_show .guide.line,#chart-fabdada4-4895-41b9-9fa3-0c8018515990 .vertical .axis.always_show .guide.line{opacity:1 !important}#chart-fabdada4-4895-41b9-9fa3-0c8018515990 .axis.y .guides:hover .guide.line,#chart-fabdada4-4895-41b9-9fa3-0c8018515990 .axis.y2 .guides:hover .guide.line,#chart-fabdada4-4895-41b9-9fa3-0c8018515990 .axis.x .guides:hover .guide.line{opacity:1}#chart-fabdada4-4895-41b9-9fa3-0c8018515990 .axis .guides:hover text{opacity:1}#chart-fabdada4-4895-41b9-9fa3-0c8018515990 .nofill{fill:none}#chart-fabdada4-4895-41b9-9fa3-0c8018515990 .subtle-fill{fill-opacity:.2}#chart-fabdada4-4895-41b9-9fa3-0c8018515990 .dot{stroke-width:1px;fill-opacity:1}#chart-fabdada4-4895-41b9-9fa3-0c8018515990 .dot.active{stroke-width:5px}#chart-fabdada4-4895-41b9-9fa3-0c8018515990 .dot.negative{fill:transparent}#chart-fabdada4-4895-41b9-9fa3-0c8018515990 text,#chart-fabdada4-4895-41b9-9fa3-0c8018515990 tspan{stroke:none !important}#chart-fabdada4-4895-41b9-9fa3-0c8018515990 .series text.active{opacity:1}#chart-fabdada4-4895-41b9-9fa3-0c8018515990 .tooltip rect{fill-opacity:.95;stroke-width:.5}#chart-fabdada4-4895-41b9-9fa3-0c8018515990 .tooltip text{fill-opacity:1}#chart-fabdada4-4895-41b9-9fa3-0c8018515990 .showable{visibility:hidden}#chart-fabdada4-4895-41b9-9fa3-0c8018515990 .showable.shown{visibility:visible}#chart-fabdada4-4895-41b9-9fa3-0c8018515990 .gauge-background{fill:rgba(229,229,229,1);stroke:none}#chart-fabdada4-4895-41b9-9fa3-0c8018515990 .bg-lines{stroke:transparent;stroke-width:2px}</style><script type="text/javascript">window.pygal = window.pygal || {};window.pygal.config = window.pygal.config || {};window.pygal.config['fabdada4-4895-41b9-9fa3-0c8018515990'] = {"allow_interruptions": false, "box_mode": "extremes", "classes": ["pygal-chart"], "css": ["file://style.css", "file://graph.css"], "defs": [], "disable_xml_declaration": false, "dots_size": 2.5, "dynamic_print_values": false, "explicit_size": false, "fill": false, "force_uri_protocol": "https", "formatter": null, "half_pie": false, "height": 600, "include_x_axis": false, "inner_radius": 0, "interpolate": null, "interpolation_parameters": {}, "interpolation_precision": 250, "inverse_y_axis": false, "js": ["//kozea.github.io/pygal.js/2.0.x/pygal-tooltips.min.js"], "legend_at_bottom": false, "legend_at_bottom_columns": null, "legend_box_size": 12, "logarithmic": false, "margin": 20, "margin_bottom": null, "margin_left": null, "margin_right": null, "margin_top": null, "max_scale": 16, "min_scale": 4, "missing_value_fill_truncation": "x", "no_data_text": "No data", "no_prefix": false, "order_min": null, "pretty_print": false, "print_labels": false, "print_values": false, "print_values_position": "center", "print_zeroes": true, "range": null, "rounded_bars": null, "secondary_range": null, "show_dots": true, "show_legend": true, "show_minor_x_labels": true, "show_minor_y_labels": true, "show_only_major_dots": false, "show_x_guides": false, "show_x_labels": true, "show_y_guides": true, "show_y_labels": true, "spacing": 10, "stack_from_top": false, "strict": false, "stroke": true, "stroke_style": null, "style": {"background": "transparent", "ci_colors": [], "colors": ["#005570", "#b1e4fa", "#E87653", "#E89B53", "#E853A0"], "font_family": "Consolas, \"Liberation Mono\", Menlo, Courier, monospace", "foreground": "#005570", "foreground_strong": "#18a7ed", "foreground_subtle": "#630C0D", "guide_stroke_dasharray": "4,4", "label_font_family": "Consolas, \"Liberation Mono\", Menlo, Courier, monospace", "label_font_size": 10, "legend_font_family": "Consolas, \"Liberation Mono\", Menlo, Courier, monospace", "legend_font_size": 14, "major_guide_stroke_dasharray": "6,6", "major_label_font_family": "Consolas, \"Liberation Mono\", Menlo, Courier, monospace", "major_label_font_size": 10, "no_data_font_family": "Consolas, \"Liberation Mono\", Menlo, Courier, monospace", "no_data_font_size": 64, "opacity": ".6", "opacity_hover": ".9", "plot_background": "transparent", "stroke_opacity": ".8", "stroke_opacity_hover": ".9", "title_font_family": "Consolas, \"Liberation Mono\", Menlo, Courier, monospace", "title_font_size": 16, "tooltip_font_family": "Consolas, \"Liberation Mono\", Menlo, Courier, monospace", "tooltip_font_size": 14, "transition": "400ms ease-in", "value_background": "rgba(229, 229, 229, 1)", "value_colors": [], "value_font_family": "Consolas, \"Liberation Mono\", Menlo, Courier, monospace", "value_font_size": 16, "value_label_font_family": "Consolas, \"Liberation Mono\", Menlo, Courier, monospace", "value_label_font_size": 10}, "title": "Daily Wind bearing", "tooltip_border_radius": 0, "tooltip_fancy_mode": true, "truncate_label": null, "truncate_legend": null, "width": 800, "x_label_rotation": 0, "x_labels": ["15", "16", "17", "18", "19", "20", "21", "22", "23", "00", "01", "02", "03", "04", "05", "06", "07", "08", "09", "10", "11", "12", "13", "14", "15", "16", "17", "18", "19", "20", "21", "22", "23", "00", "01", "02", "03", "04", "05", "06", "07", "08", "09", "10", "11", "12", "13", "14", "15"], "x_labels_major": null, "x_labels_major_count": null, "x_labels_major_every": null, "x_title": null, "xrange": null, "y_label_rotation": 0, "y_labels": null, "y_labels_major": null, "y_labels_major_count": null, "y_labels_major_every": null, "y_title": null, "zero": 0, "legends": ["Wind direction"]}</script><script type="text/javascript" xlink:href="https://kozea.github.io/pygal.js/2.0.x/pygal-tooltips.min.js"/></defs><title>Daily Wind bearing</title><g class="graph radar-graph vertical"><rect class="background" height="600" width="800" x="0" y="0"/><g class="plot" transform="translate(187, 46)"><rect class="background" height="514" width="592.4" x="0" y="0"/><g class="axis y web"><g class="guides"><path class="major guide line" d="M296.200000 53.612852 L266.224363 55.282658 236.740925 60.264657 208.233803 68.477044 181.171083 79.784974 155.997136 94.002769 133.125315 110.896975 112.931177 130.190187 95.746307 151.565614 81.852881 174.672270 71.479030 199.130746 64.795090 224.539433 61.910813 250.481121 62.873557 276.529849 67.667515 302.257898 76.213971 327.242813 88.372591 351.074344 103.943731 373.361176 122.671714 393.737361 144.249026 411.868322 168.321369 427.456349 194.493476 440.245488 222.335601 450.025742 251.390578 456.636517 281.181324 459.969267 311.218676 459.969267 341.009422 456.636517 370.064399 450.025742 397.906524 440.245488 424.078631 427.456349 448.150974 411.868322 469.728286 393.737361 488.456269 373.361176 504.027409 351.074344 516.186029 327.242813 524.732485 302.257898 529.526443 276.529849 530.489187 250.481121 527.604910 224.539433 520.920970 199.130746 510.547119 174.672270 496.653693 151.565614 479.468823 130.190187 459.274685 110.896975 436.402864 94.002769 411.228917 79.784974 384.166197 68.477044 355.659075 60.264657 326.175637 55.282658 296.200000 53.612852 Z"/><text class="major" x="291.2" y="53.6128521684077">100</text><title>100</title></g><g class="guides"><path class="guide line" d="M296.200000 94.290282 L272.219490 95.626126 248.632740 99.611725 225.827042 106.181636 204.176867 115.227979 184.037709 126.602215 165.740252 140.117580 149.584941 155.552150 135.837046 172.652491 124.722305 191.137816 116.423224 210.704597 111.076072 231.031546 108.768650 251.784897 109.538846 272.623879 113.374012 293.206318 120.211177 313.194251 129.938072 332.259475 142.394985 350.088941 157.377371 366.389888 174.639221 380.894657 193.897095 393.365079 214.834781 403.596391 237.108481 411.420593 260.352462 416.709214 284.185059 419.375414 308.214941 419.375414 332.047538 416.709214 355.291519 411.420593 377.565219 403.596391 398.502905 393.365079 417.760779 380.894657 435.022629 366.389888 450.005015 350.088941 462.461928 332.259475 472.188823 313.194251 479.025988 293.206318 482.861154 272.623879 483.631350 251.784897 481.323928 231.031546 475.976776 210.704597 467.677695 191.137816 456.562954 172.652491 442.815059 155.552150 426.659748 140.117580 408.362291 126.602215 388.223133 115.227979 366.572958 106.181636 343.767260 99.611725 320.180510 95.626126 296.200000 94.290282 Z"/><text class="" x="291.2" y="94.29028173472614">80</text><title>80</title></g><g class="guides"><path class="guide line" d="M296.200000 134.967711 L278.214618 135.969595 260.524555 138.958794 243.420282 143.886227 227.182650 150.670984 212.078282 159.201662 198.355189 169.338185 186.238706 180.914112 175.927784 193.739368 167.591729 207.603362 161.367418 222.278447 157.357054 237.523660 155.626488 253.088673 156.204134 268.717910 159.080509 284.154739 164.208382 299.145688 171.503554 313.444606 180.846238 326.816705 192.083028 339.042416 205.029416 349.920993 219.472822 359.273810 235.176086 366.947293 251.881361 372.815445 269.314347 376.781910 287.188794 378.781560 305.211206 378.781560 323.085653 376.781910 340.518639 372.815445 357.223914 366.947293 372.927178 359.273810 387.370584 349.920993 400.316972 339.042416 411.553762 326.816705 420.896446 313.444606 428.191618 299.145688 433.319491 284.154739 436.195866 268.717910 436.773512 253.088673 435.042946 237.523660 431.032582 222.278447 424.808271 207.603362 416.472216 193.739368 406.161294 180.914112 394.044811 169.338185 380.321718 159.201662 365.217350 150.670984 348.979718 143.886227 331.875445 138.958794 314.185382 135.969595 296.200000 134.967711 Z"/><text class="" x="291.2" y="134.96771130104457">60</text><title>60</title></g><g class="guides"><path class="guide line" d="M296.200000 175.645141 L284.209745 176.313063 272.416370 178.305863 261.013521 181.590818 250.188433 186.113990 240.118854 191.801108 230.970126 198.558790 222.892471 206.276075 216.018523 214.826246 210.461153 224.068908 206.311612 233.852298 203.638036 244.015773 202.484325 254.392448 202.869423 264.811940 204.787006 275.103159 208.205588 285.097125 213.069036 294.629737 219.297492 303.544470 226.788685 311.694944 235.419610 318.947329 245.048548 325.182540 255.517390 330.298195 266.654241 334.210297 278.276231 336.854607 290.192530 338.187707 302.207470 338.187707 314.123769 336.854607 325.745759 334.210297 336.882610 330.298195 347.351452 325.182540 356.980390 318.947329 365.611315 311.694944 373.102508 303.544470 379.330964 294.629737 384.194412 285.097125 387.612994 275.103159 389.530577 264.811940 389.915675 254.392448 388.761964 244.015773 386.088388 233.852298 381.938847 224.068908 376.381477 214.826246 369.507529 206.276075 361.429874 198.558790 352.281146 191.801108 342.211567 186.113990 331.386479 181.590818 319.983630 178.305863 308.190255 176.313063 296.200000 175.645141 Z"/><text class="" x="291.2" y="175.64514086736307">40</text><title>40</title></g><g class="guides"><path class="guide line" d="M296.200000 216.322570 L290.204873 216.656532 284.308185 217.652931 278.606761 219.295409 273.194217 221.556995 268.159427 224.400554 263.585063 227.779395 259.546235 231.638037 256.109261 235.913123 253.330576 240.534454 251.255806 245.426149 249.919018 250.507887 249.342163 255.696224 249.534711 260.905970 250.493503 266.051580 252.202794 271.048563 254.634518 275.814869 257.748746 280.272235 261.494343 284.347472 265.809805 287.973664 270.624274 291.091270 275.858695 293.649098 281.427120 295.605148 287.238116 296.927303 293.196265 297.593853 299.203735 297.593853 305.161884 296.927303 310.972880 295.605148 316.541305 293.649098 321.775726 291.091270 326.590195 287.973664 330.905657 284.347472 334.651254 280.272235 337.765482 275.814869 340.197206 271.048563 341.906497 266.051580 342.865289 260.905970 343.057837 255.696224 342.480982 250.507887 341.144194 245.426149 339.069424 240.534454 336.290739 235.913123 332.853765 231.638037 328.814937 227.779395 324.240573 224.400554 319.205783 221.556995 313.793239 219.295409 308.091815 217.652931 302.195127 216.656532 296.200000 216.322570 Z"/><text class="" x="291.2" y="216.3225704336815">20</text><title>20</title></g><g class="guides"><path class="major guide line" d="M296.200000 257.000000 L296.200000 257.000000 296.200000 257.000000 296.200000 257.000000 296.200000 257.000000 296.200000 257.000000 296.200000 257.000000 296.200000 257.000000 296.200000 257.000000 296.200000 257.000000 296.200000 257.000000 296.200000 257.000000 296.200000 257.000000 296.200000 257.000000 296.200000 257.000000 296.200000 257.000000 296.200000 257.000000 296.200000 257.000000 296.200000 257.000000 296.200000 257.000000 296.200000 257.000000 296.200000 257.000000 296.200000 257.000000 296.200000 257.000000 296.200000 257.000000 296.200000 257.000000 296.200000 257.000000 296.200000 257.000000 296.200000 257.000000 296.200000 257.000000 296.200000 257.000000 296.200000 257.000000 296.200000 257.000000 296.200000 257.000000 296.200000 257.000000 296.200000 257.000000 296.200000 257.000000 296.200000 257.000000 296.200000 257.000000 296.200000 257.000000 296.200000 257.000000 296.200000 257.000000 296.200000 257.000000 296.200000 257.000000 296.200000 257.000000 296.200000 257.000000 296.200000 257.000000 296.200000 257.000000 296.200000 257.000000 296.200000 257.000000 Z"/><text class="major" x="291.2" y="257.0">0</text><title>0</title></g></g><g class="axis x web"><g class="guides"><path class="line" d="M296.200000 257.000000 L296.200000 19.037037"/><text class="" x="296.20000000000005" y="5.140000000000043" transform="rotate(0.000000 296.200000 5.140000)">15</text><title>1.570796327</title></g><g class="guides"><path class="line" d="M296.200000 257.000000 L261.128504 20.990710"/><text class="" x="259.08032901486837" y="7.20776711847725" transform="rotate(-7.346939 259.080329 7.207767)">16</text><title>1.699024598</title></g><g class="guides"><path class="line" d="M296.200000 257.000000 L226.632882 26.819648"/><text class="" x="222.5701620010839" y="13.377115794990118" transform="rotate(-14.693878 222.570162 13.377116)">17</text><title>1.82725287</title></g><g class="guides"><path class="line" d="M296.200000 257.000000 L193.279549 36.428142"/><text class="" x="187.26899489163483" y="23.54674549483093" transform="rotate(-22.040816 187.268995 23.546745)">18</text><title>1.955481142</title></g><g class="guides"><path class="line" d="M296.200000 257.000000 L161.616168 49.658419"/><text class="" x="153.75647187450502" y="37.549671179483084" transform="rotate(-29.387755 153.756472 37.549671)">19</text><title>2.083709413</title></g><g class="guides"><path class="line" d="M296.200000 257.000000 L132.162649 66.293240"/><text class="" x="122.5828676511318" y="55.15596519633647" transform="rotate(-36.734694 122.582868 55.155965)">20</text><title>2.211937685</title></g><g class="guides"><path class="line" d="M296.200000 257.000000 L105.402619 86.059460"/><text class="" x="94.2600519410224" y="76.07653268438628" transform="rotate(-44.081633 94.260052 76.076533)">21</text><title>2.340165956</title></g><g class="guides"><path class="line" d="M296.200000 257.000000 L81.775477 108.632519"/><text class="" x="69.25308459511021" y="99.96785850385936" transform="rotate(-51.428571 69.253085 99.967859)">22</text><title>2.468394228</title></g><g class="guides"><path class="line" d="M296.200000 257.000000 L61.669179 133.641768"/><text class="" x="47.97257932586017" y="126.43764774531115" transform="rotate(-58.775510 47.972579 126.437648)">23</text><title>2.596622499</title></g><g class="guides"><path class="line" d="M296.200000 257.000000 L45.413871 160.676556"/><text class="" x="30.767961441462074" y="155.05126720119387" transform="rotate(-66.122449 30.767961 155.051267)">00</text><title>2.724850771</title></g><g class="guides"><path class="line" d="M296.200000 257.000000 L33.276465 189.292972"/><text class="" x="17.92173029193032" y="185.33888203110808" transform="rotate(-73.469388 17.921730 185.338882)">01</text><title>2.853079043</title></g><g class="guides"><path class="line" d="M296.200000 257.000000 L25.456255 219.021136"/><text class="" x="9.644820637587118" y="216.80317043689297" transform="rotate(-80.816327 9.644821 216.803170)">02</text><title>2.981307314</title></g><g class="guides"><path class="line" d="M296.200000 257.000000 L22.081651 249.372912"/><text class="" x="6.073139106129132" y="248.9274896728029" transform="rotate(-88.163265 6.073139 248.927490)">03</text><title>3.109535586</title></g><g class="guides"><path class="line" d="M296.200000 257.000000 L23.208062 279.849924"/><text class="" x="7.265332609558563" y="281.1843593051086" transform="rotate(-275.510204 7.265333 281.184359)">04</text><title>3.237763857</title></g><g class="guides"><path class="line" d="M296.200000 257.000000 L28.816993 309.951741"/><text class="" x="13.201825363508968" y="313.0441224262373" transform="rotate(-282.857143 13.201825 313.044122)">05</text><title>3.365992129</title></g><g class="guides"><path class="line" d="M296.200000 257.000000 L38.816346 339.184092"/><text class="" x="23.785140321083755" y="343.98364260655046" transform="rotate(-290.204082 23.785140 343.983643)">06</text><title>3.4942204</title></g><g class="guides"><path class="line" d="M296.200000 257.000000 L53.041931 367.066982"/><text class="" x="38.841499743271" y="373.4948937800567" transform="rotate(-297.551020 38.841500 373.494894)">07</text><title>3.622448672</title></g><g class="guides"><path class="line" d="M296.200000 257.000000 L71.260165 393.142576"/><text class="" x="58.123678624614" y="401.09330201836957" transform="rotate(-304.897959 58.123679 401.093302)">08</text><title>3.750676944</title></g><g class="guides"><path class="line" d="M296.200000 257.000000 L93.171905 416.982712"/><text class="" x="81.31506412096564" y="426.3257022212151" transform="rotate(-312.244898 81.315064 426.325702)">09</text><title>3.878905215</title></g><g class="guides"><path class="line" d="M296.200000 257.000000 L118.417360 438.195936"/><text class="" x="108.03485432363621" y="448.77777907485006" transform="rotate(-319.591837 108.034854 448.777779)">10</text><title>4.007133487</title></g><g class="guides"><path class="line" d="M296.200000 257.000000 L146.582002 456.433929"/><text class="" x="137.84431101620663" y="468.0808700980589" transform="rotate(-326.938776 137.844311 468.080870)">11</text><title>4.135361758</title></g><g class="guides"><path class="line" d="M296.200000 257.000000 L177.203367 471.397221"/><text class="" x="170.25396374391167" y="483.91801906990327" transform="rotate(-334.285714 170.253964 483.918019)">12</text><title>4.26359003</title></g><g class="guides"><path class="line" d="M296.200000 257.000000 L209.778654 482.840118"/><text class="" x="204.7316469049753" y="496.0291804421069" transform="rotate(-341.632653 204.731647 496.029180)">13</text><title>4.391818301</title></g><g class="guides"><path class="line" d="M296.200000 257.000000 L243.772976 490.574725"/><text class="" x="240.71123789508036" y="504.2154892797697" transform="rotate(-348.979592 240.711238 504.215489)">14</text><title>4.520046573</title></g><g class="guides"><path class="line" d="M296.200000 257.000000 L278.628149 494.474043"/><text class="" x="277.6019528248786" y="508.3425266180997" transform="rotate(-356.326531 277.601953 508.342527)">15</text><title>4.648274845</title></g><g class="guides"><path class="line" d="M296.200000 257.000000 L313.771851 494.474043"/><text class="" x="314.7980471751213" y="508.3425266180997" transform="rotate(-363.673469 314.798047 508.342527)">16</text><title>4.776503116</title></g><g class="guides"><path class="line" d="M296.200000 257.000000 L348.627024 490.574725"/><text class="" x="351.68876210491925" y="504.21548927976977" transform="rotate(-371.020408 351.688762 504.215489)">17</text><title>4.904731388</title></g><g class="guides"><path class="line" d="M296.200000 257.000000 L382.621346 482.840118"/><text class="" x="387.6683530950244" y="496.029180442107" transform="rotate(-378.367347 387.668353 496.029180)">18</text><title>5.032959659</title></g><g class="guides"><path class="line" d="M296.200000 257.000000 L415.196633 471.397221"/><text class="" x="422.1460362560882" y="483.9180190699033" transform="rotate(-385.714286 422.146036 483.918019)">19</text><title>5.161187931</title></g><g class="guides"><path class="line" d="M296.200000 257.000000 L445.817998 456.433929"/><text class="" x="454.555688983793" y="468.0808700980591" transform="rotate(-393.061224 454.555689 468.080870)">20</text><title>5.289416202</title></g><g class="guides"><path class="line" d="M296.200000 257.000000 L473.982640 438.195936"/><text class="" x="484.36514567636345" y="448.77777907485023" transform="rotate(-400.408163 484.365146 448.777779)">21</text><title>5.417644474</title></g><g class="guides"><path class="line" d="M296.200000 257.000000 L499.228095 416.982712"/><text class="" x="511.08493587903433" y="426.32570222121524" transform="rotate(-407.755102 511.084936 426.325702)">22</text><title>5.545872746</title></g><g class="guides"><path class="line" d="M296.200000 257.000000 L521.139835 393.142576"/><text class="" x="534.2763213753858" y="401.09330201836974" transform="rotate(-415.102041 534.276321 401.093302)">23</text><title>5.674101017</title></g><g class="guides"><path class="line" d="M296.200000 257.000000 L539.358069 367.066982"/><text class="" x="553.5585002567288" y="373.4948937800568" transform="rotate(-422.448980 553.558500 373.494894)">00</text><title>5.802329289</title></g><g class="guides"><path class="line" d="M296.200000 257.000000 L553.583654 339.184092"/><text class="" x="568.6148596789161" y="343.9836426065507" transform="rotate(-429.795918 568.614860 343.983643)">01</text><title>5.93055756</title></g><g class="guides"><path class="line" d="M296.200000 257.000000 L563.583007 309.951741"/><text class="" x="579.1981746364909" y="313.04412242623744" transform="rotate(-437.142857 579.198175 313.044122)">02</text><title>6.058785832</title></g><g class="guides"><path class="line" d="M296.200000 257.000000 L569.191938 279.849924"/><text class="" x="585.1346673904415" y="281.18435930510896" transform="rotate(-444.489796 585.134667 281.184359)">03</text><title>6.187014103</title></g><g class="guides"><path class="line" d="M296.200000 257.000000 L570.318349 249.372912"/><text class="" x="586.3268608938708" y="248.927489672803" transform="rotate(-271.836735 586.326861 248.927490)">04</text><title>6.315242375</title></g><g class="guides"><path class="line" d="M296.200000 257.000000 L566.943745 219.021136"/><text class="" x="582.7551793624128" y="216.8031704368933" transform="rotate(-279.183673 582.755179 216.803170)">05</text><title>6.443470647</title></g><g class="guides"><path class="line" d="M296.200000 257.000000 L559.123535 189.292972"/><text class="" x="574.4782697080698" y="185.3388820311083" transform="rotate(-286.530612 574.478270 185.338882)">06</text><title>6.571698918</title></g><g class="guides"><path class="line" d="M296.200000 257.000000 L546.986129 160.676556"/><text class="" x="561.632038558538" y="155.05126720119415" transform="rotate(-293.877551 561.632039 155.051267)">07</text><title>6.69992719</title></g><g class="guides"><path class="line" d="M296.200000 257.000000 L530.730821 133.641768"/><text class="" x="544.42742067414" y="126.43764774531132" transform="rotate(-301.224490 544.427421 126.437648)">08</text><title>6.828155461</title></g><g class="guides"><path class="line" d="M296.200000 257.000000 L510.624523 108.632519"/><text class="" x="523.1469154048898" y="99.96785850385942" transform="rotate(-308.571429 523.146915 99.967859)">09</text><title>6.956383733</title></g><g class="guides"><path class="line" d="M296.200000 257.000000 L486.997381 86.059460"/><text class="" x="498.1399480589778" y="76.07653268438645" transform="rotate(-315.918367 498.139948 76.076533)">10</text><title>7.084612005</title></g><g class="guides"><path class="line" d="M296.200000 257.000000 L460.237351 66.293240"/><text class="" x="469.8171323488683" y="55.155965196336524" transform="rotate(-323.265306 469.817132 55.155965)">11</text><title>7.212840276</title></g><g class="guides"><path class="line" d="M296.200000 257.000000 L430.783832 49.658419"/><text class="" x="438.64352812549527" y="37.54967117948331" transform="rotate(-330.612245 438.643528 37.549671)">12</text><title>7.341068548</title></g><g class="guides"><path class="line" d="M296.200000 257.000000 L399.120451 36.428142"/><text class="" x="405.1310051083653" y="23.546745494831043" transform="rotate(-337.959184 405.131005 23.546745)">13</text><title>7.469296819</title></g><g class="guides"><path class="line" d="M296.200000 257.000000 L365.767118 26.819648"/><text class="" x="369.8298379989164" y="13.377115794990175" transform="rotate(-345.306122 369.829838 13.377116)">14</text><title>7.597525091</title></g><g class="guides"><path class="line" d="M296.200000 257.000000 L331.271496 20.990710"/><text class="" x="333.31967098513184" y="7.20776711847725" transform="rotate(-352.653061 333.319671 7.207767)">15</text><title>7.725753362</title></g></g><g class="series serie-0 color-0"><path class="line reactive nofill" d="M296.200000 19.037037 L261.128504 20.990710 227.227472 28.787002 195.918535 42.083831 168.517903 60.291321 143.378878 79.333018 118.448594 97.747702 98.269671 120.045402 81.714549 144.185207 68.992054 169.732607 62.490191 196.815976 60.166992 223.890221 54.882137 250.285555 51.207235 277.506342 60.811541 303.615635 80.613691 325.837957 104.998783 343.548396 103.943731 373.361176 122.671714 393.737361 159.444123 396.381490 179.830446 412.115278 202.629998 425.585849 227.506109 436.513940 253.182955 448.651057 281.481697 455.909882 311.218676 459.969267 341.457516 458.632883 370.803043 451.955999 397.906524 440.245488 424.078631 427.456349 448.150974 411.868322 467.993004 392.369987 484.611144 371.033952 497.792587 348.252113 507.386588 324.433101 515.591185 300.447582 517.860121 275.553357 518.774728 250.807065 516.034664 226.162461 509.684922 202.024208 497.686291 179.611934 484.626471 157.891677 472.138070 135.262580 457.643938 112.358005 437.804893 92.372797 414.679784 74.468523 387.684845 60.936126 359.226620 48.460536 328.273932 41.162444 Z"/></g></g><g class="titles"><text class="title plot_title" x="400.0" y="26">Daily Wind bearing</text></g><g class="plot overlay" transform="translate(187, 46)"><g class="series serie-0 color-0"><g class="dots"><circle class="dot reactive tooltip-trigger" cx="296.20000000000005" cy="19.03703703703701" r="2.5"/><desc class="value">117</desc><desc class="x left">296.20000000000005</desc><desc class="y left">19.03703703703701</desc><desc class="x_label">15</desc></g><g class="dots"><circle class="dot reactive tooltip-trigger" cx="261.12850436023086" cy="20.990709673542312" r="2.5"/><desc class="value">117</desc><desc class="x ">261.12850436023086</desc><desc class="y ">20.990709673542312</desc><desc class="x_label">16</desc></g><g class="dots"><circle class="dot reactive tooltip-trigger" cx="227.2274724638846" cy="28.78700176543566" r="2.5"/><desc class="value">116</desc><desc class="x ">227.2274724638846</desc><desc class="y ">28.78700176543566</desc><desc class="x_label">17</desc></g><g class="dots"><circle class="dot reactive tooltip-trigger" cx="195.91853513484605" cy="42.083830668536336" r="2.5"/><desc class="value">114</desc><desc class="x ">195.91853513484605</desc><desc class="y ">42.083830668536336</desc><desc class="x_label">18</desc></g><g class="dots"><circle class="dot reactive tooltip-trigger" cx="168.51790267255572" cy="60.29132104678746" r="2.5"/><desc class="value">111</desc><desc class="x ">168.51790267255572</desc><desc class="y ">60.29132104678746</desc><desc class="x_label">19</desc></g><g class="dots"><circle class="dot reactive tooltip-trigger" cx="143.378878083782" cy="79.33301844423022" r="2.5"/><desc class="value">109</desc><desc class="x ">143.378878083782</desc><desc class="y ">79.33301844423022</desc><desc class="x_label">20</desc></g><g class="dots"><circle class="dot reactive tooltip-trigger" cx="118.4485937616806" cy="97.74770224527032" r="2.5"/><desc class="value">109</desc><desc class="x ">118.4485937616806</desc><desc class="y ">97.74770224527032</desc><desc class="x_label">21</desc></g><g class="dots"><circle class="dot reactive tooltip-trigger" cx="98.26967084869199" cy="120.04540249769701" r="2.5"/><desc class="value">108</desc><desc class="x ">98.26967084869199</desc><desc class="y ">120.04540249769701</desc><desc class="x_label">22</desc></g><g class="dots"><circle class="dot reactive tooltip-trigger" cx="81.7145485514907" cy="144.18520705942439" r="2.5"/><desc class="value">107</desc><desc class="x ">81.7145485514907</desc><desc class="y ">144.18520705942439</desc><desc class="x_label">23</desc></g><g class="dots"><circle class="dot reactive tooltip-trigger" cx="68.99205438942653" cy="169.73260657375545" r="2.5"/><desc class="value">106</desc><desc class="x ">68.99205438942653</desc><desc class="y ">169.73260657375545</desc><desc class="x_label">00</desc></g><g class="dots"><circle class="dot reactive tooltip-trigger" cx="62.49019088933427" cy="196.8159755027363" r="2.5"/><desc class="value">104</desc><desc class="x ">62.49019088933427</desc><desc class="y ">196.8159755027363</desc><desc class="x_label">01</desc></g><g class="dots"><circle class="dot reactive tooltip-trigger" cx="60.166991823118614" cy="223.89022120603823" r="2.5"/><desc class="value">102</desc><desc class="x ">60.166991823118614</desc><desc class="y ">223.89022120603823</desc><desc class="x_label">02</desc></g><g class="dots"><circle class="dot reactive tooltip-trigger" cx="54.882136945391665" cy="250.28555468582397" r="2.5"/><desc class="value">103</desc><desc class="x ">54.882136945391665</desc><desc class="y ">250.28555468582397</desc><desc class="x_label">03</desc></g><g class="dots"><circle class="dot reactive tooltip-trigger" cx="51.207234949089795" cy="277.5063418337985" r="2.5"/><desc class="value">105</desc><desc class="x top">51.207234949089795</desc><desc class="y top">277.5063418337985</desc><desc class="x_label">04</desc></g><g class="dots"><circle class="dot reactive tooltip-trigger" cx="60.81154082312138" cy="303.6156350329028" r="2.5"/><desc class="value">103</desc><desc class="x top">60.81154082312138</desc><desc class="y top">303.6156350329028</desc><desc class="x_label">05</desc></g><g class="dots"><circle class="dot reactive tooltip-trigger" cx="80.61369129557117" cy="325.8379571118633" r="2.5"/><desc class="value">98</desc><desc class="x top">80.61369129557117</desc><desc class="y top">325.8379571118633</desc><desc class="x_label">06</desc></g><g class="dots"><circle class="dot reactive tooltip-trigger" cx="104.99878333027219" cy="343.54839612578587" r="2.5"/><desc class="value">92</desc><desc class="x top">104.99878333027219</desc><desc class="y top">343.54839612578587</desc><desc class="x_label">07</desc></g><g class="dots"><circle class="dot reactive tooltip-trigger" cx="103.94373076003609" cy="373.3611757291845" r="2.5"/><desc class="value">100</desc><desc class="x top">103.94373076003609</desc><desc class="y top">373.3611757291845</desc><desc class="x_label">08</desc></g><g class="dots"><circle class="dot reactive tooltip-trigger" cx="122.6717135693981" cy="393.7373605548895" r="2.5"/><desc class="value">100</desc><desc class="x top">122.6717135693981</desc><desc class="y top">393.7373605548895</desc><desc class="x_label">09</desc></g><g class="dots"><circle class="dot reactive tooltip-trigger" cx="159.4441234400519" cy="396.38148953053235" r="2.5"/><desc class="value">90</desc><desc class="x top">159.4441234400519</desc><desc class="y top">396.38148953053235</desc><desc class="x_label">10</desc></g><g class="dots"><circle class="dot reactive tooltip-trigger" cx="179.83044607305013" cy="412.1152778498375" r="2.5"/><desc class="value">91</desc><desc class="x top">179.83044607305013</desc><desc class="y top">412.1152778498375</desc><desc class="x_label">11</desc></g><g class="dots"><circle class="dot reactive tooltip-trigger" cx="202.62999806545494" cy="425.5858492615131" r="2.5"/><desc class="value">92</desc><desc class="x top">202.62999806545494</desc><desc class="y top">425.5858492615131</desc><desc class="x_label">12</desc></g><g class="dots"><circle class="dot reactive tooltip-trigger" cx="227.50610922278025" cy="436.51393961144333" r="2.5"/><desc class="value">93</desc><desc class="x top">227.50610922278025</desc><desc class="y top">436.51393961144333</desc><desc class="x_label">13</desc></g><g class="dots"><circle class="dot reactive tooltip-trigger" cx="253.18295474161704" cy="448.6510566736591" r="2.5"/><desc class="value">96</desc><desc class="x top">253.18295474161704</desc><desc class="y top">448.6510566736591</desc><desc class="x_label">14</desc></g><g class="dots"><circle class="dot reactive tooltip-trigger" cx="281.4816973922749" cy="455.9098817807057" r="2.5"/><desc class="value">98</desc><desc class="x top">281.4816973922749</desc><desc class="y top">455.9098817807057</desc><desc class="x_label">15</desc></g><g class="dots"><circle class="dot reactive tooltip-trigger" cx="311.2186761303316" cy="459.96926712316906" r="2.5"/><desc class="value">100</desc><desc class="x left top">311.2186761303316</desc><desc class="y left top">459.96926712316906</desc><desc class="x_label">16</desc></g><g class="dots"><circle class="dot reactive tooltip-trigger" cx="341.45751636559004" cy="458.6328825420789" r="2.5"/><desc class="value">101</desc><desc class="x left top">341.45751636559004</desc><desc class="y left top">458.6328825420789</desc><desc class="x_label">17</desc></g><g class="dots"><circle class="dot reactive tooltip-trigger" cx="370.803042672034" cy="451.95599893285794" r="2.5"/><desc class="value">101</desc><desc class="x left top">370.803042672034</desc><desc class="y left top">451.95599893285794</desc><desc class="x_label">18</desc></g><g class="dots"><circle class="dot reactive tooltip-trigger" cx="397.9065238418966" cy="440.24548832773166" r="2.5"/><desc class="value">100</desc><desc class="x left top">397.9065238418966</desc><desc class="y left top">440.24548832773166</desc><desc class="x_label">19</desc></g><g class="dots"><circle class="dot reactive tooltip-trigger" cx="424.07863068895557" cy="427.4563492855359" r="2.5"/><desc class="value">100</desc><desc class="x left top">424.07863068895557</desc><desc class="y left top">427.4563492855359</desc><desc class="x_label">20</desc></g><g class="dots"><circle class="dot reactive tooltip-trigger" cx="448.1509739554977" cy="411.86832170059165" r="2.5"/><desc class="value">100</desc><desc class="x left top">448.1509739554977</desc><desc class="y left top">411.86832170059165</desc><desc class="x_label">21</desc></g><g class="dots"><circle class="dot reactive tooltip-trigger" cx="467.99300356629584" cy="392.36998694934067" r="2.5"/><desc class="value">99</desc><desc class="x left top">467.99300356629584</desc><desc class="y left top">392.36998694934067</desc><desc class="x_label">22</desc></g><g class="dots"><circle class="dot reactive tooltip-trigger" cx="484.61114385516447" cy="371.03395221460096" r="2.5"/><desc class="value">98</desc><desc class="x left top">484.61114385516447</desc><desc class="y left top">371.03395221460096</desc><desc class="x_label">23</desc></g><g class="dots"><circle class="dot reactive tooltip-trigger" cx="497.79258714090855" cy="348.2521133065352" r="2.5"/><desc class="value">97</desc><desc class="x left top">497.79258714090855</desc><desc class="y left top">348.2521133065352</desc><desc class="x_label">00</desc></g><g class="dots"><circle class="dot reactive tooltip-trigger" cx="507.3865881186241" cy="324.4331008442744" r="2.5"/><desc class="value">96</desc><desc class="x left top">507.3865881186241</desc><desc class="y left top">324.4331008442744</desc><desc class="x_label">01</desc></g><g class="dots"><circle class="dot reactive tooltip-trigger" cx="515.5911852522363" cy="300.4475821665891" r="2.5"/><desc class="value">96</desc><desc class="x left top">515.5911852522363</desc><desc class="y left top">300.4475821665891</desc><desc class="x_label">02</desc></g><g class="dots"><circle class="dot reactive tooltip-trigger" cx="517.8601207603473" cy="275.55335689724654" r="2.5"/><desc class="value">95</desc><desc class="x left top">517.8601207603473</desc><desc class="y left top">275.55335689724654</desc><desc class="x_label">03</desc></g><g class="dots"><circle class="dot reactive tooltip-trigger" cx="518.7747280600757" cy="250.80706500148818" r="2.5"/><desc class="value">95</desc><desc class="x left">518.7747280600757</desc><desc class="y left">250.80706500148818</desc><desc class="x_label">04</desc></g><g class="dots"><circle class="dot reactive tooltip-trigger" cx="516.034664478468" cy="226.16246092719268" r="2.5"/><desc class="value">95</desc><desc class="x left">516.034664478468</desc><desc class="y left">226.16246092719268</desc><desc class="x_label">05</desc></g><g class="dots"><circle class="dot reactive tooltip-trigger" cx="509.68492178378125" cy="202.02420839192274" r="2.5"/><desc class="value">95</desc><desc class="x left">509.68492178378125</desc><desc class="y left">202.02420839192274</desc><desc class="x_label">06</desc></g><g class="dots"><circle class="dot reactive tooltip-trigger" cx="497.6862913905087" cy="179.61193413144377" r="2.5"/><desc class="value">94</desc><desc class="x left">497.6862913905087</desc><desc class="y left">179.61193413144377</desc><desc class="x_label">07</desc></g><g class="dots"><circle class="dot reactive tooltip-trigger" cx="484.6264713659802" cy="157.89167722977487" r="2.5"/><desc class="value">94</desc><desc class="x left">484.6264713659802</desc><desc class="y left">157.89167722977487</desc><desc class="x_label">08</desc></g><g class="dots"><circle class="dot reactive tooltip-trigger" cx="472.1380703567183" cy="135.2625799979529" r="2.5"/><desc class="value">96</desc><desc class="x left">472.1380703567183</desc><desc class="y left">135.2625799979529</desc><desc class="x_label">09</desc></g><g class="dots"><circle class="dot reactive tooltip-trigger" cx="457.64393777608836" cy="112.35800479157592" r="2.5"/><desc class="value">99</desc><desc class="x left">457.64393777608836</desc><desc class="y left">112.35800479157592</desc><desc class="x_label">10</desc></g><g class="dots"><circle class="dot reactive tooltip-trigger" cx="437.80489278475244" cy="92.37279690703906" r="2.5"/><desc class="value">101</desc><desc class="x left">437.80489278475244</desc><desc class="y left">92.37279690703906</desc><desc class="x_label">11</desc></g><g class="dots"><circle class="dot reactive tooltip-trigger" cx="414.67978400654766" cy="74.46852313350564" r="2.5"/><desc class="value">103</desc><desc class="x left">414.67978400654766</desc><desc class="y left">74.46852313350564</desc><desc class="x_label">12</desc></g><g class="dots"><circle class="dot reactive tooltip-trigger" cx="387.6848451401405" cy="60.93612622392794" r="2.5"/><desc class="value">104</desc><desc class="x left">387.6848451401405</desc><desc class="y left">60.93612622392794</desc><desc class="x_label">13</desc></g><g class="dots"><circle class="dot reactive tooltip-trigger" cx="359.22661998989884" cy="48.46053609600165" r="2.5"/><desc class="value">106</desc><desc class="x left">359.22661998989884</desc><desc class="y left">48.46053609600165</desc><desc class="x_label">14</desc></g><g class="dots"><circle class="dot reactive tooltip-trigger" cx="328.27393190987453" cy="41.16244388947888" r="2.5"/><desc class="value">107</desc><desc class="x left">328.27393190987453</desc><desc class="y left">41.16244388947888</desc><desc class="x_label">15</desc></g></g></g><g class="plot text-overlay" transform="translate(187, 46)"><g class="series serie-0 color-0"/></g><g class="plot tooltip-overlay" transform="translate(187, 46)"><g class="tooltip" style="opacity: 0" transform="translate(0 0)"><rect class="tooltip-box" height="0" rx="0" ry="0" width="0"/><g class="text"/></g></g><g class="legends" transform="translate(10, 56)"><g class="legend reactive activate-serie" id="activate-serie-0"><rect class="color-0 reactive" height="12" width="12" x="0.0" y="1.0"/><text x="17.0" y="11.2">Wind direction</text></g></g><g class="legends" transform="translate(790, 56)"/></g></svg>