<?xml version='1.0' encoding='utf-8'?>
<svg xmlns:xlink="http://www.w3.org/1999/xlink" xmlns="http://www.w3.org/2000/svg" id="chart-60e92ebd-bd39-4b37-897a-517bac35bc93" class="pygal-chart" viewBox="0 0 800 600"><!--Generated with pygal 2.4.0 (lxml) ©Kozea 2012-2016 on 2017-07-30--><!--http://pygal.org--><!--http://github.com/Kozea/pygal--><defs><style type="text/css">#chart-60e92ebd-bd39-4b37-897a-517bac35bc93{-webkit-user-select:none;-webkit-font-smoothing:antialiased;font-family:Consolas,"Liberation Mono",Menlo,Courier,monospace}#chart-60e92ebd-bd39-4b37-897a-517bac35bc93 .title{font-family:Consolas,"Liberation Mono",Menlo,Courier,monospace;font-size:16px}#chart-60e92ebd-bd39-4b37-897a-517bac35bc93 .legends .legend text{font-family:Consolas,"Liberation Mono",Menlo,Courier,monospace;font-size:14px}#chart-60e92ebd-bd39-4b37-897a-517bac35bc93 .axis text{font-family:Consolas,"Liberation Mono",Menlo,Courier,monospace;font-size:10px}#chart-60e92ebd-bd39-4b37-897a-517bac35bc93 .axis text.major{font-family:Consolas,"Liberation Mono",Menlo,Courier,monospace;font-size:10px}#chart-60e92ebd-bd39-4b37-897a-517bac35bc93 .text-overlay text.value{font-family:Consolas,"Liberation Mono",Menlo,Courier,monospace;font-size:16px}#chart-60e92ebd-bd39-4b37-897a-517bac35bc93 .text-overlay text.label{font-family:Consolas,"Liberation Mono",Menlo,Courier,monospace;font-size:10px}#chart-60e92ebd-bd39-4b37-897a-517bac35bc93 .tooltip{font-family:Consolas,"Liberation Mono",Menlo,Courier,monospace;font-size:14px}#chart-60e92ebd-bd39-4b37-897a-517bac35bc93 text.no_data{font-family:Consolas,"Liberation Mono",Menlo,Courier,monospace;font-size:64px}
#chart-60e92ebd-bd39-4b37-897a-517bac35bc93{background-color:transparent}#chart-60e92ebd-bd39-4b37-897a-517bac35bc93 path,#chart-60e92ebd-bd39-4b37-897a-517bac35bc93 line,#chart-60e92ebd-bd39-4b37-897a-517bac35bc93 rect,#chart-60e92ebd-bd39-4b37-897a-517bac35bc93 circle{-webkit-transition:400ms ease-in;-moz-transition:400ms ease-in;transition:400ms ease-in}#chart-60e92ebd-bd39-4b37-897a-517bac35bc93 .graph &gt; .background{fill:transparent}#chart-60e92ebd-bd39-4b37-897a-517bac35bc93 .plot &gt; .background{fill:transparent}#chart-60e92ebd-bd39-4b37-897a-517bac35bc93 .graph{fill:#005570}#chart-60e92ebd-bd39-4b37-897a-517bac35bc93 text.no_data{fill:#18a7ed}#chart-60e92ebd-bd39-4b37-897a-517bac35bc93 .title{fill:#18a7ed}#chart-60e92ebd-bd39-4b37-897a-517bac35bc93 .legends .legend text{fill:#005570}#chart-60e92ebd-bd39-4b37-897a-517bac35bc93 .legends .legend:hover text{fill:#18a7ed}#chart-60e92ebd-bd39-4b37-897a-517bac35bc93 .axis .line{stroke:#18a7ed}#chart-60e92ebd-bd39-4b37-897a-517bac35bc93 .axis .guide.line{stroke:#630C0D}#chart-60e92ebd-bd39-4b37-897a-517bac35bc93 .axis .major.line{stroke:#005570}#chart-60e92ebd-bd39-4b37-897a-517bac35bc93 .axis text.major{fill:#18a7ed}#chart-60e92ebd-bd39-4b37-897a-517bac35bc93 .axis.y .guides:hover .guide.line,#chart-60e92ebd-bd39-4b37-897a-517bac35bc93 .line-graph .axis.x .guides:hover .guide.line,#chart-60e92ebd-bd39-4b37-897a-517bac35bc93 .stackedline-graph .axis.x .guides:hover .guide.line,#chart-60e92ebd-bd39-4b37-897a-517bac35bc93 .xy-graph .axis.x .guides:hover .guide.line{stroke:#18a7ed}#chart-60e92ebd-bd39-4b37-897a-517bac35bc93 .axis .guides:hover text{fill:#18a7ed}#chart-60e92ebd-bd39-4b37-897a-517bac35bc93 .reactive{fill-opacity:.6;stroke-opacity:.8}#chart-60e92ebd-bd39-4b37-897a-517bac35bc93 .ci{stroke:#005570}#chart-60e92ebd-bd39-4b37-897a-517bac35bc93 .reactive.active,#chart-60e92ebd-bd39-4b37-897a-517bac35bc93 .active .reactive{fill-opacity:.9;stroke-opacity:.9;stroke-width:4}#chart-60e92ebd-bd39-4b37-897a-517bac35bc93 .ci .reactive.active{stroke-width:1.5}#chart-60e92ebd-bd39-4b37-897a-517bac35bc93 .series text{fill:#18a7ed}#chart-60e92ebd-bd39-4b37-897a-517bac35bc93 .tooltip rect{fill:transparent;stroke:#18a7ed;-webkit-transition:opacity 400ms ease-in;-moz-transition:opacity 400ms ease-in;transition:opacity 400ms ease-in}#chart-60e92ebd-bd39-4b37-897a-517bac35bc93 .tooltip .label{fill:#005570}#chart-60e92ebd-bd39-4b37-897a-517bac35bc93 .tooltip .label{fill:#005570}#chart-60e92ebd-bd39-4b37-897a-517bac35bc93 .tooltip .legend{font-size:.8em;fill:#630C0D}#chart-60e92ebd-bd39-4b37-897a-517bac35bc93 .tooltip .x_label{font-size:.6em;fill:#18a7ed}#chart-60e92ebd-bd39-4b37-897a-517bac35bc93 .tooltip .xlink{font-size:.5em;text-decoration:underline}#chart-60e92ebd-bd39-4b37-897a-517bac35bc93 .tooltip .value{font-size:1.5em}#chart-60e92ebd-bd39-4b37-897a-517bac35bc93 .bound{font-size:.5em}#chart-60e92ebd-bd39-4b37-897a-517bac35bc93 .max-value{font-size:.75em;fill:#630C0D}#chart-60e92ebd-bd39-4b37-897a-517bac35bc93 .map-element{fill:transparent;stroke:#630C0D !important}#chart-60e92ebd-bd39-4b37-897a-517bac35bc93 .map-element .reactive{fill-opacity:inherit;stroke-opacity:inherit}#chart-60e92ebd-bd39-4b37-897a-517bac35bc93 .color-0,#chart-60e92ebd-bd39-4b37-897a-517bac35bc93 .color-0 a:visited{stroke:#005570;fill:#005570}#chart-60e92ebd-bd39-4b37-897a-517bac35bc93 .text-overlay .color-0 text{fill:black}
#chart-60e92ebd-bd39-4b37-897a-517bac35bc93 text.no_data{text-anchor:middle}#chart-60e92ebd-bd39-4b37-897a-517bac35bc93 .guide.line{fill:none}#chart-60e92ebd-bd39-4b37-897a-517bac35bc93 .centered{text-anchor:middle}#chart-60e92ebd-bd39-4b37-897a-517bac35bc93 .title{text-anchor:middle}#chart-60e92ebd-bd39-4b37-897a-517bac35bc93 .legends .legend text{fill-opacity:1}#chart-60e92ebd-bd39-4b37-897a-517bac35bc93 .axis.x text{text-anchor:middle}#chart-60e92ebd-bd39-4b37-897a-517bac35bc93 .axis.x:not(.web) text[transform]{text-anchor:start}#chart-60e92ebd-bd39-4b37-897a-517bac35bc93 .axis.x:not(.web) text[transform].backwards{text-anchor:end}#chart-60e92ebd-bd39-4b37-897a-517bac35bc93 .axis.y text{text-anchor:end}#chart-60e92ebd-bd39-4b37-897a-517bac35bc93 .axis.y text[transform].backwards{text-anchor:start}#chart-60e92ebd-bd39-4b37-897a-517bac35bc93 .axis.y2 text{text-anchor:start}#chart-60e92ebd-bd39-4b37-897a-517bac35bc93 .axis.y2 text[transform].backwards{text-anchor:end}#chart-60e92ebd-bd39-4b37-897a-517bac35bc93 .axis .guide.line{stroke-dasharray:4,4}#chart-60e92ebd-bd39-4b37-897a-517bac35bc93 .axis .major.guide.line{stroke-dasharray:6,6}#chart-60e92ebd-bd39-4b37-897a-517bac35bc93 .horizontal .axis.y .guide.line,#chart-60e92ebd-bd39-4b37-897a-517bac35bc93 .horizontal .axis.y2 .guide.line,#chart-60e92ebd-bd39-4b37-897a-517bac35bc93 .vertical .axis.x .guide.line{opacity:0}#chart-60e92ebd-bd39-4b37-897a-517bac35bc93 .horizontal .axis.always_show .guide.line,#chart-60e92ebd-bd39-4b37-897a-517bac35bc93 .vertical .axis.always_show .guide.line{opacity:1 !important}#chart-60e92ebd-bd39-4b37-897a-517bac35bc93 .axis.y .guides:hover .guide.line,#chart-60e92ebd-bd39-4b37-897a-517bac35bc93 .axis.y2 .guides:hover .guide.line,#chart-60e92ebd-bd39-4b37-897a-517bac35bc93 .axis.x .guides:hover .guide.line{opacity:1}#chart-60e92ebd-bd39-4b37-897a-517bac35bc93 .axis .guides:hover text{opacity:1}#chart-60e92ebd-bd39-4b37-897a-517bac35bc93 .nofill{fill:none}#chart-60e92ebd-bd39-4b37-897a-517bac35bc93 .subtle-fill{fill-opacity:.2}#chart-60e92ebd-bd39-4b37-897a-517bac35bc93 .dot{stroke-width:1px;fill-opacity:1}#chart-60e92ebd-bd39-4b37-897a-517bac35bc93 .dot.active{stroke-width:5px}#chart-60e92ebd-bd39-4b37-897a-517bac35bc93 .dot.negative{fill:transparent}#chart-60e92ebd-bd39-4b37-897a-517bac35bc93 text,#chart-60e92ebd-bd39-4b37-897a-517bac35bc93 tspan{stroke:none !important}#chart-60e92ebd-bd39-4b37-897a-517bac35bc93 .series text.active{opacity:1}#chart-60e92ebd-bd39-4b37-897a-517bac35bc93 .tooltip rect{fill-opacity:.95;stroke-width:.5}#chart-60e92ebd-bd39-4b37-897a-517bac35bc93 .tooltip text{fill-opacity:1}#chart-60e92ebd-bd39-4b37-897a-517bac35bc93 .showable{visibility:hidden}#chart-60e92ebd-bd39-4b37-897a-517bac35bc93 .showable.shown{visibility:visible}#chart-60e92ebd-bd39-4b37-897a-517bac35bc93 .gauge-background{fill:rgba(229,229,229,1);stroke:none}#chart-60e92ebd-bd39-4b37-897a-517bac35bc93 .bg-lines{stroke:transparent;stroke-width:2px}</style><script type="text/javascript">window.pygal = window.pygal || {};window.pygal.config = window.pygal.config || {};window.pygal.config['60e92ebd-bd39-4b37-897a-517bac35bc93'] = {"allow_interruptions": false, "box_mode": "extremes", "classes": ["pygal-chart"], "css": ["file://style.css", "file://graph.css"], "defs": [], "disable_xml_declaration": false, "dots_size": 2.5, "dynamic_print_values": false, "explicit_size": false, "fill": false, "force_uri_protocol": "https", "formatter": null, "half_pie": false, "height": 600, "include_x_axis": false, "inner_radius": 0, "interpolate": null, "interpolation_parameters": {}, "interpolation_precision": 250, "inverse_y_axis": false, "js": ["//kozea.github.io/pygal.js/2.0.x/pygal-tooltips.min.js"], "legend_at_bottom": false, "legend_at_bottom_columns": null, "legend_box_size": 12, "logarithmic": false, "margin": 20, "margin_bottom": null, "margin_left": null, "margin_right": null, "margin_top": null, "max_scale": 16, "min_scale": 4, "missing_value_fill_truncation": "x", "no_data_text": "No data", "no_prefix": false, "order_min": null, "pretty_print": false, "print_labels": false, "print_values": false, "print_values_position": "center", "print_zeroes": true, "range": null, "rounded_bars": null, "secondary_range": null, "show_dots": true, "show_legend": true, "show_minor_x_labels": true, "show_minor_y_labels": true, "show_only_major_dots": false, "show_x_guides": false, "show_x_labels": true, "show_y_guides": true, "show_y_labels": true, "spacing": 10, "stack_from_top": false, "strict": false, "stroke": true, "stroke_style": null, "style": {"background": "transparent", "ci_colors": [], "colors": ["#005570", "#b1e4fa", "#E87653", "#E89B53", "#E853A0"], "font_family": "Consolas, \"Liberation Mono\", Menlo, Courier, monospace", "foreground": "#005570", "foreground_strong": "#18a7ed", "foreground_subtle": "#630C0D", "guide_stroke_dasharray": "4,4", "label_font_family": "Consolas, \"Liberation Mono\", Menlo, Courier, monospace", "label_font_size": 10, "legend_font_family": "Consolas, \"Liberation Mono\", Menlo, Courier, monospace", "legend_font_size": 14, "major_guide_stroke_dasharray": "6,6", "major_label_font_family": "Consolas, \"Liberation Mono\", Menlo, Courier, monospace", "major_label_font_size": 10, "no_data_font_family": "Consolas, \"Liberation Mono\", Menlo, Courier, monospace", "no_data_font_size": 64, "opacity": ".6", "opacity_hover": ".9", "plot_background": "transparent", "stroke_opacity": ".8", "stroke_opacity_hover": ".9", "title_font_family": "Consolas, \"Liberation Mono\", Menlo, Courier, monospace", "title_font_size": 16, "tooltip_font_family": "Consolas, \"Liberation Mono\", Menlo, Courier, monospace", "tooltip_font_size": 14, "transition": "400ms ease-in", "value_background": "rgba(229, 229, 229, 1)", "value_colors": [], "value_font_family": "Consolas, \"Liberation Mono\", Menlo, Courier, monospace", "value_font_size": 16, "value_label_font_family": "Consolas, \"Liberation Mono\", Menlo, Courier, monospace", "value_label_font_size": 10}, "title": "Daily Wind bearing", "tooltip_border_radius": 0, "tooltip_fancy_mode": true, "truncate_label": null, "truncate_legend": null, "width": 800, "x_label_rotation": 0, "x_labels": ["15", "16", "17", "18", "19", "20", "21", "22", "23", "00", "01", "02", "03", "04", "05", "06", "07", "08", "09", "10", "11", "12", "13", "14", "15", "16", "17", "18", "19", "20", "21", "22", "23", "00", "01", "02", "03", "04", "05", "06", "07", "08", "09", "10", "11", "12", "13", "14", "15"], "x_labels_major": null, "x_labels_major_count": null, "x_labels_major_every": null, "x_title": null, "xrange": null, "y_label_rotation": 0, "y_labels": null, "y_labels_major": null, "y_labels_major_count": null, "y_labels_major_every": null, "y_title": null, "zero": 0, "legends": ["Wind direction"]}</script><script type="text/javascript" xlink:href="https://kozea.github.io/pygal.js/2.0.x/pygal-tooltips.min.js"/></defs><title>Daily Wind bearing</title><g class="graph radar-graph vertical"><rect class="background" height="600" width="800" x="0" y="0"/><g class="plot" transform="translate(187, 46)"><rect class="background" height="514" width="592.4" x="0" y="0"/><g class="axis y web"><g class="guides"><path class="guide line" d="M296.200000 33.034858 L263.191534 34.873609 230.725065 40.359669 199.333693 49.402957 169.532864 61.854983 141.811905 77.511285 116.625994 96.114786 94.388684 117.360018 75.465110 140.898135 60.165997 166.342641 48.742555 193.275739 41.382358 221.255187 38.206259 249.821564 39.266411 278.505811 44.545405 306.836932 53.956561 334.349733 67.345347 360.592454 84.491920 385.134189 105.114734 407.571964 128.875163 427.537352 155.383061 444.702521 184.203169 458.785620 214.862262 469.555405 246.856919 476.835036 279.661787 480.504981 312.738213 480.504981 345.543081 476.835036 377.537738 469.555405 408.196831 458.785620 437.016939 444.702521 463.524837 427.537352 487.285266 407.571964 507.908080 385.134189 525.054653 360.592454 538.443439 334.349733 547.854595 306.836932 553.133589 278.505811 554.193741 249.821564 551.017642 221.255187 543.657445 193.275739 532.234003 166.342641 516.934890 140.898135 498.011316 117.360018 475.774006 96.114786 450.588095 77.511285 422.867136 61.854983 393.066307 49.402957 361.674935 40.359669 329.208466 34.873609 296.200000 33.034858 Z"/><text class="" x="291.2" y="33.034858387799545">240</text><title>240</title></g><g class="guides"><path class="guide line" d="M296.200000 70.362382 L268.692945 71.894674 241.637554 76.466391 215.478078 84.002464 190.644053 94.379153 167.543254 107.426071 146.554995 122.928988 128.023903 140.633349 112.254258 160.248446 99.504997 181.452201 89.985463 203.896449 83.851965 227.212656 81.205216 251.017970 82.088676 274.921509 86.487838 298.530777 94.330467 321.458111 105.487789 343.327045 119.776600 363.778491 136.962278 382.476637 156.762636 399.114460 178.852551 413.418768 202.869308 425.154683 228.418552 434.129504 255.080766 440.195863 282.418156 443.254151 309.981844 443.254151 337.319234 440.195863 363.981448 434.129504 389.530692 425.154683 413.547449 413.418768 435.637364 399.114460 455.437722 382.476637 472.623400 363.778491 486.912211 343.327045 498.069533 321.458111 505.912162 298.530777 510.311324 274.921509 511.194784 251.017970 508.548035 227.212656 502.414537 203.896449 492.895003 181.452201 480.145742 160.248446 464.376097 140.633349 445.845005 122.928988 424.856746 107.426071 401.755947 94.379153 376.921922 84.002464 350.762446 76.466391 323.707055 71.894674 296.200000 70.362382 Z"/><text class="" x="291.2" y="70.36238198983295">200</text><title>200</title></g><g class="guides"><path class="guide line" d="M296.200000 107.689906 L274.194356 108.915739 252.550043 112.573113 231.622462 118.601971 211.755242 126.903322 193.274603 137.340856 176.483996 149.743191 161.659123 163.906679 149.043407 179.598757 138.843998 196.561761 131.228370 214.517159 126.321572 233.170125 124.204173 252.214376 124.910941 271.337207 128.430270 290.224622 134.704374 308.566489 143.630231 326.061636 155.061280 342.422793 168.809823 357.381309 184.650109 370.691568 202.322041 382.135014 221.535446 391.523747 241.974841 398.703603 263.304612 403.556690 285.174525 406.003321 307.225475 406.003321 329.095388 403.556690 350.425159 398.703603 370.864554 391.523747 390.077959 382.135014 407.749891 370.691568 423.590177 357.381309 437.338720 342.422793 448.769769 326.061636 457.695626 308.566489 463.969730 290.224622 467.489059 271.337207 468.195827 252.214376 466.078428 233.170125 461.171630 214.517159 453.556002 196.561761 443.356593 179.598757 430.740877 163.906679 415.916004 149.743191 399.125397 137.340856 380.644758 126.903322 360.777538 118.601971 339.849957 112.573113 318.205644 108.915739 296.200000 107.689906 Z"/><text class="" x="291.2" y="107.68990559186636">160</text><title>160</title></g><g class="guides"><path class="guide line" d="M296.200000 145.017429 L279.695767 145.936805 263.462533 148.679835 247.766847 153.201479 232.866432 159.427492 219.005952 167.255642 206.412997 176.557393 195.294342 187.180009 185.832555 198.949068 178.182998 211.671321 172.471278 225.137869 168.791179 239.127593 167.203130 253.410782 167.733206 267.752905 170.372703 281.918466 175.078280 295.674867 181.772673 308.796227 190.345960 321.067094 200.657367 332.285982 212.537581 342.268676 225.791530 350.851261 240.201585 357.892810 255.531131 363.277702 271.528459 366.917518 287.930894 368.752491 304.469106 368.752491 320.871541 366.917518 336.868869 363.277702 352.198415 357.892810 366.608470 350.851261 379.862419 342.268676 391.742633 332.285982 402.054040 321.067094 410.627327 308.796227 417.321720 295.674867 422.027297 281.918466 424.666794 267.752905 425.196870 253.410782 423.608821 239.127593 419.928722 225.137869 414.217002 211.671321 406.567445 198.949068 397.105658 187.180009 385.987003 176.557393 373.394048 167.255642 359.533568 159.427492 344.633153 153.201479 328.937467 148.679835 312.704233 145.936805 296.200000 145.017429 Z"/><text class="" x="291.2" y="145.01742919389977">120</text><title>120</title></g><g class="guides"><path class="guide line" d="M296.200000 182.344953 L285.197178 182.957870 274.375022 184.786556 263.911231 187.800986 253.977621 191.951661 244.737302 197.170428 236.341998 203.371595 228.929561 210.453339 222.621703 218.299378 217.521999 226.780880 213.714185 235.758580 211.260786 245.085062 210.202086 254.607188 210.555470 264.168604 212.315135 273.612311 215.452187 282.783244 219.915116 291.530818 225.630640 299.711396 232.504911 307.190655 240.425054 313.845784 249.261020 319.567507 258.867723 324.261873 269.087421 327.851802 279.752306 330.278345 290.687262 331.501660 301.712738 331.501660 312.647694 330.278345 323.312579 327.851802 333.532277 324.261873 343.138980 319.567507 351.974946 313.845784 359.895089 307.190655 366.769360 299.711396 372.484884 291.530818 376.947813 282.783244 380.084865 273.612311 381.844530 264.168604 382.197914 254.607188 381.139214 245.085062 378.685815 235.758580 374.878001 226.780880 369.778297 218.299378 363.470439 210.453339 356.058002 203.371595 347.662698 197.170428 338.422379 191.951661 328.488769 187.800986 318.024978 184.786556 307.202822 182.957870 296.200000 182.344953 Z"/><text class="" x="291.2" y="182.34495279593318">80</text><title>80</title></g><g class="guides"><path class="guide line" d="M296.200000 219.672476 L290.698589 219.978935 285.287511 220.893278 280.055616 222.400493 275.088811 224.475831 270.468651 227.085214 266.270999 230.185798 262.564781 233.726670 259.410852 237.649689 256.860999 241.890440 254.957093 246.379290 253.730393 251.042531 253.201043 255.803594 253.377735 260.584302 254.257568 265.306155 255.826093 269.891622 258.057558 274.265409 260.915320 278.355698 264.352456 282.095327 268.312527 285.422892 272.730510 288.283754 277.533862 290.630937 282.643710 292.425901 287.976153 293.639173 293.443631 294.250830 298.956369 294.250830 304.423847 293.639173 309.756290 292.425901 314.866138 290.630937 319.669490 288.283754 324.087473 285.422892 328.047544 282.095327 331.484680 278.355698 334.342442 274.265409 336.573907 269.891622 338.142432 265.306155 339.022265 260.584302 339.198957 255.803594 338.669607 251.042531 337.442907 246.379290 335.539001 241.890440 332.989148 237.649689 329.835219 233.726670 326.129001 230.185798 321.931349 227.085214 317.311189 224.475831 312.344384 222.400493 307.112489 220.893278 301.701411 219.978935 296.200000 219.672476 Z"/><text class="" x="291.2" y="219.6724763979666">40</text><title>40</title></g><g class="guides"><path class="major guide line" d="M296.200000 257.000000 L296.200000 257.000000 296.200000 257.000000 296.200000 257.000000 296.200000 257.000000 296.200000 257.000000 296.200000 257.000000 296.200000 257.000000 296.200000 257.000000 296.200000 257.000000 296.200000 257.000000 296.200000 257.000000 296.200000 257.000000 296.200000 257.000000 296.200000 257.000000 296.200000 257.000000 296.200000 257.000000 296.200000 257.000000 296.200000 257.000000 296.200000 257.000000 296.200000 257.000000 296.200000 257.000000 296.200000 257.000000 296.200000 257.000000 296.200000 257.000000 296.200000 257.000000 296.200000 257.000000 296.200000 257.000000 296.200000 257.000000 296.200000 257.000000 296.200000 257.000000 296.200000 257.000000 296.200000 257.000000 296.200000 257.000000 296.200000 257.000000 296.200000 257.000000 296.200000 257.000000 296.200000 257.000000 296.200000 257.000000 296.200000 257.000000 296.200000 257.000000 296.200000 257.000000 296.200000 257.000000 296.200000 257.000000 296.200000 257.000000 296.200000 257.000000 296.200000 257.000000 296.200000 257.000000 296.200000 257.000000 296.200000 257.000000 Z"/><text class="major" x="291.2" y="257.0">0</text><title>0</title></g></g><g class="axis x web"><g class="guides"><path class="line" d="M296.200000 257.000000 L296.200000 19.037037"/><text class="" x="296.2" y="5.1400000000001" transform="rotate(0.000000 296.200000 5.140000)">15</text><title>1.570796327</title></g><g class="guides"><path class="line" d="M296.200000 257.000000 L261.128504 20.990710"/><text class="" x="259.0803290148683" y="7.207767118477193" transform="rotate(-7.346939 259.080329 7.207767)">16</text><title>1.699024598</title></g><g class="guides"><path class="line" d="M296.200000 257.000000 L226.632882 26.819648"/><text class="" x="222.57016200108387" y="13.377115794990004" transform="rotate(-14.693878 222.570162 13.377116)">17</text><title>1.82725287</title></g><g class="guides"><path class="line" d="M296.200000 257.000000 L193.279549 36.428142"/><text class="" x="187.26899489163478" y="23.54674549483093" transform="rotate(-22.040816 187.268995 23.546745)">18</text><title>1.955481142</title></g><g class="guides"><path class="line" d="M296.200000 257.000000 L161.616168 49.658419"/><text class="" x="153.756471874505" y="37.549671179483084" transform="rotate(-29.387755 153.756472 37.549671)">19</text><title>2.083709413</title></g><g class="guides"><path class="line" d="M296.200000 257.000000 L132.162649 66.293240"/><text class="" x="122.58286765113176" y="55.15596519633635" transform="rotate(-36.734694 122.582868 55.155965)">20</text><title>2.211937685</title></g><g class="guides"><path class="line" d="M296.200000 257.000000 L105.402619 86.059460"/><text class="" x="94.26005194102238" y="76.07653268438634" transform="rotate(-44.081633 94.260052 76.076533)">21</text><title>2.340165956</title></g><g class="guides"><path class="line" d="M296.200000 257.000000 L81.775477 108.632519"/><text class="" x="69.25308459511018" y="99.9678585038593" transform="rotate(-51.428571 69.253085 99.967859)">22</text><title>2.468394228</title></g><g class="guides"><path class="line" d="M296.200000 257.000000 L61.669179 133.641768"/><text class="" x="47.972579325860146" y="126.43764774531121" transform="rotate(-58.775510 47.972579 126.437648)">23</text><title>2.596622499</title></g><g class="guides"><path class="line" d="M296.200000 257.000000 L45.413871 160.676556"/><text class="" x="30.76796144146203" y="155.05126720119387" transform="rotate(-66.122449 30.767961 155.051267)">00</text><title>2.724850771</title></g><g class="guides"><path class="line" d="M296.200000 257.000000 L33.276465 189.292972"/><text class="" x="17.92173029193032" y="185.33888203110808" transform="rotate(-73.469388 17.921730 185.338882)">01</text><title>2.853079043</title></g><g class="guides"><path class="line" d="M296.200000 257.000000 L25.456255 219.021136"/><text class="" x="9.644820637587069" y="216.80317043689297" transform="rotate(-80.816327 9.644821 216.803170)">02</text><title>2.981307314</title></g><g class="guides"><path class="line" d="M296.200000 257.000000 L22.081651 249.372912"/><text class="" x="6.073139106129126" y="248.92748967280295" transform="rotate(-88.163265 6.073139 248.927490)">03</text><title>3.109535586</title></g><g class="guides"><path class="line" d="M296.200000 257.000000 L23.208062 279.849924"/><text class="" x="7.265332609558525" y="281.1843593051086" transform="rotate(-275.510204 7.265333 281.184359)">04</text><title>3.237763857</title></g><g class="guides"><path class="line" d="M296.200000 257.000000 L28.816993 309.951741"/><text class="" x="13.201825363508927" y="313.0441224262373" transform="rotate(-282.857143 13.201825 313.044122)">05</text><title>3.365992129</title></g><g class="guides"><path class="line" d="M296.200000 257.000000 L38.816346 339.184092"/><text class="" x="23.785140321083723" y="343.98364260655046" transform="rotate(-290.204082 23.785140 343.983643)">06</text><title>3.4942204</title></g><g class="guides"><path class="line" d="M296.200000 257.000000 L53.041931 367.066982"/><text class="" x="38.841499743270965" y="373.4948937800567" transform="rotate(-297.551020 38.841500 373.494894)">07</text><title>3.622448672</title></g><g class="guides"><path class="line" d="M296.200000 257.000000 L71.260165 393.142576"/><text class="" x="58.123678624613945" y="401.09330201836957" transform="rotate(-304.897959 58.123679 401.093302)">08</text><title>3.750676944</title></g><g class="guides"><path class="line" d="M296.200000 257.000000 L93.171905 416.982712"/><text class="" x="81.31506412096562" y="426.3257022212152" transform="rotate(-312.244898 81.315064 426.325702)">09</text><title>3.878905215</title></g><g class="guides"><path class="line" d="M296.200000 257.000000 L118.417360 438.195936"/><text class="" x="108.0348543236362" y="448.77777907485006" transform="rotate(-319.591837 108.034854 448.777779)">10</text><title>4.007133487</title></g><g class="guides"><path class="line" d="M296.200000 257.000000 L146.582002 456.433929"/><text class="" x="137.8443110162066" y="468.08087009805894" transform="rotate(-326.938776 137.844311 468.080870)">11</text><title>4.135361758</title></g><g class="guides"><path class="line" d="M296.200000 257.000000 L177.203367 471.397221"/><text class="" x="170.25396374391164" y="483.91801906990327" transform="rotate(-334.285714 170.253964 483.918019)">12</text><title>4.26359003</title></g><g class="guides"><path class="line" d="M296.200000 257.000000 L209.778654 482.840118"/><text class="" x="204.73164690497526" y="496.02918044210696" transform="rotate(-341.632653 204.731647 496.029180)">13</text><title>4.391818301</title></g><g class="guides"><path class="line" d="M296.200000 257.000000 L243.772976 490.574725"/><text class="" x="240.71123789508036" y="504.2154892797697" transform="rotate(-348.979592 240.711238 504.215489)">14</text><title>4.520046573</title></g><g class="guides"><path class="line" d="M296.200000 257.000000 L278.628149 494.474043"/><text class="" x="277.6019528248786" y="508.3425266180997" transform="rotate(-356.326531 277.601953 508.342527)">15</text><title>4.648274845</title></g><g class="guides"><path class="line" d="M296.200000 257.000000 L313.771851 494.474043"/><text class="" x="314.79804717512127" y="508.3425266180997" transform="rotate(-363.673469 314.798047 508.342527)">16</text><title>4.776503116</title></g><g class="guides"><path class="line" d="M296.200000 257.000000 L348.627024 490.574725"/><text class="" x="351.6887621049193" y="504.2154892797698" transform="rotate(-371.020408 351.688762 504.215489)">17</text><title>4.904731388</title></g><g class="guides"><path class="line" d="M296.200000 257.000000 L382.621346 482.840118"/><text class="" x="387.6683530950244" y="496.0291804421071" transform="rotate(-378.367347 387.668353 496.029180)">18</text><title>5.032959659</title></g><g class="guides"><path class="line" d="M296.200000 257.000000 L415.196633 471.397221"/><text class="" x="422.1460362560883" y="483.9180190699033" transform="rotate(-385.714286 422.146036 483.918019)">19</text><title>5.161187931</title></g><g class="guides"><path class="line" d="M296.200000 257.000000 L445.817998 456.433929"/><text class="" x="454.555688983793" y="468.0808700980591" transform="rotate(-393.061224 454.555689 468.080870)">20</text><title>5.289416202</title></g><g class="guides"><path class="line" d="M296.200000 257.000000 L473.982640 438.195936"/><text class="" x="484.36514567636345" y="448.7777790748503" transform="rotate(-400.408163 484.365146 448.777779)">21</text><title>5.417644474</title></g><g class="guides"><path class="line" d="M296.200000 257.000000 L499.228095 416.982712"/><text class="" x="511.0849358790343" y="426.32570222121524" transform="rotate(-407.755102 511.084936 426.325702)">22</text><title>5.545872746</title></g><g class="guides"><path class="line" d="M296.200000 257.000000 L521.139835 393.142576"/><text class="" x="534.2763213753859" y="401.09330201836974" transform="rotate(-415.102041 534.276321 401.093302)">23</text><title>5.674101017</title></g><g class="guides"><path class="line" d="M296.200000 257.000000 L539.358069 367.066982"/><text class="" x="553.558500256729" y="373.4948937800568" transform="rotate(-422.448980 553.558500 373.494894)">00</text><title>5.802329289</title></g><g class="guides"><path class="line" d="M296.200000 257.000000 L553.583654 339.184092"/><text class="" x="568.6148596789161" y="343.9836426065507" transform="rotate(-429.795918 568.614860 343.983643)">01</text><title>5.93055756</title></g><g class="guides"><path class="line" d="M296.200000 257.000000 L563.583007 309.951741"/><text class="" x="579.198174636491" y="313.04412242623744" transform="rotate(-437.142857 579.198175 313.044122)">02</text><title>6.058785832</title></g><g class="guides"><path class="line" d="M296.200000 257.000000 L569.191938 279.849924"/><text class="" x="585.1346673904415" y="281.18435930510896" transform="rotate(-444.489796 585.134667 281.184359)">03</text><title>6.187014103</title></g><g class="guides"><path class="line" d="M296.200000 257.000000 L570.318349 249.372912"/><text class="" x="586.3268608938708" y="248.927489672803" transform="rotate(-271.836735 586.326861 248.927490)">04</text><title>6.315242375</title></g><g class="guides"><path class="line" d="M296.200000 257.000000 L566.943745 219.021136"/><text class="" x="582.755179362413" y="216.8031704368933" transform="rotate(-279.183673 582.755179 216.803170)">05</text><title>6.443470647</title></g><g class="guides"><path class="line" d="M296.200000 257.000000 L559.123535 189.292972"/><text class="" x="574.4782697080698" y="185.33888203110826" transform="rotate(-286.530612 574.478270 185.338882)">06</text><title>6.571698918</title></g><g class="guides"><path class="line" d="M296.200000 257.000000 L546.986129 160.676556"/><text class="" x="561.632038558538" y="155.0512672011941" transform="rotate(-293.877551 561.632039 155.051267)">07</text><title>6.69992719</title></g><g class="guides"><path class="line" d="M296.200000 257.000000 L530.730821 133.641768"/><text class="" x="544.42742067414" y="126.43764774531127" transform="rotate(-301.224490 544.427421 126.437648)">08</text><title>6.828155461</title></g><g class="guides"><path class="line" d="M296.200000 257.000000 L510.624523 108.632519"/><text class="" x="523.1469154048898" y="99.96785850385942" transform="rotate(-308.571429 523.146915 99.967859)">09</text><title>6.956383733</title></g><g class="guides"><path class="line" d="M296.200000 257.000000 L486.997381 86.059460"/><text class="" x="498.1399480589778" y="76.07653268438645" transform="rotate(-315.918367 498.139948 76.076533)">10</text><title>7.084612005</title></g><g class="guides"><path class="line" d="M296.200000 257.000000 L460.237351 66.293240"/><text class="" x="469.81713234886826" y="55.15596519633647" transform="rotate(-323.265306 469.817132 55.155965)">11</text><title>7.212840276</title></g><g class="guides"><path class="line" d="M296.200000 257.000000 L430.783832 49.658419"/><text class="" x="438.6435281254953" y="37.54967117948331" transform="rotate(-330.612245 438.643528 37.549671)">12</text><title>7.341068548</title></g><g class="guides"><path class="line" d="M296.200000 257.000000 L399.120451 36.428142"/><text class="" x="405.13100510836534" y="23.546745494831043" transform="rotate(-337.959184 405.131005 23.546745)">13</text><title>7.469296819</title></g><g class="guides"><path class="line" d="M296.200000 257.000000 L365.767118 26.819648"/><text class="" x="369.8298379989165" y="13.377115794990232" transform="rotate(-345.306122 369.829838 13.377116)">14</text><title>7.597525091</title></g><g class="guides"><path class="line" d="M296.200000 257.000000 L331.271496 20.990710"/><text class="" x="333.31967098513184" y="7.207767118477193" transform="rotate(-352.653061 333.319671 7.207767)">15</text><title>7.725753362</title></g></g><g class="series serie-0 color-0"><path class="line reactive nofill" d="M296.200000 91.825708 L271.993791 94.107313 247.093799 94.519752 218.303345 90.057378 184.310696 84.621902 149.531310 86.485720 120.367119 99.466561 95.229564 117.941851 74.545381 140.414377 53.281671 163.698468 36.369683 190.089526 25.456255 219.021136 22.081651 249.372912 26.419732 279.581101 35.108358 308.705817 50.928518 335.316605 71.159591 358.865913 92.430973 380.329157 115.465186 399.415983 140.727339 415.457623 166.531068 429.842738 192.602931 443.651699 220.623685 454.499397 250.146457 462.179367 280.695426 466.535920 311.704574 466.535920 342.664735 464.011325 372.793036 457.156339 401.663682 447.014792 428.215881 432.971114 449.581101 413.325906 464.991985 390.005235 477.916102 366.981845 490.726455 345.053586 500.088228 322.102692 503.815041 298.115469 499.605758 274.025433 489.695305 251.616173 478.819310 231.382884 466.326993 213.189570 452.572527 196.939500 439.677679 181.533788 418.127670 172.634178 392.721028 170.524198 374.680615 165.759903 364.811365 151.296449 354.723394 131.576787 339.577144 113.475781 319.168391 102.437053 Z"/></g></g><g class="titles"><text class="title plot_title" x="400.0" y="26">Daily Wind bearing</text></g><g class="plot overlay" transform="translate(187, 46)"><g class="series serie-0 color-0"><g class="dots"><circle class="dot reactive tooltip-trigger" cx="296.2" cy="91.82570806100216" r="2.5"/><desc class="value">177</desc><desc class="x ">296.2</desc><desc class="y ">91.82570806100216</desc><desc class="x_label">15</desc></g><g class="dots"><circle class="dot reactive tooltip-trigger" cx="271.99379124470835" cy="94.10731334330762" r="2.5"/><desc class="value">176</desc><desc class="x ">271.99379124470835</desc><desc class="y ">94.10731334330762</desc><desc class="x_label">16</desc></g><g class="dots"><circle class="dot reactive tooltip-trigger" cx="247.09379885359738" cy="94.51975176403226" r="2.5"/><desc class="value">180</desc><desc class="x ">247.09379885359738</desc><desc class="y ">94.51975176403226</desc><desc class="x_label">17</desc></g><g class="dots"><circle class="dot reactive tooltip-trigger" cx="218.30334509390983" cy="90.0573780641974" r="2.5"/><desc class="value">193</desc><desc class="x ">218.30334509390983</desc><desc class="y ">90.0573780641974</desc><desc class="x_label">18</desc></g><g class="dots"><circle class="dot reactive tooltip-trigger" cx="184.31069626885963" cy="84.62190168678734" r="2.5"/><desc class="value">212</desc><desc class="x ">184.31069626885963</desc><desc class="y ">84.62190168678734</desc><desc class="x_label">19</desc></g><g class="dots"><circle class="dot reactive tooltip-trigger" cx="149.53130965148299" cy="86.4857204539768" r="2.5"/><desc class="value">228</desc><desc class="x ">149.53130965148299</desc><desc class="y ">86.4857204539768</desc><desc class="x_label">20</desc></g><g class="dots"><circle class="dot reactive tooltip-trigger" cx="120.36711946311952" cy="99.46656136836509" r="2.5"/><desc class="value">235</desc><desc class="x ">120.36711946311952</desc><desc class="y ">99.46656136836509</desc><desc class="x_label">21</desc></g><g class="dots"><circle class="dot reactive tooltip-trigger" cx="95.22956448591042" cy="117.94185149030864" r="2.5"/><desc class="value">239</desc><desc class="x ">95.22956448591042</desc><desc class="y ">117.94185149030864</desc><desc class="x_label">22</desc></g><g class="dots"><circle class="dot reactive tooltip-trigger" cx="74.54538118036955" cy="140.41437725690264" r="2.5"/><desc class="value">241</desc><desc class="x ">74.54538118036955</desc><desc class="y ">140.41437725690264</desc><desc class="x_label">23</desc></g><g class="dots"><circle class="dot reactive tooltip-trigger" cx="53.28167146873979" cy="163.69846827136365" r="2.5"/><desc class="value">247</desc><desc class="x ">53.28167146873979</desc><desc class="y ">163.69846827136365</desc><desc class="x_label">00</desc></g><g class="dots"><circle class="dot reactive tooltip-trigger" cx="36.36968281225983" cy="190.0895257059833" r="2.5"/><desc class="value">252</desc><desc class="x ">36.36968281225983</desc><desc class="y ">190.0895257059833</desc><desc class="x_label">01</desc></g><g class="dots"><circle class="dot reactive tooltip-trigger" cx="25.4562553265184" cy="219.02113608927914" r="2.5"/><desc class="value">255</desc><desc class="x ">25.4562553265184</desc><desc class="y ">219.02113608927914</desc><desc class="x_label">02</desc></g><g class="dots"><circle class="dot reactive tooltip-trigger" cx="22.08165070495947" cy="249.37291163341166" r="2.5"/><desc class="value">255</desc><desc class="x ">22.08165070495947</desc><desc class="y ">249.37291163341166</desc><desc class="x_label">03</desc></g><g class="dots"><circle class="dot reactive tooltip-trigger" cx="26.419731661585892" cy="279.5811011252181" r="2.5"/><desc class="value">252</desc><desc class="x top">26.419731661585892</desc><desc class="y top">279.5811011252181</desc><desc class="x_label">04</desc></g><g class="dots"><circle class="dot reactive tooltip-trigger" cx="35.10835784504071" cy="308.70581745340024" r="2.5"/><desc class="value">249</desc><desc class="x top">35.10835784504071</desc><desc class="y top">308.70581745340024</desc><desc class="x_label">05</desc></g><g class="dots"><circle class="dot reactive tooltip-trigger" cx="50.92851769605375" cy="335.3166049878906" r="2.5"/><desc class="value">243</desc><desc class="x top">50.92851769605375</desc><desc class="y top">335.3166049878906</desc><desc class="x_label">06</desc></g><g class="dots"><circle class="dot reactive tooltip-trigger" cx="71.15959101941498" cy="358.86591278027277" r="2.5"/><desc class="value">236</desc><desc class="x top">71.15959101941498</desc><desc class="y top">358.86591278027277</desc><desc class="x_label">07</desc></g><g class="dots"><circle class="dot reactive tooltip-trigger" cx="92.43097299025472" cy="380.3291567228498" r="2.5"/><desc class="value">231</desc><desc class="x top">92.43097299025472</desc><desc class="y top">380.3291567228498</desc><desc class="x_label">08</desc></g><g class="dots"><circle class="dot reactive tooltip-trigger" cx="115.46518590939782" cy="399.41598270499253" r="2.5"/><desc class="value">227</desc><desc class="x top">115.46518590939782</desc><desc class="y top">399.41598270499253</desc><desc class="x_label">09</desc></g><g class="dots"><circle class="dot reactive tooltip-trigger" cx="140.7273387657688" cy="415.4576228035346" r="2.5"/><desc class="value">223</desc><desc class="x top">140.7273387657688</desc><desc class="y top">415.4576228035346</desc><desc class="x_label">10</desc></g><g class="dots"><circle class="dot reactive tooltip-trigger" cx="166.53106848139873" cy="429.84273817553327" r="2.5"/><desc class="value">221</desc><desc class="x top">166.53106848139873</desc><desc class="y top">429.84273817553327</desc><desc class="x_label">11</desc></g><g class="dots"><circle class="dot reactive tooltip-trigger" cx="192.60293136198322" cy="443.651698581353" r="2.5"/><desc class="value">222</desc><desc class="x top">192.60293136198322</desc><desc class="y top">443.651698581353</desc><desc class="x_label">12</desc></g><g class="dots"><circle class="dot reactive tooltip-trigger" cx="220.62368525117262" cy="454.49939693873796" r="2.5"/><desc class="value">223</desc><desc class="x top">220.62368525117262</desc><desc class="y top">454.49939693873796</desc><desc class="x_label">13</desc></g><g class="dots"><circle class="dot reactive tooltip-trigger" cx="250.1464574292606" cy="462.1793665565056" r="2.5"/><desc class="value">224</desc><desc class="x top">250.1464574292606</desc><desc class="y top">462.1793665565056</desc><desc class="x_label">14</desc></g><g class="dots"><circle class="dot reactive tooltip-trigger" cx="280.6954255242752" cy="466.53591988303634" r="2.5"/><desc class="value">225</desc><desc class="x top">280.6954255242752</desc><desc class="y top">466.53591988303634</desc><desc class="x_label">15</desc></g><g class="dots"><circle class="dot reactive tooltip-trigger" cx="311.70457447572466" cy="466.53591988303634" r="2.5"/><desc class="value">225</desc><desc class="x left top">311.70457447572466</desc><desc class="y left top">466.53591988303634</desc><desc class="x_label">16</desc></g><g class="dots"><circle class="dot reactive tooltip-trigger" cx="342.6647349151207" cy="464.0113251864745" r="2.5"/><desc class="value">226</desc><desc class="x left top">342.6647349151207</desc><desc class="y left top">464.0113251864745</desc><desc class="x_label">17</desc></g><g class="dots"><circle class="dot reactive tooltip-trigger" cx="372.79303647190545" cy="457.156339498452" r="2.5"/><desc class="value">226</desc><desc class="x left top">372.79303647190545</desc><desc class="y left top">457.156339498452</desc><desc class="x_label">18</desc></g><g class="dots"><circle class="dot reactive tooltip-trigger" cx="401.66368248735034" cy="447.0147922494856" r="2.5"/><desc class="value">226</desc><desc class="x left top">401.66368248735034</desc><desc class="y left top">447.0147922494856</desc><desc class="x_label">19</desc></g><g class="dots"><circle class="dot reactive tooltip-trigger" cx="428.215880505363" cy="432.97111352712676" r="2.5"/><desc class="value">225</desc><desc class="x left top">428.215880505363</desc><desc class="y left top">432.97111352712676</desc><desc class="x_label">20</desc></g><g class="dots"><circle class="dot reactive tooltip-trigger" cx="449.5811007691965" cy="413.32590590483255" r="2.5"/><desc class="value">220</desc><desc class="x left top">449.5811007691965</desc><desc class="y left top">413.32590590483255</desc><desc class="x_label">21</desc></g><g class="dots"><circle class="dot reactive tooltip-trigger" cx="464.99198496567243" cy="390.0052349491561" r="2.5"/><desc class="value">212</desc><desc class="x left top">464.99198496567243</desc><desc class="y left top">390.0052349491561</desc><desc class="x_label">22</desc></g><g class="dots"><circle class="dot reactive tooltip-trigger" cx="477.9161020086905" cy="366.98184538920816" r="2.5"/><desc class="value">206</desc><desc class="x left top">477.9161020086905</desc><desc class="y left top">366.98184538920816</desc><desc class="x_label">23</desc></g><g class="dots"><circle class="dot reactive tooltip-trigger" cx="490.7264552205056" cy="345.05358562362574" r="2.5"/><desc class="value">204</desc><desc class="x left top">490.7264552205056</desc><desc class="y left top">345.05358562362574</desc><desc class="x_label">00</desc></g><g class="dots"><circle class="dot reactive tooltip-trigger" cx="500.08822808805405" cy="322.1026922121561" r="2.5"/><desc class="value">202</desc><desc class="x left top">500.08822808805405</desc><desc class="y left top">322.1026922121561</desc><desc class="x_label">01</desc></g><g class="dots"><circle class="dot reactive tooltip-trigger" cx="503.8150407497266" cy="298.1154693002942" r="2.5"/><desc class="value">198</desc><desc class="x left top">503.8150407497266</desc><desc class="y left top">298.1154693002942</desc><desc class="x_label">02</desc></g><g class="dots"><circle class="dot reactive tooltip-trigger" cx="499.60575787420106" cy="274.02543338806146" r="2.5"/><desc class="value">190</desc><desc class="x left top">499.60575787420106</desc><desc class="y left top">274.02543338806146</desc><desc class="x_label">03</desc></g><g class="dots"><circle class="dot reactive tooltip-trigger" cx="489.6953053847345" cy="251.61617291770244" r="2.5"/><desc class="value">180</desc><desc class="x left">489.6953053847345</desc><desc class="y left">251.61617291770244</desc><desc class="x_label">04</desc></g><g class="dots"><circle class="dot reactive tooltip-trigger" cx="478.81931013270133" cy="231.38288395041593" r="2.5"/><desc class="value">172</desc><desc class="x left">478.81931013270133</desc><desc class="y left">231.38288395041593</desc><desc class="x_label">05</desc></g><g class="dots"><circle class="dot reactive tooltip-trigger" cx="466.3269933967347" cy="213.18957040272727" r="2.5"/><desc class="value">165</desc><desc class="x left">466.3269933967347</desc><desc class="y left">213.18957040272727</desc><desc class="x_label">06</desc></g><g class="dots"><circle class="dot reactive tooltip-trigger" cx="452.5725272731595" cy="196.93949981840836" r="2.5"/><desc class="value">159</desc><desc class="x left">452.5725272731595</desc><desc class="y left">196.93949981840836</desc><desc class="x_label">07</desc></g><g class="dots"><circle class="dot reactive tooltip-trigger" cx="439.6776785720431" cy="181.5337877679537" r="2.5"/><desc class="value">156</desc><desc class="x left">439.6776785720431</desc><desc class="y left">181.5337877679537</desc><desc class="x_label">08</desc></g><g class="dots"><circle class="dot reactive tooltip-trigger" cx="418.12767008176985" cy="172.63417768240487" r="2.5"/><desc class="value">145</desc><desc class="x left">418.12767008176985</desc><desc class="y left">172.63417768240487</desc><desc class="x_label">09</desc></g><g class="dots"><circle class="dot reactive tooltip-trigger" cx="392.721028039394" cy="170.5241975171026" r="2.5"/><desc class="value">129</desc><desc class="x left">392.721028039394</desc><desc class="y left">170.5241975171026</desc><desc class="x_label">10</desc></g><g class="dots"><circle class="dot reactive tooltip-trigger" cx="374.6806150110486" cy="165.75990304993502" r="2.5"/><desc class="value">122</desc><desc class="x left">374.6806150110486</desc><desc class="y left">165.75990304993502</desc><desc class="x_label">11</desc></g><g class="dots"><circle class="dot reactive tooltip-trigger" cx="364.8113654955108" cy="151.29644914755835" r="2.5"/><desc class="value">130</desc><desc class="x left">364.8113654955108</desc><desc class="y left">151.29644914755835</desc><desc class="x_label">12</desc></g><g class="dots"><circle class="dot reactive tooltip-trigger" cx="354.7233935822958" cy="131.57678662854215" r="2.5"/><desc class="value">145</desc><desc class="x left">354.7233935822958</desc><desc class="y left">131.57678662854215</desc><desc class="x_label">13</desc></g><g class="dots"><circle class="dot reactive tooltip-trigger" cx="339.57714434598915" cy="113.47578072489529" r="2.5"/><desc class="value">159</desc><desc class="x left">339.57714434598915</desc><desc class="y left">113.47578072489529</desc><desc class="x_label">14</desc></g><g class="dots"><circle class="dot reactive tooltip-trigger" cx="319.1683912621234" cy="102.4370530018885" r="2.5"/><desc class="value">167</desc><desc class="x left">319.1683912621234</desc><desc class="y left">102.4370530018885</desc><desc class="x_label">15</desc></g></g></g><g class="plot text-overlay" transform="translate(187, 46)"><g class="series serie-0 color-0"/></g><g class="plot tooltip-overlay" transform="translate(187, 46)"><g class="tooltip" style="opacity: 0" transform="translate(0 0)"><rect class="tooltip-box" height="0" rx="0" ry="0" width="0"/><g class="text"/></g></g><g class="legends" transform="translate(10, 56)"><g class="legend reactive activate-serie" id="activate-serie-0"><rect class="color-0 reactive" height="12" width="12" x="0.0" y="1.0"/><text x="17.0" y="11.2">Wind direction</text></g></g><g class="legends" transform="translate(790, 56)"/></g></svg>